<?xml version="1.0" encoding="UTF-8" standalone="no"?>
<!DOCTYPE svg PUBLIC "-//W3C//DTD SVG 1.1//EN"
 "http://www.w3.org/Graphics/SVG/1.1/DTD/svg11.dtd">
<!-- Generated by graphviz version 2.43.0 (0)
 -->
<!-- Title: /home/runner/work/spades/spades/Source/Constants.H Pages: 1 -->
<!--zoomable 390 -->

<svg id="main" version="1.1" xmlns="http://www.w3.org/2000/svg" xmlns:xlink="http://www.w3.org/1999/xlink" xml:space="preserve" onload="init(evt)">

<style type="text/css"><![CDATA[
.node, .edge {opacity: 0.7;}
.node.selected, .edge.selected {opacity: 1;}
.edge:hover path { stroke: red; }
.edge:hover polygon { stroke: red; fill: red; }
]]></style>

<defs>
  <circle id="rim" cx="0" cy="0" r="7"/>
  <circle id="rim2" cx="0" cy="0" r="3.5"/>
  <g id="zoomPlus">
    <use xlink:href="#rim" fill="#404040"><set attributeName="fill" to="#808080" begin="zoomplus.mouseover" end="zoomplus.mouseout"/></use>
    <path d="M-4,0h8M0,-4v8" fill="none" stroke="white" stroke-width="1.5" pointer-events="none"/>
  </g>
  <g id="zoomMin">
    <use xlink:href="#rim" fill="#404040"><set attributeName="fill" to="#808080" begin="zoomminus.mouseover" end="zoomminus.mouseout"/></use>
    <path d="M-4,0h8" fill="none" stroke="white" stroke-width="1.5" pointer-events="none"/>
  </g>
  <g id="arrowUp" transform="translate(30 24)">
    <use xlink:href="#rim"/>
    <path pointer-events="none" fill="none" stroke="white" stroke-width="1.5" d="M0,-3.0v7 M-2.5,-0.5L0,-3.0L2.5,-0.5"/>
  </g>
  <g id="arrowRight" transform="rotate(90) translate(36 -43)">
    <use xlink:href="#rim"/>
    <path pointer-events="none" fill="none" stroke="white" stroke-width="1.5" d="M0,-3.0v7 M-2.5,-0.5L0,-3.0L2.5,-0.5"/>
  </g>
  <g id="arrowDown" transform="rotate(180) translate(-30 -48)">
    <use xlink:href="#rim"/>
    <path pointer-events="none" fill="none" stroke="white" stroke-width="1.5" d="M0,-3.0v7 M-2.5,-0.5L0,-3.0L2.5,-0.5"/>
  </g>
  <g id="arrowLeft" transform="rotate(270) translate(-36 17)">
    <use xlink:href="#rim"/>
    <path pointer-events="none" fill="none" stroke="white" stroke-width="1.5" d="M0,-3.0v7 M-2.5,-0.5L0,-3.0L2.5,-0.5"/>
  </g>
  <g id="resetDef">
    <use xlink:href="#rim2" fill="#404040"><set attributeName="fill" to="#808080" begin="reset.mouseover" end="reset.mouseout"/></use>
  </g>
</defs>
<script type="application/ecmascript">
var viewWidth = 720;
var viewHeight = 390;
var sectionId = 'dynsection-1';
</script>
<script type="application/ecmascript" xlink:href="svg.min.js"/>
<svg id="graph" class="graph">
<g id="viewport">
<title>/home/runner/work/spades/spades/Source/Constants.H</title>
<!-- Node1 -->
<g id="Node000001" class="node">
<title>Node1</title>
<g id="a_Node000001"><a xlink:title=" ">
<polygon fill="#999999" stroke="#666666" points="483.08,-382 331.08,-382 331.08,-352 483.08,-352 483.08,-382"/>
<text text-anchor="start" x="339.08" y="-370" font-family="Helvetica,sans-Serif" font-size="10.00">/home/runner/work/spades</text>
<text text-anchor="middle" x="407.08" y="-359" font-family="Helvetica,sans-Serif" font-size="10.00">/spades/Source/Constants.H</text>
</a>
</g>
</g>
<!-- Node2 -->
<g id="Node000002" class="node">
<title>Node2</title>
<g id="a_Node000002"><a xlink:href="_s_p_a_d_e_s_8_h.html" target="_top" xlink:title=" ">
<polygon fill="white" stroke="#666666" points="247.08,-101.5 101.08,-101.5 101.08,-71.5 247.08,-71.5 247.08,-101.5"/>
<text text-anchor="start" x="109.08" y="-89.5" font-family="Helvetica,sans-Serif" font-size="10.00">/home/runner/work/spades</text>
<text text-anchor="middle" x="174.08" y="-78.5" font-family="Helvetica,sans-Serif" font-size="10.00">/spades/Source/SPADES.H</text>
</a>
</g>
</g>
<!-- Node1&#45;&gt;Node2 -->
<g id="edge1_Node000001_Node000002" class="edge">
<title>Node1&#45;&gt;Node2</title>
<g id="a_edge1_Node000001_Node000002"><a xlink:title=" ">
<path fill="none" stroke="#63b8ff" d="M320.78,-353.08C215.38,-335.34 46.47,-299.85 9.08,-250 -5.65,-230.37 -1.55,-169.57 20.08,-143 40,-118.54 71.6,-104.86 101,-97.2"/>
<polygon fill="#63b8ff" stroke="#63b8ff" points="320.33,-356.56 330.77,-354.74 321.48,-349.65 320.33,-356.56"/>
</a>
</g>
</g>
<!-- Node4 -->
<g id="Node000004" class="node">
<title>Node4</title>
<g id="a_Node000004"><a xlink:href="main_8cpp.html" target="_top" xlink:title=" ">
<polygon fill="white" stroke="#666666" points="598.08,-30 452.08,-30 452.08,0 598.08,0 598.08,-30"/>
<text text-anchor="start" x="460.08" y="-18" font-family="Helvetica,sans-Serif" font-size="10.00">/home/runner/work/spades</text>
<text text-anchor="middle" x="525.08" y="-7" font-family="Helvetica,sans-Serif" font-size="10.00">/spades/Source/main.cpp</text>
</a>
</g>
</g>
<!-- Node1&#45;&gt;Node4 -->
<g id="edge20_Node000001_Node000004" class="edge">
<title>Node1&#45;&gt;Node4</title>
<g id="a_edge20_Node000001_Node000004"><a xlink:title=" ">
<path fill="none" stroke="#63b8ff" d="M493.43,-364.18C582.68,-357.16 709.08,-330.54 709.08,-236 709.08,-236 709.08,-236 709.08,-162.5 709.08,-118.79 719.41,-98.41 690.08,-66 666.78,-40.25 630.72,-27.57 598.25,-21.41"/>
<polygon fill="#63b8ff" stroke="#63b8ff" points="493.01,-360.7 483.29,-364.91 493.51,-367.68 493.01,-360.7"/>
</a>
</g>
</g>
<!-- Node5 -->
<g id="Node000005" class="node">
<title>Node5</title>
<g id="a_Node000005"><a xlink:href="_utilities_8_h.html" target="_top" xlink:title=" ">
<polygon fill="white" stroke="#666666" points="480.08,-316 334.08,-316 334.08,-286 480.08,-286 480.08,-316"/>
<text text-anchor="start" x="342.08" y="-304" font-family="Helvetica,sans-Serif" font-size="10.00">/home/runner/work/spades</text>
<text text-anchor="middle" x="407.08" y="-293" font-family="Helvetica,sans-Serif" font-size="10.00">/spades/Source/Utilities.H</text>
</a>
</g>
</g>
<!-- Node1&#45;&gt;Node5 -->
<g id="edge4_Node000001_Node000005" class="edge">
<title>Node1&#45;&gt;Node5</title>
<g id="a_edge4_Node000001_Node000005"><a xlink:title=" ">
<path fill="none" stroke="#63b8ff" d="M407.08,-341.54C407.08,-332.96 407.08,-323.61 407.08,-316.16"/>
<polygon fill="#63b8ff" stroke="#63b8ff" points="403.58,-341.8 407.08,-351.8 410.58,-341.8 403.58,-341.8"/>
</a>
</g>
</g>
<!-- Node3 -->
<g id="Node000003" class="node">
<title>Node3</title>
<g id="a_Node000003"><a xlink:href="_s_p_a_d_e_s_8cpp.html" target="_top" xlink:title=" ">
<polygon fill="white" stroke="#666666" points="249.58,-30 98.58,-30 98.58,0 249.58,0 249.58,-30"/>
<text text-anchor="start" x="106.58" y="-18" font-family="Helvetica,sans-Serif" font-size="10.00">/home/runner/work/spades</text>
<text text-anchor="middle" x="174.08" y="-7" font-family="Helvetica,sans-Serif" font-size="10.00">/spades/Source/SPADES.cpp</text>
</a>
</g>
</g>
<!-- Node2&#45;&gt;Node3 -->
<g id="edge2_Node000002_Node000003" class="edge">
<title>Node2&#45;&gt;Node3</title>
<g id="a_edge2_Node000002_Node000003"><a xlink:title=" ">
<path fill="none" stroke="#63b8ff" d="M174.08,-61.25C174.08,-50.81 174.08,-38.99 174.08,-30.04"/>
<polygon fill="#63b8ff" stroke="#63b8ff" points="170.58,-61.44 174.08,-71.44 177.58,-61.44 170.58,-61.44"/>
</a>
</g>
</g>
<!-- Node2&#45;&gt;Node4 -->
<g id="edge3_Node000002_Node000004" class="edge">
<title>Node2&#45;&gt;Node4</title>
<g id="a_edge3_Node000002_Node000004"><a xlink:title=" ">
<path fill="none" stroke="#63b8ff" d="M242.57,-69.15C247.48,-68.06 252.35,-67 257.08,-66 322.73,-52.17 397.85,-38.33 451.82,-28.72"/>
<polygon fill="#63b8ff" stroke="#63b8ff" points="241.48,-65.8 232.5,-71.42 243.02,-72.63 241.48,-65.8"/>
</a>
</g>
</g>
<!-- Node5&#45;&gt;Node2 -->
<g id="edge14_Node000005_Node000002" class="edge">
<title>Node5&#45;&gt;Node2</title>
<g id="a_edge14_Node000005_Node000002"><a xlink:title=" ">
<path fill="none" stroke="#63b8ff" d="M323.88,-294.99C216.41,-287.65 40.74,-272.37 21.08,-250 -1.85,-223.9 28.34,-165.23 49.08,-143 67.55,-123.21 94.35,-110.04 118.41,-101.52"/>
<polygon fill="#63b8ff" stroke="#63b8ff" points="323.84,-298.49 334.05,-295.67 324.31,-291.51 323.84,-298.49"/>
</a>
</g>
</g>
<!-- Node6 -->
<g id="Node000006" class="node">
<title>Node6</title>
<g id="a_Node000006"><a xlink:href="_entity_particle_container_8_h.html" target="_top" xlink:title=" ">
<polygon fill="white" stroke="#666666" points="676.58,-178.5 461.58,-178.5 461.58,-148.5 676.58,-148.5 676.58,-178.5"/>
<text text-anchor="start" x="469.58" y="-166.5" font-family="Helvetica,sans-Serif" font-size="10.00">/home/runner/work/spades</text>
<text text-anchor="middle" x="569.08" y="-155.5" font-family="Helvetica,sans-Serif" font-size="10.00">/spades/Source/EntityParticleContainer.H</text>
</a>
</g>
</g>
<!-- Node5&#45;&gt;Node6 -->
<g id="edge5_Node000005_Node000006" class="edge">
<title>Node5&#45;&gt;Node6</title>
<g id="a_edge5_Node000005_Node000006"><a xlink:title=" ">
<path fill="none" stroke="#63b8ff" d="M490.05,-290.34C540.29,-282.59 597.59,-269.7 613.08,-250 630.83,-227.43 604.86,-196.59 585.91,-178.78"/>
<polygon fill="#63b8ff" stroke="#63b8ff" points="489.48,-286.88 480.11,-291.82 490.51,-293.81 489.48,-286.88"/>
</a>
</g>
</g>
<!-- Node8 -->
<g id="Node000008" class="node">
<title>Node8</title>
<g id="a_Node000008"><a xlink:href="_i_c_8_h.html" target="_top" xlink:title=" ">
<polygon fill="white" stroke="#666666" points="176.08,-250 30.08,-250 30.08,-220 176.08,-220 176.08,-250"/>
<text text-anchor="start" x="38.08" y="-238" font-family="Helvetica,sans-Serif" font-size="10.00">/home/runner/work/spades</text>
<text text-anchor="middle" x="103.08" y="-227" font-family="Helvetica,sans-Serif" font-size="10.00">/spades/Source/IC.H</text>
</a>
</g>
</g>
<!-- Node5&#45;&gt;Node8 -->
<g id="edge8_Node000005_Node000008" class="edge">
<title>Node5&#45;&gt;Node8</title>
<g id="a_edge8_Node000005_Node000008"><a xlink:title=" ">
<path fill="none" stroke="#63b8ff" d="M330.34,-283.84C280.81,-273.42 217.02,-259.99 169.64,-250.01"/>
<polygon fill="#63b8ff" stroke="#63b8ff" points="329.86,-287.32 340.37,-285.95 331.3,-280.47 329.86,-287.32"/>
</a>
</g>
</g>
<!-- Node10 -->
<g id="Node000010" class="node">
<title>Node10</title>
<g id="a_Node000010"><a xlink:href="_message_particle_container_8_h.html" target="_top" xlink:title=" ">
<polygon fill="white" stroke="#666666" points="443.58,-184 270.58,-184 270.58,-143 443.58,-143 443.58,-184"/>
<text text-anchor="start" x="278.58" y="-172" font-family="Helvetica,sans-Serif" font-size="10.00">/home/runner/work/spades</text>
<text text-anchor="start" x="278.58" y="-161" font-family="Helvetica,sans-Serif" font-size="10.00">/spades/Source/MessageParticle</text>
<text text-anchor="middle" x="357.08" y="-150" font-family="Helvetica,sans-Serif" font-size="10.00">Container.H</text>
</a>
</g>
</g>
<!-- Node5&#45;&gt;Node10 -->
<g id="edge11_Node000005_Node000010" class="edge">
<title>Node5&#45;&gt;Node10</title>
<g id="a_edge11_Node000005_Node000010"><a xlink:title=" ">
<path fill="none" stroke="#63b8ff" d="M490.5,-292.18C555.24,-282.74 628.78,-262.46 595.08,-220 590.15,-213.79 509.81,-195.91 443.82,-182.1"/>
<polygon fill="#63b8ff" stroke="#63b8ff" points="489.63,-288.77 480.2,-293.61 490.59,-295.7 489.63,-288.77"/>
</a>
</g>
</g>
<!-- Node12 -->
<g id="Node000012" class="node">
<title>Node12</title>
<g id="a_Node000012"><a xlink:href="_spades_particle_container_8_h.html" target="_top" xlink:title=" ">
<polygon fill="white" stroke="#666666" points="415.58,-250 194.58,-250 194.58,-220 415.58,-220 415.58,-250"/>
<text text-anchor="start" x="202.58" y="-238" font-family="Helvetica,sans-Serif" font-size="10.00">/home/runner/work/spades</text>
<text text-anchor="middle" x="305.08" y="-227" font-family="Helvetica,sans-Serif" font-size="10.00">/spades/Source/SpadesParticleContainer.H</text>
</a>
</g>
</g>
<!-- Node5&#45;&gt;Node12 -->
<g id="edge15_Node000005_Node000012" class="edge">
<title>Node5&#45;&gt;Node12</title>
<g id="a_edge15_Node000005_Node000012"><a xlink:title=" ">
<path fill="none" stroke="#63b8ff" d="M375.87,-280.42C360.22,-270.6 341.62,-258.93 327.41,-250.01"/>
<polygon fill="#63b8ff" stroke="#63b8ff" points="374.36,-283.6 384.69,-285.95 378.08,-277.68 374.36,-283.6"/>
</a>
</g>
</g>
<!-- Node13 -->
<g id="Node000013" class="node">
<title>Node13</title>
<g id="a_Node000013"><a xlink:href="_utilities_8cpp.html" target="_top" xlink:title=" ">
<polygon fill="white" stroke="#666666" points="586.08,-250 434.08,-250 434.08,-220 586.08,-220 586.08,-250"/>
<text text-anchor="start" x="442.08" y="-238" font-family="Helvetica,sans-Serif" font-size="10.00">/home/runner/work/spades</text>
<text text-anchor="middle" x="510.08" y="-227" font-family="Helvetica,sans-Serif" font-size="10.00">/spades/Source/Utilities.cpp</text>
</a>
</g>
</g>
<!-- Node5&#45;&gt;Node13 -->
<g id="edge19_Node000005_Node000013" class="edge">
<title>Node5&#45;&gt;Node13</title>
<g id="a_edge19_Node000005_Node000013"><a xlink:title=" ">
<path fill="none" stroke="#63b8ff" d="M438.59,-280.42C454.4,-270.6 473.18,-258.93 487.53,-250.01"/>
<polygon fill="#63b8ff" stroke="#63b8ff" points="436.33,-277.7 429.68,-285.95 440.02,-283.65 436.33,-277.7"/>
</a>
</g>
</g>
<!-- Node6&#45;&gt;Node2 -->
<g id="edge7_Node000006_Node000002" class="edge">
<title>Node6&#45;&gt;Node2</title>
<g id="a_edge7_Node000006_Node000002"><a xlink:title=" ">
<path fill="none" stroke="#63b8ff" d="M476.97,-146.69C400.57,-133.47 298.08,-115.46 257.08,-107 248.96,-105.33 240.42,-103.45 232.04,-101.54"/>
<polygon fill="#63b8ff" stroke="#63b8ff" points="476.64,-150.18 487.09,-148.44 477.84,-143.29 476.64,-150.18"/>
</a>
</g>
</g>
<!-- Node7 -->
<g id="Node000007" class="node">
<title>Node7</title>
<g id="a_Node000007"><a xlink:href="_entity_particle_container_8cpp.html" target="_top" xlink:title=" ">
<polygon fill="white" stroke="#666666" points="681.08,-101.5 457.08,-101.5 457.08,-71.5 681.08,-71.5 681.08,-101.5"/>
<text text-anchor="start" x="465.08" y="-89.5" font-family="Helvetica,sans-Serif" font-size="10.00">/home/runner/work/spades</text>
<text text-anchor="middle" x="569.08" y="-78.5" font-family="Helvetica,sans-Serif" font-size="10.00">/spades/Source/EntityParticleContainer.cpp</text>
</a>
</g>
</g>
<!-- Node6&#45;&gt;Node7 -->
<g id="edge6_Node000006_Node000007" class="edge">
<title>Node6&#45;&gt;Node7</title>
<g id="a_edge6_Node000006_Node000007"><a xlink:title=" ">
<path fill="none" stroke="#63b8ff" d="M569.08,-138.04C569.08,-125.95 569.08,-111.79 569.08,-101.54"/>
<polygon fill="#63b8ff" stroke="#63b8ff" points="565.58,-138.39 569.08,-148.39 572.58,-138.39 565.58,-138.39"/>
</a>
</g>
</g>
<!-- Node8&#45;&gt;Node2 -->
<g id="edge10_Node000008_Node000002" class="edge">
<title>Node8&#45;&gt;Node2</title>
<g id="a_edge10_Node000008_Node000002"><a xlink:title=" ">
<path fill="none" stroke="#63b8ff" d="M77.94,-212.36C70.39,-204.31 63.06,-194.55 59.08,-184 52.65,-166.95 49.39,-158.43 59.08,-143 71.69,-122.91 93.85,-109.92 115.37,-101.6"/>
<polygon fill="#63b8ff" stroke="#63b8ff" points="75.89,-215.25 85.45,-219.81 80.81,-210.28 75.89,-215.25"/>
</a>
</g>
</g>
<!-- Node9 -->
<g id="Node000009" class="node">
<title>Node9</title>
<g id="a_Node000009"><a xlink:href="_i_c_8cpp.html" target="_top" xlink:title=" ">
<polygon fill="white" stroke="#666666" points="214.08,-178.5 68.08,-178.5 68.08,-148.5 214.08,-148.5 214.08,-178.5"/>
<text text-anchor="start" x="76.08" y="-166.5" font-family="Helvetica,sans-Serif" font-size="10.00">/home/runner/work/spades</text>
<text text-anchor="middle" x="141.08" y="-155.5" font-family="Helvetica,sans-Serif" font-size="10.00">/spades/Source/IC.cpp</text>
</a>
</g>
</g>
<!-- Node8&#45;&gt;Node9 -->
<g id="edge9_Node000008_Node000009" class="edge">
<title>Node8&#45;&gt;Node9</title>
<g id="a_edge9_Node000008_Node000009"><a xlink:title=" ">
<path fill="none" stroke="#63b8ff" d="M115.62,-211.06C121.5,-200.32 128.3,-187.86 133.4,-178.54"/>
<polygon fill="#63b8ff" stroke="#63b8ff" points="112.5,-209.48 110.77,-219.94 118.64,-212.84 112.5,-209.48"/>
</a>
</g>
</g>
<!-- Node10&#45;&gt;Node2 -->
<g id="edge13_Node000010_Node000002" class="edge">
<title>Node10&#45;&gt;Node2</title>
<g id="a_edge13_Node000010_Node000002"><a xlink:title=" ">
<path fill="none" stroke="#63b8ff" d="M299.96,-139.09C269.95,-126.79 234.17,-112.13 208.44,-101.58"/>
<polygon fill="#63b8ff" stroke="#63b8ff" points="298.9,-142.44 309.48,-142.99 301.55,-135.96 298.9,-142.44"/>
</a>
</g>
</g>
<!-- Node11 -->
<g id="Node000011" class="node">
<title>Node11</title>
<g id="a_Node000011"><a xlink:href="_message_particle_container_8cpp.html" target="_top" xlink:title=" ">
<polygon fill="white" stroke="#666666" points="438.58,-107 265.58,-107 265.58,-66 438.58,-66 438.58,-107"/>
<text text-anchor="start" x="273.58" y="-95" font-family="Helvetica,sans-Serif" font-size="10.00">/home/runner/work/spades</text>
<text text-anchor="start" x="273.58" y="-84" font-family="Helvetica,sans-Serif" font-size="10.00">/spades/Source/MessageParticle</text>
<text text-anchor="middle" x="352.08" y="-73" font-family="Helvetica,sans-Serif" font-size="10.00">Container.cpp</text>
</a>
</g>
</g>
<!-- Node10&#45;&gt;Node11 -->
<g id="edge12_Node000010_Node000011" class="edge">
<title>Node10&#45;&gt;Node11</title>
<g id="a_edge12_Node000010_Node000011"><a xlink:title=" ">
<path fill="none" stroke="#63b8ff" d="M355.09,-132.69C354.52,-124.08 353.91,-114.9 353.38,-107.07"/>
<polygon fill="#63b8ff" stroke="#63b8ff" points="351.61,-133.05 355.77,-142.79 358.59,-132.58 351.61,-133.05"/>
</a>
</g>
</g>
<!-- Node12&#45;&gt;Node2 -->
<g id="edge18_Node000012_Node000002" class="edge">
<title>Node12&#45;&gt;Node2</title>
<g id="a_edge18_Node000012_Node000002"><a xlink:title=" ">
<path fill="none" stroke="#63b8ff" d="M285.79,-212.42C258.62,-182.04 209.84,-127.49 186.79,-101.72"/>
<polygon fill="#63b8ff" stroke="#63b8ff" points="283.24,-214.83 292.52,-219.95 288.46,-210.17 283.24,-214.83"/>
</a>
</g>
</g>
<!-- Node12&#45;&gt;Node6 -->
<g id="edge16_Node000012_Node000006" class="edge">
<title>Node12&#45;&gt;Node6</title>
<g id="a_edge16_Node000012_Node000006"><a xlink:title=" ">
<path fill="none" stroke="#63b8ff" d="M368.45,-217.32C413.44,-205.47 473.17,-189.75 515.73,-178.54"/>
<polygon fill="#63b8ff" stroke="#63b8ff" points="367.28,-214.01 358.5,-219.94 369.07,-220.77 367.28,-214.01"/>
</a>
</g>
</g>
<!-- Node12&#45;&gt;Node10 -->
<g id="edge17_Node000012_Node000010" class="edge">
<title>Node12&#45;&gt;Node10</title>
<g id="a_edge17_Node000012_Node000010"><a xlink:title=" ">
<path fill="none" stroke="#63b8ff" d="M321.64,-211.86C328.32,-202.94 335.96,-192.72 342.43,-184.07"/>
<polygon fill="#63b8ff" stroke="#63b8ff" points="318.79,-209.83 315.6,-219.94 324.4,-214.03 318.79,-209.83"/>
</a>
</g>
</g>
</g>
</svg>

<g id="navigator" transform="translate(0 0)" fill="#404254">
  <rect fill="#f2f5e9" fill-opacity="0.5" stroke="#606060" stroke-width=".5" x="0" y="0" width="60" height="60"/>
  <use id="zoomplus" xlink:href="#zoomPlus" x="17" y="9" onmousedown="handleZoom(evt,'in')"/>
  <use id="zoomminus" xlink:href="#zoomMin" x="42" y="9" onmousedown="handleZoom(evt,'out')"/>
  <use id="reset" xlink:href="#resetDef" x="30" y="36" onmousedown="handleReset()"/>
   <use id="arrowup" xlink:href="#arrowUp" x="0" y="0" onmousedown="handlePan(0,-1)"/>
  <use id="arrowright" xlink:href="#arrowRight" x="0" y="0" onmousedown="handlePan(1,0)"/>
  <use id="arrowdown" xlink:href="#arrowDown" x="0" y="0" onmousedown="handlePan(0,1)"/>
  <use id="arrowleft" xlink:href="#arrowLeft" x="0" y="0" onmousedown="handlePan(-1,0)"/>
</g>
<svg viewBox="0 0 15 15" width="100%" height="30px" preserveAspectRatio="xMaxYMin meet">
 <g id="arrow_out" transform="scale(0.3 0.3)">
  <a xlink:href="_constants_8_h__dep__incl_org.svg" target="_base">
   <rect id="button" ry="5" rx="5" y="6" x="6" height="38" width="38"
        fill="#f2f5e9" fill-opacity="0.5" stroke="#606060" stroke-width="1.0"/>
   <path id="arrow"
     d="M 11.500037,31.436501 C 11.940474,20.09759 22.043105,11.32322 32.158766,21.979434 L 37.068811,17.246167 C 37.068811,17.246167 37.088388,32 37.088388,32 L 22.160133,31.978069 C 22.160133,31.978069 26.997745,27.140456 26.997745,27.140456 C 18.528582,18.264221 13.291696,25.230495 11.500037,31.436501 z"
     style="fill:#404040;"/>
  </a>
 </g>
</svg>

<style type='text/css'>
<![CDATA[
[data-mouse-over-selected='false'] { opacity: 0.7; }
[data-mouse-over-selected='true']  { opacity: 1.0; }
]]>
</style>
<script type="application/ecmascript"><![CDATA[
document.addEventListener('DOMContentLoaded', (event) => {
  highlightEdges();
  highlightAdjacentNodes();
});
]]></script>
</svg>
