<?xml version="1.0" encoding="UTF-8" standalone="no"?>
<!DOCTYPE svg PUBLIC "-//W3C//DTD SVG 1.1//EN"
 "http://www.w3.org/Graphics/SVG/1.1/DTD/svg11.dtd">
<!-- Generated by graphviz version 2.43.0 (0)
 -->
<!-- Title: /home/runner/work/spades/spades/Source/Constants.H Pages: 1 -->
<svg width="1026pt" height="456pt"
 viewBox="0.00 0.00 1026.00 456.00" xmlns="http://www.w3.org/2000/svg" xmlns:xlink="http://www.w3.org/1999/xlink">
<g id="graph0" class="graph" transform="scale(1 1) rotate(0) translate(4 452)">
<title>/home/runner/work/spades/spades/Source/Constants.H</title>
<!-- Node1 -->
<g id="Node000001" class="node">
<title>Node1</title>
<g id="a_Node000001"><a xlink:title=" ">
<polygon fill="#999999" stroke="#666666" points="900,-448 748,-448 748,-418 900,-418 900,-448"/>
<text text-anchor="start" x="756" y="-436" font-family="Helvetica,sans-Serif" font-size="10.00">/home/runner/work/spades</text>
<text text-anchor="middle" x="824" y="-425" font-family="Helvetica,sans-Serif" font-size="10.00">/spades/Source/Constants.H</text>
</a>
</g>
</g>
<!-- Node2 -->
<g id="Node000002" class="node">
<title>Node2</title>
<g id="a_Node000002"><a xlink:href="_phold_8_h.html" target="_top" xlink:title=" ">
<polygon fill="white" stroke="#666666" points="908.5,-316 739.5,-316 739.5,-286 908.5,-286 908.5,-316"/>
<text text-anchor="start" x="747.5" y="-304" font-family="Helvetica,sans-Serif" font-size="10.00">/home/runner/work/spades</text>
<text text-anchor="middle" x="824" y="-293" font-family="Helvetica,sans-Serif" font-size="10.00">/spades/Source/Models/Phold.H</text>
</a>
</g>
</g>
<!-- Node1&#45;&gt;Node2 -->
<g id="edge1_Node000001_Node000002" class="edge">
<title>Node1&#45;&gt;Node2</title>
<g id="a_edge1_Node000001_Node000002"><a xlink:title=" ">
<path fill="none" stroke="#63b8ff" d="M824,-407.68C824,-380.7 824,-338.11 824,-316.14"/>
<polygon fill="#63b8ff" stroke="#63b8ff" points="820.5,-407.84 824,-417.84 827.5,-407.84 820.5,-407.84"/>
</a>
</g>
</g>
<!-- Node4 -->
<g id="Node000004" class="node">
<title>Node4</title>
<g id="a_Node000004"><a xlink:href="_s_p_a_d_e_s_8_h.html" target="_top" xlink:title=" ">
<polygon fill="white" stroke="#666666" points="608,-167.5 462,-167.5 462,-137.5 608,-137.5 608,-167.5"/>
<text text-anchor="start" x="470" y="-155.5" font-family="Helvetica,sans-Serif" font-size="10.00">/home/runner/work/spades</text>
<text text-anchor="middle" x="535" y="-144.5" font-family="Helvetica,sans-Serif" font-size="10.00">/spades/Source/SPADES.H</text>
</a>
</g>
</g>
<!-- Node1&#45;&gt;Node4 -->
<g id="edge8_Node000001_Node000004" class="edge">
<title>Node1&#45;&gt;Node4</title>
<g id="a_edge8_Node000001_Node000004"><a xlink:title=" ">
<path fill="none" stroke="#63b8ff" d="M849.85,-411.38C899.22,-369.6 997.23,-273.44 941,-209 919.48,-184.34 719.16,-166.46 608.18,-158.35"/>
<polygon fill="#63b8ff" stroke="#63b8ff" points="847.54,-408.75 842.09,-417.84 852.01,-414.13 847.54,-408.75"/>
</a>
</g>
</g>
<!-- Node5 -->
<g id="Node000005" class="node">
<title>Node5</title>
<g id="a_Node000005"><a xlink:href="_run_time_8_h.html" target="_top" xlink:title=" ">
<polygon fill="white" stroke="#666666" points="659.5,-96 512.5,-96 512.5,-66 659.5,-66 659.5,-96"/>
<text text-anchor="start" x="520.5" y="-84" font-family="Helvetica,sans-Serif" font-size="10.00">/home/runner/work/spades</text>
<text text-anchor="middle" x="586" y="-73" font-family="Helvetica,sans-Serif" font-size="10.00">/spades/Source/RunTime.H</text>
</a>
</g>
</g>
<!-- Node1&#45;&gt;Node5 -->
<g id="edge7_Node000001_Node000005" class="edge">
<title>Node1&#45;&gt;Node5</title>
<g id="a_edge7_Node000001_Node000005"><a xlink:title=" ">
<path fill="none" stroke="#63b8ff" d="M895.98,-414.95C951.19,-397.1 1018,-362.91 1018,-302 1018,-302 1018,-302 1018,-228.5 1018,-153.76 783.16,-109.59 659.77,-91.54"/>
<polygon fill="#63b8ff" stroke="#63b8ff" points="894.7,-411.69 886.18,-418 896.77,-418.38 894.7,-411.69"/>
</a>
</g>
</g>
<!-- Node6 -->
<g id="Node000006" class="node">
<title>Node6</title>
<g id="a_Node000006"><a xlink:href="main_8cpp.html" target="_top" xlink:title=" ">
<polygon fill="white" stroke="#666666" points="557,-30 411,-30 411,0 557,0 557,-30"/>
<text text-anchor="start" x="419" y="-18" font-family="Helvetica,sans-Serif" font-size="10.00">/home/runner/work/spades</text>
<text text-anchor="middle" x="484" y="-7" font-family="Helvetica,sans-Serif" font-size="10.00">/spades/Source/main.cpp</text>
</a>
</g>
</g>
<!-- Node1&#45;&gt;Node6 -->
<g id="edge26_Node000001_Node000006" class="edge">
<title>Node1&#45;&gt;Node6</title>
<g id="a_edge26_Node000001_Node000006"><a xlink:title=" ">
<path fill="none" stroke="#63b8ff" d="M737.84,-427.35C526.58,-414.8 0,-376.1 0,-302 0,-302 0,-302 0,-151.5 0,-67.24 275.45,-33 410.75,-21.26"/>
<polygon fill="#63b8ff" stroke="#63b8ff" points="737.77,-430.85 747.96,-427.95 738.18,-423.86 737.77,-430.85"/>
</a>
</g>
</g>
<!-- Node7 -->
<g id="Node000007" class="node">
<title>Node7</title>
<g id="a_Node000007"><a xlink:href="_utilities_8_h.html" target="_top" xlink:title=" ">
<polygon fill="white" stroke="#666666" points="527,-382 381,-382 381,-352 527,-352 527,-382"/>
<text text-anchor="start" x="389" y="-370" font-family="Helvetica,sans-Serif" font-size="10.00">/home/runner/work/spades</text>
<text text-anchor="middle" x="454" y="-359" font-family="Helvetica,sans-Serif" font-size="10.00">/spades/Source/Utilities.H</text>
</a>
</g>
</g>
<!-- Node1&#45;&gt;Node7 -->
<g id="edge9_Node000001_Node000007" class="edge">
<title>Node1&#45;&gt;Node7</title>
<g id="a_edge9_Node000001_Node000007"><a xlink:title=" ">
<path fill="none" stroke="#63b8ff" d="M737.73,-417.08C673.88,-406.03 587.82,-391.15 527.28,-380.68"/>
<polygon fill="#63b8ff" stroke="#63b8ff" points="737.33,-420.56 747.78,-418.82 738.53,-413.66 737.33,-420.56"/>
</a>
</g>
</g>
<!-- Node3 -->
<g id="Node000003" class="node">
<title>Node3</title>
<g id="a_Node000003"><a xlink:href="_phold_8cpp.html" target="_top" xlink:title=" ">
<polygon fill="white" stroke="#666666" points="913.5,-244.5 734.5,-244.5 734.5,-214.5 913.5,-214.5 913.5,-244.5"/>
<text text-anchor="start" x="742.5" y="-232.5" font-family="Helvetica,sans-Serif" font-size="10.00">/home/runner/work/spades</text>
<text text-anchor="middle" x="824" y="-221.5" font-family="Helvetica,sans-Serif" font-size="10.00">/spades/Source/Models/Phold.cpp</text>
</a>
</g>
</g>
<!-- Node2&#45;&gt;Node3 -->
<g id="edge2_Node000002_Node000003" class="edge">
<title>Node2&#45;&gt;Node3</title>
<g id="a_edge2_Node000002_Node000003"><a xlink:title=" ">
<path fill="none" stroke="#63b8ff" d="M824,-275.75C824,-265.31 824,-253.49 824,-244.54"/>
<polygon fill="#63b8ff" stroke="#63b8ff" points="820.5,-275.94 824,-285.94 827.5,-275.94 820.5,-275.94"/>
</a>
</g>
</g>
<!-- Node2&#45;&gt;Node4 -->
<g id="edge3_Node000002_Node000004" class="edge">
<title>Node2&#45;&gt;Node4</title>
<g id="a_edge3_Node000002_Node000004"><a xlink:title=" ">
<path fill="none" stroke="#63b8ff" d="M885.66,-281.72C900.4,-274.31 914.35,-264.06 923,-250 932.55,-234.48 934.94,-222.77 923,-209 883.1,-162.99 709.3,-154.19 608.36,-153.05"/>
<polygon fill="#63b8ff" stroke="#63b8ff" points="884.04,-278.61 876.42,-285.98 886.97,-284.97 884.04,-278.61"/>
</a>
</g>
</g>
<!-- Node4&#45;&gt;Node5 -->
<g id="edge4_Node000004_Node000005" class="edge">
<title>Node4&#45;&gt;Node5</title>
<g id="a_edge4_Node000004_Node000005"><a xlink:title=" ">
<path fill="none" stroke="#63b8ff" d="M551.36,-129.21C559.35,-118.32 568.72,-105.55 575.69,-96.04"/>
<polygon fill="#63b8ff" stroke="#63b8ff" points="548.42,-127.3 545.32,-137.44 554.06,-131.44 548.42,-127.3"/>
</a>
</g>
</g>
<!-- Node4&#45;&gt;Node6 -->
<g id="edge6_Node000004_Node000006" class="edge">
<title>Node4&#45;&gt;Node6</title>
<g id="a_edge6_Node000004_Node000006"><a xlink:title=" ">
<path fill="none" stroke="#63b8ff" d="M519.91,-128.8C513.96,-119.03 507.48,-107.28 503,-96 494.2,-73.84 488.8,-46.55 486.1,-30.25"/>
<polygon fill="#63b8ff" stroke="#63b8ff" points="517.09,-130.88 525.38,-137.47 523.01,-127.15 517.09,-130.88"/>
</a>
</g>
</g>
<!-- Node5&#45;&gt;Node6 -->
<g id="edge5_Node000005_Node000006" class="edge">
<title>Node5&#45;&gt;Node6</title>
<g id="a_edge5_Node000005_Node000006"><a xlink:title=" ">
<path fill="none" stroke="#63b8ff" d="M554.79,-60.42C539.14,-50.6 520.54,-38.93 506.33,-30.01"/>
<polygon fill="#63b8ff" stroke="#63b8ff" points="553.28,-63.6 563.62,-65.95 557.01,-57.68 553.28,-63.6"/>
</a>
</g>
</g>
<!-- Node7&#45;&gt;Node2 -->
<g id="edge19_Node000007_Node000002" class="edge">
<title>Node7&#45;&gt;Node2</title>
<g id="a_edge19_Node000007_Node000002"><a xlink:title=" ">
<path fill="none" stroke="#63b8ff" d="M537.16,-351.61C598.68,-340.97 682.02,-326.56 743.02,-316.01"/>
<polygon fill="#63b8ff" stroke="#63b8ff" points="536.36,-348.2 527.1,-353.36 537.55,-355.1 536.36,-348.2"/>
</a>
</g>
</g>
<!-- Node7&#45;&gt;Node4 -->
<g id="edge20_Node000007_Node000004" class="edge">
<title>Node7&#45;&gt;Node4</title>
<g id="a_edge20_Node000007_Node000004"><a xlink:title=" ">
<path fill="none" stroke="#63b8ff" d="M480.53,-345.15C489.27,-336.96 498.22,-326.91 504,-316 530.34,-266.25 534.52,-197.43 535.03,-167.9"/>
<polygon fill="#63b8ff" stroke="#63b8ff" points="478.15,-342.58 472.99,-351.84 482.79,-347.82 478.15,-342.58"/>
</a>
</g>
</g>
<!-- Node8 -->
<g id="Node000008" class="node">
<title>Node8</title>
<g id="a_Node000008"><a xlink:href="_entity_particle_container_8_h.html" target="_top" xlink:title=" ">
<polygon fill="white" stroke="#666666" points="437.5,-244.5 222.5,-244.5 222.5,-214.5 437.5,-214.5 437.5,-244.5"/>
<text text-anchor="start" x="230.5" y="-232.5" font-family="Helvetica,sans-Serif" font-size="10.00">/home/runner/work/spades</text>
<text text-anchor="middle" x="330" y="-221.5" font-family="Helvetica,sans-Serif" font-size="10.00">/spades/Source/EntityParticleContainer.H</text>
</a>
</g>
</g>
<!-- Node7&#45;&gt;Node8 -->
<g id="edge10_Node000007_Node000008" class="edge">
<title>Node7&#45;&gt;Node8</title>
<g id="a_edge10_Node000007_Node000008"><a xlink:title=" ">
<path fill="none" stroke="#63b8ff" d="M370.94,-354.19C326.58,-346 278.4,-333.41 265,-316 245.78,-291.03 280.26,-261.77 305.92,-244.76"/>
<polygon fill="#63b8ff" stroke="#63b8ff" points="370.46,-357.66 380.92,-355.97 371.69,-350.77 370.46,-357.66"/>
</a>
</g>
</g>
<!-- Node10 -->
<g id="Node000010" class="node">
<title>Node10</title>
<g id="a_Node000010"><a xlink:href="_i_c_8_h.html" target="_top" xlink:title=" ">
<polygon fill="white" stroke="#666666" points="698,-316 552,-316 552,-286 698,-286 698,-316"/>
<text text-anchor="start" x="560" y="-304" font-family="Helvetica,sans-Serif" font-size="10.00">/home/runner/work/spades</text>
<text text-anchor="middle" x="625" y="-293" font-family="Helvetica,sans-Serif" font-size="10.00">/spades/Source/IC.H</text>
</a>
</g>
</g>
<!-- Node7&#45;&gt;Node10 -->
<g id="edge13_Node000007_Node000010" class="edge">
<title>Node7&#45;&gt;Node10</title>
<g id="a_edge13_Node000007_Node000010"><a xlink:title=" ">
<path fill="none" stroke="#63b8ff" d="M501.23,-348.32C528.45,-338.14 562.19,-325.51 587.56,-316.01"/>
<polygon fill="#63b8ff" stroke="#63b8ff" points="499.67,-345.17 491.53,-351.95 502.12,-351.73 499.67,-345.17"/>
</a>
</g>
</g>
<!-- Node12 -->
<g id="Node000012" class="node">
<title>Node12</title>
<g id="a_Node000012"><a xlink:href="_message_particle_container_8_h.html" target="_top" xlink:title=" ">
<polygon fill="white" stroke="#666666" points="202.5,-250 29.5,-250 29.5,-209 202.5,-209 202.5,-250"/>
<text text-anchor="start" x="37.5" y="-238" font-family="Helvetica,sans-Serif" font-size="10.00">/home/runner/work/spades</text>
<text text-anchor="start" x="37.5" y="-227" font-family="Helvetica,sans-Serif" font-size="10.00">/spades/Source/MessageParticle</text>
<text text-anchor="middle" x="116" y="-216" font-family="Helvetica,sans-Serif" font-size="10.00">Container.H</text>
</a>
</g>
</g>
<!-- Node7&#45;&gt;Node12 -->
<g id="edge16_Node000007_Node000012" class="edge">
<title>Node7&#45;&gt;Node12</title>
<g id="a_edge16_Node000007_Node000012"><a xlink:title=" ">
<path fill="none" stroke="#63b8ff" d="M370.58,-361.3C260.28,-354.21 77.39,-339.11 57,-316 38.51,-295.03 64.04,-268.11 87.06,-250.13"/>
<polygon fill="#63b8ff" stroke="#63b8ff" points="370.49,-364.8 380.69,-361.94 370.93,-357.81 370.49,-364.8"/>
</a>
</g>
</g>
<!-- Node14 -->
<g id="Node000014" class="node">
<title>Node14</title>
<g id="a_Node000014"><a xlink:href="_spades_particle_container_8_h.html" target="_top" xlink:title=" ">
<polygon fill="white" stroke="#666666" points="495.5,-316 274.5,-316 274.5,-286 495.5,-286 495.5,-316"/>
<text text-anchor="start" x="282.5" y="-304" font-family="Helvetica,sans-Serif" font-size="10.00">/home/runner/work/spades</text>
<text text-anchor="middle" x="385" y="-293" font-family="Helvetica,sans-Serif" font-size="10.00">/spades/Source/SpadesParticleContainer.H</text>
</a>
</g>
</g>
<!-- Node7&#45;&gt;Node14 -->
<g id="edge21_Node000007_Node000014" class="edge">
<title>Node7&#45;&gt;Node14</title>
<g id="a_edge21_Node000007_Node000014"><a xlink:title=" ">
<path fill="none" stroke="#63b8ff" d="M431.28,-344.92C421.1,-335.49 409.37,-324.61 400.27,-316.16"/>
<polygon fill="#63b8ff" stroke="#63b8ff" points="428.97,-347.56 438.69,-351.8 433.74,-342.43 428.97,-347.56"/>
</a>
</g>
</g>
<!-- Node15 -->
<g id="Node000015" class="node">
<title>Node15</title>
<g id="a_Node000015"><a xlink:href="_utilities_8cpp.html" target="_top" xlink:title=" ">
<polygon fill="white" stroke="#666666" points="218,-316 66,-316 66,-286 218,-286 218,-316"/>
<text text-anchor="start" x="74" y="-304" font-family="Helvetica,sans-Serif" font-size="10.00">/home/runner/work/spades</text>
<text text-anchor="middle" x="142" y="-293" font-family="Helvetica,sans-Serif" font-size="10.00">/spades/Source/Utilities.cpp</text>
</a>
</g>
</g>
<!-- Node7&#45;&gt;Node15 -->
<g id="edge25_Node000007_Node000015" class="edge">
<title>Node7&#45;&gt;Node15</title>
<g id="a_edge25_Node000007_Node000015"><a xlink:title=" ">
<path fill="none" stroke="#63b8ff" d="M375.56,-349.91C324.68,-339.47 259.04,-326.01 210.31,-316.01"/>
<polygon fill="#63b8ff" stroke="#63b8ff" points="375.03,-353.37 385.53,-351.95 376.44,-346.52 375.03,-353.37"/>
</a>
</g>
</g>
<!-- Node8&#45;&gt;Node4 -->
<g id="edge12_Node000008_Node000004" class="edge">
<title>Node8&#45;&gt;Node4</title>
<g id="a_edge12_Node000008_Node000004"><a xlink:title=" ">
<path fill="none" stroke="#63b8ff" d="M378.39,-210.8C414.5,-197.59 463.17,-179.78 496.61,-167.54"/>
<polygon fill="#63b8ff" stroke="#63b8ff" points="376.75,-207.67 368.56,-214.39 379.15,-214.24 376.75,-207.67"/>
</a>
</g>
</g>
<!-- Node9 -->
<g id="Node000009" class="node">
<title>Node9</title>
<g id="a_Node000009"><a xlink:href="_entity_particle_container_8cpp.html" target="_top" xlink:title=" ">
<polygon fill="white" stroke="#666666" points="444,-167.5 220,-167.5 220,-137.5 444,-137.5 444,-167.5"/>
<text text-anchor="start" x="228" y="-155.5" font-family="Helvetica,sans-Serif" font-size="10.00">/home/runner/work/spades</text>
<text text-anchor="middle" x="332" y="-144.5" font-family="Helvetica,sans-Serif" font-size="10.00">/spades/Source/EntityParticleContainer.cpp</text>
</a>
</g>
</g>
<!-- Node8&#45;&gt;Node9 -->
<g id="edge11_Node000008_Node000009" class="edge">
<title>Node8&#45;&gt;Node9</title>
<g id="a_edge11_Node000008_Node000009"><a xlink:title=" ">
<path fill="none" stroke="#63b8ff" d="M330.65,-204.04C330.97,-191.95 331.35,-177.79 331.63,-167.54"/>
<polygon fill="#63b8ff" stroke="#63b8ff" points="327.14,-204.3 330.38,-214.39 334.14,-204.49 327.14,-204.3"/>
</a>
</g>
</g>
<!-- Node10&#45;&gt;Node4 -->
<g id="edge15_Node000010_Node000004" class="edge">
<title>Node10&#45;&gt;Node4</title>
<g id="a_edge15_Node000010_Node000004"><a xlink:title=" ">
<path fill="none" stroke="#63b8ff" d="M591.48,-280.12C580.35,-272.04 568.82,-261.8 561,-250 543.94,-224.26 538.03,-187.66 536.02,-167.75"/>
<polygon fill="#63b8ff" stroke="#63b8ff" points="589.62,-283.09 599.84,-285.87 593.59,-277.32 589.62,-283.09"/>
</a>
</g>
</g>
<!-- Node11 -->
<g id="Node000011" class="node">
<title>Node11</title>
<g id="a_Node000011"><a xlink:href="_i_c_8cpp.html" target="_top" xlink:title=" ">
<polygon fill="white" stroke="#666666" points="716,-244.5 570,-244.5 570,-214.5 716,-214.5 716,-244.5"/>
<text text-anchor="start" x="578" y="-232.5" font-family="Helvetica,sans-Serif" font-size="10.00">/home/runner/work/spades</text>
<text text-anchor="middle" x="643" y="-221.5" font-family="Helvetica,sans-Serif" font-size="10.00">/spades/Source/IC.cpp</text>
</a>
</g>
</g>
<!-- Node10&#45;&gt;Node11 -->
<g id="edge14_Node000010_Node000011" class="edge">
<title>Node10&#45;&gt;Node11</title>
<g id="a_edge14_Node000010_Node000011"><a xlink:title=" ">
<path fill="none" stroke="#63b8ff" d="M631.2,-276.08C633.92,-265.56 637.02,-253.58 639.36,-244.54"/>
<polygon fill="#63b8ff" stroke="#63b8ff" points="627.76,-275.38 628.64,-285.94 634.54,-277.13 627.76,-275.38"/>
</a>
</g>
</g>
<!-- Node12&#45;&gt;Node4 -->
<g id="edge18_Node000012_Node000004" class="edge">
<title>Node12&#45;&gt;Node4</title>
<g id="a_edge18_Node000012_Node000004"><a xlink:title=" ">
<path fill="none" stroke="#63b8ff" d="M212.68,-209.06C212.79,-209.04 212.89,-209.02 213,-209 319.24,-190.37 347.11,-193.5 453,-173 461.33,-171.39 470.1,-169.5 478.67,-167.56"/>
<polygon fill="#63b8ff" stroke="#63b8ff" points="211.91,-205.64 202.69,-210.85 213.15,-212.53 211.91,-205.64"/>
</a>
</g>
</g>
<!-- Node13 -->
<g id="Node000013" class="node">
<title>Node13</title>
<g id="a_Node000013"><a xlink:href="_message_particle_container_8cpp.html" target="_top" xlink:title=" ">
<polygon fill="white" stroke="#666666" points="201.5,-173 28.5,-173 28.5,-132 201.5,-132 201.5,-173"/>
<text text-anchor="start" x="36.5" y="-161" font-family="Helvetica,sans-Serif" font-size="10.00">/home/runner/work/spades</text>
<text text-anchor="start" x="36.5" y="-150" font-family="Helvetica,sans-Serif" font-size="10.00">/spades/Source/MessageParticle</text>
<text text-anchor="middle" x="115" y="-139" font-family="Helvetica,sans-Serif" font-size="10.00">Container.cpp</text>
</a>
</g>
</g>
<!-- Node12&#45;&gt;Node13 -->
<g id="edge17_Node000012_Node000013" class="edge">
<title>Node12&#45;&gt;Node13</title>
<g id="a_edge17_Node000012_Node000013"><a xlink:title=" ">
<path fill="none" stroke="#63b8ff" d="M115.6,-198.69C115.49,-190.08 115.37,-180.9 115.26,-173.07"/>
<polygon fill="#63b8ff" stroke="#63b8ff" points="112.1,-198.84 115.74,-208.79 119.1,-198.75 112.1,-198.84"/>
</a>
</g>
</g>
<!-- Node14&#45;&gt;Node4 -->
<g id="edge24_Node000014_Node000004" class="edge">
<title>Node14&#45;&gt;Node4</title>
<g id="a_edge24_Node000014_Node000004"><a xlink:title=" ">
<path fill="none" stroke="#63b8ff" d="M411.45,-279.65C422.43,-270.86 435.13,-260.26 446,-250 475.18,-222.48 506.3,-187.19 522.91,-167.82"/>
<polygon fill="#63b8ff" stroke="#63b8ff" points="409.12,-277.03 403.44,-285.98 413.46,-282.52 409.12,-277.03"/>
</a>
</g>
</g>
<!-- Node14&#45;&gt;Node8 -->
<g id="edge22_Node000014_Node000008" class="edge">
<title>Node14&#45;&gt;Node8</title>
<g id="a_edge22_Node000014_Node000008"><a xlink:title=" ">
<path fill="none" stroke="#63b8ff" d="M367.61,-278.03C358.94,-267.07 348.71,-254.15 341.11,-244.54"/>
<polygon fill="#63b8ff" stroke="#63b8ff" points="364.92,-280.27 373.87,-285.94 370.41,-275.92 364.92,-280.27"/>
</a>
</g>
</g>
<!-- Node14&#45;&gt;Node12 -->
<g id="edge23_Node000014_Node000012" class="edge">
<title>Node14&#45;&gt;Node12</title>
<g id="a_edge23_Node000014_Node000012"><a xlink:title=" ">
<path fill="none" stroke="#63b8ff" d="M320.44,-283.32C281.65,-273.3 232.1,-260.5 191.5,-250.01"/>
<polygon fill="#63b8ff" stroke="#63b8ff" points="320.01,-286.82 330.56,-285.94 321.76,-280.05 320.01,-286.82"/>
</a>
</g>
</g>
</g>
</svg>
