<?xml version="1.0" encoding="UTF-8" standalone="no"?>
<!DOCTYPE svg PUBLIC "-//W3C//DTD SVG 1.1//EN"
 "http://www.w3.org/Graphics/SVG/1.1/DTD/svg11.dtd">
<!-- Generated by graphviz version 2.43.0 (0)
 -->
<!-- Title: /home/runner/work/spades/spades/Source/EntityParticleContainer.H Pages: 1 -->
<!--zoomable 258 -->

<svg id="main" version="1.1" xmlns="http://www.w3.org/2000/svg" xmlns:xlink="http://www.w3.org/1999/xlink" xml:space="preserve" onload="init(evt)">

<style type="text/css"><![CDATA[
.node, .edge {opacity: 0.7;}
.node.selected, .edge.selected {opacity: 1;}
.edge:hover path { stroke: red; }
.edge:hover polygon { stroke: red; fill: red; }
]]></style>

<defs>
  <circle id="rim" cx="0" cy="0" r="7"/>
  <circle id="rim2" cx="0" cy="0" r="3.5"/>
  <g id="zoomPlus">
    <use xlink:href="#rim" fill="#404040"><set attributeName="fill" to="#808080" begin="zoomplus.mouseover" end="zoomplus.mouseout"/></use>
    <path d="M-4,0h8M0,-4v8" fill="none" stroke="white" stroke-width="1.5" pointer-events="none"/>
  </g>
  <g id="zoomMin">
    <use xlink:href="#rim" fill="#404040"><set attributeName="fill" to="#808080" begin="zoomminus.mouseover" end="zoomminus.mouseout"/></use>
    <path d="M-4,0h8" fill="none" stroke="white" stroke-width="1.5" pointer-events="none"/>
  </g>
  <g id="arrowUp" transform="translate(30 24)">
    <use xlink:href="#rim"/>
    <path pointer-events="none" fill="none" stroke="white" stroke-width="1.5" d="M0,-3.0v7 M-2.5,-0.5L0,-3.0L2.5,-0.5"/>
  </g>
  <g id="arrowRight" transform="rotate(90) translate(36 -43)">
    <use xlink:href="#rim"/>
    <path pointer-events="none" fill="none" stroke="white" stroke-width="1.5" d="M0,-3.0v7 M-2.5,-0.5L0,-3.0L2.5,-0.5"/>
  </g>
  <g id="arrowDown" transform="rotate(180) translate(-30 -48)">
    <use xlink:href="#rim"/>
    <path pointer-events="none" fill="none" stroke="white" stroke-width="1.5" d="M0,-3.0v7 M-2.5,-0.5L0,-3.0L2.5,-0.5"/>
  </g>
  <g id="arrowLeft" transform="rotate(270) translate(-36 17)">
    <use xlink:href="#rim"/>
    <path pointer-events="none" fill="none" stroke="white" stroke-width="1.5" d="M0,-3.0v7 M-2.5,-0.5L0,-3.0L2.5,-0.5"/>
  </g>
  <g id="resetDef">
    <use xlink:href="#rim2" fill="#404040"><set attributeName="fill" to="#808080" begin="reset.mouseover" end="reset.mouseout"/></use>
  </g>
</defs>
<script type="application/ecmascript">
var viewWidth = 1754;
var viewHeight = 258;
var sectionId = 'dynsection-0';
</script>
<script type="application/ecmascript" xlink:href="svg.min.js"/>
<svg id="graph" class="graph">
<g id="viewport">
<title>/home/runner/work/spades/spades/Source/EntityParticleContainer.H</title>
<!-- Node1 -->
<g id="Node000001" class="node">
<title>Node1</title>
<g id="a_Node000001"><a xlink:title=" ">
<polygon fill="#999999" stroke="#666666" points="1307.5,-250 1092.5,-250 1092.5,-220 1307.5,-220 1307.5,-250"/>
<text text-anchor="start" x="1100.5" y="-238" font-family="Helvetica,sans-Serif" font-size="10.00">/home/runner/work/spades</text>
<text text-anchor="middle" x="1200" y="-227" font-family="Helvetica,sans-Serif" font-size="10.00">/spades/Source/EntityParticleContainer.H</text>
</a>
</g>
</g>
<!-- Node2 -->
<g id="Node000002" class="node">
<title>Node2</title>
<g id="a_Node000002"><a xlink:title=" ">
<polygon fill="#e0e0e0" stroke="#999999" points="1365,-19 1303,-19 1303,0 1365,0 1365,-19"/>
<text text-anchor="middle" x="1334" y="-7" font-family="Helvetica,sans-Serif" font-size="10.00">AMReX.H</text>
</a>
</g>
</g>
<!-- Node1&#45;&gt;Node2 -->
<g id="edge1_Node000001_Node000002" class="edge">
<title>Node1&#45;&gt;Node2</title>
<g id="a_edge1_Node000001_Node000002"><a xlink:title=" ">
<path fill="none" stroke="#63b8ff" d="M1226.17,-220C1255.38,-202.82 1301.35,-170.75 1323,-129 1339.59,-97.01 1338.68,-53.62 1336.42,-29.2"/>
<polygon fill="#63b8ff" stroke="#63b8ff" points="1339.88,-28.7 1335.3,-19.15 1332.92,-29.47 1339.88,-28.7"/>
</a>
</g>
</g>
<!-- Node3 -->
<g id="Node000003" class="node">
<title>Node3</title>
<g id="a_Node000003"><a xlink:title=" ">
<polygon fill="#e0e0e0" stroke="#999999" points="1170,-129 1060,-129 1060,-110 1170,-110 1170,-129"/>
<text text-anchor="middle" x="1115" y="-117" font-family="Helvetica,sans-Serif" font-size="10.00">AMReX_AmrCore.H</text>
</a>
</g>
</g>
<!-- Node1&#45;&gt;Node3 -->
<g id="edge2_Node000001_Node000003" class="edge">
<title>Node1&#45;&gt;Node3</title>
<g id="a_edge2_Node000001_Node000003"><a xlink:title=" ">
<path fill="none" stroke="#63b8ff" d="M1189.23,-219.63C1173.53,-198.65 1144.39,-159.75 1127.67,-137.42"/>
<polygon fill="#63b8ff" stroke="#63b8ff" points="1130.33,-135.14 1121.54,-129.23 1124.73,-139.33 1130.33,-135.14"/>
</a>
</g>
</g>
<!-- Node4 -->
<g id="Node000004" class="node">
<title>Node4</title>
<g id="a_Node000004"><a xlink:title=" ">
<polygon fill="#e0e0e0" stroke="#999999" points="1313.5,-129 1188.5,-129 1188.5,-110 1313.5,-110 1313.5,-129"/>
<text text-anchor="middle" x="1251" y="-117" font-family="Helvetica,sans-Serif" font-size="10.00">AMReX_AmrParGDB.H</text>
</a>
</g>
</g>
<!-- Node1&#45;&gt;Node4 -->
<g id="edge3_Node000001_Node000004" class="edge">
<title>Node1&#45;&gt;Node4</title>
<g id="a_edge3_Node000001_Node000004"><a xlink:title=" ">
<path fill="none" stroke="#63b8ff" d="M1206.46,-219.63C1215.71,-199.03 1232.75,-161.12 1242.85,-138.63"/>
<polygon fill="#63b8ff" stroke="#63b8ff" points="1246.17,-139.79 1247.08,-129.23 1239.79,-136.92 1246.17,-139.79"/>
</a>
</g>
</g>
<!-- Node5 -->
<g id="Node000005" class="node">
<title>Node5</title>
<g id="a_Node000005"><a xlink:title=" ">
<polygon fill="#e0e0e0" stroke="#999999" points="648,-74 540,-74 540,-55 648,-55 648,-74"/>
<text text-anchor="middle" x="594" y="-62" font-family="Helvetica,sans-Serif" font-size="10.00">AMReX_Random.H</text>
</a>
</g>
</g>
<!-- Node1&#45;&gt;Node5 -->
<g id="edge4_Node000001_Node000005" class="edge">
<title>Node1&#45;&gt;Node5</title>
<g id="a_edge4_Node000001_Node000005"><a xlink:title=" ">
<path fill="none" stroke="#63b8ff" d="M1092.46,-228.06C942.98,-217.63 682.96,-190.95 614,-129 601.52,-117.79 596.76,-98.87 594.98,-84.59"/>
<polygon fill="#63b8ff" stroke="#63b8ff" points="598.45,-84.03 594.1,-74.37 591.47,-84.63 598.45,-84.03"/>
</a>
</g>
</g>
<!-- Node6 -->
<g id="Node000006" class="node">
<title>Node6</title>
<g id="a_Node000006"><a xlink:href="_spades_particle_container_8_h.html" target="_top" xlink:title=" ">
<polygon fill="white" stroke="#666666" points="1042.5,-184 897.5,-184 897.5,-165 1042.5,-165 1042.5,-184"/>
<text text-anchor="middle" x="970" y="-172" font-family="Helvetica,sans-Serif" font-size="10.00">SpadesParticleContainer.H</text>
</a>
</g>
</g>
<!-- Node1&#45;&gt;Node6 -->
<g id="edge5_Node000001_Node000006" class="edge">
<title>Node1&#45;&gt;Node6</title>
<g id="a_edge5_Node000001_Node000006"><a xlink:title=" ">
<path fill="none" stroke="#63b8ff" d="M1144.91,-219.99C1104.7,-209.76 1050.94,-196.09 1013.68,-186.61"/>
<polygon fill="#63b8ff" stroke="#63b8ff" points="1014.18,-183.13 1003.63,-184.05 1012.46,-189.91 1014.18,-183.13"/>
</a>
</g>
</g>
<!-- Node13 -->
<g id="Node000013" class="node">
<title>Node13</title>
<g id="a_Node000013"><a xlink:href="_utilities_8_h.html" target="_top" xlink:title=" ">
<polygon fill="white" stroke="#666666" points="513.5,-129 448.5,-129 448.5,-110 513.5,-110 513.5,-129"/>
<text text-anchor="middle" x="481" y="-117" font-family="Helvetica,sans-Serif" font-size="10.00">Utilities.H</text>
</a>
</g>
</g>
<!-- Node1&#45;&gt;Node13 -->
<g id="edge37_Node000001_Node000013" class="edge">
<title>Node1&#45;&gt;Node13</title>
<g id="a_edge37_Node000001_Node000013"><a xlink:title=" ">
<path fill="none" stroke="#63b8ff" d="M1092.38,-233.14C936.12,-230.61 654.85,-220.89 561,-184 535.1,-173.82 510.89,-152.26 496.03,-137.09"/>
<polygon fill="#63b8ff" stroke="#63b8ff" points="498.2,-134.3 488.79,-129.44 493.12,-139.11 498.2,-134.3"/>
</a>
</g>
</g>
<!-- Node20 -->
<g id="Node000020" class="node">
<title>Node20</title>
<g id="a_Node000020"><a xlink:href="_entity_data_8_h.html" target="_top" xlink:title=" ">
<polygon fill="white" stroke="#666666" points="1449.5,-129 1370.5,-129 1370.5,-110 1449.5,-110 1449.5,-129"/>
<text text-anchor="middle" x="1410" y="-117" font-family="Helvetica,sans-Serif" font-size="10.00">EntityData.H</text>
</a>
</g>
</g>
<!-- Node1&#45;&gt;Node20 -->
<g id="edge28_Node000001_Node000020" class="edge">
<title>Node1&#45;&gt;Node20</title>
<g id="a_edge28_Node000001_Node000020"><a xlink:title=" ">
<path fill="none" stroke="#63b8ff" d="M1271.69,-219.95C1299.57,-212.28 1330.8,-200.8 1356,-184 1374.17,-171.88 1389.69,-151.98 1399.36,-137.68"/>
<polygon fill="#63b8ff" stroke="#63b8ff" points="1402.34,-139.53 1404.85,-129.24 1396.46,-135.72 1402.34,-139.53"/>
</a>
</g>
</g>
<!-- Node21 -->
<g id="Node000021" class="node">
<title>Node21</title>
<g id="a_Node000021"><a xlink:href="_entity_ops_8_h.html" target="_top" xlink:title=" ">
<polygon fill="white" stroke="#666666" points="1580,-184 1506,-184 1506,-165 1580,-165 1580,-184"/>
<text text-anchor="middle" x="1543" y="-172" font-family="Helvetica,sans-Serif" font-size="10.00">EntityOps.H</text>
</a>
</g>
</g>
<!-- Node1&#45;&gt;Node21 -->
<g id="edge31_Node000001_Node000021" class="edge">
<title>Node1&#45;&gt;Node21</title>
<g id="a_edge31_Node000001_Node000021"><a xlink:title=" ">
<path fill="none" stroke="#63b8ff" d="M1282.16,-219.99C1348.81,-208.62 1440.45,-192.99 1495.49,-183.6"/>
<polygon fill="#63b8ff" stroke="#63b8ff" points="1496.39,-187 1505.66,-181.87 1495.21,-180.1 1496.39,-187"/>
</a>
</g>
</g>
<!-- Node6&#45;&gt;Node2 -->
<g id="edge6_Node000006_Node000002" class="edge">
<title>Node6&#45;&gt;Node2</title>
<g id="a_edge6_Node000006_Node000002"><a xlink:title=" ">
<path fill="none" stroke="#63b8ff" d="M897.2,-173.18C817.99,-171.11 698.76,-162.34 670,-129 664.48,-122.61 664.49,-116.4 670,-110 751.38,-15.52 1160.54,-9.46 1292.74,-10.02"/>
<polygon fill="#63b8ff" stroke="#63b8ff" points="1292.84,-13.52 1302.86,-10.08 1292.88,-6.53 1292.84,-13.52"/>
</a>
</g>
</g>
<!-- Node6&#45;&gt;Node3 -->
<g id="edge7_Node000006_Node000003" class="edge">
<title>Node6&#45;&gt;Node3</title>
<g id="a_edge7_Node000006_Node000003"><a xlink:title=" ">
<path fill="none" stroke="#63b8ff" d="M993.3,-164.98C1017.25,-156.23 1054.78,-142.51 1081.83,-132.62"/>
<polygon fill="#63b8ff" stroke="#63b8ff" points="1083.09,-135.89 1091.28,-129.17 1080.69,-129.32 1083.09,-135.89"/>
</a>
</g>
</g>
<!-- Node6&#45;&gt;Node4 -->
<g id="edge8_Node000006_Node000004" class="edge">
<title>Node6&#45;&gt;Node4</title>
<g id="a_edge8_Node000006_Node000004"><a xlink:title=" ">
<path fill="none" stroke="#63b8ff" d="M1015.15,-164.98C1064.26,-155.72 1142.82,-140.9 1195.62,-130.94"/>
<polygon fill="#63b8ff" stroke="#63b8ff" points="1196.32,-134.37 1205.5,-129.08 1195.02,-127.5 1196.32,-134.37"/>
</a>
</g>
</g>
<!-- Node6&#45;&gt;Node5 -->
<g id="edge10_Node000006_Node000005" class="edge">
<title>Node6&#45;&gt;Node5</title>
<g id="a_edge10_Node000006_Node000005"><a xlink:title=" ">
<path fill="none" stroke="#63b8ff" d="M897.15,-170.66C812.56,-166.19 679.22,-155.13 637,-129 619.89,-118.41 608,-98.19 601.12,-83.41"/>
<polygon fill="#63b8ff" stroke="#63b8ff" points="604.34,-82.02 597.16,-74.22 597.91,-84.79 604.34,-82.02"/>
</a>
</g>
</g>
<!-- Node7 -->
<g id="Node000007" class="node">
<title>Node7</title>
<g id="a_Node000007"><a xlink:title=" ">
<polygon fill="#e0e0e0" stroke="#999999" points="832.5,-129 679.5,-129 679.5,-110 832.5,-110 832.5,-129"/>
<text text-anchor="middle" x="756" y="-117" font-family="Helvetica,sans-Serif" font-size="10.00">AMReX_NeighborParticles.H</text>
</a>
</g>
</g>
<!-- Node6&#45;&gt;Node7 -->
<g id="edge9_Node000006_Node000007" class="edge">
<title>Node6&#45;&gt;Node7</title>
<g id="a_edge9_Node000006_Node000007"><a xlink:title=" ">
<path fill="none" stroke="#63b8ff" d="M935.62,-164.98C898.91,-155.89 840.62,-141.46 800.45,-131.51"/>
<polygon fill="#63b8ff" stroke="#63b8ff" points="801.2,-128.09 790.65,-129.08 799.52,-134.88 801.2,-128.09"/>
</a>
</g>
</g>
<!-- Node8 -->
<g id="Node000008" class="node">
<title>Node8</title>
<g id="a_Node000008"><a xlink:href="_particle_data_8_h.html" target="_top" xlink:title=" ">
<polygon fill="white" stroke="#666666" points="1462,-74 1376,-74 1376,-55 1462,-55 1462,-74"/>
<text text-anchor="middle" x="1419" y="-62" font-family="Helvetica,sans-Serif" font-size="10.00">ParticleData.H</text>
</a>
</g>
</g>
<!-- Node6&#45;&gt;Node8 -->
<g id="edge11_Node000006_Node000008" class="edge">
<title>Node6&#45;&gt;Node8</title>
<g id="a_edge11_Node000006_Node000008"><a xlink:title=" ">
<path fill="none" stroke="#63b8ff" d="M977.97,-164.71C991.45,-150.48 1020.29,-122.72 1051,-110 1106.69,-86.94 1277.94,-73.8 1365.79,-68.41"/>
<polygon fill="#63b8ff" stroke="#63b8ff" points="1366.05,-71.9 1375.83,-67.81 1365.63,-64.91 1366.05,-71.9"/>
</a>
</g>
</g>
<!-- Node10 -->
<g id="Node000010" class="node">
<title>Node10</title>
<g id="a_Node000010"><a xlink:href="_particle_ops_8_h.html" target="_top" xlink:title=" ">
<polygon fill="white" stroke="#666666" points="1550,-129 1468,-129 1468,-110 1550,-110 1550,-129"/>
<text text-anchor="middle" x="1509" y="-117" font-family="Helvetica,sans-Serif" font-size="10.00">ParticleOps.H</text>
</a>
</g>
</g>
<!-- Node6&#45;&gt;Node10 -->
<g id="edge14_Node000006_Node000010" class="edge">
<title>Node6&#45;&gt;Node10</title>
<g id="a_edge14_Node000006_Node000010"><a xlink:title=" ">
<path fill="none" stroke="#63b8ff" d="M1042.69,-168.66C1136.31,-162.02 1304.29,-148.78 1457.75,-129.07"/>
<polygon fill="#63b8ff" stroke="#63b8ff" points="1458.37,-132.51 1467.84,-127.76 1457.47,-125.57 1458.37,-132.51"/>
</a>
</g>
</g>
<!-- Node6&#45;&gt;Node13 -->
<g id="edge19_Node000006_Node000013" class="edge">
<title>Node6&#45;&gt;Node13</title>
<g id="a_edge19_Node000006_Node000013"><a xlink:title=" ">
<path fill="none" stroke="#63b8ff" d="M897.32,-165.62C793.86,-154.41 607.4,-134.2 523.7,-125.13"/>
<polygon fill="#63b8ff" stroke="#63b8ff" points="523.86,-121.63 513.54,-124.03 523.11,-128.58 523.86,-121.63"/>
</a>
</g>
</g>
<!-- Node19 -->
<g id="Node000019" class="node">
<title>Node19</title>
<g id="a_Node000019"><a xlink:title=" ">
<polygon fill="#e0e0e0" stroke="#999999" points="1003.5,-129 850.5,-129 850.5,-110 1003.5,-110 1003.5,-129"/>
<text text-anchor="middle" x="927" y="-117" font-family="Helvetica,sans-Serif" font-size="10.00">SpadesParticleContainer.tpp</text>
</a>
</g>
</g>
<!-- Node6&#45;&gt;Node19 -->
<g id="edge27_Node000006_Node000019" class="edge">
<title>Node6&#45;&gt;Node19</title>
<g id="a_edge27_Node000006_Node000019"><a xlink:title=" ">
<path fill="none" stroke="#63b8ff" d="M962.9,-164.75C956.83,-157.26 947.91,-146.28 940.49,-137.13"/>
<polygon fill="#63b8ff" stroke="#63b8ff" points="942.99,-134.65 933.97,-129.09 937.55,-139.06 942.99,-134.65"/>
</a>
</g>
</g>
<!-- Node8&#45;&gt;Node2 -->
<g id="edge12_Node000008_Node000002" class="edge">
<title>Node8&#45;&gt;Node2</title>
<g id="a_edge12_Node000008_Node000002"><a xlink:title=" ">
<path fill="none" stroke="#63b8ff" d="M1405.34,-54.98C1392.16,-46.77 1371.97,-34.18 1356.43,-24.49"/>
<polygon fill="#63b8ff" stroke="#63b8ff" points="1358.24,-21.49 1347.91,-19.17 1354.54,-27.43 1358.24,-21.49"/>
</a>
</g>
</g>
<!-- Node9 -->
<g id="Node000009" class="node">
<title>Node9</title>
<g id="a_Node000009"><a xlink:title=" ">
<polygon fill="#e0e0e0" stroke="#999999" points="1481,-19 1383,-19 1383,0 1481,0 1481,-19"/>
<text text-anchor="middle" x="1432" y="-7" font-family="Helvetica,sans-Serif" font-size="10.00">AMReX_SPACE.H</text>
</a>
</g>
</g>
<!-- Node8&#45;&gt;Node9 -->
<g id="edge13_Node000008_Node000009" class="edge">
<title>Node8&#45;&gt;Node9</title>
<g id="a_edge13_Node000008_Node000009"><a xlink:title=" ">
<path fill="none" stroke="#63b8ff" d="M1421.15,-54.75C1422.87,-47.72 1425.35,-37.62 1427.5,-28.84"/>
<polygon fill="#63b8ff" stroke="#63b8ff" points="1430.91,-29.63 1429.89,-19.09 1424.11,-27.97 1430.91,-29.63"/>
</a>
</g>
</g>
<!-- Node10&#45;&gt;Node2 -->
<g id="edge15_Node000010_Node000002" class="edge">
<title>Node10&#45;&gt;Node2</title>
<g id="a_edge15_Node000010_Node000002"><a xlink:title=" ">
<path fill="none" stroke="#63b8ff" d="M1506.06,-109.75C1501.03,-96.09 1489.49,-69.73 1471,-55 1456,-43.05 1409.81,-29.45 1375.18,-20.46"/>
<polygon fill="#63b8ff" stroke="#63b8ff" points="1375.85,-17.02 1365.3,-17.94 1374.12,-23.8 1375.85,-17.02"/>
</a>
</g>
</g>
<!-- Node10&#45;&gt;Node8 -->
<g id="edge18_Node000010_Node000008" class="edge">
<title>Node10&#45;&gt;Node8</title>
<g id="a_edge18_Node000010_Node000008"><a xlink:title=" ">
<path fill="none" stroke="#63b8ff" d="M1494.54,-109.98C1480.58,-101.77 1459.21,-89.18 1442.75,-79.49"/>
<polygon fill="#63b8ff" stroke="#63b8ff" points="1444.12,-76.23 1433.72,-74.17 1440.56,-82.26 1444.12,-76.23"/>
</a>
</g>
</g>
<!-- Node11 -->
<g id="Node000011" class="node">
<title>Node11</title>
<g id="a_Node000011"><a xlink:title=" ">
<polygon fill="#e0e0e0" stroke="#999999" points="1618,-74 1518,-74 1518,-55 1618,-55 1618,-74"/>
<text text-anchor="middle" x="1568" y="-62" font-family="Helvetica,sans-Serif" font-size="10.00">AMReX_Array4.H</text>
</a>
</g>
</g>
<!-- Node10&#45;&gt;Node11 -->
<g id="edge16_Node000010_Node000011" class="edge">
<title>Node10&#45;&gt;Node11</title>
<g id="a_edge16_Node000010_Node000011"><a xlink:title=" ">
<path fill="none" stroke="#63b8ff" d="M1518.48,-109.98C1527.2,-102.15 1540.34,-90.34 1550.9,-80.86"/>
<polygon fill="#63b8ff" stroke="#63b8ff" points="1553.25,-83.46 1558.35,-74.17 1548.57,-78.25 1553.25,-83.46"/>
</a>
</g>
</g>
<!-- Node12 -->
<g id="Node000012" class="node">
<title>Node12</title>
<g id="a_Node000012"><a xlink:title=" ">
<polygon fill="#e0e0e0" stroke="#999999" points="1726,-74 1636,-74 1636,-55 1726,-55 1726,-74"/>
<text text-anchor="middle" x="1681" y="-62" font-family="Helvetica,sans-Serif" font-size="10.00">AMReX_Print.H</text>
</a>
</g>
</g>
<!-- Node10&#45;&gt;Node12 -->
<g id="edge17_Node000010_Node000012" class="edge">
<title>Node10&#45;&gt;Node12</title>
<g id="a_edge17_Node000010_Node000012"><a xlink:title=" ">
<path fill="none" stroke="#63b8ff" d="M1536.63,-109.98C1565.51,-101.09 1611.01,-87.07 1643.2,-77.15"/>
<polygon fill="#63b8ff" stroke="#63b8ff" points="1644.62,-80.37 1653.15,-74.08 1642.56,-73.68 1644.62,-80.37"/>
</a>
</g>
</g>
<!-- Node13&#45;&gt;Node2 -->
<g id="edge20_Node000013_Node000002" class="edge">
<title>Node13&#45;&gt;Node2</title>
<g id="a_edge20_Node000013_Node000002"><a xlink:title=" ">
<path fill="none" stroke="#63b8ff" d="M484.98,-109.55C491.94,-95.11 507.85,-67.04 531,-55 598.81,-19.73 1138.11,-12.24 1292.71,-10.81"/>
<polygon fill="#63b8ff" stroke="#63b8ff" points="1292.78,-14.31 1302.75,-10.72 1292.72,-7.31 1292.78,-14.31"/>
</a>
</g>
</g>
<!-- Node13&#45;&gt;Node5 -->
<g id="edge24_Node000013_Node000005" class="edge">
<title>Node13&#45;&gt;Node5</title>
<g id="a_edge24_Node000013_Node000005"><a xlink:title=" ">
<path fill="none" stroke="#63b8ff" d="M499.16,-109.98C517.25,-101.5 545.28,-88.35 566.19,-78.54"/>
<polygon fill="#63b8ff" stroke="#63b8ff" points="567.95,-81.59 575.51,-74.17 564.97,-75.25 567.95,-81.59"/>
</a>
</g>
</g>
<!-- Node14 -->
<g id="Node000014" class="node">
<title>Node14</title>
<g id="a_Node000014"><a xlink:title=" ">
<polygon fill="#e0e0e0" stroke="#999999" points="356,-74 246,-74 246,-55 356,-55 356,-74"/>
<text text-anchor="middle" x="301" y="-62" font-family="Helvetica,sans-Serif" font-size="10.00">AMReX_RealVect.H</text>
</a>
</g>
</g>
<!-- Node13&#45;&gt;Node14 -->
<g id="edge21_Node000013_Node000014" class="edge">
<title>Node13&#45;&gt;Node14</title>
<g id="a_edge21_Node000013_Node000014"><a xlink:title=" ">
<path fill="none" stroke="#63b8ff" d="M452.08,-109.98C421.73,-101.05 373.83,-86.94 340.12,-77.02"/>
<polygon fill="#63b8ff" stroke="#63b8ff" points="340.73,-73.55 330.15,-74.08 338.75,-80.26 340.73,-73.55"/>
</a>
</g>
</g>
<!-- Node15 -->
<g id="Node000015" class="node">
<title>Node15</title>
<g id="a_Node000015"><a xlink:title=" ">
<polygon fill="#e0e0e0" stroke="#999999" points="483.5,-74 374.5,-74 374.5,-55 483.5,-55 483.5,-74"/>
<text text-anchor="middle" x="429" y="-62" font-family="Helvetica,sans-Serif" font-size="10.00">AMReX_MultiFab.H</text>
</a>
</g>
</g>
<!-- Node13&#45;&gt;Node15 -->
<g id="edge22_Node000013_Node000015" class="edge">
<title>Node13&#45;&gt;Node15</title>
<g id="a_edge22_Node000013_Node000015"><a xlink:title=" ">
<path fill="none" stroke="#63b8ff" d="M472.41,-109.75C464.84,-102.03 453.62,-90.6 444.49,-81.28"/>
<polygon fill="#63b8ff" stroke="#63b8ff" points="446.93,-78.78 437.43,-74.09 441.93,-83.68 446.93,-78.78"/>
</a>
</g>
</g>
<!-- Node16 -->
<g id="Node000016" class="node">
<title>Node16</title>
<g id="a_Node000016"><a xlink:title=" ">
<polygon fill="#e0e0e0" stroke="#999999" points="228,-74 102,-74 102,-55 228,-55 228,-74"/>
<text text-anchor="middle" x="165" y="-62" font-family="Helvetica,sans-Serif" font-size="10.00">AMReX_MultiFabUtil.H</text>
</a>
</g>
</g>
<!-- Node13&#45;&gt;Node16 -->
<g id="edge23_Node000013_Node000016" class="edge">
<title>Node13&#45;&gt;Node16</title>
<g id="a_edge23_Node000013_Node000016"><a xlink:title=" ">
<path fill="none" stroke="#63b8ff" d="M448.37,-113.03C395.95,-104.24 292.14,-86.82 225.77,-75.69"/>
<polygon fill="#63b8ff" stroke="#63b8ff" points="226.3,-72.23 215.86,-74.03 225.14,-79.14 226.3,-72.23"/>
</a>
</g>
</g>
<!-- Node17 -->
<g id="Node000017" class="node">
<title>Node17</title>
<g id="a_Node000017"><a xlink:href="_constants_8_h.html" target="_top" xlink:title=" ">
<polygon fill="white" stroke="#666666" points="84,-74 8,-74 8,-55 84,-55 84,-74"/>
<text text-anchor="middle" x="46" y="-62" font-family="Helvetica,sans-Serif" font-size="10.00">Constants.H</text>
</a>
</g>
</g>
<!-- Node13&#45;&gt;Node17 -->
<g id="edge25_Node000013_Node000017" class="edge">
<title>Node13&#45;&gt;Node17</title>
<g id="a_edge25_Node000013_Node000017"><a xlink:title=" ">
<path fill="none" stroke="#63b8ff" d="M448.46,-115.49C383.29,-109.3 231.93,-94.15 94.48,-74.13"/>
<polygon fill="#63b8ff" stroke="#63b8ff" points="94.59,-70.61 84.19,-72.62 93.57,-77.54 94.59,-70.61"/>
</a>
</g>
</g>
<!-- Node18 -->
<g id="Node000018" class="node">
<title>Node18</title>
<g id="a_Node000018"><a xlink:title=" ">
<polygon fill="#e0e0e0" stroke="#999999" points="92,-19 0,-19 0,0 92,0 92,-19"/>
<text text-anchor="middle" x="46" y="-7" font-family="Helvetica,sans-Serif" font-size="10.00">AMReX_REAL.H</text>
</a>
</g>
</g>
<!-- Node17&#45;&gt;Node18 -->
<g id="edge26_Node000017_Node000018" class="edge">
<title>Node17&#45;&gt;Node18</title>
<g id="a_edge26_Node000017_Node000018"><a xlink:title=" ">
<path fill="none" stroke="#63b8ff" d="M46,-54.75C46,-47.8 46,-37.85 46,-29.13"/>
<polygon fill="#63b8ff" stroke="#63b8ff" points="49.5,-29.09 46,-19.09 42.5,-29.09 49.5,-29.09"/>
</a>
</g>
</g>
<!-- Node20&#45;&gt;Node2 -->
<g id="edge29_Node000020_Node000002" class="edge">
<title>Node20&#45;&gt;Node2</title>
<g id="a_edge29_Node000020_Node000002"><a xlink:title=" ">
<path fill="none" stroke="#63b8ff" d="M1400.28,-109.99C1390.97,-101.5 1376.91,-87.78 1367,-74 1356.69,-59.68 1347.66,-41.7 1341.67,-28.53"/>
<polygon fill="#63b8ff" stroke="#63b8ff" points="1344.78,-26.91 1337.54,-19.17 1338.37,-29.73 1344.78,-26.91"/>
</a>
</g>
</g>
<!-- Node20&#45;&gt;Node8 -->
<g id="edge30_Node000020_Node000008" class="edge">
<title>Node20&#45;&gt;Node8</title>
<g id="a_edge30_Node000020_Node000008"><a xlink:title=" ">
<path fill="none" stroke="#63b8ff" d="M1411.49,-109.75C1412.67,-102.8 1414.36,-92.85 1415.84,-84.13"/>
<polygon fill="#63b8ff" stroke="#63b8ff" points="1419.32,-84.53 1417.54,-74.09 1412.42,-83.36 1419.32,-84.53"/>
</a>
</g>
</g>
<!-- Node21&#45;&gt;Node2 -->
<g id="edge32_Node000021_Node000002" class="edge">
<title>Node21&#45;&gt;Node2</title>
<g id="a_edge32_Node000021_Node000002"><a xlink:title=" ">
<path fill="none" stroke="#63b8ff" d="M1580.04,-165.99C1649.09,-150.44 1786.06,-111.41 1735,-55 1682.85,2.61 1469.86,-28.91 1375.48,-18.83"/>
<polygon fill="#63b8ff" stroke="#63b8ff" points="1375.75,-15.33 1365.38,-17.51 1374.85,-22.27 1375.75,-15.33"/>
</a>
</g>
</g>
<!-- Node21&#45;&gt;Node10 -->
<g id="edge35_Node000021_Node000010" class="edge">
<title>Node21&#45;&gt;Node10</title>
<g id="a_edge35_Node000021_Node000010"><a xlink:title=" ">
<path fill="none" stroke="#63b8ff" d="M1537.39,-164.75C1532.68,-157.42 1525.83,-146.73 1520.03,-137.7"/>
<polygon fill="#63b8ff" stroke="#63b8ff" points="1522.86,-135.62 1514.51,-129.09 1516.96,-139.4 1522.86,-135.62"/>
</a>
</g>
</g>
<!-- Node21&#45;&gt;Node11 -->
<g id="edge33_Node000021_Node000011" class="edge">
<title>Node21&#45;&gt;Node11</title>
<g id="a_edge33_Node000021_Node000011"><a xlink:title=" ">
<path fill="none" stroke="#63b8ff" d="M1546.73,-164.8C1550.38,-155.95 1555.84,-141.75 1559,-129 1562.65,-114.27 1564.97,-97.23 1566.33,-84.51"/>
<polygon fill="#63b8ff" stroke="#63b8ff" points="1569.85,-84.53 1567.33,-74.24 1562.88,-83.85 1569.85,-84.53"/>
</a>
</g>
</g>
<!-- Node21&#45;&gt;Node12 -->
<g id="edge34_Node000021_Node000012" class="edge">
<title>Node21&#45;&gt;Node12</title>
<g id="a_edge34_Node000021_Node000012"><a xlink:title=" ">
<path fill="none" stroke="#63b8ff" d="M1554.29,-164.66C1577.86,-146.22 1632.51,-103.45 1661.74,-80.57"/>
<polygon fill="#63b8ff" stroke="#63b8ff" points="1664.22,-83.08 1669.94,-74.16 1659.9,-77.57 1664.22,-83.08"/>
</a>
</g>
</g>
<!-- Node21&#45;&gt;Node20 -->
<g id="edge36_Node000021_Node000020" class="edge">
<title>Node21&#45;&gt;Node20</title>
<g id="a_edge36_Node000021_Node000020"><a xlink:title=" ">
<path fill="none" stroke="#63b8ff" d="M1521.63,-164.98C1499.85,-156.3 1465.84,-142.75 1441.08,-132.88"/>
<polygon fill="#63b8ff" stroke="#63b8ff" points="1442.34,-129.62 1431.76,-129.17 1439.75,-136.12 1442.34,-129.62"/>
</a>
</g>
</g>
</g>
</svg>

<g id="navigator" transform="translate(0 0)" fill="#404254">
  <rect fill="#f2f5e9" fill-opacity="0.5" stroke="#606060" stroke-width=".5" x="0" y="0" width="60" height="60"/>
  <use id="zoomplus" xlink:href="#zoomPlus" x="17" y="9" onmousedown="handleZoom(evt,'in')"/>
  <use id="zoomminus" xlink:href="#zoomMin" x="42" y="9" onmousedown="handleZoom(evt,'out')"/>
  <use id="reset" xlink:href="#resetDef" x="30" y="36" onmousedown="handleReset()"/>
   <use id="arrowup" xlink:href="#arrowUp" x="0" y="0" onmousedown="handlePan(0,-1)"/>
  <use id="arrowright" xlink:href="#arrowRight" x="0" y="0" onmousedown="handlePan(1,0)"/>
  <use id="arrowdown" xlink:href="#arrowDown" x="0" y="0" onmousedown="handlePan(0,1)"/>
  <use id="arrowleft" xlink:href="#arrowLeft" x="0" y="0" onmousedown="handlePan(-1,0)"/>
</g>
<svg viewBox="0 0 15 15" width="100%" height="30px" preserveAspectRatio="xMaxYMin meet">
 <g id="arrow_out" transform="scale(0.3 0.3)">
  <a xlink:href="_entity_particle_container_8_h__incl_org.svg" target="_base">
   <rect id="button" ry="5" rx="5" y="6" x="6" height="38" width="38"
        fill="#f2f5e9" fill-opacity="0.5" stroke="#606060" stroke-width="1.0"/>
   <path id="arrow"
     d="M 11.500037,31.436501 C 11.940474,20.09759 22.043105,11.32322 32.158766,21.979434 L 37.068811,17.246167 C 37.068811,17.246167 37.088388,32 37.088388,32 L 22.160133,31.978069 C 22.160133,31.978069 26.997745,27.140456 26.997745,27.140456 C 18.528582,18.264221 13.291696,25.230495 11.500037,31.436501 z"
     style="fill:#404040;"/>
  </a>
 </g>
</svg>

<style type='text/css'>
<![CDATA[
[data-mouse-over-selected='false'] { opacity: 0.7; }
[data-mouse-over-selected='true']  { opacity: 1.0; }
]]>
</style>
<script type="application/ecmascript"><![CDATA[
document.addEventListener('DOMContentLoaded', (event) => {
  highlightEdges();
  highlightAdjacentNodes();
});
]]></script>
</svg>
