<?xml version="1.0" encoding="UTF-8" standalone="no"?>
<!DOCTYPE svg PUBLIC "-//W3C//DTD SVG 1.1//EN"
 "http://www.w3.org/Graphics/SVG/1.1/DTD/svg11.dtd">
<!-- Generated by graphviz version 2.43.0 (0)
 -->
<!-- Title: /home/runner/work/spades/spades/Source/EntityData.H Pages: 1 -->
<svg width="531pt" height="368pt"
 viewBox="0.00 0.00 530.50 368.00" xmlns="http://www.w3.org/2000/svg" xmlns:xlink="http://www.w3.org/1999/xlink">
<g id="graph0" class="graph" transform="scale(1 1) rotate(0) translate(4 364)">
<title>/home/runner/work/spades/spades/Source/EntityData.H</title>
<!-- Node1 -->
<g id="Node000001" class="node">
<title>Node1</title>
<g id="a_Node000001"><a xlink:title=" ">
<polygon fill="#999999" stroke="#666666" points="300.5,-360 145.5,-360 145.5,-330 300.5,-330 300.5,-360"/>
<text text-anchor="start" x="153.5" y="-348" font-family="Helvetica,sans-Serif" font-size="10.00">/home/runner/work/spades</text>
<text text-anchor="middle" x="223" y="-337" font-family="Helvetica,sans-Serif" font-size="10.00">/spades/Source/EntityData.H</text>
</a>
</g>
</g>
<!-- Node2 -->
<g id="Node000002" class="node">
<title>Node2</title>
<g id="a_Node000002"><a xlink:href="_entity_ops_8_h.html" target="_top" xlink:title=" ">
<polygon fill="white" stroke="#666666" points="194.5,-294 43.5,-294 43.5,-264 194.5,-264 194.5,-294"/>
<text text-anchor="start" x="51.5" y="-282" font-family="Helvetica,sans-Serif" font-size="10.00">/home/runner/work/spades</text>
<text text-anchor="middle" x="119" y="-271" font-family="Helvetica,sans-Serif" font-size="10.00">/spades/Source/EntityOps.H</text>
</a>
</g>
</g>
<!-- Node1&#45;&gt;Node2 -->
<g id="edge1_Node000001_Node000002" class="edge">
<title>Node1&#45;&gt;Node2</title>
<g id="a_edge1_Node000001_Node000002"><a xlink:title=" ">
<path fill="none" stroke="#63b8ff" d="M191.63,-324.69C175.57,-314.82 156.39,-303.01 141.77,-294.01"/>
<polygon fill="#63b8ff" stroke="#63b8ff" points="189.83,-327.69 200.18,-329.95 193.49,-321.73 189.83,-327.69"/>
</a>
</g>
</g>
<!-- Node3 -->
<g id="Node000003" class="node">
<title>Node3</title>
<g id="a_Node000003"><a xlink:href="_entity_particle_container_8_h.html" target="_top" xlink:title=" ">
<polygon fill="white" stroke="#666666" points="266.5,-228 51.5,-228 51.5,-198 266.5,-198 266.5,-228"/>
<text text-anchor="start" x="59.5" y="-216" font-family="Helvetica,sans-Serif" font-size="10.00">/home/runner/work/spades</text>
<text text-anchor="middle" x="159" y="-205" font-family="Helvetica,sans-Serif" font-size="10.00">/spades/Source/EntityParticleContainer.H</text>
</a>
</g>
</g>
<!-- Node1&#45;&gt;Node3 -->
<g id="edge8_Node000001_Node000003" class="edge">
<title>Node1&#45;&gt;Node3</title>
<g id="a_edge8_Node000001_Node000003"><a xlink:title=" ">
<path fill="none" stroke="#63b8ff" d="M220.06,-320.05C217.32,-303.57 212.22,-281.57 203,-264 195.91,-250.49 184.43,-237.61 174.98,-228.32"/>
<polygon fill="#63b8ff" stroke="#63b8ff" points="216.6,-320.61 221.54,-329.98 223.53,-319.58 216.6,-320.61"/>
</a>
</g>
</g>
<!-- Node8 -->
<g id="Node000008" class="node">
<title>Node8</title>
<g id="a_Node000008"><a xlink:href="_phold_8_h.html" target="_top" xlink:title=" ">
<polygon fill="white" stroke="#666666" points="419.5,-294 250.5,-294 250.5,-264 419.5,-264 419.5,-294"/>
<text text-anchor="start" x="258.5" y="-282" font-family="Helvetica,sans-Serif" font-size="10.00">/home/runner/work/spades</text>
<text text-anchor="middle" x="335" y="-271" font-family="Helvetica,sans-Serif" font-size="10.00">/spades/Source/Models/Phold.H</text>
</a>
</g>
</g>
<!-- Node1&#45;&gt;Node8 -->
<g id="edge9_Node000001_Node000008" class="edge">
<title>Node1&#45;&gt;Node8</title>
<g id="a_edge9_Node000001_Node000008"><a xlink:title=" ">
<path fill="none" stroke="#63b8ff" d="M256.31,-324.97C273.69,-315.03 294.59,-303.09 310.48,-294.01"/>
<polygon fill="#63b8ff" stroke="#63b8ff" points="254.52,-321.95 247.58,-329.95 258,-328.03 254.52,-321.95"/>
</a>
</g>
</g>
<!-- Node2&#45;&gt;Node3 -->
<g id="edge2_Node000002_Node000003" class="edge">
<title>Node2&#45;&gt;Node3</title>
<g id="a_edge2_Node000002_Node000003"><a xlink:title=" ">
<path fill="none" stroke="#63b8ff" d="M133.22,-255.24C138.87,-246.21 145.18,-236.11 150.15,-228.16"/>
<polygon fill="#63b8ff" stroke="#63b8ff" points="130.21,-253.46 127.88,-263.8 136.15,-257.17 130.21,-253.46"/>
</a>
</g>
</g>
<!-- Node4 -->
<g id="Node000004" class="node">
<title>Node4</title>
<g id="a_Node000004"><a xlink:href="_entity_particle_container_8cpp.html" target="_top" xlink:title=" ">
<polygon fill="white" stroke="#666666" points="224,-162 0,-162 0,-132 224,-132 224,-162"/>
<text text-anchor="start" x="8" y="-150" font-family="Helvetica,sans-Serif" font-size="10.00">/home/runner/work/spades</text>
<text text-anchor="middle" x="112" y="-139" font-family="Helvetica,sans-Serif" font-size="10.00">/spades/Source/EntityParticleContainer.cpp</text>
</a>
</g>
</g>
<!-- Node3&#45;&gt;Node4 -->
<g id="edge3_Node000003_Node000004" class="edge">
<title>Node3&#45;&gt;Node4</title>
<g id="a_edge3_Node000003_Node000004"><a xlink:title=" ">
<path fill="none" stroke="#63b8ff" d="M142.5,-189.53C135.81,-180.43 128.3,-170.19 122.4,-162.16"/>
<polygon fill="#63b8ff" stroke="#63b8ff" points="139.83,-191.81 148.57,-197.8 145.47,-187.66 139.83,-191.81"/>
</a>
</g>
</g>
<!-- Node5 -->
<g id="Node000005" class="node">
<title>Node5</title>
<g id="a_Node000005"><a xlink:href="_s_p_a_d_e_s_8_h.html" target="_top" xlink:title=" ">
<polygon fill="white" stroke="#666666" points="388,-162 242,-162 242,-132 388,-132 388,-162"/>
<text text-anchor="start" x="250" y="-150" font-family="Helvetica,sans-Serif" font-size="10.00">/home/runner/work/spades</text>
<text text-anchor="middle" x="315" y="-139" font-family="Helvetica,sans-Serif" font-size="10.00">/spades/Source/SPADES.H</text>
</a>
</g>
</g>
<!-- Node3&#45;&gt;Node5 -->
<g id="edge4_Node000003_Node000005" class="edge">
<title>Node3&#45;&gt;Node5</title>
<g id="a_edge4_Node000003_Node000005"><a xlink:title=" ">
<path fill="none" stroke="#63b8ff" d="M202.74,-194.05C227.46,-183.91 257.9,-171.43 280.84,-162.01"/>
<polygon fill="#63b8ff" stroke="#63b8ff" points="201.16,-190.92 193.23,-197.95 203.82,-197.4 201.16,-190.92"/>
</a>
</g>
</g>
<!-- Node6 -->
<g id="Node000006" class="node">
<title>Node6</title>
<g id="a_Node000006"><a xlink:href="_run_time_8_h.html" target="_top" xlink:title=" ">
<polygon fill="white" stroke="#666666" points="337.5,-96 190.5,-96 190.5,-66 337.5,-66 337.5,-96"/>
<text text-anchor="start" x="198.5" y="-84" font-family="Helvetica,sans-Serif" font-size="10.00">/home/runner/work/spades</text>
<text text-anchor="middle" x="264" y="-73" font-family="Helvetica,sans-Serif" font-size="10.00">/spades/Source/RunTime.H</text>
</a>
</g>
</g>
<!-- Node5&#45;&gt;Node6 -->
<g id="edge5_Node000005_Node000006" class="edge">
<title>Node5&#45;&gt;Node6</title>
<g id="a_edge5_Node000005_Node000006"><a xlink:title=" ">
<path fill="none" stroke="#63b8ff" d="M297.32,-123.81C290.01,-114.64 281.75,-104.28 275.29,-96.16"/>
<polygon fill="#63b8ff" stroke="#63b8ff" points="294.71,-126.16 303.68,-131.8 300.19,-121.79 294.71,-126.16"/>
</a>
</g>
</g>
<!-- Node7 -->
<g id="Node000007" class="node">
<title>Node7</title>
<g id="a_Node000007"><a xlink:href="main_8cpp.html" target="_top" xlink:title=" ">
<polygon fill="white" stroke="#666666" points="388,-30 242,-30 242,0 388,0 388,-30"/>
<text text-anchor="start" x="250" y="-18" font-family="Helvetica,sans-Serif" font-size="10.00">/home/runner/work/spades</text>
<text text-anchor="middle" x="315" y="-7" font-family="Helvetica,sans-Serif" font-size="10.00">/spades/Source/main.cpp</text>
</a>
</g>
</g>
<!-- Node5&#45;&gt;Node7 -->
<g id="edge7_Node000005_Node000007" class="edge">
<title>Node5&#45;&gt;Node7</title>
<g id="a_edge7_Node000005_Node000007"><a xlink:title=" ">
<path fill="none" stroke="#63b8ff" d="M332.65,-123.47C338.03,-115.29 343.25,-105.67 346,-96 349.65,-83.18 349.65,-78.82 346,-66 342.25,-52.84 333.93,-39.76 326.86,-30.28"/>
<polygon fill="#63b8ff" stroke="#63b8ff" points="329.74,-121.53 326.86,-131.72 335.47,-125.55 329.74,-121.53"/>
</a>
</g>
</g>
<!-- Node6&#45;&gt;Node7 -->
<g id="edge6_Node000006_Node000007" class="edge">
<title>Node6&#45;&gt;Node7</title>
<g id="a_edge6_Node000006_Node000007"><a xlink:title=" ">
<path fill="none" stroke="#63b8ff" d="M281.68,-57.81C288.99,-48.64 297.25,-38.28 303.71,-30.16"/>
<polygon fill="#63b8ff" stroke="#63b8ff" points="278.81,-55.79 275.32,-65.8 284.29,-60.16 278.81,-55.79"/>
</a>
</g>
</g>
<!-- Node8&#45;&gt;Node5 -->
<g id="edge11_Node000008_Node000005" class="edge">
<title>Node8&#45;&gt;Node5</title>
<g id="a_edge11_Node000008_Node000005"><a xlink:title=" ">
<path fill="none" stroke="#63b8ff" d="M331.26,-253.68C327.11,-226.7 320.56,-184.11 317.18,-162.14"/>
<polygon fill="#63b8ff" stroke="#63b8ff" points="327.84,-254.49 332.82,-263.84 334.76,-253.42 327.84,-254.49"/>
</a>
</g>
</g>
<!-- Node9 -->
<g id="Node000009" class="node">
<title>Node9</title>
<g id="a_Node000009"><a xlink:href="_phold_8cpp.html" target="_top" xlink:title=" ">
<polygon fill="white" stroke="#666666" points="522.5,-228 343.5,-228 343.5,-198 522.5,-198 522.5,-228"/>
<text text-anchor="start" x="351.5" y="-216" font-family="Helvetica,sans-Serif" font-size="10.00">/home/runner/work/spades</text>
<text text-anchor="middle" x="433" y="-205" font-family="Helvetica,sans-Serif" font-size="10.00">/spades/Source/Models/Phold.cpp</text>
</a>
</g>
</g>
<!-- Node8&#45;&gt;Node9 -->
<g id="edge10_Node000008_Node000009" class="edge">
<title>Node8&#45;&gt;Node9</title>
<g id="a_edge10_Node000008_Node000009"><a xlink:title=" ">
<path fill="none" stroke="#63b8ff" d="M365.16,-258.3C380.08,-248.56 397.75,-237.02 411.31,-228.16"/>
<polygon fill="#63b8ff" stroke="#63b8ff" points="363.21,-255.4 356.75,-263.8 367.04,-261.26 363.21,-255.4"/>
</a>
</g>
</g>
</g>
</svg>
