<?xml version="1.0" encoding="UTF-8" standalone="no"?>
<!DOCTYPE svg PUBLIC "-//W3C//DTD SVG 1.1//EN"
 "http://www.w3.org/Graphics/SVG/1.1/DTD/svg11.dtd">
<!-- Generated by graphviz version 2.43.0 (0)
 -->
<!-- Title: /home/runner/work/spades/spades/Source/EntityData.H Pages: 1 -->
<svg width="480pt" height="302pt"
 viewBox="0.00 0.00 480.00 302.00" xmlns="http://www.w3.org/2000/svg" xmlns:xlink="http://www.w3.org/1999/xlink">
<g id="graph0" class="graph" transform="scale(1 1) rotate(0) translate(4 298)">
<title>/home/runner/work/spades/spades/Source/EntityData.H</title>
<!-- Node1 -->
<g id="Node000001" class="node">
<title>Node1</title>
<g id="a_Node000001"><a xlink:title=" ">
<polygon fill="#999999" stroke="#666666" points="290.5,-294 135.5,-294 135.5,-264 290.5,-264 290.5,-294"/>
<text text-anchor="start" x="143.5" y="-282" font-family="Helvetica,sans-Serif" font-size="10.00">/home/runner/work/spades</text>
<text text-anchor="middle" x="213" y="-271" font-family="Helvetica,sans-Serif" font-size="10.00">/spades/Source/EntityData.H</text>
</a>
</g>
</g>
<!-- Node2 -->
<g id="Node000002" class="node">
<title>Node2</title>
<g id="a_Node000002"><a xlink:href="_entity_ops_8_h.html" target="_top" xlink:title=" ">
<polygon fill="white" stroke="#666666" points="236.5,-228 85.5,-228 85.5,-198 236.5,-198 236.5,-228"/>
<text text-anchor="start" x="93.5" y="-216" font-family="Helvetica,sans-Serif" font-size="10.00">/home/runner/work/spades</text>
<text text-anchor="middle" x="161" y="-205" font-family="Helvetica,sans-Serif" font-size="10.00">/spades/Source/EntityOps.H</text>
</a>
</g>
</g>
<!-- Node1&#45;&gt;Node2 -->
<g id="edge1_Node000001_Node000002" class="edge">
<title>Node1&#45;&gt;Node2</title>
<g id="a_edge1_Node000001_Node000002"><a xlink:title=" ">
<path fill="none" stroke="#63b8ff" d="M194.97,-255.81C187.52,-246.64 179.1,-236.28 172.51,-228.16"/>
<polygon fill="#63b8ff" stroke="#63b8ff" points="192.44,-258.24 201.46,-263.8 197.87,-253.83 192.44,-258.24"/>
</a>
</g>
</g>
<!-- Node3 -->
<g id="Node000003" class="node">
<title>Node3</title>
<g id="a_Node000003"><a xlink:href="_entity_particle_container_8_h.html" target="_top" xlink:title=" ">
<polygon fill="white" stroke="#666666" points="320.5,-162 105.5,-162 105.5,-132 320.5,-132 320.5,-162"/>
<text text-anchor="start" x="113.5" y="-150" font-family="Helvetica,sans-Serif" font-size="10.00">/home/runner/work/spades</text>
<text text-anchor="middle" x="213" y="-139" font-family="Helvetica,sans-Serif" font-size="10.00">/spades/Source/EntityParticleContainer.H</text>
</a>
</g>
</g>
<!-- Node1&#45;&gt;Node3 -->
<g id="edge7_Node000001_Node000003" class="edge">
<title>Node1&#45;&gt;Node3</title>
<g id="a_edge7_Node000001_Node000003"><a xlink:title=" ">
<path fill="none" stroke="#63b8ff" d="M231.21,-255.55C236.76,-247.37 242.15,-237.73 245,-228 248.74,-215.2 248.74,-210.8 245,-198 241.12,-184.75 232.54,-171.67 225.23,-162.21"/>
<polygon fill="#63b8ff" stroke="#63b8ff" points="228.28,-253.64 225.23,-263.79 233.94,-257.75 228.28,-253.64"/>
</a>
</g>
</g>
<!-- Node2&#45;&gt;Node3 -->
<g id="edge2_Node000002_Node000003" class="edge">
<title>Node2&#45;&gt;Node3</title>
<g id="a_edge2_Node000002_Node000003"><a xlink:title=" ">
<path fill="none" stroke="#63b8ff" d="M179.03,-189.81C186.48,-180.64 194.9,-170.28 201.49,-162.16"/>
<polygon fill="#63b8ff" stroke="#63b8ff" points="176.13,-187.83 172.54,-197.8 181.56,-192.24 176.13,-187.83"/>
</a>
</g>
</g>
<!-- Node4 -->
<g id="Node000004" class="node">
<title>Node4</title>
<g id="a_Node000004"><a xlink:href="_entity_particle_container_8cpp.html" target="_top" xlink:title=" ">
<polygon fill="white" stroke="#666666" points="224,-96 0,-96 0,-66 224,-66 224,-96"/>
<text text-anchor="start" x="8" y="-84" font-family="Helvetica,sans-Serif" font-size="10.00">/home/runner/work/spades</text>
<text text-anchor="middle" x="112" y="-73" font-family="Helvetica,sans-Serif" font-size="10.00">/spades/Source/EntityParticleContainer.cpp</text>
</a>
</g>
</g>
<!-- Node3&#45;&gt;Node4 -->
<g id="edge3_Node000003_Node000004" class="edge">
<title>Node3&#45;&gt;Node4</title>
<g id="a_edge3_Node000003_Node000004"><a xlink:title=" ">
<path fill="none" stroke="#63b8ff" d="M181.91,-126.3C166.54,-116.56 148.33,-105.02 134.35,-96.16"/>
<polygon fill="#63b8ff" stroke="#63b8ff" points="180.26,-129.4 190.58,-131.8 184.01,-123.49 180.26,-129.4"/>
</a>
</g>
</g>
<!-- Node5 -->
<g id="Node000005" class="node">
<title>Node5</title>
<g id="a_Node000005"><a xlink:href="_s_p_a_d_e_s_8_h.html" target="_top" xlink:title=" ">
<polygon fill="white" stroke="#666666" points="388,-96 242,-96 242,-66 388,-66 388,-96"/>
<text text-anchor="start" x="250" y="-84" font-family="Helvetica,sans-Serif" font-size="10.00">/home/runner/work/spades</text>
<text text-anchor="middle" x="315" y="-73" font-family="Helvetica,sans-Serif" font-size="10.00">/spades/Source/SPADES.H</text>
</a>
</g>
</g>
<!-- Node3&#45;&gt;Node5 -->
<g id="edge4_Node000003_Node000005" class="edge">
<title>Node3&#45;&gt;Node5</title>
<g id="a_edge4_Node000003_Node000005"><a xlink:title=" ">
<path fill="none" stroke="#63b8ff" d="M244.21,-126.42C259.86,-116.6 278.46,-104.93 292.67,-96.01"/>
<polygon fill="#63b8ff" stroke="#63b8ff" points="241.99,-123.68 235.38,-131.95 245.72,-129.6 241.99,-123.68"/>
</a>
</g>
</g>
<!-- Node6 -->
<g id="Node000006" class="node">
<title>Node6</title>
<g id="a_Node000006"><a xlink:href="_s_p_a_d_e_s_8cpp.html" target="_top" xlink:title=" ">
<polygon fill="white" stroke="#666666" points="307.5,-30 156.5,-30 156.5,0 307.5,0 307.5,-30"/>
<text text-anchor="start" x="164.5" y="-18" font-family="Helvetica,sans-Serif" font-size="10.00">/home/runner/work/spades</text>
<text text-anchor="middle" x="232" y="-7" font-family="Helvetica,sans-Serif" font-size="10.00">/spades/Source/SPADES.cpp</text>
</a>
</g>
</g>
<!-- Node5&#45;&gt;Node6 -->
<g id="edge5_Node000005_Node000006" class="edge">
<title>Node5&#45;&gt;Node6</title>
<g id="a_edge5_Node000005_Node000006"><a xlink:title=" ">
<path fill="none" stroke="#63b8ff" d="M288.39,-59.48C275.98,-49.91 261.53,-38.77 250.37,-30.16"/>
<polygon fill="#63b8ff" stroke="#63b8ff" points="286.52,-62.46 296.58,-65.8 290.8,-56.92 286.52,-62.46"/>
</a>
</g>
</g>
<!-- Node7 -->
<g id="Node000007" class="node">
<title>Node7</title>
<g id="a_Node000007"><a xlink:href="main_8cpp.html" target="_top" xlink:title=" ">
<polygon fill="white" stroke="#666666" points="472,-30 326,-30 326,0 472,0 472,-30"/>
<text text-anchor="start" x="334" y="-18" font-family="Helvetica,sans-Serif" font-size="10.00">/home/runner/work/spades</text>
<text text-anchor="middle" x="399" y="-7" font-family="Helvetica,sans-Serif" font-size="10.00">/spades/Source/main.cpp</text>
</a>
</g>
</g>
<!-- Node5&#45;&gt;Node7 -->
<g id="edge6_Node000005_Node000007" class="edge">
<title>Node5&#45;&gt;Node7</title>
<g id="a_edge6_Node000005_Node000007"><a xlink:title=" ">
<path fill="none" stroke="#63b8ff" d="M341.94,-59.48C354.49,-49.91 369.11,-38.77 380.41,-30.16"/>
<polygon fill="#63b8ff" stroke="#63b8ff" points="339.48,-56.95 333.64,-65.8 343.72,-62.52 339.48,-56.95"/>
</a>
</g>
</g>
</g>
</svg>
