<?xml version="1.0" encoding="UTF-8" standalone="no"?>
<!DOCTYPE svg PUBLIC "-//W3C//DTD SVG 1.1//EN"
 "http://www.w3.org/Graphics/SVG/1.1/DTD/svg11.dtd">
<!-- Generated by graphviz version 2.43.0 (0)
 -->
<!-- Title: /home/runner/work/spades/spades/Source/EntityParticleContainer.H Pages: 1 -->
<!--zoomable 258 -->

<svg id="main" version="1.1" xmlns="http://www.w3.org/2000/svg" xmlns:xlink="http://www.w3.org/1999/xlink" xml:space="preserve" onload="init(evt)">

<style type="text/css"><![CDATA[
.node, .edge {opacity: 0.7;}
.node.selected, .edge.selected {opacity: 1;}
.edge:hover path { stroke: red; }
.edge:hover polygon { stroke: red; fill: red; }
]]></style>

<defs>
  <circle id="rim" cx="0" cy="0" r="7"/>
  <circle id="rim2" cx="0" cy="0" r="3.5"/>
  <g id="zoomPlus">
    <use xlink:href="#rim" fill="#404040"><set attributeName="fill" to="#808080" begin="zoomplus.mouseover" end="zoomplus.mouseout"/></use>
    <path d="M-4,0h8M0,-4v8" fill="none" stroke="white" stroke-width="1.5" pointer-events="none"/>
  </g>
  <g id="zoomMin">
    <use xlink:href="#rim" fill="#404040"><set attributeName="fill" to="#808080" begin="zoomminus.mouseover" end="zoomminus.mouseout"/></use>
    <path d="M-4,0h8" fill="none" stroke="white" stroke-width="1.5" pointer-events="none"/>
  </g>
  <g id="arrowUp" transform="translate(30 24)">
    <use xlink:href="#rim"/>
    <path pointer-events="none" fill="none" stroke="white" stroke-width="1.5" d="M0,-3.0v7 M-2.5,-0.5L0,-3.0L2.5,-0.5"/>
  </g>
  <g id="arrowRight" transform="rotate(90) translate(36 -43)">
    <use xlink:href="#rim"/>
    <path pointer-events="none" fill="none" stroke="white" stroke-width="1.5" d="M0,-3.0v7 M-2.5,-0.5L0,-3.0L2.5,-0.5"/>
  </g>
  <g id="arrowDown" transform="rotate(180) translate(-30 -48)">
    <use xlink:href="#rim"/>
    <path pointer-events="none" fill="none" stroke="white" stroke-width="1.5" d="M0,-3.0v7 M-2.5,-0.5L0,-3.0L2.5,-0.5"/>
  </g>
  <g id="arrowLeft" transform="rotate(270) translate(-36 17)">
    <use xlink:href="#rim"/>
    <path pointer-events="none" fill="none" stroke="white" stroke-width="1.5" d="M0,-3.0v7 M-2.5,-0.5L0,-3.0L2.5,-0.5"/>
  </g>
  <g id="resetDef">
    <use xlink:href="#rim2" fill="#404040"><set attributeName="fill" to="#808080" begin="reset.mouseover" end="reset.mouseout"/></use>
  </g>
</defs>
<script type="application/ecmascript">
var viewWidth = 1767;
var viewHeight = 258;
var sectionId = 'dynsection-0';
</script>
<script type="application/ecmascript" xlink:href="svg.min.js"/>
<svg id="graph" class="graph">
<g id="viewport">
<title>/home/runner/work/spades/spades/Source/EntityParticleContainer.H</title>
<!-- Node1 -->
<g id="Node000001" class="node">
<title>Node1</title>
<g id="a_Node000001"><a xlink:title=" ">
<polygon fill="#999999" stroke="#666666" points="1320.5,-250 1105.5,-250 1105.5,-220 1320.5,-220 1320.5,-250"/>
<text text-anchor="start" x="1113.5" y="-238" font-family="Helvetica,sans-Serif" font-size="10.00">/home/runner/work/spades</text>
<text text-anchor="middle" x="1213" y="-227" font-family="Helvetica,sans-Serif" font-size="10.00">/spades/Source/EntityParticleContainer.H</text>
</a>
</g>
</g>
<!-- Node2 -->
<g id="Node000002" class="node">
<title>Node2</title>
<g id="a_Node000002"><a xlink:title=" ">
<polygon fill="#e0e0e0" stroke="#999999" points="1378,-19 1316,-19 1316,0 1378,0 1378,-19"/>
<text text-anchor="middle" x="1347" y="-7" font-family="Helvetica,sans-Serif" font-size="10.00">AMReX.H</text>
</a>
</g>
</g>
<!-- Node1&#45;&gt;Node2 -->
<g id="edge1_Node000001_Node000002" class="edge">
<title>Node1&#45;&gt;Node2</title>
<g id="a_edge1_Node000001_Node000002"><a xlink:title=" ">
<path fill="none" stroke="#63b8ff" d="M1239.17,-220C1268.38,-202.82 1314.35,-170.75 1336,-129 1352.59,-97.01 1351.68,-53.62 1349.42,-29.2"/>
<polygon fill="#63b8ff" stroke="#63b8ff" points="1352.88,-28.7 1348.3,-19.15 1345.92,-29.47 1352.88,-28.7"/>
</a>
</g>
</g>
<!-- Node3 -->
<g id="Node000003" class="node">
<title>Node3</title>
<g id="a_Node000003"><a xlink:title=" ">
<polygon fill="#e0e0e0" stroke="#999999" points="1183,-129 1073,-129 1073,-110 1183,-110 1183,-129"/>
<text text-anchor="middle" x="1128" y="-117" font-family="Helvetica,sans-Serif" font-size="10.00">AMReX_AmrCore.H</text>
</a>
</g>
</g>
<!-- Node1&#45;&gt;Node3 -->
<g id="edge2_Node000001_Node000003" class="edge">
<title>Node1&#45;&gt;Node3</title>
<g id="a_edge2_Node000001_Node000003"><a xlink:title=" ">
<path fill="none" stroke="#63b8ff" d="M1202.23,-219.63C1186.53,-198.65 1157.39,-159.75 1140.67,-137.42"/>
<polygon fill="#63b8ff" stroke="#63b8ff" points="1143.33,-135.14 1134.54,-129.23 1137.73,-139.33 1143.33,-135.14"/>
</a>
</g>
</g>
<!-- Node4 -->
<g id="Node000004" class="node">
<title>Node4</title>
<g id="a_Node000004"><a xlink:title=" ">
<polygon fill="#e0e0e0" stroke="#999999" points="1326.5,-129 1201.5,-129 1201.5,-110 1326.5,-110 1326.5,-129"/>
<text text-anchor="middle" x="1264" y="-117" font-family="Helvetica,sans-Serif" font-size="10.00">AMReX_AmrParGDB.H</text>
</a>
</g>
</g>
<!-- Node1&#45;&gt;Node4 -->
<g id="edge3_Node000001_Node000004" class="edge">
<title>Node1&#45;&gt;Node4</title>
<g id="a_edge3_Node000001_Node000004"><a xlink:title=" ">
<path fill="none" stroke="#63b8ff" d="M1219.46,-219.63C1228.71,-199.03 1245.75,-161.12 1255.85,-138.63"/>
<polygon fill="#63b8ff" stroke="#63b8ff" points="1259.17,-139.79 1260.08,-129.23 1252.79,-136.92 1259.17,-139.79"/>
</a>
</g>
</g>
<!-- Node5 -->
<g id="Node000005" class="node">
<title>Node5</title>
<g id="a_Node000005"><a xlink:title=" ">
<polygon fill="#e0e0e0" stroke="#999999" points="648,-74 540,-74 540,-55 648,-55 648,-74"/>
<text text-anchor="middle" x="594" y="-62" font-family="Helvetica,sans-Serif" font-size="10.00">AMReX_Random.H</text>
</a>
</g>
</g>
<!-- Node1&#45;&gt;Node5 -->
<g id="edge4_Node000001_Node000005" class="edge">
<title>Node1&#45;&gt;Node5</title>
<g id="a_edge4_Node000001_Node000005"><a xlink:title=" ">
<path fill="none" stroke="#63b8ff" d="M1105.35,-228.5C952.98,-218.54 685,-192.35 614,-129 601.48,-117.83 596.73,-98.9 594.96,-84.61"/>
<polygon fill="#63b8ff" stroke="#63b8ff" points="598.42,-84.05 594.09,-74.38 591.45,-84.64 598.42,-84.05"/>
</a>
</g>
</g>
<!-- Node6 -->
<g id="Node000006" class="node">
<title>Node6</title>
<g id="a_Node000006"><a xlink:href="_spades_particle_container_8_h.html" target="_top" xlink:title=" ">
<polygon fill="white" stroke="#666666" points="1052.5,-184 907.5,-184 907.5,-165 1052.5,-165 1052.5,-184"/>
<text text-anchor="middle" x="980" y="-172" font-family="Helvetica,sans-Serif" font-size="10.00">SpadesParticleContainer.H</text>
</a>
</g>
</g>
<!-- Node1&#45;&gt;Node6 -->
<g id="edge5_Node000001_Node000006" class="edge">
<title>Node1&#45;&gt;Node6</title>
<g id="a_edge5_Node000001_Node000006"><a xlink:title=" ">
<path fill="none" stroke="#63b8ff" d="M1157.19,-219.99C1116.46,-209.76 1061.99,-196.09 1024.25,-186.61"/>
<polygon fill="#63b8ff" stroke="#63b8ff" points="1024.62,-183.09 1014.07,-184.05 1022.91,-189.88 1024.62,-183.09"/>
</a>
</g>
</g>
<!-- Node13 -->
<g id="Node000013" class="node">
<title>Node13</title>
<g id="a_Node000013"><a xlink:href="_utilities_8_h.html" target="_top" xlink:title=" ">
<polygon fill="white" stroke="#666666" points="513.5,-129 448.5,-129 448.5,-110 513.5,-110 513.5,-129"/>
<text text-anchor="middle" x="481" y="-117" font-family="Helvetica,sans-Serif" font-size="10.00">Utilities.H</text>
</a>
</g>
</g>
<!-- Node1&#45;&gt;Node13 -->
<g id="edge37_Node000001_Node000013" class="edge">
<title>Node1&#45;&gt;Node13</title>
<g id="a_edge37_Node000001_Node000013"><a xlink:title=" ">
<path fill="none" stroke="#63b8ff" d="M1105.49,-233.34C946.54,-231.09 657.24,-221.74 561,-184 535.09,-173.84 510.88,-152.27 496.03,-137.1"/>
<polygon fill="#63b8ff" stroke="#63b8ff" points="498.2,-134.31 488.79,-129.45 493.12,-139.12 498.2,-134.31"/>
</a>
</g>
</g>
<!-- Node20 -->
<g id="Node000020" class="node">
<title>Node20</title>
<g id="a_Node000020"><a xlink:href="_entity_data_8_h.html" target="_top" xlink:title=" ">
<polygon fill="white" stroke="#666666" points="1462.5,-129 1383.5,-129 1383.5,-110 1462.5,-110 1462.5,-129"/>
<text text-anchor="middle" x="1423" y="-117" font-family="Helvetica,sans-Serif" font-size="10.00">EntityData.H</text>
</a>
</g>
</g>
<!-- Node1&#45;&gt;Node20 -->
<g id="edge28_Node000001_Node000020" class="edge">
<title>Node1&#45;&gt;Node20</title>
<g id="a_edge28_Node000001_Node000020"><a xlink:title=" ">
<path fill="none" stroke="#63b8ff" d="M1284.69,-219.95C1312.57,-212.28 1343.8,-200.8 1369,-184 1387.17,-171.88 1402.69,-151.98 1412.36,-137.68"/>
<polygon fill="#63b8ff" stroke="#63b8ff" points="1415.34,-139.53 1417.85,-129.24 1409.46,-135.72 1415.34,-139.53"/>
</a>
</g>
</g>
<!-- Node21 -->
<g id="Node000021" class="node">
<title>Node21</title>
<g id="a_Node000021"><a xlink:href="_entity_ops_8_h.html" target="_top" xlink:title=" ">
<polygon fill="white" stroke="#666666" points="1593,-184 1519,-184 1519,-165 1593,-165 1593,-184"/>
<text text-anchor="middle" x="1556" y="-172" font-family="Helvetica,sans-Serif" font-size="10.00">EntityOps.H</text>
</a>
</g>
</g>
<!-- Node1&#45;&gt;Node21 -->
<g id="edge31_Node000001_Node000021" class="edge">
<title>Node1&#45;&gt;Node21</title>
<g id="a_edge31_Node000001_Node000021"><a xlink:title=" ">
<path fill="none" stroke="#63b8ff" d="M1295.16,-219.99C1361.81,-208.62 1453.45,-192.99 1508.49,-183.6"/>
<polygon fill="#63b8ff" stroke="#63b8ff" points="1509.39,-187 1518.66,-181.87 1508.21,-180.1 1509.39,-187"/>
</a>
</g>
</g>
<!-- Node6&#45;&gt;Node2 -->
<g id="edge6_Node000006_Node000002" class="edge">
<title>Node6&#45;&gt;Node2</title>
<g id="a_edge6_Node000006_Node000002"><a xlink:title=" ">
<path fill="none" stroke="#63b8ff" d="M907.35,-173.6C825.55,-171.99 700.09,-163.72 670,-129 664.47,-122.62 664.48,-116.39 670,-110 753.17,-13.71 1171.12,-8.9 1305.4,-9.89"/>
<polygon fill="#63b8ff" stroke="#63b8ff" points="1305.64,-13.39 1315.67,-9.98 1305.7,-6.39 1305.64,-13.39"/>
</a>
</g>
</g>
<!-- Node6&#45;&gt;Node3 -->
<g id="edge7_Node000006_Node000003" class="edge">
<title>Node6&#45;&gt;Node3</title>
<g id="a_edge7_Node000006_Node000003"><a xlink:title=" ">
<path fill="none" stroke="#63b8ff" d="M1003.78,-164.98C1028.23,-156.23 1066.53,-142.51 1094.15,-132.62"/>
<polygon fill="#63b8ff" stroke="#63b8ff" points="1095.55,-135.84 1103.79,-129.17 1093.19,-129.25 1095.55,-135.84"/>
</a>
</g>
</g>
<!-- Node6&#45;&gt;Node4 -->
<g id="edge8_Node000006_Node000004" class="edge">
<title>Node6&#45;&gt;Node4</title>
<g id="a_edge8_Node000006_Node000004"><a xlink:title=" ">
<path fill="none" stroke="#63b8ff" d="M1025.63,-164.98C1075.27,-155.72 1154.66,-140.9 1208.03,-130.94"/>
<polygon fill="#63b8ff" stroke="#63b8ff" points="1208.82,-134.36 1218.01,-129.08 1207.54,-127.48 1208.82,-134.36"/>
</a>
</g>
</g>
<!-- Node6&#45;&gt;Node5 -->
<g id="edge10_Node000006_Node000005" class="edge">
<title>Node6&#45;&gt;Node5</title>
<g id="a_edge10_Node000006_Node000005"><a xlink:title=" ">
<path fill="none" stroke="#63b8ff" d="M907.27,-171C820.28,-166.84 680.9,-156.05 637,-129 619.87,-118.44 607.98,-98.22 601.11,-83.42"/>
<polygon fill="#63b8ff" stroke="#63b8ff" points="604.33,-82.04 597.16,-74.23 597.89,-84.8 604.33,-82.04"/>
</a>
</g>
</g>
<!-- Node7 -->
<g id="Node000007" class="node">
<title>Node7</title>
<g id="a_Node000007"><a xlink:title=" ">
<polygon fill="#e0e0e0" stroke="#999999" points="832.5,-129 679.5,-129 679.5,-110 832.5,-110 832.5,-129"/>
<text text-anchor="middle" x="756" y="-117" font-family="Helvetica,sans-Serif" font-size="10.00">AMReX_NeighborParticles.H</text>
</a>
</g>
</g>
<!-- Node6&#45;&gt;Node7 -->
<g id="edge9_Node000006_Node000007" class="edge">
<title>Node6&#45;&gt;Node7</title>
<g id="a_edge9_Node000006_Node000007"><a xlink:title=" ">
<path fill="none" stroke="#63b8ff" d="M944.01,-164.98C905.51,-155.87 844.31,-141.4 802.26,-131.45"/>
<polygon fill="#63b8ff" stroke="#63b8ff" points="802.81,-127.98 792.27,-129.08 801.2,-134.79 802.81,-127.98"/>
</a>
</g>
</g>
<!-- Node8 -->
<g id="Node000008" class="node">
<title>Node8</title>
<g id="a_Node000008"><a xlink:href="_particle_data_8_h.html" target="_top" xlink:title=" ">
<polygon fill="white" stroke="#666666" points="1475,-74 1389,-74 1389,-55 1475,-55 1475,-74"/>
<text text-anchor="middle" x="1432" y="-62" font-family="Helvetica,sans-Serif" font-size="10.00">ParticleData.H</text>
</a>
</g>
</g>
<!-- Node6&#45;&gt;Node8 -->
<g id="edge11_Node000006_Node000008" class="edge">
<title>Node6&#45;&gt;Node8</title>
<g id="a_edge11_Node000006_Node000008"><a xlink:title=" ">
<path fill="none" stroke="#63b8ff" d="M988.33,-164.71C1002.41,-150.48 1032.47,-122.73 1064,-110 1119.89,-87.43 1291.04,-74.06 1378.84,-68.52"/>
<polygon fill="#63b8ff" stroke="#63b8ff" points="1379.1,-72.01 1388.86,-67.89 1378.66,-65.02 1379.1,-72.01"/>
</a>
</g>
</g>
<!-- Node10 -->
<g id="Node000010" class="node">
<title>Node10</title>
<g id="a_Node000010"><a xlink:href="_particle_ops_8_h.html" target="_top" xlink:title=" ">
<polygon fill="white" stroke="#666666" points="1563,-129 1481,-129 1481,-110 1563,-110 1563,-129"/>
<text text-anchor="middle" x="1522" y="-117" font-family="Helvetica,sans-Serif" font-size="10.00">ParticleOps.H</text>
</a>
</g>
</g>
<!-- Node6&#45;&gt;Node10 -->
<g id="edge14_Node000006_Node000010" class="edge">
<title>Node6&#45;&gt;Node10</title>
<g id="a_edge14_Node000006_Node000010"><a xlink:title=" ">
<path fill="none" stroke="#63b8ff" d="M1052.72,-168.71C1146.84,-162.11 1316.12,-148.88 1470.68,-129.07"/>
<polygon fill="#63b8ff" stroke="#63b8ff" points="1471.37,-132.51 1480.84,-127.76 1470.47,-125.57 1471.37,-132.51"/>
</a>
</g>
</g>
<!-- Node6&#45;&gt;Node13 -->
<g id="edge19_Node000006_Node000013" class="edge">
<title>Node6&#45;&gt;Node13</title>
<g id="a_edge19_Node000006_Node000013"><a xlink:title=" ">
<path fill="none" stroke="#63b8ff" d="M907.44,-165.79C801.83,-154.58 609.08,-134.1 523.68,-125.03"/>
<polygon fill="#63b8ff" stroke="#63b8ff" points="523.88,-121.53 513.57,-123.96 523.14,-128.5 523.88,-121.53"/>
</a>
</g>
</g>
<!-- Node19 -->
<g id="Node000019" class="node">
<title>Node19</title>
<g id="a_Node000019"><a xlink:href="_spades_particle_container_impl_8_h.html" target="_top" xlink:title=" ">
<polygon fill="white" stroke="#666666" points="1017.5,-129 850.5,-129 850.5,-110 1017.5,-110 1017.5,-129"/>
<text text-anchor="middle" x="934" y="-117" font-family="Helvetica,sans-Serif" font-size="10.00">SpadesParticleContainerImpl.H</text>
</a>
</g>
</g>
<!-- Node6&#45;&gt;Node19 -->
<g id="edge27_Node000006_Node000019" class="edge">
<title>Node6&#45;&gt;Node19</title>
<g id="a_edge27_Node000006_Node000019"><a xlink:title=" ">
<path fill="none" stroke="#63b8ff" d="M972.4,-164.75C965.84,-157.18 956.18,-146.05 948.19,-136.84"/>
<polygon fill="#63b8ff" stroke="#63b8ff" points="950.65,-134.35 941.45,-129.09 945.37,-138.94 950.65,-134.35"/>
</a>
</g>
</g>
<!-- Node8&#45;&gt;Node2 -->
<g id="edge12_Node000008_Node000002" class="edge">
<title>Node8&#45;&gt;Node2</title>
<g id="a_edge12_Node000008_Node000002"><a xlink:title=" ">
<path fill="none" stroke="#63b8ff" d="M1418.34,-54.98C1405.16,-46.77 1384.97,-34.18 1369.43,-24.49"/>
<polygon fill="#63b8ff" stroke="#63b8ff" points="1371.24,-21.49 1360.91,-19.17 1367.54,-27.43 1371.24,-21.49"/>
</a>
</g>
</g>
<!-- Node9 -->
<g id="Node000009" class="node">
<title>Node9</title>
<g id="a_Node000009"><a xlink:title=" ">
<polygon fill="#e0e0e0" stroke="#999999" points="1494,-19 1396,-19 1396,0 1494,0 1494,-19"/>
<text text-anchor="middle" x="1445" y="-7" font-family="Helvetica,sans-Serif" font-size="10.00">AMReX_SPACE.H</text>
</a>
</g>
</g>
<!-- Node8&#45;&gt;Node9 -->
<g id="edge13_Node000008_Node000009" class="edge">
<title>Node8&#45;&gt;Node9</title>
<g id="a_edge13_Node000008_Node000009"><a xlink:title=" ">
<path fill="none" stroke="#63b8ff" d="M1434.15,-54.75C1435.87,-47.72 1438.35,-37.62 1440.5,-28.84"/>
<polygon fill="#63b8ff" stroke="#63b8ff" points="1443.91,-29.63 1442.89,-19.09 1437.11,-27.97 1443.91,-29.63"/>
</a>
</g>
</g>
<!-- Node10&#45;&gt;Node2 -->
<g id="edge15_Node000010_Node000002" class="edge">
<title>Node10&#45;&gt;Node2</title>
<g id="a_edge15_Node000010_Node000002"><a xlink:title=" ">
<path fill="none" stroke="#63b8ff" d="M1519.06,-109.75C1514.03,-96.09 1502.49,-69.73 1484,-55 1469,-43.05 1422.81,-29.45 1388.18,-20.46"/>
<polygon fill="#63b8ff" stroke="#63b8ff" points="1388.85,-17.02 1378.3,-17.94 1387.12,-23.8 1388.85,-17.02"/>
</a>
</g>
</g>
<!-- Node10&#45;&gt;Node8 -->
<g id="edge18_Node000010_Node000008" class="edge">
<title>Node10&#45;&gt;Node8</title>
<g id="a_edge18_Node000010_Node000008"><a xlink:title=" ">
<path fill="none" stroke="#63b8ff" d="M1507.54,-109.98C1493.58,-101.77 1472.21,-89.18 1455.75,-79.49"/>
<polygon fill="#63b8ff" stroke="#63b8ff" points="1457.12,-76.23 1446.72,-74.17 1453.56,-82.26 1457.12,-76.23"/>
</a>
</g>
</g>
<!-- Node11 -->
<g id="Node000011" class="node">
<title>Node11</title>
<g id="a_Node000011"><a xlink:title=" ">
<polygon fill="#e0e0e0" stroke="#999999" points="1631,-74 1531,-74 1531,-55 1631,-55 1631,-74"/>
<text text-anchor="middle" x="1581" y="-62" font-family="Helvetica,sans-Serif" font-size="10.00">AMReX_Array4.H</text>
</a>
</g>
</g>
<!-- Node10&#45;&gt;Node11 -->
<g id="edge16_Node000010_Node000011" class="edge">
<title>Node10&#45;&gt;Node11</title>
<g id="a_edge16_Node000010_Node000011"><a xlink:title=" ">
<path fill="none" stroke="#63b8ff" d="M1531.48,-109.98C1540.2,-102.15 1553.34,-90.34 1563.9,-80.86"/>
<polygon fill="#63b8ff" stroke="#63b8ff" points="1566.25,-83.46 1571.35,-74.17 1561.57,-78.25 1566.25,-83.46"/>
</a>
</g>
</g>
<!-- Node12 -->
<g id="Node000012" class="node">
<title>Node12</title>
<g id="a_Node000012"><a xlink:title=" ">
<polygon fill="#e0e0e0" stroke="#999999" points="1739,-74 1649,-74 1649,-55 1739,-55 1739,-74"/>
<text text-anchor="middle" x="1694" y="-62" font-family="Helvetica,sans-Serif" font-size="10.00">AMReX_Print.H</text>
</a>
</g>
</g>
<!-- Node10&#45;&gt;Node12 -->
<g id="edge17_Node000010_Node000012" class="edge">
<title>Node10&#45;&gt;Node12</title>
<g id="a_edge17_Node000010_Node000012"><a xlink:title=" ">
<path fill="none" stroke="#63b8ff" d="M1549.63,-109.98C1578.51,-101.09 1624.01,-87.07 1656.2,-77.15"/>
<polygon fill="#63b8ff" stroke="#63b8ff" points="1657.62,-80.37 1666.15,-74.08 1655.56,-73.68 1657.62,-80.37"/>
</a>
</g>
</g>
<!-- Node13&#45;&gt;Node2 -->
<g id="edge20_Node000013_Node000002" class="edge">
<title>Node13&#45;&gt;Node2</title>
<g id="a_edge20_Node000013_Node000002"><a xlink:title=" ">
<path fill="none" stroke="#63b8ff" d="M484.98,-109.55C491.94,-95.1 507.84,-67.03 531,-55 600,-19.15 1149.16,-12.07 1305.57,-10.77"/>
<polygon fill="#63b8ff" stroke="#63b8ff" points="1305.74,-14.27 1315.72,-10.69 1305.69,-7.27 1305.74,-14.27"/>
</a>
</g>
</g>
<!-- Node13&#45;&gt;Node5 -->
<g id="edge24_Node000013_Node000005" class="edge">
<title>Node13&#45;&gt;Node5</title>
<g id="a_edge24_Node000013_Node000005"><a xlink:title=" ">
<path fill="none" stroke="#63b8ff" d="M499.16,-109.98C517.25,-101.5 545.28,-88.35 566.19,-78.54"/>
<polygon fill="#63b8ff" stroke="#63b8ff" points="567.95,-81.59 575.51,-74.17 564.97,-75.25 567.95,-81.59"/>
</a>
</g>
</g>
<!-- Node14 -->
<g id="Node000014" class="node">
<title>Node14</title>
<g id="a_Node000014"><a xlink:title=" ">
<polygon fill="#e0e0e0" stroke="#999999" points="356,-74 246,-74 246,-55 356,-55 356,-74"/>
<text text-anchor="middle" x="301" y="-62" font-family="Helvetica,sans-Serif" font-size="10.00">AMReX_RealVect.H</text>
</a>
</g>
</g>
<!-- Node13&#45;&gt;Node14 -->
<g id="edge21_Node000013_Node000014" class="edge">
<title>Node13&#45;&gt;Node14</title>
<g id="a_edge21_Node000013_Node000014"><a xlink:title=" ">
<path fill="none" stroke="#63b8ff" d="M452.08,-109.98C421.73,-101.05 373.83,-86.94 340.12,-77.02"/>
<polygon fill="#63b8ff" stroke="#63b8ff" points="340.73,-73.55 330.15,-74.08 338.75,-80.26 340.73,-73.55"/>
</a>
</g>
</g>
<!-- Node15 -->
<g id="Node000015" class="node">
<title>Node15</title>
<g id="a_Node000015"><a xlink:title=" ">
<polygon fill="#e0e0e0" stroke="#999999" points="483.5,-74 374.5,-74 374.5,-55 483.5,-55 483.5,-74"/>
<text text-anchor="middle" x="429" y="-62" font-family="Helvetica,sans-Serif" font-size="10.00">AMReX_MultiFab.H</text>
</a>
</g>
</g>
<!-- Node13&#45;&gt;Node15 -->
<g id="edge22_Node000013_Node000015" class="edge">
<title>Node13&#45;&gt;Node15</title>
<g id="a_edge22_Node000013_Node000015"><a xlink:title=" ">
<path fill="none" stroke="#63b8ff" d="M472.41,-109.75C464.84,-102.03 453.62,-90.6 444.49,-81.28"/>
<polygon fill="#63b8ff" stroke="#63b8ff" points="446.93,-78.78 437.43,-74.09 441.93,-83.68 446.93,-78.78"/>
</a>
</g>
</g>
<!-- Node16 -->
<g id="Node000016" class="node">
<title>Node16</title>
<g id="a_Node000016"><a xlink:title=" ">
<polygon fill="#e0e0e0" stroke="#999999" points="228,-74 102,-74 102,-55 228,-55 228,-74"/>
<text text-anchor="middle" x="165" y="-62" font-family="Helvetica,sans-Serif" font-size="10.00">AMReX_MultiFabUtil.H</text>
</a>
</g>
</g>
<!-- Node13&#45;&gt;Node16 -->
<g id="edge23_Node000013_Node000016" class="edge">
<title>Node13&#45;&gt;Node16</title>
<g id="a_edge23_Node000013_Node000016"><a xlink:title=" ">
<path fill="none" stroke="#63b8ff" d="M448.37,-113.03C395.95,-104.24 292.14,-86.82 225.77,-75.69"/>
<polygon fill="#63b8ff" stroke="#63b8ff" points="226.3,-72.23 215.86,-74.03 225.14,-79.14 226.3,-72.23"/>
</a>
</g>
</g>
<!-- Node17 -->
<g id="Node000017" class="node">
<title>Node17</title>
<g id="a_Node000017"><a xlink:href="_constants_8_h.html" target="_top" xlink:title=" ">
<polygon fill="white" stroke="#666666" points="84,-74 8,-74 8,-55 84,-55 84,-74"/>
<text text-anchor="middle" x="46" y="-62" font-family="Helvetica,sans-Serif" font-size="10.00">Constants.H</text>
</a>
</g>
</g>
<!-- Node13&#45;&gt;Node17 -->
<g id="edge25_Node000013_Node000017" class="edge">
<title>Node13&#45;&gt;Node17</title>
<g id="a_edge25_Node000013_Node000017"><a xlink:title=" ">
<path fill="none" stroke="#63b8ff" d="M448.46,-115.49C383.29,-109.3 231.93,-94.15 94.48,-74.13"/>
<polygon fill="#63b8ff" stroke="#63b8ff" points="94.59,-70.61 84.19,-72.62 93.57,-77.54 94.59,-70.61"/>
</a>
</g>
</g>
<!-- Node18 -->
<g id="Node000018" class="node">
<title>Node18</title>
<g id="a_Node000018"><a xlink:title=" ">
<polygon fill="#e0e0e0" stroke="#999999" points="92,-19 0,-19 0,0 92,0 92,-19"/>
<text text-anchor="middle" x="46" y="-7" font-family="Helvetica,sans-Serif" font-size="10.00">AMReX_REAL.H</text>
</a>
</g>
</g>
<!-- Node17&#45;&gt;Node18 -->
<g id="edge26_Node000017_Node000018" class="edge">
<title>Node17&#45;&gt;Node18</title>
<g id="a_edge26_Node000017_Node000018"><a xlink:title=" ">
<path fill="none" stroke="#63b8ff" d="M46,-54.75C46,-47.8 46,-37.85 46,-29.13"/>
<polygon fill="#63b8ff" stroke="#63b8ff" points="49.5,-29.09 46,-19.09 42.5,-29.09 49.5,-29.09"/>
</a>
</g>
</g>
<!-- Node20&#45;&gt;Node2 -->
<g id="edge29_Node000020_Node000002" class="edge">
<title>Node20&#45;&gt;Node2</title>
<g id="a_edge29_Node000020_Node000002"><a xlink:title=" ">
<path fill="none" stroke="#63b8ff" d="M1413.28,-109.99C1403.97,-101.5 1389.91,-87.78 1380,-74 1369.69,-59.68 1360.66,-41.7 1354.67,-28.53"/>
<polygon fill="#63b8ff" stroke="#63b8ff" points="1357.78,-26.91 1350.54,-19.17 1351.37,-29.73 1357.78,-26.91"/>
</a>
</g>
</g>
<!-- Node20&#45;&gt;Node8 -->
<g id="edge30_Node000020_Node000008" class="edge">
<title>Node20&#45;&gt;Node8</title>
<g id="a_edge30_Node000020_Node000008"><a xlink:title=" ">
<path fill="none" stroke="#63b8ff" d="M1424.49,-109.75C1425.67,-102.8 1427.36,-92.85 1428.84,-84.13"/>
<polygon fill="#63b8ff" stroke="#63b8ff" points="1432.32,-84.53 1430.54,-74.09 1425.42,-83.36 1432.32,-84.53"/>
</a>
</g>
</g>
<!-- Node21&#45;&gt;Node2 -->
<g id="edge32_Node000021_Node000002" class="edge">
<title>Node21&#45;&gt;Node2</title>
<g id="a_edge32_Node000021_Node000002"><a xlink:title=" ">
<path fill="none" stroke="#63b8ff" d="M1593.04,-165.99C1662.09,-150.44 1799.06,-111.41 1748,-55 1695.85,2.61 1482.86,-28.91 1388.48,-18.83"/>
<polygon fill="#63b8ff" stroke="#63b8ff" points="1388.75,-15.33 1378.38,-17.51 1387.85,-22.27 1388.75,-15.33"/>
</a>
</g>
</g>
<!-- Node21&#45;&gt;Node10 -->
<g id="edge35_Node000021_Node000010" class="edge">
<title>Node21&#45;&gt;Node10</title>
<g id="a_edge35_Node000021_Node000010"><a xlink:title=" ">
<path fill="none" stroke="#63b8ff" d="M1550.39,-164.75C1545.68,-157.42 1538.83,-146.73 1533.03,-137.7"/>
<polygon fill="#63b8ff" stroke="#63b8ff" points="1535.86,-135.62 1527.51,-129.09 1529.96,-139.4 1535.86,-135.62"/>
</a>
</g>
</g>
<!-- Node21&#45;&gt;Node11 -->
<g id="edge33_Node000021_Node000011" class="edge">
<title>Node21&#45;&gt;Node11</title>
<g id="a_edge33_Node000021_Node000011"><a xlink:title=" ">
<path fill="none" stroke="#63b8ff" d="M1559.73,-164.8C1563.38,-155.95 1568.84,-141.75 1572,-129 1575.65,-114.27 1577.97,-97.23 1579.33,-84.51"/>
<polygon fill="#63b8ff" stroke="#63b8ff" points="1582.85,-84.53 1580.33,-74.24 1575.88,-83.85 1582.85,-84.53"/>
</a>
</g>
</g>
<!-- Node21&#45;&gt;Node12 -->
<g id="edge34_Node000021_Node000012" class="edge">
<title>Node21&#45;&gt;Node12</title>
<g id="a_edge34_Node000021_Node000012"><a xlink:title=" ">
<path fill="none" stroke="#63b8ff" d="M1567.29,-164.66C1590.86,-146.22 1645.51,-103.45 1674.74,-80.57"/>
<polygon fill="#63b8ff" stroke="#63b8ff" points="1677.22,-83.08 1682.94,-74.16 1672.9,-77.57 1677.22,-83.08"/>
</a>
</g>
</g>
<!-- Node21&#45;&gt;Node20 -->
<g id="edge36_Node000021_Node000020" class="edge">
<title>Node21&#45;&gt;Node20</title>
<g id="a_edge36_Node000021_Node000020"><a xlink:title=" ">
<path fill="none" stroke="#63b8ff" d="M1534.63,-164.98C1512.85,-156.3 1478.84,-142.75 1454.08,-132.88"/>
<polygon fill="#63b8ff" stroke="#63b8ff" points="1455.34,-129.62 1444.76,-129.17 1452.75,-136.12 1455.34,-129.62"/>
</a>
</g>
</g>
</g>
</svg>

<g id="navigator" transform="translate(0 0)" fill="#404254">
  <rect fill="#f2f5e9" fill-opacity="0.5" stroke="#606060" stroke-width=".5" x="0" y="0" width="60" height="60"/>
  <use id="zoomplus" xlink:href="#zoomPlus" x="17" y="9" onmousedown="handleZoom(evt,'in')"/>
  <use id="zoomminus" xlink:href="#zoomMin" x="42" y="9" onmousedown="handleZoom(evt,'out')"/>
  <use id="reset" xlink:href="#resetDef" x="30" y="36" onmousedown="handleReset()"/>
   <use id="arrowup" xlink:href="#arrowUp" x="0" y="0" onmousedown="handlePan(0,-1)"/>
  <use id="arrowright" xlink:href="#arrowRight" x="0" y="0" onmousedown="handlePan(1,0)"/>
  <use id="arrowdown" xlink:href="#arrowDown" x="0" y="0" onmousedown="handlePan(0,1)"/>
  <use id="arrowleft" xlink:href="#arrowLeft" x="0" y="0" onmousedown="handlePan(-1,0)"/>
</g>
<svg viewBox="0 0 15 15" width="100%" height="30px" preserveAspectRatio="xMaxYMin meet">
 <g id="arrow_out" transform="scale(0.3 0.3)">
  <a xlink:href="_entity_particle_container_8_h__incl_org.svg" target="_base">
   <rect id="button" ry="5" rx="5" y="6" x="6" height="38" width="38"
        fill="#f2f5e9" fill-opacity="0.5" stroke="#606060" stroke-width="1.0"/>
   <path id="arrow"
     d="M 11.500037,31.436501 C 11.940474,20.09759 22.043105,11.32322 32.158766,21.979434 L 37.068811,17.246167 C 37.068811,17.246167 37.088388,32 37.088388,32 L 22.160133,31.978069 C 22.160133,31.978069 26.997745,27.140456 26.997745,27.140456 C 18.528582,18.264221 13.291696,25.230495 11.500037,31.436501 z"
     style="fill:#404040;"/>
  </a>
 </g>
</svg>

<style type='text/css'>
<![CDATA[
[data-mouse-over-selected='false'] { opacity: 0.7; }
[data-mouse-over-selected='true']  { opacity: 1.0; }
]]>
</style>
<script type="application/ecmascript"><![CDATA[
document.addEventListener('DOMContentLoaded', (event) => {
  highlightEdges();
  highlightAdjacentNodes();
});
]]></script>
</svg>
