<?xml version="1.0" encoding="UTF-8" standalone="no"?>
<!DOCTYPE svg PUBLIC "-//W3C//DTD SVG 1.1//EN"
 "http://www.w3.org/Graphics/SVG/1.1/DTD/svg11.dtd">
<!-- Generated by graphviz version 2.43.0 (0)
 -->
<!-- Title: /home/runner/work/spades/spades/Source/IC.cpp Pages: 1 -->
<svg width="708pt" height="258pt"
 viewBox="0.00 0.00 708.12 258.00" xmlns="http://www.w3.org/2000/svg" xmlns:xlink="http://www.w3.org/1999/xlink">
<g id="graph0" class="graph" transform="scale(1 1) rotate(0) translate(4 254)">
<title>/home/runner/work/spades/spades/Source/IC.cpp</title>
<!-- Node1 -->
<g id="Node000001" class="node">
<title>Node1</title>
<g id="a_Node000001"><a xlink:title=" ">
<polygon fill="#999999" stroke="#666666" points="239.62,-250 93.62,-250 93.62,-220 239.62,-220 239.62,-250"/>
<text text-anchor="start" x="101.62" y="-238" font-family="Helvetica,sans-Serif" font-size="10.00">/home/runner/work/spades</text>
<text text-anchor="middle" x="166.62" y="-227" font-family="Helvetica,sans-Serif" font-size="10.00">/spades/Source/IC.cpp</text>
</a>
</g>
</g>
<!-- Node2 -->
<g id="Node000002" class="node">
<title>Node2</title>
<g id="a_Node000002"><a xlink:href="_i_c_8_h.html" target="_top" xlink:title=" ">
<polygon fill="white" stroke="#666666" points="185.12,-184 148.12,-184 148.12,-165 185.12,-165 185.12,-184"/>
<text text-anchor="middle" x="166.62" y="-172" font-family="Helvetica,sans-Serif" font-size="10.00">IC.H</text>
</a>
</g>
</g>
<!-- Node1&#45;&gt;Node2 -->
<g id="edge1_Node000001_Node000002" class="edge">
<title>Node1&#45;&gt;Node2</title>
<g id="a_edge1_Node000001_Node000002"><a xlink:title=" ">
<path fill="none" stroke="#63b8ff" d="M166.62,-219.84C166.62,-212.21 166.62,-202.7 166.62,-194.45"/>
<polygon fill="#63b8ff" stroke="#63b8ff" points="170.12,-194.27 166.62,-184.27 163.12,-194.27 170.12,-194.27"/>
</a>
</g>
</g>
<!-- Node3 -->
<g id="Node000003" class="node">
<title>Node3</title>
<g id="a_Node000003"><a xlink:title=" ">
<polygon fill="#e0e0e0" stroke="#999999" points="80.62,-74 18.62,-74 18.62,-55 80.62,-55 80.62,-74"/>
<text text-anchor="middle" x="49.62" y="-62" font-family="Helvetica,sans-Serif" font-size="10.00">AMReX.H</text>
</a>
</g>
</g>
<!-- Node2&#45;&gt;Node3 -->
<g id="edge2_Node000002_Node000003" class="edge">
<title>Node2&#45;&gt;Node3</title>
<g id="a_edge2_Node000002_Node000003"><a xlink:title=" ">
<path fill="none" stroke="#63b8ff" d="M157.05,-164.66C137.24,-146.38 91.53,-104.18 66.59,-81.17"/>
<polygon fill="#63b8ff" stroke="#63b8ff" points="68.72,-78.37 59,-74.16 63.98,-83.51 68.72,-78.37"/>
</a>
</g>
</g>
<!-- Node4 -->
<g id="Node000004" class="node">
<title>Node4</title>
<g id="a_Node000004"><a xlink:title=" ">
<polygon fill="#e0e0e0" stroke="#999999" points="308.62,-19 216.62,-19 216.62,0 308.62,0 308.62,-19"/>
<text text-anchor="middle" x="262.62" y="-7" font-family="Helvetica,sans-Serif" font-size="10.00">AMReX_REAL.H</text>
</a>
</g>
</g>
<!-- Node2&#45;&gt;Node4 -->
<g id="edge3_Node000002_Node000004" class="edge">
<title>Node2&#45;&gt;Node4</title>
<g id="a_edge3_Node000002_Node000004"><a xlink:title=" ">
<path fill="none" stroke="#63b8ff" d="M148.05,-168.51C97.42,-154.05 -36.27,-109.66 9.62,-55 34.22,-25.7 139.49,-15.68 206.25,-12.27"/>
<polygon fill="#63b8ff" stroke="#63b8ff" points="206.79,-15.74 216.61,-11.77 206.46,-8.75 206.79,-15.74"/>
</a>
</g>
</g>
<!-- Node5 -->
<g id="Node000005" class="node">
<title>Node5</title>
<g id="a_Node000005"><a xlink:title=" ">
<polygon fill="#e0e0e0" stroke="#999999" points="208.62,-74 98.62,-74 98.62,-55 208.62,-55 208.62,-74"/>
<text text-anchor="middle" x="153.62" y="-62" font-family="Helvetica,sans-Serif" font-size="10.00">AMReX_RealVect.H</text>
</a>
</g>
</g>
<!-- Node2&#45;&gt;Node5 -->
<g id="edge4_Node000002_Node000005" class="edge">
<title>Node2&#45;&gt;Node5</title>
<g id="a_edge4_Node000002_Node000005"><a xlink:title=" ">
<path fill="none" stroke="#63b8ff" d="M159.99,-164.88C153.86,-156.32 145.17,-142.54 141.62,-129 137.67,-113.91 141.56,-96.47 145.93,-83.7"/>
<polygon fill="#63b8ff" stroke="#63b8ff" points="149.25,-84.8 149.55,-74.21 142.71,-82.3 149.25,-84.8"/>
</a>
</g>
</g>
<!-- Node6 -->
<g id="Node000006" class="node">
<title>Node6</title>
<g id="a_Node000006"><a xlink:title=" ">
<polygon fill="#e0e0e0" stroke="#999999" points="270.12,-129 151.12,-129 151.12,-110 270.12,-110 270.12,-129"/>
<text text-anchor="middle" x="210.62" y="-117" font-family="Helvetica,sans-Serif" font-size="10.00">AMReX_ParmParse.H</text>
</a>
</g>
</g>
<!-- Node2&#45;&gt;Node6 -->
<g id="edge5_Node000002_Node000006" class="edge">
<title>Node2&#45;&gt;Node6</title>
<g id="a_edge5_Node000002_Node000006"><a xlink:title=" ">
<path fill="none" stroke="#63b8ff" d="M173.89,-164.75C180.17,-157.18 189.41,-146.05 197.05,-136.84"/>
<polygon fill="#63b8ff" stroke="#63b8ff" points="199.8,-139.02 203.49,-129.09 194.41,-134.55 199.8,-139.02"/>
</a>
</g>
</g>
<!-- Node7 -->
<g id="Node000007" class="node">
<title>Node7</title>
<g id="a_Node000007"><a xlink:title=" ">
<polygon fill="#e0e0e0" stroke="#999999" points="700.12,-74 591.12,-74 591.12,-55 700.12,-55 700.12,-74"/>
<text text-anchor="middle" x="645.62" y="-62" font-family="Helvetica,sans-Serif" font-size="10.00">AMReX_MultiFab.H</text>
</a>
</g>
</g>
<!-- Node2&#45;&gt;Node7 -->
<g id="edge6_Node000002_Node000007" class="edge">
<title>Node2&#45;&gt;Node7</title>
<g id="a_edge6_Node000002_Node000007"><a xlink:title=" ">
<path fill="none" stroke="#63b8ff" d="M185.4,-169.27C254.28,-153.74 494.44,-99.59 597.76,-76.29"/>
<polygon fill="#63b8ff" stroke="#63b8ff" points="598.63,-79.68 607.61,-74.07 597.09,-72.85 598.63,-79.68"/>
</a>
</g>
</g>
<!-- Node8 -->
<g id="Node000008" class="node">
<title>Node8</title>
<g id="a_Node000008"><a xlink:href="_utilities_8_h.html" target="_top" xlink:title=" ">
<polygon fill="white" stroke="#666666" points="353.12,-129 288.12,-129 288.12,-110 353.12,-110 353.12,-129"/>
<text text-anchor="middle" x="320.62" y="-117" font-family="Helvetica,sans-Serif" font-size="10.00">Utilities.H</text>
</a>
</g>
</g>
<!-- Node2&#45;&gt;Node8 -->
<g id="edge7_Node000002_Node000008" class="edge">
<title>Node2&#45;&gt;Node8</title>
<g id="a_edge7_Node000002_Node000008"><a xlink:title=" ">
<path fill="none" stroke="#63b8ff" d="M185.2,-167.11C210.18,-158.51 255.05,-143.07 286.26,-132.33"/>
<polygon fill="#63b8ff" stroke="#63b8ff" points="287.56,-135.58 295.88,-129.02 285.28,-128.96 287.56,-135.58"/>
</a>
</g>
</g>
<!-- Node8&#45;&gt;Node3 -->
<g id="edge8_Node000008_Node000003" class="edge">
<title>Node8&#45;&gt;Node3</title>
<g id="a_edge8_Node000008_Node000003"><a xlink:title=" ">
<path fill="none" stroke="#63b8ff" d="M288.07,-111.87C284.88,-111.24 281.69,-110.6 278.62,-110 197.83,-94.13 175.11,-91.1 91.05,-74.26"/>
<polygon fill="#63b8ff" stroke="#63b8ff" points="91.55,-70.78 81.05,-72.24 90.17,-77.65 91.55,-70.78"/>
</a>
</g>
</g>
<!-- Node8&#45;&gt;Node5 -->
<g id="edge9_Node000008_Node000005" class="edge">
<title>Node8&#45;&gt;Node5</title>
<g id="a_edge9_Node000008_Node000005"><a xlink:title=" ">
<path fill="none" stroke="#63b8ff" d="M293.79,-109.98C265.75,-101.09 221.58,-87.07 190.32,-77.15"/>
<polygon fill="#63b8ff" stroke="#63b8ff" points="191.25,-73.77 180.66,-74.08 189.14,-80.44 191.25,-73.77"/>
</a>
</g>
</g>
<!-- Node8&#45;&gt;Node7 -->
<g id="edge10_Node000008_Node000007" class="edge">
<title>Node8&#45;&gt;Node7</title>
<g id="a_edge10_Node000008_Node000007"><a xlink:title=" ">
<path fill="none" stroke="#63b8ff" d="M353.27,-113.18C406.86,-104.44 514.36,-86.91 583.01,-75.71"/>
<polygon fill="#63b8ff" stroke="#63b8ff" points="583.95,-79.1 593.26,-74.04 582.83,-72.19 583.95,-79.1"/>
</a>
</g>
</g>
<!-- Node9 -->
<g id="Node000009" class="node">
<title>Node9</title>
<g id="a_Node000009"><a xlink:title=" ">
<polygon fill="#e0e0e0" stroke="#999999" points="352.62,-74 226.62,-74 226.62,-55 352.62,-55 352.62,-74"/>
<text text-anchor="middle" x="289.62" y="-62" font-family="Helvetica,sans-Serif" font-size="10.00">AMReX_MultiFabUtil.H</text>
</a>
</g>
</g>
<!-- Node8&#45;&gt;Node9 -->
<g id="edge11_Node000008_Node000009" class="edge">
<title>Node8&#45;&gt;Node9</title>
<g id="a_edge11_Node000008_Node000009"><a xlink:title=" ">
<path fill="none" stroke="#63b8ff" d="M315.5,-109.75C311.26,-102.49 305.1,-91.95 299.85,-82.98"/>
<polygon fill="#63b8ff" stroke="#63b8ff" points="302.72,-80.95 294.65,-74.09 296.67,-84.49 302.72,-80.95"/>
</a>
</g>
</g>
<!-- Node10 -->
<g id="Node000010" class="node">
<title>Node10</title>
<g id="a_Node000010"><a xlink:title=" ">
<polygon fill="#e0e0e0" stroke="#999999" points="478.62,-74 370.62,-74 370.62,-55 478.62,-55 478.62,-74"/>
<text text-anchor="middle" x="424.62" y="-62" font-family="Helvetica,sans-Serif" font-size="10.00">AMReX_Random.H</text>
</a>
</g>
</g>
<!-- Node8&#45;&gt;Node10 -->
<g id="edge12_Node000008_Node000010" class="edge">
<title>Node8&#45;&gt;Node10</title>
<g id="a_edge12_Node000008_Node000010"><a xlink:title=" ">
<path fill="none" stroke="#63b8ff" d="M337.33,-109.98C353.84,-101.57 379.32,-88.59 398.5,-78.81"/>
<polygon fill="#63b8ff" stroke="#63b8ff" points="400.29,-81.83 407.61,-74.17 397.11,-75.59 400.29,-81.83"/>
</a>
</g>
</g>
<!-- Node11 -->
<g id="Node000011" class="node">
<title>Node11</title>
<g id="a_Node000011"><a xlink:href="_constants_8_h.html" target="_top" xlink:title=" ">
<polygon fill="white" stroke="#666666" points="572.62,-74 496.62,-74 496.62,-55 572.62,-55 572.62,-74"/>
<text text-anchor="middle" x="534.62" y="-62" font-family="Helvetica,sans-Serif" font-size="10.00">Constants.H</text>
</a>
</g>
</g>
<!-- Node8&#45;&gt;Node11 -->
<g id="edge13_Node000008_Node000011" class="edge">
<title>Node8&#45;&gt;Node11</title>
<g id="a_edge13_Node000008_Node000011"><a xlink:title=" ">
<path fill="none" stroke="#63b8ff" d="M353.12,-110.45C389.67,-101.4 449.22,-86.65 490.08,-76.53"/>
<polygon fill="#63b8ff" stroke="#63b8ff" points="491.17,-79.87 500.04,-74.07 489.49,-73.07 491.17,-79.87"/>
</a>
</g>
</g>
<!-- Node11&#45;&gt;Node4 -->
<g id="edge14_Node000011_Node000004" class="edge">
<title>Node11&#45;&gt;Node4</title>
<g id="a_edge14_Node000011_Node000004"><a xlink:title=" ">
<path fill="none" stroke="#63b8ff" d="M496.52,-56.07C449.54,-46.92 369.42,-31.31 316.25,-20.95"/>
<polygon fill="#63b8ff" stroke="#63b8ff" points="316.8,-17.49 306.32,-19.01 315.46,-24.36 316.8,-17.49"/>
</a>
</g>
</g>
</g>
</svg>
