<?xml version="1.0" encoding="UTF-8" standalone="no"?>
<!DOCTYPE svg PUBLIC "-//W3C//DTD SVG 1.1//EN"
 "http://www.w3.org/Graphics/SVG/1.1/DTD/svg11.dtd">
<!-- Generated by graphviz version 2.43.0 (0)
 -->
<!-- Title: /home/runner/work/spades/spades/Source/IC.H Pages: 1 -->
<svg width="709pt" height="203pt"
 viewBox="0.00 0.00 708.77 203.00" xmlns="http://www.w3.org/2000/svg" xmlns:xlink="http://www.w3.org/1999/xlink">
<g id="graph0" class="graph" transform="scale(1 1) rotate(0) translate(4 199)">
<title>/home/runner/work/spades/spades/Source/IC.H</title>
<!-- Node1 -->
<g id="Node000001" class="node">
<title>Node1</title>
<g id="a_Node000001"><a xlink:title=" ">
<polygon fill="#999999" stroke="#666666" points="240.27,-195 94.27,-195 94.27,-165 240.27,-165 240.27,-195"/>
<text text-anchor="start" x="102.27" y="-183" font-family="Helvetica,sans-Serif" font-size="10.00">/home/runner/work/spades</text>
<text text-anchor="middle" x="167.27" y="-172" font-family="Helvetica,sans-Serif" font-size="10.00">/spades/Source/IC.H</text>
</a>
</g>
</g>
<!-- Node2 -->
<g id="Node000002" class="node">
<title>Node2</title>
<g id="a_Node000002"><a xlink:title=" ">
<polygon fill="#e0e0e0" stroke="#999999" points="81.27,-74 19.27,-74 19.27,-55 81.27,-55 81.27,-74"/>
<text text-anchor="middle" x="50.27" y="-62" font-family="Helvetica,sans-Serif" font-size="10.00">AMReX.H</text>
</a>
</g>
</g>
<!-- Node1&#45;&gt;Node2 -->
<g id="edge1_Node000001_Node000002" class="edge">
<title>Node1&#45;&gt;Node2</title>
<g id="a_edge1_Node000001_Node000002"><a xlink:title=" ">
<path fill="none" stroke="#63b8ff" d="M152.45,-164.63C130.45,-143.28 89.29,-103.36 66.5,-81.25"/>
<polygon fill="#63b8ff" stroke="#63b8ff" points="68.88,-78.68 59.27,-74.23 64.01,-83.7 68.88,-78.68"/>
</a>
</g>
</g>
<!-- Node3 -->
<g id="Node000003" class="node">
<title>Node3</title>
<g id="a_Node000003"><a xlink:title=" ">
<polygon fill="#e0e0e0" stroke="#999999" points="309.27,-19 217.27,-19 217.27,0 309.27,0 309.27,-19"/>
<text text-anchor="middle" x="263.27" y="-7" font-family="Helvetica,sans-Serif" font-size="10.00">AMReX_REAL.H</text>
</a>
</g>
</g>
<!-- Node1&#45;&gt;Node3 -->
<g id="edge2_Node000001_Node000003" class="edge">
<title>Node1&#45;&gt;Node3</title>
<g id="a_edge2_Node000001_Node000003"><a xlink:title=" ">
<path fill="none" stroke="#63b8ff" d="M121.85,-164.84C62.46,-144.04 -29.59,-102.49 10.27,-55 34.87,-25.7 140.13,-15.68 206.89,-12.27"/>
<polygon fill="#63b8ff" stroke="#63b8ff" points="207.43,-15.74 217.26,-11.77 207.1,-8.75 207.43,-15.74"/>
</a>
</g>
</g>
<!-- Node4 -->
<g id="Node000004" class="node">
<title>Node4</title>
<g id="a_Node000004"><a xlink:title=" ">
<polygon fill="#e0e0e0" stroke="#999999" points="209.27,-74 99.27,-74 99.27,-55 209.27,-55 209.27,-74"/>
<text text-anchor="middle" x="154.27" y="-62" font-family="Helvetica,sans-Serif" font-size="10.00">AMReX_RealVect.H</text>
</a>
</g>
</g>
<!-- Node1&#45;&gt;Node4 -->
<g id="edge3_Node000001_Node000004" class="edge">
<title>Node1&#45;&gt;Node4</title>
<g id="a_edge3_Node000001_Node000004"><a xlink:title=" ">
<path fill="none" stroke="#63b8ff" d="M157.94,-164.81C152.17,-155.15 145.3,-141.85 142.27,-129 138.68,-113.82 142.53,-96.39 146.8,-83.64"/>
<polygon fill="#63b8ff" stroke="#63b8ff" points="150.11,-84.77 150.33,-74.18 143.55,-82.33 150.11,-84.77"/>
</a>
</g>
</g>
<!-- Node5 -->
<g id="Node000005" class="node">
<title>Node5</title>
<g id="a_Node000005"><a xlink:title=" ">
<polygon fill="#e0e0e0" stroke="#999999" points="270.77,-129 151.77,-129 151.77,-110 270.77,-110 270.77,-129"/>
<text text-anchor="middle" x="211.27" y="-117" font-family="Helvetica,sans-Serif" font-size="10.00">AMReX_ParmParse.H</text>
</a>
</g>
</g>
<!-- Node1&#45;&gt;Node5 -->
<g id="edge4_Node000001_Node000005" class="edge">
<title>Node1&#45;&gt;Node5</title>
<g id="a_edge4_Node000001_Node000005"><a xlink:title=" ">
<path fill="none" stroke="#63b8ff" d="M177.92,-164.84C184.11,-156.61 191.95,-146.18 198.48,-137.51"/>
<polygon fill="#63b8ff" stroke="#63b8ff" points="201.46,-139.36 204.67,-129.27 195.87,-135.15 201.46,-139.36"/>
</a>
</g>
</g>
<!-- Node6 -->
<g id="Node000006" class="node">
<title>Node6</title>
<g id="a_Node000006"><a xlink:title=" ">
<polygon fill="#e0e0e0" stroke="#999999" points="700.77,-74 591.77,-74 591.77,-55 700.77,-55 700.77,-74"/>
<text text-anchor="middle" x="646.27" y="-62" font-family="Helvetica,sans-Serif" font-size="10.00">AMReX_MultiFab.H</text>
</a>
</g>
</g>
<!-- Node1&#45;&gt;Node6 -->
<g id="edge5_Node000001_Node000006" class="edge">
<title>Node1&#45;&gt;Node6</title>
<g id="a_edge5_Node000001_Node000006"><a xlink:title=" ">
<path fill="none" stroke="#63b8ff" d="M226.48,-164.97C323.15,-142.06 512.84,-97.12 600.21,-76.41"/>
<polygon fill="#63b8ff" stroke="#63b8ff" points="601.17,-79.78 610.09,-74.07 599.55,-72.97 601.17,-79.78"/>
</a>
</g>
</g>
<!-- Node7 -->
<g id="Node000007" class="node">
<title>Node7</title>
<g id="a_Node000007"><a xlink:href="_utilities_8_h.html" target="_top" xlink:title=" ">
<polygon fill="white" stroke="#666666" points="353.77,-129 288.77,-129 288.77,-110 353.77,-110 353.77,-129"/>
<text text-anchor="middle" x="321.27" y="-117" font-family="Helvetica,sans-Serif" font-size="10.00">Utilities.H</text>
</a>
</g>
</g>
<!-- Node1&#45;&gt;Node7 -->
<g id="edge6_Node000001_Node000007" class="edge">
<title>Node1&#45;&gt;Node7</title>
<g id="a_edge6_Node000001_Node000007"><a xlink:title=" ">
<path fill="none" stroke="#63b8ff" d="M204.15,-164.99C229.96,-155.18 264.11,-142.21 288.87,-132.81"/>
<polygon fill="#63b8ff" stroke="#63b8ff" points="290.42,-135.96 298.53,-129.14 287.93,-129.42 290.42,-135.96"/>
</a>
</g>
</g>
<!-- Node7&#45;&gt;Node2 -->
<g id="edge7_Node000007_Node000002" class="edge">
<title>Node7&#45;&gt;Node2</title>
<g id="a_edge7_Node000007_Node000002"><a xlink:title=" ">
<path fill="none" stroke="#63b8ff" d="M288.72,-111.87C285.52,-111.24 282.33,-110.6 279.27,-110 198.47,-94.13 175.76,-91.1 91.7,-74.26"/>
<polygon fill="#63b8ff" stroke="#63b8ff" points="92.19,-70.78 81.7,-72.24 90.81,-77.65 92.19,-70.78"/>
</a>
</g>
</g>
<!-- Node7&#45;&gt;Node4 -->
<g id="edge8_Node000007_Node000004" class="edge">
<title>Node7&#45;&gt;Node4</title>
<g id="a_edge8_Node000007_Node000004"><a xlink:title=" ">
<path fill="none" stroke="#63b8ff" d="M294.44,-109.98C266.4,-101.09 222.22,-87.07 190.97,-77.15"/>
<polygon fill="#63b8ff" stroke="#63b8ff" points="191.9,-73.77 181.31,-74.08 189.78,-80.44 191.9,-73.77"/>
</a>
</g>
</g>
<!-- Node7&#45;&gt;Node6 -->
<g id="edge9_Node000007_Node000006" class="edge">
<title>Node7&#45;&gt;Node6</title>
<g id="a_edge9_Node000007_Node000006"><a xlink:title=" ">
<path fill="none" stroke="#63b8ff" d="M353.92,-113.18C407.51,-104.44 515.01,-86.91 583.65,-75.71"/>
<polygon fill="#63b8ff" stroke="#63b8ff" points="584.6,-79.1 593.91,-74.04 583.47,-72.19 584.6,-79.1"/>
</a>
</g>
</g>
<!-- Node8 -->
<g id="Node000008" class="node">
<title>Node8</title>
<g id="a_Node000008"><a xlink:title=" ">
<polygon fill="#e0e0e0" stroke="#999999" points="353.27,-74 227.27,-74 227.27,-55 353.27,-55 353.27,-74"/>
<text text-anchor="middle" x="290.27" y="-62" font-family="Helvetica,sans-Serif" font-size="10.00">AMReX_MultiFabUtil.H</text>
</a>
</g>
</g>
<!-- Node7&#45;&gt;Node8 -->
<g id="edge10_Node000007_Node000008" class="edge">
<title>Node7&#45;&gt;Node8</title>
<g id="a_edge10_Node000007_Node000008"><a xlink:title=" ">
<path fill="none" stroke="#63b8ff" d="M316.15,-109.75C311.91,-102.49 305.74,-91.95 300.49,-82.98"/>
<polygon fill="#63b8ff" stroke="#63b8ff" points="303.36,-80.95 295.29,-74.09 297.32,-84.49 303.36,-80.95"/>
</a>
</g>
</g>
<!-- Node9 -->
<g id="Node000009" class="node">
<title>Node9</title>
<g id="a_Node000009"><a xlink:title=" ">
<polygon fill="#e0e0e0" stroke="#999999" points="479.27,-74 371.27,-74 371.27,-55 479.27,-55 479.27,-74"/>
<text text-anchor="middle" x="425.27" y="-62" font-family="Helvetica,sans-Serif" font-size="10.00">AMReX_Random.H</text>
</a>
</g>
</g>
<!-- Node7&#45;&gt;Node9 -->
<g id="edge11_Node000007_Node000009" class="edge">
<title>Node7&#45;&gt;Node9</title>
<g id="a_edge11_Node000007_Node000009"><a xlink:title=" ">
<path fill="none" stroke="#63b8ff" d="M337.98,-109.98C354.48,-101.57 379.97,-88.59 399.15,-78.81"/>
<polygon fill="#63b8ff" stroke="#63b8ff" points="400.93,-81.83 408.25,-74.17 397.76,-75.59 400.93,-81.83"/>
</a>
</g>
</g>
<!-- Node10 -->
<g id="Node000010" class="node">
<title>Node10</title>
<g id="a_Node000010"><a xlink:href="_constants_8_h.html" target="_top" xlink:title=" ">
<polygon fill="white" stroke="#666666" points="573.27,-74 497.27,-74 497.27,-55 573.27,-55 573.27,-74"/>
<text text-anchor="middle" x="535.27" y="-62" font-family="Helvetica,sans-Serif" font-size="10.00">Constants.H</text>
</a>
</g>
</g>
<!-- Node7&#45;&gt;Node10 -->
<g id="edge12_Node000007_Node000010" class="edge">
<title>Node7&#45;&gt;Node10</title>
<g id="a_edge12_Node000007_Node000010"><a xlink:title=" ">
<path fill="none" stroke="#63b8ff" d="M353.77,-110.45C390.31,-101.4 449.86,-86.65 490.72,-76.53"/>
<polygon fill="#63b8ff" stroke="#63b8ff" points="491.82,-79.87 500.68,-74.07 490.13,-73.07 491.82,-79.87"/>
</a>
</g>
</g>
<!-- Node10&#45;&gt;Node3 -->
<g id="edge13_Node000010_Node000003" class="edge">
<title>Node10&#45;&gt;Node3</title>
<g id="a_edge13_Node000010_Node000003"><a xlink:title=" ">
<path fill="none" stroke="#63b8ff" d="M497.16,-56.07C450.19,-46.92 370.06,-31.31 316.89,-20.95"/>
<polygon fill="#63b8ff" stroke="#63b8ff" points="317.45,-17.49 306.96,-19.01 316.11,-24.36 317.45,-17.49"/>
</a>
</g>
</g>
</g>
</svg>
