<?xml version="1.0" encoding="UTF-8" standalone="no"?>
<!DOCTYPE svg PUBLIC "-//W3C//DTD SVG 1.1//EN"
 "http://www.w3.org/Graphics/SVG/1.1/DTD/svg11.dtd">
<!-- Generated by graphviz version 2.43.0 (0)
 -->
<!-- Title: /home/runner/work/spades/spades/Source/MessageParticleContainer.H Pages: 1 -->
<svg width="346pt" height="258pt"
 viewBox="0.00 0.00 345.50 258.00" xmlns="http://www.w3.org/2000/svg" xmlns:xlink="http://www.w3.org/1999/xlink">
<g id="graph0" class="graph" transform="scale(1 1) rotate(0) translate(4 254)">
<title>/home/runner/work/spades/spades/Source/MessageParticleContainer.H</title>
<!-- Node1 -->
<g id="Node000001" class="node">
<title>Node1</title>
<g id="a_Node000001"><a xlink:title=" ">
<polygon fill="#999999" stroke="#666666" points="262,-250 89,-250 89,-209 262,-209 262,-250"/>
<text text-anchor="start" x="97" y="-238" font-family="Helvetica,sans-Serif" font-size="10.00">/home/runner/work/spades</text>
<text text-anchor="start" x="97" y="-227" font-family="Helvetica,sans-Serif" font-size="10.00">/spades/Source/MessageParticle</text>
<text text-anchor="middle" x="175.5" y="-216" font-family="Helvetica,sans-Serif" font-size="10.00">Container.H</text>
</a>
</g>
</g>
<!-- Node2 -->
<g id="Node000002" class="node">
<title>Node2</title>
<g id="a_Node000002"><a xlink:href="_message_particle_container_8cpp.html" target="_top" xlink:title=" ">
<polygon fill="white" stroke="#666666" points="173,-173 0,-173 0,-132 173,-132 173,-173"/>
<text text-anchor="start" x="8" y="-161" font-family="Helvetica,sans-Serif" font-size="10.00">/home/runner/work/spades</text>
<text text-anchor="start" x="8" y="-150" font-family="Helvetica,sans-Serif" font-size="10.00">/spades/Source/MessageParticle</text>
<text text-anchor="middle" x="86.5" y="-139" font-family="Helvetica,sans-Serif" font-size="10.00">Container.cpp</text>
</a>
</g>
</g>
<!-- Node1&#45;&gt;Node2 -->
<g id="edge1_Node000001_Node000002" class="edge">
<title>Node1&#45;&gt;Node2</title>
<g id="a_edge1_Node000001_Node000002"><a xlink:title=" ">
<path fill="none" stroke="#63b8ff" d="M144.47,-202.35C133.05,-192.73 120.34,-182.01 109.73,-173.07"/>
<polygon fill="#63b8ff" stroke="#63b8ff" points="142.21,-205.03 152.12,-208.79 146.72,-199.67 142.21,-205.03"/>
</a>
</g>
</g>
<!-- Node3 -->
<g id="Node000003" class="node">
<title>Node3</title>
<g id="a_Node000003"><a xlink:href="_s_p_a_d_e_s_8_h.html" target="_top" xlink:title=" ">
<polygon fill="white" stroke="#666666" points="337.5,-167.5 191.5,-167.5 191.5,-137.5 337.5,-137.5 337.5,-167.5"/>
<text text-anchor="start" x="199.5" y="-155.5" font-family="Helvetica,sans-Serif" font-size="10.00">/home/runner/work/spades</text>
<text text-anchor="middle" x="264.5" y="-144.5" font-family="Helvetica,sans-Serif" font-size="10.00">/spades/Source/SPADES.H</text>
</a>
</g>
</g>
<!-- Node1&#45;&gt;Node3 -->
<g id="edge2_Node000001_Node000003" class="edge">
<title>Node1&#45;&gt;Node3</title>
<g id="a_edge2_Node000001_Node000003"><a xlink:title=" ">
<path fill="none" stroke="#63b8ff" d="M206.74,-202.17C220.54,-190.55 236.2,-177.34 247.74,-167.63"/>
<polygon fill="#63b8ff" stroke="#63b8ff" points="204.28,-199.67 198.88,-208.79 208.79,-205.03 204.28,-199.67"/>
</a>
</g>
</g>
<!-- Node4 -->
<g id="Node000004" class="node">
<title>Node4</title>
<g id="a_Node000004"><a xlink:href="_run_time_8_h.html" target="_top" xlink:title=" ">
<polygon fill="white" stroke="#666666" points="287,-96 140,-96 140,-66 287,-66 287,-96"/>
<text text-anchor="start" x="148" y="-84" font-family="Helvetica,sans-Serif" font-size="10.00">/home/runner/work/spades</text>
<text text-anchor="middle" x="213.5" y="-73" font-family="Helvetica,sans-Serif" font-size="10.00">/spades/Source/RunTime.H</text>
</a>
</g>
</g>
<!-- Node3&#45;&gt;Node4 -->
<g id="edge3_Node000003_Node000004" class="edge">
<title>Node3&#45;&gt;Node4</title>
<g id="a_edge3_Node000003_Node000004"><a xlink:title=" ">
<path fill="none" stroke="#63b8ff" d="M248.14,-129.21C240.15,-118.32 230.78,-105.55 223.81,-96.04"/>
<polygon fill="#63b8ff" stroke="#63b8ff" points="245.44,-131.44 254.18,-137.44 251.08,-127.3 245.44,-131.44"/>
</a>
</g>
</g>
<!-- Node5 -->
<g id="Node000005" class="node">
<title>Node5</title>
<g id="a_Node000005"><a xlink:href="main_8cpp.html" target="_top" xlink:title=" ">
<polygon fill="white" stroke="#666666" points="337.5,-30 191.5,-30 191.5,0 337.5,0 337.5,-30"/>
<text text-anchor="start" x="199.5" y="-18" font-family="Helvetica,sans-Serif" font-size="10.00">/home/runner/work/spades</text>
<text text-anchor="middle" x="264.5" y="-7" font-family="Helvetica,sans-Serif" font-size="10.00">/spades/Source/main.cpp</text>
</a>
</g>
</g>
<!-- Node3&#45;&gt;Node5 -->
<g id="edge5_Node000003_Node000005" class="edge">
<title>Node3&#45;&gt;Node5</title>
<g id="a_edge5_Node000003_Node000005"><a xlink:title=" ">
<path fill="none" stroke="#63b8ff" d="M280.66,-128.76C286.55,-119.13 292.51,-107.49 295.5,-96 298.86,-83.1 299.15,-78.82 295.5,-66 291.75,-52.84 283.43,-39.76 276.36,-30.28"/>
<polygon fill="#63b8ff" stroke="#63b8ff" points="277.62,-127.01 275.12,-137.31 283.49,-130.82 277.62,-127.01"/>
</a>
</g>
</g>
<!-- Node4&#45;&gt;Node5 -->
<g id="edge4_Node000004_Node000005" class="edge">
<title>Node4&#45;&gt;Node5</title>
<g id="a_edge4_Node000004_Node000005"><a xlink:title=" ">
<path fill="none" stroke="#63b8ff" d="M231.18,-57.81C238.49,-48.64 246.75,-38.28 253.21,-30.16"/>
<polygon fill="#63b8ff" stroke="#63b8ff" points="228.31,-55.79 224.82,-65.8 233.79,-60.16 228.31,-55.79"/>
</a>
</g>
</g>
</g>
</svg>
