<?xml version="1.0" encoding="UTF-8" standalone="no"?>
<!DOCTYPE svg PUBLIC "-//W3C//DTD SVG 1.1//EN"
 "http://www.w3.org/Graphics/SVG/1.1/DTD/svg11.dtd">
<!-- Generated by graphviz version 2.43.0 (0)
 -->
<!-- Title: /home/runner/work/spades/spades/Source/MessageOps.H Pages: 1 -->
<svg width="417pt" height="203pt"
 viewBox="0.00 0.00 417.00 203.00" xmlns="http://www.w3.org/2000/svg" xmlns:xlink="http://www.w3.org/1999/xlink">
<g id="graph0" class="graph" transform="scale(1 1) rotate(0) translate(4 199)">
<title>/home/runner/work/spades/spades/Source/MessageOps.H</title>
<!-- Node1 -->
<g id="Node000001" class="node">
<title>Node1</title>
<g id="a_Node000001"><a xlink:title=" ">
<polygon fill="#999999" stroke="#666666" points="265,-195 99,-195 99,-165 265,-165 265,-195"/>
<text text-anchor="start" x="107" y="-183" font-family="Helvetica,sans-Serif" font-size="10.00">/home/runner/work/spades</text>
<text text-anchor="middle" x="182" y="-172" font-family="Helvetica,sans-Serif" font-size="10.00">/spades/Source/MessageOps.H</text>
</a>
</g>
</g>
<!-- Node2 -->
<g id="Node000002" class="node">
<title>Node2</title>
<g id="a_Node000002"><a xlink:title=" ">
<polygon fill="#e0e0e0" stroke="#999999" points="62,-19 0,-19 0,0 62,0 62,-19"/>
<text text-anchor="middle" x="31" y="-7" font-family="Helvetica,sans-Serif" font-size="10.00">AMReX.H</text>
</a>
</g>
</g>
<!-- Node1&#45;&gt;Node2 -->
<g id="edge1_Node000001_Node000002" class="edge">
<title>Node1&#45;&gt;Node2</title>
<g id="a_edge1_Node000001_Node000002"><a xlink:title=" ">
<path fill="none" stroke="#63b8ff" d="M98.98,-173.38C69.19,-166.87 38.44,-153.99 20,-129 -1.79,-99.47 11.95,-53.87 22.41,-28.72"/>
<polygon fill="#63b8ff" stroke="#63b8ff" points="25.73,-29.86 26.58,-19.29 19.33,-27.02 25.73,-29.86"/>
</a>
</g>
</g>
<!-- Node3 -->
<g id="Node000003" class="node">
<title>Node3</title>
<g id="a_Node000003"><a xlink:title=" ">
<polygon fill="#e0e0e0" stroke="#999999" points="301,-74 201,-74 201,-55 301,-55 301,-74"/>
<text text-anchor="middle" x="251" y="-62" font-family="Helvetica,sans-Serif" font-size="10.00">AMReX_Array4.H</text>
</a>
</g>
</g>
<!-- Node1&#45;&gt;Node3 -->
<g id="edge2_Node000001_Node000003" class="edge">
<title>Node1&#45;&gt;Node3</title>
<g id="a_edge2_Node000001_Node000003"><a xlink:title=" ">
<path fill="none" stroke="#63b8ff" d="M199.98,-164.97C210.66,-155.77 223.7,-142.91 232,-129 240.29,-115.1 245.21,-97.31 247.95,-84.1"/>
<polygon fill="#63b8ff" stroke="#63b8ff" points="251.4,-84.73 249.78,-74.26 244.51,-83.46 251.4,-84.73"/>
</a>
</g>
</g>
<!-- Node4 -->
<g id="Node000004" class="node">
<title>Node4</title>
<g id="a_Node000004"><a xlink:title=" ">
<polygon fill="#e0e0e0" stroke="#999999" points="409,-74 319,-74 319,-55 409,-55 409,-74"/>
<text text-anchor="middle" x="364" y="-62" font-family="Helvetica,sans-Serif" font-size="10.00">AMReX_Print.H</text>
</a>
</g>
</g>
<!-- Node1&#45;&gt;Node4 -->
<g id="edge3_Node000001_Node000004" class="edge">
<title>Node1&#45;&gt;Node4</title>
<g id="a_edge3_Node000001_Node000004"><a xlink:title=" ">
<path fill="none" stroke="#63b8ff" d="M204.68,-164.85C239.67,-143.03 306.42,-101.41 341.37,-79.61"/>
<polygon fill="#63b8ff" stroke="#63b8ff" points="343.3,-82.53 349.94,-74.27 339.6,-76.59 343.3,-82.53"/>
</a>
</g>
</g>
<!-- Node5 -->
<g id="Node000005" class="node">
<title>Node5</title>
<g id="a_Node000005"><a xlink:href="_message_data_8_h.html" target="_top" xlink:title=" ">
<polygon fill="white" stroke="#666666" points="123,-129 29,-129 29,-110 123,-110 123,-129"/>
<text text-anchor="middle" x="76" y="-117" font-family="Helvetica,sans-Serif" font-size="10.00">MessageData.H</text>
</a>
</g>
</g>
<!-- Node1&#45;&gt;Node5 -->
<g id="edge4_Node000001_Node000005" class="edge">
<title>Node1&#45;&gt;Node5</title>
<g id="a_edge4_Node000001_Node000005"><a xlink:title=" ">
<path fill="none" stroke="#63b8ff" d="M156.61,-164.99C139.71,-155.66 117.62,-143.47 100.84,-134.21"/>
<polygon fill="#63b8ff" stroke="#63b8ff" points="102.1,-130.91 91.65,-129.14 98.72,-137.04 102.1,-130.91"/>
</a>
</g>
</g>
<!-- Node8 -->
<g id="Node000008" class="node">
<title>Node8</title>
<g id="a_Node000008"><a xlink:href="_particle_ops_8_h.html" target="_top" xlink:title=" ">
<polygon fill="white" stroke="#666666" points="223,-129 141,-129 141,-110 223,-110 223,-129"/>
<text text-anchor="middle" x="182" y="-117" font-family="Helvetica,sans-Serif" font-size="10.00">ParticleOps.H</text>
</a>
</g>
</g>
<!-- Node1&#45;&gt;Node8 -->
<g id="edge9_Node000001_Node000008" class="edge">
<title>Node1&#45;&gt;Node8</title>
<g id="a_edge9_Node000001_Node000008"><a xlink:title=" ">
<path fill="none" stroke="#63b8ff" d="M182,-164.84C182,-157.21 182,-147.7 182,-139.45"/>
<polygon fill="#63b8ff" stroke="#63b8ff" points="185.5,-139.27 182,-129.27 178.5,-139.27 185.5,-139.27"/>
</a>
</g>
</g>
<!-- Node5&#45;&gt;Node2 -->
<g id="edge5_Node000005_Node000002" class="edge">
<title>Node5&#45;&gt;Node2</title>
<g id="a_edge5_Node000005_Node000002"><a xlink:title=" ">
<path fill="none" stroke="#63b8ff" d="M70.18,-109.96C64.43,-101.23 55.7,-87.13 50,-74 43.69,-59.47 38.67,-42.2 35.38,-29.34"/>
<polygon fill="#63b8ff" stroke="#63b8ff" points="38.71,-28.25 32.94,-19.36 31.91,-29.91 38.71,-28.25"/>
</a>
</g>
</g>
<!-- Node6 -->
<g id="Node000006" class="node">
<title>Node6</title>
<g id="a_Node000006"><a xlink:href="_particle_data_8_h.html" target="_top" xlink:title=" ">
<polygon fill="white" stroke="#666666" points="145,-74 59,-74 59,-55 145,-55 145,-74"/>
<text text-anchor="middle" x="102" y="-62" font-family="Helvetica,sans-Serif" font-size="10.00">ParticleData.H</text>
</a>
</g>
</g>
<!-- Node5&#45;&gt;Node6 -->
<g id="edge6_Node000005_Node000006" class="edge">
<title>Node5&#45;&gt;Node6</title>
<g id="a_edge6_Node000005_Node000006"><a xlink:title=" ">
<path fill="none" stroke="#63b8ff" d="M80.29,-109.75C83.81,-102.57 88.91,-92.18 93.28,-83.27"/>
<polygon fill="#63b8ff" stroke="#63b8ff" points="96.52,-84.61 97.79,-74.09 90.24,-81.53 96.52,-84.61"/>
</a>
</g>
</g>
<!-- Node6&#45;&gt;Node2 -->
<g id="edge7_Node000006_Node000002" class="edge">
<title>Node6&#45;&gt;Node2</title>
<g id="a_edge7_Node000006_Node000002"><a xlink:title=" ">
<path fill="none" stroke="#63b8ff" d="M90.59,-54.98C79.89,-47 63.66,-34.88 50.84,-25.31"/>
<polygon fill="#63b8ff" stroke="#63b8ff" points="52.72,-22.35 42.61,-19.17 48.53,-27.96 52.72,-22.35"/>
</a>
</g>
</g>
<!-- Node7 -->
<g id="Node000007" class="node">
<title>Node7</title>
<g id="a_Node000007"><a xlink:title=" ">
<polygon fill="#e0e0e0" stroke="#999999" points="178,-19 80,-19 80,0 178,0 178,-19"/>
<text text-anchor="middle" x="129" y="-7" font-family="Helvetica,sans-Serif" font-size="10.00">AMReX_SPACE.H</text>
</a>
</g>
</g>
<!-- Node6&#45;&gt;Node7 -->
<g id="edge8_Node000006_Node000007" class="edge">
<title>Node6&#45;&gt;Node7</title>
<g id="a_edge8_Node000006_Node000007"><a xlink:title=" ">
<path fill="none" stroke="#63b8ff" d="M106.46,-54.75C110.12,-47.57 115.41,-37.18 119.95,-28.27"/>
<polygon fill="#63b8ff" stroke="#63b8ff" points="123.2,-29.59 124.62,-19.09 116.97,-26.41 123.2,-29.59"/>
</a>
</g>
</g>
<!-- Node8&#45;&gt;Node2 -->
<g id="edge10_Node000008_Node000002" class="edge">
<title>Node8&#45;&gt;Node2</title>
<g id="a_edge10_Node000008_Node000002"><a xlink:title=" ">
<path fill="none" stroke="#63b8ff" d="M180.45,-109.85C177.58,-96.32 170.2,-70.13 154,-55 141.76,-43.57 102.78,-30.53 71.94,-21.54"/>
<polygon fill="#63b8ff" stroke="#63b8ff" points="72.83,-18.15 62.26,-18.77 70.91,-24.88 72.83,-18.15"/>
</a>
</g>
</g>
<!-- Node8&#45;&gt;Node3 -->
<g id="edge11_Node000008_Node000003" class="edge">
<title>Node8&#45;&gt;Node3</title>
<g id="a_edge11_Node000008_Node000003"><a xlink:title=" ">
<path fill="none" stroke="#63b8ff" d="M193.09,-109.98C203.49,-102 219.26,-89.88 231.72,-80.31"/>
<polygon fill="#63b8ff" stroke="#63b8ff" points="233.91,-83.04 239.71,-74.17 229.65,-77.49 233.91,-83.04"/>
</a>
</g>
</g>
<!-- Node8&#45;&gt;Node4 -->
<g id="edge12_Node000008_Node000004" class="edge">
<title>Node8&#45;&gt;Node4</title>
<g id="a_edge12_Node000008_Node000004"><a xlink:title=" ">
<path fill="none" stroke="#63b8ff" d="M211.24,-109.98C242.06,-101.01 290.78,-86.82 324.89,-76.89"/>
<polygon fill="#63b8ff" stroke="#63b8ff" points="325.91,-80.24 334.53,-74.08 323.95,-73.52 325.91,-80.24"/>
</a>
</g>
</g>
<!-- Node8&#45;&gt;Node6 -->
<g id="edge13_Node000008_Node000006" class="edge">
<title>Node8&#45;&gt;Node6</title>
<g id="a_edge13_Node000008_Node000006"><a xlink:title=" ">
<path fill="none" stroke="#63b8ff" d="M169.15,-109.98C156.86,-101.84 138.09,-89.41 123.52,-79.76"/>
<polygon fill="#63b8ff" stroke="#63b8ff" points="125.36,-76.78 115.09,-74.17 121.49,-82.61 125.36,-76.78"/>
</a>
</g>
</g>
</g>
</svg>
