<?xml version="1.0" encoding="UTF-8" standalone="no"?>
<!DOCTYPE svg PUBLIC "-//W3C//DTD SVG 1.1//EN"
 "http://www.w3.org/Graphics/SVG/1.1/DTD/svg11.dtd">
<!-- Generated by graphviz version 2.43.0 (0)
 -->
<!-- Title: /home/runner/work/spades/spades/Source/MessageParticleContainer.cpp Pages: 1 -->
<!--zoomable 324 -->

<svg id="main" version="1.1" xmlns="http://www.w3.org/2000/svg" xmlns:xlink="http://www.w3.org/1999/xlink" xml:space="preserve" onload="init(evt)">

<style type="text/css"><![CDATA[
.node, .edge {opacity: 0.7;}
.node.selected, .edge.selected {opacity: 1;}
.edge:hover path { stroke: red; }
.edge:hover polygon { stroke: red; fill: red; }
]]></style>

<defs>
  <circle id="rim" cx="0" cy="0" r="7"/>
  <circle id="rim2" cx="0" cy="0" r="3.5"/>
  <g id="zoomPlus">
    <use xlink:href="#rim" fill="#404040"><set attributeName="fill" to="#808080" begin="zoomplus.mouseover" end="zoomplus.mouseout"/></use>
    <path d="M-4,0h8M0,-4v8" fill="none" stroke="white" stroke-width="1.5" pointer-events="none"/>
  </g>
  <g id="zoomMin">
    <use xlink:href="#rim" fill="#404040"><set attributeName="fill" to="#808080" begin="zoomminus.mouseover" end="zoomminus.mouseout"/></use>
    <path d="M-4,0h8" fill="none" stroke="white" stroke-width="1.5" pointer-events="none"/>
  </g>
  <g id="arrowUp" transform="translate(30 24)">
    <use xlink:href="#rim"/>
    <path pointer-events="none" fill="none" stroke="white" stroke-width="1.5" d="M0,-3.0v7 M-2.5,-0.5L0,-3.0L2.5,-0.5"/>
  </g>
  <g id="arrowRight" transform="rotate(90) translate(36 -43)">
    <use xlink:href="#rim"/>
    <path pointer-events="none" fill="none" stroke="white" stroke-width="1.5" d="M0,-3.0v7 M-2.5,-0.5L0,-3.0L2.5,-0.5"/>
  </g>
  <g id="arrowDown" transform="rotate(180) translate(-30 -48)">
    <use xlink:href="#rim"/>
    <path pointer-events="none" fill="none" stroke="white" stroke-width="1.5" d="M0,-3.0v7 M-2.5,-0.5L0,-3.0L2.5,-0.5"/>
  </g>
  <g id="arrowLeft" transform="rotate(270) translate(-36 17)">
    <use xlink:href="#rim"/>
    <path pointer-events="none" fill="none" stroke="white" stroke-width="1.5" d="M0,-3.0v7 M-2.5,-0.5L0,-3.0L2.5,-0.5"/>
  </g>
  <g id="resetDef">
    <use xlink:href="#rim2" fill="#404040"><set attributeName="fill" to="#808080" begin="reset.mouseover" end="reset.mouseout"/></use>
  </g>
</defs>
<script type="application/ecmascript">
var viewWidth = 1765;
var viewHeight = 324;
var sectionId = 'dynsection-0';
</script>
<script type="application/ecmascript" xlink:href="svg.min.js"/>
<svg id="graph" class="graph">
<g id="viewport">
<title>/home/runner/work/spades/spades/Source/MessageParticleContainer.cpp</title>
<!-- Node1 -->
<g id="Node000001" class="node">
<title>Node1</title>
<g id="a_Node000001"><a xlink:title=" ">
<polygon fill="#999999" stroke="#666666" points="1207.5,-316 1034.5,-316 1034.5,-275 1207.5,-275 1207.5,-316"/>
<text text-anchor="start" x="1042.5" y="-304" font-family="Helvetica,sans-Serif" font-size="10.00">/home/runner/work/spades</text>
<text text-anchor="start" x="1042.5" y="-293" font-family="Helvetica,sans-Serif" font-size="10.00">/spades/Source/MessageParticle</text>
<text text-anchor="middle" x="1121" y="-282" font-family="Helvetica,sans-Serif" font-size="10.00">Container.cpp</text>
</a>
</g>
</g>
<!-- Node2 -->
<g id="Node000002" class="node">
<title>Node2</title>
<g id="a_Node000002"><a xlink:title=" ">
<polygon fill="#e0e0e0" stroke="#999999" points="1085.5,-239 1040.5,-239 1040.5,-220 1085.5,-220 1085.5,-239"/>
<text text-anchor="middle" x="1063" y="-227" font-family="Helvetica,sans-Serif" font-size="10.00">utility</text>
</a>
</g>
</g>
<!-- Node1&#45;&gt;Node2 -->
<g id="edge1_Node000001_Node000002" class="edge">
<title>Node1&#45;&gt;Node2</title>
<g id="a_edge1_Node000001_Node000002"><a xlink:title=" ">
<path fill="none" stroke="#63b8ff" d="M1103.28,-274.95C1095.1,-265.92 1085.5,-255.33 1077.73,-246.75"/>
<polygon fill="#63b8ff" stroke="#63b8ff" points="1080.25,-244.32 1070.94,-239.26 1075.06,-249.02 1080.25,-244.32"/>
</a>
</g>
</g>
<!-- Node3 -->
<g id="Node000003" class="node">
<title>Node3</title>
<g id="a_Node000003"><a xlink:href="_message_particle_container_8_h.html" target="_top" xlink:title=" ">
<polygon fill="white" stroke="#666666" points="1256.5,-239 1103.5,-239 1103.5,-220 1256.5,-220 1256.5,-239"/>
<text text-anchor="middle" x="1180" y="-227" font-family="Helvetica,sans-Serif" font-size="10.00">MessageParticleContainer.H</text>
</a>
</g>
</g>
<!-- Node1&#45;&gt;Node3 -->
<g id="edge2_Node000001_Node000003" class="edge">
<title>Node1&#45;&gt;Node3</title>
<g id="a_edge2_Node000001_Node000003"><a xlink:title=" ">
<path fill="none" stroke="#63b8ff" d="M1139.02,-274.95C1147.34,-265.92 1157.11,-255.33 1165.02,-246.75"/>
<polygon fill="#63b8ff" stroke="#63b8ff" points="1167.72,-248.99 1171.92,-239.26 1162.57,-244.24 1167.72,-248.99"/>
</a>
</g>
</g>
<!-- Node4 -->
<g id="Node000004" class="node">
<title>Node4</title>
<g id="a_Node000004"><a xlink:title=" ">
<polygon fill="#e0e0e0" stroke="#999999" points="1376,-19 1314,-19 1314,0 1376,0 1376,-19"/>
<text text-anchor="middle" x="1345" y="-7" font-family="Helvetica,sans-Serif" font-size="10.00">AMReX.H</text>
</a>
</g>
</g>
<!-- Node3&#45;&gt;Node4 -->
<g id="edge3_Node000003_Node000004" class="edge">
<title>Node3&#45;&gt;Node4</title>
<g id="a_edge3_Node000003_Node000004"><a xlink:title=" ">
<path fill="none" stroke="#63b8ff" d="M1201.45,-219.96C1233.46,-206.03 1293.15,-175.25 1323,-129 1342.89,-98.19 1345.86,-54.03 1345.75,-29.24"/>
<polygon fill="#63b8ff" stroke="#63b8ff" points="1349.25,-28.97 1345.52,-19.05 1342.25,-29.12 1349.25,-28.97"/>
</a>
</g>
</g>
<!-- Node5 -->
<g id="Node000005" class="node">
<title>Node5</title>
<g id="a_Node000005"><a xlink:title=" ">
<polygon fill="#e0e0e0" stroke="#999999" points="1170,-129 1060,-129 1060,-110 1170,-110 1170,-129"/>
<text text-anchor="middle" x="1115" y="-117" font-family="Helvetica,sans-Serif" font-size="10.00">AMReX_AmrCore.H</text>
</a>
</g>
</g>
<!-- Node3&#45;&gt;Node5 -->
<g id="edge4_Node000003_Node000005" class="edge">
<title>Node3&#45;&gt;Node5</title>
<g id="a_edge4_Node000003_Node000005"><a xlink:title=" ">
<path fill="none" stroke="#63b8ff" d="M1174.68,-219.66C1163.96,-201.85 1139.6,-161.37 1125.54,-138.01"/>
<polygon fill="#63b8ff" stroke="#63b8ff" points="1128.37,-135.92 1120.21,-129.16 1122.37,-139.53 1128.37,-135.92"/>
</a>
</g>
</g>
<!-- Node6 -->
<g id="Node000006" class="node">
<title>Node6</title>
<g id="a_Node000006"><a xlink:title=" ">
<polygon fill="#e0e0e0" stroke="#999999" points="1313.5,-129 1188.5,-129 1188.5,-110 1313.5,-110 1313.5,-129"/>
<text text-anchor="middle" x="1251" y="-117" font-family="Helvetica,sans-Serif" font-size="10.00">AMReX_AmrParGDB.H</text>
</a>
</g>
</g>
<!-- Node3&#45;&gt;Node6 -->
<g id="edge5_Node000003_Node000006" class="edge">
<title>Node3&#45;&gt;Node6</title>
<g id="a_edge5_Node000003_Node000006"><a xlink:title=" ">
<path fill="none" stroke="#63b8ff" d="M1185.81,-219.66C1197.57,-201.77 1224.37,-161 1239.7,-137.69"/>
<polygon fill="#63b8ff" stroke="#63b8ff" points="1242.74,-139.44 1245.31,-129.16 1236.89,-135.59 1242.74,-139.44"/>
</a>
</g>
</g>
<!-- Node7 -->
<g id="Node000007" class="node">
<title>Node7</title>
<g id="a_Node000007"><a xlink:title=" ">
<polygon fill="#e0e0e0" stroke="#999999" points="648,-74 540,-74 540,-55 648,-55 648,-74"/>
<text text-anchor="middle" x="594" y="-62" font-family="Helvetica,sans-Serif" font-size="10.00">AMReX_Random.H</text>
</a>
</g>
</g>
<!-- Node3&#45;&gt;Node7 -->
<g id="edge6_Node000003_Node000007" class="edge">
<title>Node3&#45;&gt;Node7</title>
<g id="a_edge6_Node000003_Node000007"><a xlink:title=" ">
<path fill="none" stroke="#63b8ff" d="M1106.74,-219.98C962.03,-202.53 650.32,-161.63 614,-129 601.52,-117.79 596.76,-98.87 594.98,-84.59"/>
<polygon fill="#63b8ff" stroke="#63b8ff" points="598.45,-84.03 594.1,-74.37 591.47,-84.63 598.45,-84.03"/>
</a>
</g>
</g>
<!-- Node8 -->
<g id="Node000008" class="node">
<title>Node8</title>
<g id="a_Node000008"><a xlink:href="_spades_particle_container_8_h.html" target="_top" xlink:title=" ">
<polygon fill="white" stroke="#666666" points="1042.5,-184 897.5,-184 897.5,-165 1042.5,-165 1042.5,-184"/>
<text text-anchor="middle" x="970" y="-172" font-family="Helvetica,sans-Serif" font-size="10.00">SpadesParticleContainer.H</text>
</a>
</g>
</g>
<!-- Node3&#45;&gt;Node8 -->
<g id="edge7_Node000003_Node000008" class="edge">
<title>Node3&#45;&gt;Node8</title>
<g id="a_edge7_Node000003_Node000008"><a xlink:title=" ">
<path fill="none" stroke="#63b8ff" d="M1146.26,-219.98C1110.32,-210.91 1053.28,-196.52 1013.87,-186.57"/>
<polygon fill="#63b8ff" stroke="#63b8ff" points="1014.56,-183.14 1004,-184.08 1012.84,-189.92 1014.56,-183.14"/>
</a>
</g>
</g>
<!-- Node15 -->
<g id="Node000015" class="node">
<title>Node15</title>
<g id="a_Node000015"><a xlink:href="_utilities_8_h.html" target="_top" xlink:title=" ">
<polygon fill="white" stroke="#666666" points="513.5,-129 448.5,-129 448.5,-110 513.5,-110 513.5,-129"/>
<text text-anchor="middle" x="481" y="-117" font-family="Helvetica,sans-Serif" font-size="10.00">Utilities.H</text>
</a>
</g>
</g>
<!-- Node3&#45;&gt;Node15 -->
<g id="edge39_Node000003_Node000015" class="edge">
<title>Node3&#45;&gt;Node15</title>
<g id="a_edge39_Node000003_Node000015"><a xlink:title=" ">
<path fill="none" stroke="#63b8ff" d="M1103.12,-220.78C1100.04,-220.51 1096.99,-220.25 1094,-220 975.69,-210.16 671.72,-226.84 561,-184 534.77,-173.85 510.33,-151.9 495.53,-136.67"/>
<polygon fill="#63b8ff" stroke="#63b8ff" points="497.75,-133.91 488.35,-129.01 492.64,-138.7 497.75,-133.91"/>
</a>
</g>
</g>
<!-- Node22 -->
<g id="Node000022" class="node">
<title>Node22</title>
<g id="a_Node000022"><a xlink:href="_message_data_8_h.html" target="_top" xlink:title=" ">
<polygon fill="white" stroke="#666666" points="1464,-129 1370,-129 1370,-110 1464,-110 1464,-129"/>
<text text-anchor="middle" x="1417" y="-117" font-family="Helvetica,sans-Serif" font-size="10.00">MessageData.H</text>
</a>
</g>
</g>
<!-- Node3&#45;&gt;Node22 -->
<g id="edge30_Node000003_Node000022" class="edge">
<title>Node3&#45;&gt;Node22</title>
<g id="a_edge30_Node000003_Node000022"><a xlink:title=" ">
<path fill="none" stroke="#63b8ff" d="M1250.26,-219.94C1283.94,-213.61 1323.85,-202.69 1356,-184 1376.14,-172.29 1393.91,-152.03 1405.01,-137.54"/>
<polygon fill="#63b8ff" stroke="#63b8ff" points="1407.89,-139.52 1411.01,-129.39 1402.26,-135.36 1407.89,-139.52"/>
</a>
</g>
</g>
<!-- Node23 -->
<g id="Node000023" class="node">
<title>Node23</title>
<g id="a_Node000023"><a xlink:href="_message_ops_8_h.html" target="_top" xlink:title=" ">
<polygon fill="white" stroke="#666666" points="1601.5,-184 1512.5,-184 1512.5,-165 1601.5,-165 1601.5,-184"/>
<text text-anchor="middle" x="1557" y="-172" font-family="Helvetica,sans-Serif" font-size="10.00">MessageOps.H</text>
</a>
</g>
</g>
<!-- Node3&#45;&gt;Node23 -->
<g id="edge33_Node000003_Node000023" class="edge">
<title>Node3&#45;&gt;Node23</title>
<g id="a_edge33_Node000003_Node000023"><a xlink:title=" ">
<path fill="none" stroke="#63b8ff" d="M1240.57,-219.98C1312.74,-209.84 1432.26,-193.04 1501.92,-183.24"/>
<polygon fill="#63b8ff" stroke="#63b8ff" points="1502.82,-186.65 1512.24,-181.79 1501.85,-179.72 1502.82,-186.65"/>
</a>
</g>
</g>
<!-- Node8&#45;&gt;Node4 -->
<g id="edge8_Node000008_Node000004" class="edge">
<title>Node8&#45;&gt;Node4</title>
<g id="a_edge8_Node000008_Node000004"><a xlink:title=" ">
<path fill="none" stroke="#63b8ff" d="M897.2,-173.18C817.99,-171.11 698.76,-162.34 670,-129 664.48,-122.61 664.48,-116.39 670,-110 752.91,-13.98 1169.64,-8.98 1303.52,-9.91"/>
<polygon fill="#63b8ff" stroke="#63b8ff" points="1303.73,-13.41 1313.76,-10 1303.79,-6.41 1303.73,-13.41"/>
</a>
</g>
</g>
<!-- Node8&#45;&gt;Node5 -->
<g id="edge9_Node000008_Node000005" class="edge">
<title>Node8&#45;&gt;Node5</title>
<g id="a_edge9_Node000008_Node000005"><a xlink:title=" ">
<path fill="none" stroke="#63b8ff" d="M993.3,-164.98C1017.25,-156.23 1054.78,-142.51 1081.83,-132.62"/>
<polygon fill="#63b8ff" stroke="#63b8ff" points="1083.09,-135.89 1091.28,-129.17 1080.69,-129.32 1083.09,-135.89"/>
</a>
</g>
</g>
<!-- Node8&#45;&gt;Node6 -->
<g id="edge10_Node000008_Node000006" class="edge">
<title>Node8&#45;&gt;Node6</title>
<g id="a_edge10_Node000008_Node000006"><a xlink:title=" ">
<path fill="none" stroke="#63b8ff" d="M1015.15,-164.98C1064.26,-155.72 1142.82,-140.9 1195.62,-130.94"/>
<polygon fill="#63b8ff" stroke="#63b8ff" points="1196.32,-134.37 1205.5,-129.08 1195.02,-127.5 1196.32,-134.37"/>
</a>
</g>
</g>
<!-- Node8&#45;&gt;Node7 -->
<g id="edge12_Node000008_Node000007" class="edge">
<title>Node8&#45;&gt;Node7</title>
<g id="a_edge12_Node000008_Node000007"><a xlink:title=" ">
<path fill="none" stroke="#63b8ff" d="M897.15,-170.66C812.56,-166.19 679.22,-155.13 637,-129 619.89,-118.41 608,-98.19 601.12,-83.41"/>
<polygon fill="#63b8ff" stroke="#63b8ff" points="604.34,-82.02 597.16,-74.22 597.91,-84.79 604.34,-82.02"/>
</a>
</g>
</g>
<!-- Node9 -->
<g id="Node000009" class="node">
<title>Node9</title>
<g id="a_Node000009"><a xlink:title=" ">
<polygon fill="#e0e0e0" stroke="#999999" points="832.5,-129 679.5,-129 679.5,-110 832.5,-110 832.5,-129"/>
<text text-anchor="middle" x="756" y="-117" font-family="Helvetica,sans-Serif" font-size="10.00">AMReX_NeighborParticles.H</text>
</a>
</g>
</g>
<!-- Node8&#45;&gt;Node9 -->
<g id="edge11_Node000008_Node000009" class="edge">
<title>Node8&#45;&gt;Node9</title>
<g id="a_edge11_Node000008_Node000009"><a xlink:title=" ">
<path fill="none" stroke="#63b8ff" d="M935.62,-164.98C898.91,-155.89 840.62,-141.46 800.45,-131.51"/>
<polygon fill="#63b8ff" stroke="#63b8ff" points="801.2,-128.09 790.65,-129.08 799.52,-134.88 801.2,-128.09"/>
</a>
</g>
</g>
<!-- Node10 -->
<g id="Node000010" class="node">
<title>Node10</title>
<g id="a_Node000010"><a xlink:href="_particle_data_8_h.html" target="_top" xlink:title=" ">
<polygon fill="white" stroke="#666666" points="1473,-74 1387,-74 1387,-55 1473,-55 1473,-74"/>
<text text-anchor="middle" x="1430" y="-62" font-family="Helvetica,sans-Serif" font-size="10.00">ParticleData.H</text>
</a>
</g>
</g>
<!-- Node8&#45;&gt;Node10 -->
<g id="edge13_Node000008_Node000010" class="edge">
<title>Node8&#45;&gt;Node10</title>
<g id="a_edge13_Node000008_Node000010"><a xlink:title=" ">
<path fill="none" stroke="#63b8ff" d="M977.96,-164.69C991.44,-150.45 1020.27,-122.66 1051,-110 1108.73,-86.21 1286.9,-73.33 1376.87,-68.19"/>
<polygon fill="#63b8ff" stroke="#63b8ff" points="1377.08,-71.68 1386.86,-67.63 1376.68,-64.69 1377.08,-71.68"/>
</a>
</g>
</g>
<!-- Node12 -->
<g id="Node000012" class="node">
<title>Node12</title>
<g id="a_Node000012"><a xlink:href="_particle_ops_8_h.html" target="_top" xlink:title=" ">
<polygon fill="white" stroke="#666666" points="1564,-129 1482,-129 1482,-110 1564,-110 1564,-129"/>
<text text-anchor="middle" x="1523" y="-117" font-family="Helvetica,sans-Serif" font-size="10.00">ParticleOps.H</text>
</a>
</g>
</g>
<!-- Node8&#45;&gt;Node12 -->
<g id="edge16_Node000008_Node000012" class="edge">
<title>Node8&#45;&gt;Node12</title>
<g id="a_edge16_Node000008_Node000012"><a xlink:title=" ">
<path fill="none" stroke="#63b8ff" d="M1042.67,-168.91C1138.63,-162.43 1313.07,-149.24 1471.88,-129.04"/>
<polygon fill="#63b8ff" stroke="#63b8ff" points="1472.37,-132.51 1481.84,-127.77 1471.47,-125.57 1472.37,-132.51"/>
</a>
</g>
</g>
<!-- Node8&#45;&gt;Node15 -->
<g id="edge21_Node000008_Node000015" class="edge">
<title>Node8&#45;&gt;Node15</title>
<g id="a_edge21_Node000008_Node000015"><a xlink:title=" ">
<path fill="none" stroke="#63b8ff" d="M897.32,-165.62C793.86,-154.41 607.4,-134.2 523.7,-125.13"/>
<polygon fill="#63b8ff" stroke="#63b8ff" points="523.86,-121.63 513.54,-124.03 523.11,-128.58 523.86,-121.63"/>
</a>
</g>
</g>
<!-- Node21 -->
<g id="Node000021" class="node">
<title>Node21</title>
<g id="a_Node000021"><a xlink:title=" ">
<polygon fill="#e0e0e0" stroke="#999999" points="1003.5,-129 850.5,-129 850.5,-110 1003.5,-110 1003.5,-129"/>
<text text-anchor="middle" x="927" y="-117" font-family="Helvetica,sans-Serif" font-size="10.00">SpadesParticleContainer.tpp</text>
</a>
</g>
</g>
<!-- Node8&#45;&gt;Node21 -->
<g id="edge29_Node000008_Node000021" class="edge">
<title>Node8&#45;&gt;Node21</title>
<g id="a_edge29_Node000008_Node000021"><a xlink:title=" ">
<path fill="none" stroke="#63b8ff" d="M962.9,-164.75C956.83,-157.26 947.91,-146.28 940.49,-137.13"/>
<polygon fill="#63b8ff" stroke="#63b8ff" points="942.99,-134.65 933.97,-129.09 937.55,-139.06 942.99,-134.65"/>
</a>
</g>
</g>
<!-- Node10&#45;&gt;Node4 -->
<g id="edge14_Node000010_Node000004" class="edge">
<title>Node10&#45;&gt;Node4</title>
<g id="a_edge14_Node000010_Node000004"><a xlink:title=" ">
<path fill="none" stroke="#63b8ff" d="M1416.34,-54.98C1403.16,-46.77 1382.97,-34.18 1367.43,-24.49"/>
<polygon fill="#63b8ff" stroke="#63b8ff" points="1369.24,-21.49 1358.91,-19.17 1365.54,-27.43 1369.24,-21.49"/>
</a>
</g>
</g>
<!-- Node11 -->
<g id="Node000011" class="node">
<title>Node11</title>
<g id="a_Node000011"><a xlink:title=" ">
<polygon fill="#e0e0e0" stroke="#999999" points="1492,-19 1394,-19 1394,0 1492,0 1492,-19"/>
<text text-anchor="middle" x="1443" y="-7" font-family="Helvetica,sans-Serif" font-size="10.00">AMReX_SPACE.H</text>
</a>
</g>
</g>
<!-- Node10&#45;&gt;Node11 -->
<g id="edge15_Node000010_Node000011" class="edge">
<title>Node10&#45;&gt;Node11</title>
<g id="a_edge15_Node000010_Node000011"><a xlink:title=" ">
<path fill="none" stroke="#63b8ff" d="M1432.15,-54.75C1433.87,-47.72 1436.35,-37.62 1438.5,-28.84"/>
<polygon fill="#63b8ff" stroke="#63b8ff" points="1441.91,-29.63 1440.89,-19.09 1435.11,-27.97 1441.91,-29.63"/>
</a>
</g>
</g>
<!-- Node12&#45;&gt;Node4 -->
<g id="edge17_Node000012_Node000004" class="edge">
<title>Node12&#45;&gt;Node4</title>
<g id="a_edge17_Node000012_Node000004"><a xlink:title=" ">
<path fill="none" stroke="#63b8ff" d="M1519.64,-109.75C1513.95,-96.09 1501.14,-69.72 1482,-55 1466.8,-43.31 1420.65,-29.65 1386.08,-20.58"/>
<polygon fill="#63b8ff" stroke="#63b8ff" points="1386.78,-17.15 1376.22,-18.04 1385.03,-23.93 1386.78,-17.15"/>
</a>
</g>
</g>
<!-- Node12&#45;&gt;Node10 -->
<g id="edge20_Node000012_Node000010" class="edge">
<title>Node12&#45;&gt;Node10</title>
<g id="a_edge20_Node000012_Node000010"><a xlink:title=" ">
<path fill="none" stroke="#63b8ff" d="M1508.06,-109.98C1493.5,-101.69 1471.13,-88.94 1454.07,-79.22"/>
<polygon fill="#63b8ff" stroke="#63b8ff" points="1455.64,-76.08 1445.21,-74.17 1452.17,-82.16 1455.64,-76.08"/>
</a>
</g>
</g>
<!-- Node13 -->
<g id="Node000013" class="node">
<title>Node13</title>
<g id="a_Node000013"><a xlink:title=" ">
<polygon fill="#e0e0e0" stroke="#999999" points="1629,-74 1529,-74 1529,-55 1629,-55 1629,-74"/>
<text text-anchor="middle" x="1579" y="-62" font-family="Helvetica,sans-Serif" font-size="10.00">AMReX_Array4.H</text>
</a>
</g>
</g>
<!-- Node12&#45;&gt;Node13 -->
<g id="edge18_Node000012_Node000013" class="edge">
<title>Node12&#45;&gt;Node13</title>
<g id="a_edge18_Node000012_Node000013"><a xlink:title=" ">
<path fill="none" stroke="#63b8ff" d="M1532,-109.98C1540.19,-102.23 1552.51,-90.58 1562.47,-81.14"/>
<polygon fill="#63b8ff" stroke="#63b8ff" points="1564.98,-83.59 1569.84,-74.17 1560.17,-78.5 1564.98,-83.59"/>
</a>
</g>
</g>
<!-- Node14 -->
<g id="Node000014" class="node">
<title>Node14</title>
<g id="a_Node000014"><a xlink:title=" ">
<polygon fill="#e0e0e0" stroke="#999999" points="1737,-74 1647,-74 1647,-55 1737,-55 1737,-74"/>
<text text-anchor="middle" x="1692" y="-62" font-family="Helvetica,sans-Serif" font-size="10.00">AMReX_Print.H</text>
</a>
</g>
</g>
<!-- Node12&#45;&gt;Node14 -->
<g id="edge19_Node000012_Node000014" class="edge">
<title>Node12&#45;&gt;Node14</title>
<g id="a_edge19_Node000012_Node000014"><a xlink:title=" ">
<path fill="none" stroke="#63b8ff" d="M1550.15,-109.98C1578.53,-101.09 1623.23,-87.07 1654.86,-77.15"/>
<polygon fill="#63b8ff" stroke="#63b8ff" points="1656.14,-80.41 1664.63,-74.08 1654.05,-73.73 1656.14,-80.41"/>
</a>
</g>
</g>
<!-- Node15&#45;&gt;Node4 -->
<g id="edge22_Node000015_Node000004" class="edge">
<title>Node15&#45;&gt;Node4</title>
<g id="a_edge22_Node000015_Node000004"><a xlink:title=" ">
<path fill="none" stroke="#63b8ff" d="M484.98,-109.55C491.94,-95.1 507.84,-67.03 531,-55 599.83,-19.24 1147.65,-12.09 1303.67,-10.78"/>
<polygon fill="#63b8ff" stroke="#63b8ff" points="1303.82,-14.28 1313.79,-10.7 1303.76,-7.28 1303.82,-14.28"/>
</a>
</g>
</g>
<!-- Node15&#45;&gt;Node7 -->
<g id="edge26_Node000015_Node000007" class="edge">
<title>Node15&#45;&gt;Node7</title>
<g id="a_edge26_Node000015_Node000007"><a xlink:title=" ">
<path fill="none" stroke="#63b8ff" d="M499.16,-109.98C517.25,-101.5 545.28,-88.35 566.19,-78.54"/>
<polygon fill="#63b8ff" stroke="#63b8ff" points="567.95,-81.59 575.51,-74.17 564.97,-75.25 567.95,-81.59"/>
</a>
</g>
</g>
<!-- Node16 -->
<g id="Node000016" class="node">
<title>Node16</title>
<g id="a_Node000016"><a xlink:title=" ">
<polygon fill="#e0e0e0" stroke="#999999" points="356,-74 246,-74 246,-55 356,-55 356,-74"/>
<text text-anchor="middle" x="301" y="-62" font-family="Helvetica,sans-Serif" font-size="10.00">AMReX_RealVect.H</text>
</a>
</g>
</g>
<!-- Node15&#45;&gt;Node16 -->
<g id="edge23_Node000015_Node000016" class="edge">
<title>Node15&#45;&gt;Node16</title>
<g id="a_edge23_Node000015_Node000016"><a xlink:title=" ">
<path fill="none" stroke="#63b8ff" d="M452.08,-109.98C421.73,-101.05 373.83,-86.94 340.12,-77.02"/>
<polygon fill="#63b8ff" stroke="#63b8ff" points="340.73,-73.55 330.15,-74.08 338.75,-80.26 340.73,-73.55"/>
</a>
</g>
</g>
<!-- Node17 -->
<g id="Node000017" class="node">
<title>Node17</title>
<g id="a_Node000017"><a xlink:title=" ">
<polygon fill="#e0e0e0" stroke="#999999" points="483.5,-74 374.5,-74 374.5,-55 483.5,-55 483.5,-74"/>
<text text-anchor="middle" x="429" y="-62" font-family="Helvetica,sans-Serif" font-size="10.00">AMReX_MultiFab.H</text>
</a>
</g>
</g>
<!-- Node15&#45;&gt;Node17 -->
<g id="edge24_Node000015_Node000017" class="edge">
<title>Node15&#45;&gt;Node17</title>
<g id="a_edge24_Node000015_Node000017"><a xlink:title=" ">
<path fill="none" stroke="#63b8ff" d="M472.41,-109.75C464.84,-102.03 453.62,-90.6 444.49,-81.28"/>
<polygon fill="#63b8ff" stroke="#63b8ff" points="446.93,-78.78 437.43,-74.09 441.93,-83.68 446.93,-78.78"/>
</a>
</g>
</g>
<!-- Node18 -->
<g id="Node000018" class="node">
<title>Node18</title>
<g id="a_Node000018"><a xlink:title=" ">
<polygon fill="#e0e0e0" stroke="#999999" points="228,-74 102,-74 102,-55 228,-55 228,-74"/>
<text text-anchor="middle" x="165" y="-62" font-family="Helvetica,sans-Serif" font-size="10.00">AMReX_MultiFabUtil.H</text>
</a>
</g>
</g>
<!-- Node15&#45;&gt;Node18 -->
<g id="edge25_Node000015_Node000018" class="edge">
<title>Node15&#45;&gt;Node18</title>
<g id="a_edge25_Node000015_Node000018"><a xlink:title=" ">
<path fill="none" stroke="#63b8ff" d="M448.37,-113.03C395.95,-104.24 292.14,-86.82 225.77,-75.69"/>
<polygon fill="#63b8ff" stroke="#63b8ff" points="226.3,-72.23 215.86,-74.03 225.14,-79.14 226.3,-72.23"/>
</a>
</g>
</g>
<!-- Node19 -->
<g id="Node000019" class="node">
<title>Node19</title>
<g id="a_Node000019"><a xlink:href="_constants_8_h.html" target="_top" xlink:title=" ">
<polygon fill="white" stroke="#666666" points="84,-74 8,-74 8,-55 84,-55 84,-74"/>
<text text-anchor="middle" x="46" y="-62" font-family="Helvetica,sans-Serif" font-size="10.00">Constants.H</text>
</a>
</g>
</g>
<!-- Node15&#45;&gt;Node19 -->
<g id="edge27_Node000015_Node000019" class="edge">
<title>Node15&#45;&gt;Node19</title>
<g id="a_edge27_Node000015_Node000019"><a xlink:title=" ">
<path fill="none" stroke="#63b8ff" d="M448.46,-115.49C383.29,-109.3 231.93,-94.15 94.48,-74.13"/>
<polygon fill="#63b8ff" stroke="#63b8ff" points="94.59,-70.61 84.19,-72.62 93.57,-77.54 94.59,-70.61"/>
</a>
</g>
</g>
<!-- Node20 -->
<g id="Node000020" class="node">
<title>Node20</title>
<g id="a_Node000020"><a xlink:title=" ">
<polygon fill="#e0e0e0" stroke="#999999" points="92,-19 0,-19 0,0 92,0 92,-19"/>
<text text-anchor="middle" x="46" y="-7" font-family="Helvetica,sans-Serif" font-size="10.00">AMReX_REAL.H</text>
</a>
</g>
</g>
<!-- Node19&#45;&gt;Node20 -->
<g id="edge28_Node000019_Node000020" class="edge">
<title>Node19&#45;&gt;Node20</title>
<g id="a_edge28_Node000019_Node000020"><a xlink:title=" ">
<path fill="none" stroke="#63b8ff" d="M46,-54.75C46,-47.8 46,-37.85 46,-29.13"/>
<polygon fill="#63b8ff" stroke="#63b8ff" points="49.5,-29.09 46,-19.09 42.5,-29.09 49.5,-29.09"/>
</a>
</g>
</g>
<!-- Node22&#45;&gt;Node4 -->
<g id="edge31_Node000022_Node000004" class="edge">
<title>Node22&#45;&gt;Node4</title>
<g id="a_edge31_Node000022_Node000004"><a xlink:title=" ">
<path fill="none" stroke="#63b8ff" d="M1408.26,-109.82C1399.87,-101.21 1387.16,-87.4 1378,-74 1368.04,-59.43 1358.98,-41.48 1352.88,-28.39"/>
<polygon fill="#63b8ff" stroke="#63b8ff" points="1355.98,-26.75 1348.66,-19.08 1349.6,-29.64 1355.98,-26.75"/>
</a>
</g>
</g>
<!-- Node22&#45;&gt;Node10 -->
<g id="edge32_Node000022_Node000010" class="edge">
<title>Node22&#45;&gt;Node10</title>
<g id="a_edge32_Node000022_Node000010"><a xlink:title=" ">
<path fill="none" stroke="#63b8ff" d="M1419.15,-109.75C1420.87,-102.72 1423.35,-92.62 1425.5,-83.84"/>
<polygon fill="#63b8ff" stroke="#63b8ff" points="1428.91,-84.63 1427.89,-74.09 1422.11,-82.97 1428.91,-84.63"/>
</a>
</g>
</g>
<!-- Node23&#45;&gt;Node4 -->
<g id="edge34_Node000023_Node000004" class="edge">
<title>Node23&#45;&gt;Node4</title>
<g id="a_edge34_Node000023_Node000004"><a xlink:title=" ">
<path fill="none" stroke="#63b8ff" d="M1597.51,-164.94C1666.68,-148.61 1795.51,-109.7 1746,-55 1693.85,2.61 1480.86,-28.91 1386.48,-18.83"/>
<polygon fill="#63b8ff" stroke="#63b8ff" points="1386.75,-15.33 1376.38,-17.51 1385.85,-22.27 1386.75,-15.33"/>
</a>
</g>
</g>
<!-- Node23&#45;&gt;Node12 -->
<g id="edge38_Node000023_Node000012" class="edge">
<title>Node23&#45;&gt;Node12</title>
<g id="a_edge38_Node000023_Node000012"><a xlink:title=" ">
<path fill="none" stroke="#63b8ff" d="M1551.39,-164.75C1546.68,-157.42 1539.83,-146.73 1534.03,-137.7"/>
<polygon fill="#63b8ff" stroke="#63b8ff" points="1536.86,-135.62 1528.51,-129.09 1530.96,-139.4 1536.86,-135.62"/>
</a>
</g>
</g>
<!-- Node23&#45;&gt;Node13 -->
<g id="edge35_Node000023_Node000013" class="edge">
<title>Node23&#45;&gt;Node13</title>
<g id="a_edge35_Node000023_Node000013"><a xlink:title=" ">
<path fill="none" stroke="#63b8ff" d="M1560.85,-164.83C1564.6,-156 1570.14,-141.82 1573,-129 1576.29,-114.27 1577.78,-97.23 1578.45,-84.51"/>
<polygon fill="#63b8ff" stroke="#63b8ff" points="1581.96,-84.37 1578.86,-74.24 1574.96,-84.09 1581.96,-84.37"/>
</a>
</g>
</g>
<!-- Node23&#45;&gt;Node14 -->
<g id="edge36_Node000023_Node000014" class="edge">
<title>Node23&#45;&gt;Node14</title>
<g id="a_edge36_Node000023_Node000014"><a xlink:title=" ">
<path fill="none" stroke="#63b8ff" d="M1568.05,-164.66C1591.1,-146.22 1644.57,-103.45 1673.16,-80.57"/>
<polygon fill="#63b8ff" stroke="#63b8ff" points="1675.55,-83.14 1681.18,-74.16 1671.18,-77.67 1675.55,-83.14"/>
</a>
</g>
</g>
<!-- Node23&#45;&gt;Node22 -->
<g id="edge37_Node000023_Node000022" class="edge">
<title>Node23&#45;&gt;Node22</title>
<g id="a_edge37_Node000023_Node000022"><a xlink:title=" ">
<path fill="none" stroke="#63b8ff" d="M1534.51,-164.98C1511.48,-156.27 1475.46,-142.63 1449.37,-132.75"/>
<polygon fill="#63b8ff" stroke="#63b8ff" points="1450.49,-129.44 1439.9,-129.17 1448.02,-135.98 1450.49,-129.44"/>
</a>
</g>
</g>
</g>
</svg>

<g id="navigator" transform="translate(0 0)" fill="#404254">
  <rect fill="#f2f5e9" fill-opacity="0.5" stroke="#606060" stroke-width=".5" x="0" y="0" width="60" height="60"/>
  <use id="zoomplus" xlink:href="#zoomPlus" x="17" y="9" onmousedown="handleZoom(evt,'in')"/>
  <use id="zoomminus" xlink:href="#zoomMin" x="42" y="9" onmousedown="handleZoom(evt,'out')"/>
  <use id="reset" xlink:href="#resetDef" x="30" y="36" onmousedown="handleReset()"/>
   <use id="arrowup" xlink:href="#arrowUp" x="0" y="0" onmousedown="handlePan(0,-1)"/>
  <use id="arrowright" xlink:href="#arrowRight" x="0" y="0" onmousedown="handlePan(1,0)"/>
  <use id="arrowdown" xlink:href="#arrowDown" x="0" y="0" onmousedown="handlePan(0,1)"/>
  <use id="arrowleft" xlink:href="#arrowLeft" x="0" y="0" onmousedown="handlePan(-1,0)"/>
</g>
<svg viewBox="0 0 15 15" width="100%" height="30px" preserveAspectRatio="xMaxYMin meet">
 <g id="arrow_out" transform="scale(0.3 0.3)">
  <a xlink:href="_message_particle_container_8cpp__incl_org.svg" target="_base">
   <rect id="button" ry="5" rx="5" y="6" x="6" height="38" width="38"
        fill="#f2f5e9" fill-opacity="0.5" stroke="#606060" stroke-width="1.0"/>
   <path id="arrow"
     d="M 11.500037,31.436501 C 11.940474,20.09759 22.043105,11.32322 32.158766,21.979434 L 37.068811,17.246167 C 37.068811,17.246167 37.088388,32 37.088388,32 L 22.160133,31.978069 C 22.160133,31.978069 26.997745,27.140456 26.997745,27.140456 C 18.528582,18.264221 13.291696,25.230495 11.500037,31.436501 z"
     style="fill:#404040;"/>
  </a>
 </g>
</svg>

<style type='text/css'>
<![CDATA[
[data-mouse-over-selected='false'] { opacity: 0.7; }
[data-mouse-over-selected='true']  { opacity: 1.0; }
]]>
</style>
<script type="application/ecmascript"><![CDATA[
document.addEventListener('DOMContentLoaded', (event) => {
  highlightEdges();
  highlightAdjacentNodes();
});
]]></script>
</svg>
