<?xml version="1.0" encoding="UTF-8" standalone="no"?>
<!DOCTYPE svg PUBLIC "-//W3C//DTD SVG 1.1//EN"
 "http://www.w3.org/Graphics/SVG/1.1/DTD/svg11.dtd">
<!-- Generated by graphviz version 2.43.0 (0)
 -->
<!-- Title: /home/runner/work/spades/spades/Source/MessageParticleContainer.cpp Pages: 1 -->
<svg width="1778pt" height="324pt"
 viewBox="0.00 0.00 1778.21 324.00" xmlns="http://www.w3.org/2000/svg" xmlns:xlink="http://www.w3.org/1999/xlink">
<g id="graph0" class="graph" transform="scale(1 1) rotate(0) translate(4 320)">
<title>/home/runner/work/spades/spades/Source/MessageParticleContainer.cpp</title>
<!-- Node1 -->
<g id="Node000001" class="node">
<title>Node1</title>
<g id="a_Node000001"><a xlink:title=" ">
<polygon fill="#999999" stroke="#666666" points="1220.5,-316 1047.5,-316 1047.5,-275 1220.5,-275 1220.5,-316"/>
<text text-anchor="start" x="1055.5" y="-304" font-family="Helvetica,sans-Serif" font-size="10.00">/home/runner/work/spades</text>
<text text-anchor="start" x="1055.5" y="-293" font-family="Helvetica,sans-Serif" font-size="10.00">/spades/Source/MessageParticle</text>
<text text-anchor="middle" x="1134" y="-282" font-family="Helvetica,sans-Serif" font-size="10.00">Container.cpp</text>
</a>
</g>
</g>
<!-- Node2 -->
<g id="Node000002" class="node">
<title>Node2</title>
<g id="a_Node000002"><a xlink:title=" ">
<polygon fill="#e0e0e0" stroke="#999999" points="1098.5,-239 1053.5,-239 1053.5,-220 1098.5,-220 1098.5,-239"/>
<text text-anchor="middle" x="1076" y="-227" font-family="Helvetica,sans-Serif" font-size="10.00">utility</text>
</a>
</g>
</g>
<!-- Node1&#45;&gt;Node2 -->
<g id="edge1_Node000001_Node000002" class="edge">
<title>Node1&#45;&gt;Node2</title>
<g id="a_edge1_Node000001_Node000002"><a xlink:title=" ">
<path fill="none" stroke="#63b8ff" d="M1116.28,-274.95C1108.1,-265.92 1098.5,-255.33 1090.73,-246.75"/>
<polygon fill="#63b8ff" stroke="#63b8ff" points="1093.25,-244.32 1083.94,-239.26 1088.06,-249.02 1093.25,-244.32"/>
</a>
</g>
</g>
<!-- Node3 -->
<g id="Node000003" class="node">
<title>Node3</title>
<g id="a_Node000003"><a xlink:href="_message_particle_container_8_h.html" target="_top" xlink:title=" ">
<polygon fill="white" stroke="#666666" points="1269.5,-239 1116.5,-239 1116.5,-220 1269.5,-220 1269.5,-239"/>
<text text-anchor="middle" x="1193" y="-227" font-family="Helvetica,sans-Serif" font-size="10.00">MessageParticleContainer.H</text>
</a>
</g>
</g>
<!-- Node1&#45;&gt;Node3 -->
<g id="edge2_Node000001_Node000003" class="edge">
<title>Node1&#45;&gt;Node3</title>
<g id="a_edge2_Node000001_Node000003"><a xlink:title=" ">
<path fill="none" stroke="#63b8ff" d="M1152.02,-274.95C1160.34,-265.92 1170.11,-255.33 1178.02,-246.75"/>
<polygon fill="#63b8ff" stroke="#63b8ff" points="1180.72,-248.99 1184.92,-239.26 1175.57,-244.24 1180.72,-248.99"/>
</a>
</g>
</g>
<!-- Node4 -->
<g id="Node000004" class="node">
<title>Node4</title>
<g id="a_Node000004"><a xlink:title=" ">
<polygon fill="#e0e0e0" stroke="#999999" points="1389,-19 1327,-19 1327,0 1389,0 1389,-19"/>
<text text-anchor="middle" x="1358" y="-7" font-family="Helvetica,sans-Serif" font-size="10.00">AMReX.H</text>
</a>
</g>
</g>
<!-- Node3&#45;&gt;Node4 -->
<g id="edge3_Node000003_Node000004" class="edge">
<title>Node3&#45;&gt;Node4</title>
<g id="a_edge3_Node000003_Node000004"><a xlink:title=" ">
<path fill="none" stroke="#63b8ff" d="M1214.45,-219.96C1246.46,-206.03 1306.15,-175.25 1336,-129 1355.89,-98.19 1358.86,-54.03 1358.75,-29.24"/>
<polygon fill="#63b8ff" stroke="#63b8ff" points="1362.25,-28.97 1358.52,-19.05 1355.25,-29.12 1362.25,-28.97"/>
</a>
</g>
</g>
<!-- Node5 -->
<g id="Node000005" class="node">
<title>Node5</title>
<g id="a_Node000005"><a xlink:title=" ">
<polygon fill="#e0e0e0" stroke="#999999" points="1183,-129 1073,-129 1073,-110 1183,-110 1183,-129"/>
<text text-anchor="middle" x="1128" y="-117" font-family="Helvetica,sans-Serif" font-size="10.00">AMReX_AmrCore.H</text>
</a>
</g>
</g>
<!-- Node3&#45;&gt;Node5 -->
<g id="edge4_Node000003_Node000005" class="edge">
<title>Node3&#45;&gt;Node5</title>
<g id="a_edge4_Node000003_Node000005"><a xlink:title=" ">
<path fill="none" stroke="#63b8ff" d="M1187.68,-219.66C1176.96,-201.85 1152.6,-161.37 1138.54,-138.01"/>
<polygon fill="#63b8ff" stroke="#63b8ff" points="1141.37,-135.92 1133.21,-129.16 1135.37,-139.53 1141.37,-135.92"/>
</a>
</g>
</g>
<!-- Node6 -->
<g id="Node000006" class="node">
<title>Node6</title>
<g id="a_Node000006"><a xlink:title=" ">
<polygon fill="#e0e0e0" stroke="#999999" points="1326.5,-129 1201.5,-129 1201.5,-110 1326.5,-110 1326.5,-129"/>
<text text-anchor="middle" x="1264" y="-117" font-family="Helvetica,sans-Serif" font-size="10.00">AMReX_AmrParGDB.H</text>
</a>
</g>
</g>
<!-- Node3&#45;&gt;Node6 -->
<g id="edge5_Node000003_Node000006" class="edge">
<title>Node3&#45;&gt;Node6</title>
<g id="a_edge5_Node000003_Node000006"><a xlink:title=" ">
<path fill="none" stroke="#63b8ff" d="M1198.81,-219.66C1210.57,-201.77 1237.37,-161 1252.7,-137.69"/>
<polygon fill="#63b8ff" stroke="#63b8ff" points="1255.74,-139.44 1258.31,-129.16 1249.89,-135.59 1255.74,-139.44"/>
</a>
</g>
</g>
<!-- Node7 -->
<g id="Node000007" class="node">
<title>Node7</title>
<g id="a_Node000007"><a xlink:title=" ">
<polygon fill="#e0e0e0" stroke="#999999" points="648,-74 540,-74 540,-55 648,-55 648,-74"/>
<text text-anchor="middle" x="594" y="-62" font-family="Helvetica,sans-Serif" font-size="10.00">AMReX_Random.H</text>
</a>
</g>
</g>
<!-- Node3&#45;&gt;Node7 -->
<g id="edge6_Node000003_Node000007" class="edge">
<title>Node3&#45;&gt;Node7</title>
<g id="a_edge6_Node000003_Node000007"><a xlink:title=" ">
<path fill="none" stroke="#63b8ff" d="M1117.22,-219.98C968.84,-202.66 651.17,-162.17 614,-129 601.48,-117.83 596.73,-98.9 594.96,-84.61"/>
<polygon fill="#63b8ff" stroke="#63b8ff" points="598.42,-84.05 594.09,-74.38 591.45,-84.64 598.42,-84.05"/>
</a>
</g>
</g>
<!-- Node8 -->
<g id="Node000008" class="node">
<title>Node8</title>
<g id="a_Node000008"><a xlink:href="_spades_particle_container_8_h.html" target="_top" xlink:title=" ">
<polygon fill="white" stroke="#666666" points="1052.5,-184 907.5,-184 907.5,-165 1052.5,-165 1052.5,-184"/>
<text text-anchor="middle" x="980" y="-172" font-family="Helvetica,sans-Serif" font-size="10.00">SpadesParticleContainer.H</text>
</a>
</g>
</g>
<!-- Node3&#45;&gt;Node8 -->
<g id="edge7_Node000003_Node000008" class="edge">
<title>Node3&#45;&gt;Node8</title>
<g id="a_edge7_Node000003_Node000008"><a xlink:title=" ">
<path fill="none" stroke="#63b8ff" d="M1158.78,-219.98C1122.24,-210.89 1064.22,-196.46 1024.24,-186.51"/>
<polygon fill="#63b8ff" stroke="#63b8ff" points="1025.04,-183.1 1014.49,-184.08 1023.35,-189.89 1025.04,-183.1"/>
</a>
</g>
</g>
<!-- Node15 -->
<g id="Node000015" class="node">
<title>Node15</title>
<g id="a_Node000015"><a xlink:href="_utilities_8_h.html" target="_top" xlink:title=" ">
<polygon fill="white" stroke="#666666" points="513.5,-129 448.5,-129 448.5,-110 513.5,-110 513.5,-129"/>
<text text-anchor="middle" x="481" y="-117" font-family="Helvetica,sans-Serif" font-size="10.00">Utilities.H</text>
</a>
</g>
</g>
<!-- Node3&#45;&gt;Node15 -->
<g id="edge39_Node000003_Node000015" class="edge">
<title>Node3&#45;&gt;Node15</title>
<g id="a_edge39_Node000003_Node000015"><a xlink:title=" ">
<path fill="none" stroke="#63b8ff" d="M1116.12,-220.78C1113.04,-220.51 1109.99,-220.25 1107,-220 985.81,-210.02 674.44,-227.79 561,-184 534.76,-173.87 510.32,-151.91 495.53,-136.68"/>
<polygon fill="#63b8ff" stroke="#63b8ff" points="497.74,-133.92 488.35,-129.02 492.64,-138.71 497.74,-133.92"/>
</a>
</g>
</g>
<!-- Node22 -->
<g id="Node000022" class="node">
<title>Node22</title>
<g id="a_Node000022"><a xlink:href="_message_data_8_h.html" target="_top" xlink:title=" ">
<polygon fill="white" stroke="#666666" points="1477,-129 1383,-129 1383,-110 1477,-110 1477,-129"/>
<text text-anchor="middle" x="1430" y="-117" font-family="Helvetica,sans-Serif" font-size="10.00">MessageData.H</text>
</a>
</g>
</g>
<!-- Node3&#45;&gt;Node22 -->
<g id="edge30_Node000003_Node000022" class="edge">
<title>Node3&#45;&gt;Node22</title>
<g id="a_edge30_Node000003_Node000022"><a xlink:title=" ">
<path fill="none" stroke="#63b8ff" d="M1263.26,-219.94C1296.94,-213.61 1336.85,-202.69 1369,-184 1389.14,-172.29 1406.91,-152.03 1418.01,-137.54"/>
<polygon fill="#63b8ff" stroke="#63b8ff" points="1420.89,-139.52 1424.01,-129.39 1415.26,-135.36 1420.89,-139.52"/>
</a>
</g>
</g>
<!-- Node23 -->
<g id="Node000023" class="node">
<title>Node23</title>
<g id="a_Node000023"><a xlink:href="_message_ops_8_h.html" target="_top" xlink:title=" ">
<polygon fill="white" stroke="#666666" points="1614.5,-184 1525.5,-184 1525.5,-165 1614.5,-165 1614.5,-184"/>
<text text-anchor="middle" x="1570" y="-172" font-family="Helvetica,sans-Serif" font-size="10.00">MessageOps.H</text>
</a>
</g>
</g>
<!-- Node3&#45;&gt;Node23 -->
<g id="edge33_Node000003_Node000023" class="edge">
<title>Node3&#45;&gt;Node23</title>
<g id="a_edge33_Node000003_Node000023"><a xlink:title=" ">
<path fill="none" stroke="#63b8ff" d="M1253.57,-219.98C1325.74,-209.84 1445.26,-193.04 1514.92,-183.24"/>
<polygon fill="#63b8ff" stroke="#63b8ff" points="1515.82,-186.65 1525.24,-181.79 1514.85,-179.72 1515.82,-186.65"/>
</a>
</g>
</g>
<!-- Node8&#45;&gt;Node4 -->
<g id="edge8_Node000008_Node000004" class="edge">
<title>Node8&#45;&gt;Node4</title>
<g id="a_edge8_Node000008_Node000004"><a xlink:title=" ">
<path fill="none" stroke="#63b8ff" d="M907.35,-173.6C825.55,-171.99 700.09,-163.72 670,-129 664.47,-122.62 664.47,-116.38 670,-110 754.7,-12.17 1180.26,-8.42 1316.19,-9.78"/>
<polygon fill="#63b8ff" stroke="#63b8ff" points="1316.55,-13.28 1326.59,-9.9 1316.63,-6.29 1316.55,-13.28"/>
</a>
</g>
</g>
<!-- Node8&#45;&gt;Node5 -->
<g id="edge9_Node000008_Node000005" class="edge">
<title>Node8&#45;&gt;Node5</title>
<g id="a_edge9_Node000008_Node000005"><a xlink:title=" ">
<path fill="none" stroke="#63b8ff" d="M1003.78,-164.98C1028.23,-156.23 1066.53,-142.51 1094.15,-132.62"/>
<polygon fill="#63b8ff" stroke="#63b8ff" points="1095.55,-135.84 1103.79,-129.17 1093.19,-129.25 1095.55,-135.84"/>
</a>
</g>
</g>
<!-- Node8&#45;&gt;Node6 -->
<g id="edge10_Node000008_Node000006" class="edge">
<title>Node8&#45;&gt;Node6</title>
<g id="a_edge10_Node000008_Node000006"><a xlink:title=" ">
<path fill="none" stroke="#63b8ff" d="M1025.63,-164.98C1075.27,-155.72 1154.66,-140.9 1208.03,-130.94"/>
<polygon fill="#63b8ff" stroke="#63b8ff" points="1208.82,-134.36 1218.01,-129.08 1207.54,-127.48 1208.82,-134.36"/>
</a>
</g>
</g>
<!-- Node8&#45;&gt;Node7 -->
<g id="edge12_Node000008_Node000007" class="edge">
<title>Node8&#45;&gt;Node7</title>
<g id="a_edge12_Node000008_Node000007"><a xlink:title=" ">
<path fill="none" stroke="#63b8ff" d="M907.27,-171C820.28,-166.84 680.9,-156.05 637,-129 619.87,-118.44 607.98,-98.22 601.11,-83.42"/>
<polygon fill="#63b8ff" stroke="#63b8ff" points="604.33,-82.04 597.16,-74.23 597.89,-84.8 604.33,-82.04"/>
</a>
</g>
</g>
<!-- Node9 -->
<g id="Node000009" class="node">
<title>Node9</title>
<g id="a_Node000009"><a xlink:title=" ">
<polygon fill="#e0e0e0" stroke="#999999" points="832.5,-129 679.5,-129 679.5,-110 832.5,-110 832.5,-129"/>
<text text-anchor="middle" x="756" y="-117" font-family="Helvetica,sans-Serif" font-size="10.00">AMReX_NeighborParticles.H</text>
</a>
</g>
</g>
<!-- Node8&#45;&gt;Node9 -->
<g id="edge11_Node000008_Node000009" class="edge">
<title>Node8&#45;&gt;Node9</title>
<g id="a_edge11_Node000008_Node000009"><a xlink:title=" ">
<path fill="none" stroke="#63b8ff" d="M944.01,-164.98C905.51,-155.87 844.31,-141.4 802.26,-131.45"/>
<polygon fill="#63b8ff" stroke="#63b8ff" points="802.81,-127.98 792.27,-129.08 801.2,-134.79 802.81,-127.98"/>
</a>
</g>
</g>
<!-- Node10 -->
<g id="Node000010" class="node">
<title>Node10</title>
<g id="a_Node000010"><a xlink:href="_particle_data_8_h.html" target="_top" xlink:title=" ">
<polygon fill="white" stroke="#666666" points="1486,-74 1400,-74 1400,-55 1486,-55 1486,-74"/>
<text text-anchor="middle" x="1443" y="-62" font-family="Helvetica,sans-Serif" font-size="10.00">ParticleData.H</text>
</a>
</g>
</g>
<!-- Node8&#45;&gt;Node10 -->
<g id="edge13_Node000008_Node000010" class="edge">
<title>Node8&#45;&gt;Node10</title>
<g id="a_edge13_Node000008_Node000010"><a xlink:title=" ">
<path fill="none" stroke="#63b8ff" d="M988.33,-164.7C1002.4,-150.45 1032.45,-122.68 1064,-110 1121.93,-86.72 1300.01,-73.6 1389.91,-68.3"/>
<polygon fill="#63b8ff" stroke="#63b8ff" points="1390.12,-71.79 1399.9,-67.72 1389.71,-64.8 1390.12,-71.79"/>
</a>
</g>
</g>
<!-- Node12 -->
<g id="Node000012" class="node">
<title>Node12</title>
<g id="a_Node000012"><a xlink:href="_particle_ops_8_h.html" target="_top" xlink:title=" ">
<polygon fill="white" stroke="#666666" points="1577,-129 1495,-129 1495,-110 1577,-110 1577,-129"/>
<text text-anchor="middle" x="1536" y="-117" font-family="Helvetica,sans-Serif" font-size="10.00">ParticleOps.H</text>
</a>
</g>
</g>
<!-- Node8&#45;&gt;Node12 -->
<g id="edge16_Node000008_Node000012" class="edge">
<title>Node8&#45;&gt;Node12</title>
<g id="a_edge16_Node000008_Node000012"><a xlink:title=" ">
<path fill="none" stroke="#63b8ff" d="M1052.68,-168.96C1149.12,-162.52 1324.89,-149.35 1484.82,-129.05"/>
<polygon fill="#63b8ff" stroke="#63b8ff" points="1485.36,-132.51 1494.84,-127.77 1484.47,-125.57 1485.36,-132.51"/>
</a>
</g>
</g>
<!-- Node8&#45;&gt;Node15 -->
<g id="edge21_Node000008_Node000015" class="edge">
<title>Node8&#45;&gt;Node15</title>
<g id="a_edge21_Node000008_Node000015"><a xlink:title=" ">
<path fill="none" stroke="#63b8ff" d="M907.44,-165.79C801.83,-154.58 609.08,-134.1 523.68,-125.03"/>
<polygon fill="#63b8ff" stroke="#63b8ff" points="523.88,-121.53 513.57,-123.96 523.14,-128.5 523.88,-121.53"/>
</a>
</g>
</g>
<!-- Node21 -->
<g id="Node000021" class="node">
<title>Node21</title>
<g id="a_Node000021"><a xlink:href="_spades_particle_container_impl_8_h.html" target="_top" xlink:title=" ">
<polygon fill="white" stroke="#666666" points="1017.5,-129 850.5,-129 850.5,-110 1017.5,-110 1017.5,-129"/>
<text text-anchor="middle" x="934" y="-117" font-family="Helvetica,sans-Serif" font-size="10.00">SpadesParticleContainerImpl.H</text>
</a>
</g>
</g>
<!-- Node8&#45;&gt;Node21 -->
<g id="edge29_Node000008_Node000021" class="edge">
<title>Node8&#45;&gt;Node21</title>
<g id="a_edge29_Node000008_Node000021"><a xlink:title=" ">
<path fill="none" stroke="#63b8ff" d="M972.4,-164.75C965.84,-157.18 956.18,-146.05 948.19,-136.84"/>
<polygon fill="#63b8ff" stroke="#63b8ff" points="950.65,-134.35 941.45,-129.09 945.37,-138.94 950.65,-134.35"/>
</a>
</g>
</g>
<!-- Node10&#45;&gt;Node4 -->
<g id="edge14_Node000010_Node000004" class="edge">
<title>Node10&#45;&gt;Node4</title>
<g id="a_edge14_Node000010_Node000004"><a xlink:title=" ">
<path fill="none" stroke="#63b8ff" d="M1429.34,-54.98C1416.16,-46.77 1395.97,-34.18 1380.43,-24.49"/>
<polygon fill="#63b8ff" stroke="#63b8ff" points="1382.24,-21.49 1371.91,-19.17 1378.54,-27.43 1382.24,-21.49"/>
</a>
</g>
</g>
<!-- Node11 -->
<g id="Node000011" class="node">
<title>Node11</title>
<g id="a_Node000011"><a xlink:title=" ">
<polygon fill="#e0e0e0" stroke="#999999" points="1505,-19 1407,-19 1407,0 1505,0 1505,-19"/>
<text text-anchor="middle" x="1456" y="-7" font-family="Helvetica,sans-Serif" font-size="10.00">AMReX_SPACE.H</text>
</a>
</g>
</g>
<!-- Node10&#45;&gt;Node11 -->
<g id="edge15_Node000010_Node000011" class="edge">
<title>Node10&#45;&gt;Node11</title>
<g id="a_edge15_Node000010_Node000011"><a xlink:title=" ">
<path fill="none" stroke="#63b8ff" d="M1445.15,-54.75C1446.87,-47.72 1449.35,-37.62 1451.5,-28.84"/>
<polygon fill="#63b8ff" stroke="#63b8ff" points="1454.91,-29.63 1453.89,-19.09 1448.11,-27.97 1454.91,-29.63"/>
</a>
</g>
</g>
<!-- Node12&#45;&gt;Node4 -->
<g id="edge17_Node000012_Node000004" class="edge">
<title>Node12&#45;&gt;Node4</title>
<g id="a_edge17_Node000012_Node000004"><a xlink:title=" ">
<path fill="none" stroke="#63b8ff" d="M1532.64,-109.75C1526.95,-96.09 1514.14,-69.72 1495,-55 1479.8,-43.31 1433.65,-29.65 1399.08,-20.58"/>
<polygon fill="#63b8ff" stroke="#63b8ff" points="1399.78,-17.15 1389.22,-18.04 1398.03,-23.93 1399.78,-17.15"/>
</a>
</g>
</g>
<!-- Node12&#45;&gt;Node10 -->
<g id="edge20_Node000012_Node000010" class="edge">
<title>Node12&#45;&gt;Node10</title>
<g id="a_edge20_Node000012_Node000010"><a xlink:title=" ">
<path fill="none" stroke="#63b8ff" d="M1521.06,-109.98C1506.5,-101.69 1484.13,-88.94 1467.07,-79.22"/>
<polygon fill="#63b8ff" stroke="#63b8ff" points="1468.64,-76.08 1458.21,-74.17 1465.17,-82.16 1468.64,-76.08"/>
</a>
</g>
</g>
<!-- Node13 -->
<g id="Node000013" class="node">
<title>Node13</title>
<g id="a_Node000013"><a xlink:title=" ">
<polygon fill="#e0e0e0" stroke="#999999" points="1642,-74 1542,-74 1542,-55 1642,-55 1642,-74"/>
<text text-anchor="middle" x="1592" y="-62" font-family="Helvetica,sans-Serif" font-size="10.00">AMReX_Array4.H</text>
</a>
</g>
</g>
<!-- Node12&#45;&gt;Node13 -->
<g id="edge18_Node000012_Node000013" class="edge">
<title>Node12&#45;&gt;Node13</title>
<g id="a_edge18_Node000012_Node000013"><a xlink:title=" ">
<path fill="none" stroke="#63b8ff" d="M1545,-109.98C1553.19,-102.23 1565.51,-90.58 1575.47,-81.14"/>
<polygon fill="#63b8ff" stroke="#63b8ff" points="1577.98,-83.59 1582.84,-74.17 1573.17,-78.5 1577.98,-83.59"/>
</a>
</g>
</g>
<!-- Node14 -->
<g id="Node000014" class="node">
<title>Node14</title>
<g id="a_Node000014"><a xlink:title=" ">
<polygon fill="#e0e0e0" stroke="#999999" points="1750,-74 1660,-74 1660,-55 1750,-55 1750,-74"/>
<text text-anchor="middle" x="1705" y="-62" font-family="Helvetica,sans-Serif" font-size="10.00">AMReX_Print.H</text>
</a>
</g>
</g>
<!-- Node12&#45;&gt;Node14 -->
<g id="edge19_Node000012_Node000014" class="edge">
<title>Node12&#45;&gt;Node14</title>
<g id="a_edge19_Node000012_Node000014"><a xlink:title=" ">
<path fill="none" stroke="#63b8ff" d="M1563.15,-109.98C1591.53,-101.09 1636.23,-87.07 1667.86,-77.15"/>
<polygon fill="#63b8ff" stroke="#63b8ff" points="1669.14,-80.41 1677.63,-74.08 1667.05,-73.73 1669.14,-80.41"/>
</a>
</g>
</g>
<!-- Node15&#45;&gt;Node4 -->
<g id="edge22_Node000015_Node000004" class="edge">
<title>Node15&#45;&gt;Node4</title>
<g id="a_edge22_Node000015_Node000004"><a xlink:title=" ">
<path fill="none" stroke="#63b8ff" d="M484.97,-109.55C491.94,-95.1 507.84,-67.02 531,-55 601.02,-18.66 1158.74,-11.92 1316.54,-10.74"/>
<polygon fill="#63b8ff" stroke="#63b8ff" points="1316.8,-14.24 1326.77,-10.67 1316.75,-7.24 1316.8,-14.24"/>
</a>
</g>
</g>
<!-- Node15&#45;&gt;Node7 -->
<g id="edge26_Node000015_Node000007" class="edge">
<title>Node15&#45;&gt;Node7</title>
<g id="a_edge26_Node000015_Node000007"><a xlink:title=" ">
<path fill="none" stroke="#63b8ff" d="M499.16,-109.98C517.25,-101.5 545.28,-88.35 566.19,-78.54"/>
<polygon fill="#63b8ff" stroke="#63b8ff" points="567.95,-81.59 575.51,-74.17 564.97,-75.25 567.95,-81.59"/>
</a>
</g>
</g>
<!-- Node16 -->
<g id="Node000016" class="node">
<title>Node16</title>
<g id="a_Node000016"><a xlink:title=" ">
<polygon fill="#e0e0e0" stroke="#999999" points="356,-74 246,-74 246,-55 356,-55 356,-74"/>
<text text-anchor="middle" x="301" y="-62" font-family="Helvetica,sans-Serif" font-size="10.00">AMReX_RealVect.H</text>
</a>
</g>
</g>
<!-- Node15&#45;&gt;Node16 -->
<g id="edge23_Node000015_Node000016" class="edge">
<title>Node15&#45;&gt;Node16</title>
<g id="a_edge23_Node000015_Node000016"><a xlink:title=" ">
<path fill="none" stroke="#63b8ff" d="M452.08,-109.98C421.73,-101.05 373.83,-86.94 340.12,-77.02"/>
<polygon fill="#63b8ff" stroke="#63b8ff" points="340.73,-73.55 330.15,-74.08 338.75,-80.26 340.73,-73.55"/>
</a>
</g>
</g>
<!-- Node17 -->
<g id="Node000017" class="node">
<title>Node17</title>
<g id="a_Node000017"><a xlink:title=" ">
<polygon fill="#e0e0e0" stroke="#999999" points="483.5,-74 374.5,-74 374.5,-55 483.5,-55 483.5,-74"/>
<text text-anchor="middle" x="429" y="-62" font-family="Helvetica,sans-Serif" font-size="10.00">AMReX_MultiFab.H</text>
</a>
</g>
</g>
<!-- Node15&#45;&gt;Node17 -->
<g id="edge24_Node000015_Node000017" class="edge">
<title>Node15&#45;&gt;Node17</title>
<g id="a_edge24_Node000015_Node000017"><a xlink:title=" ">
<path fill="none" stroke="#63b8ff" d="M472.41,-109.75C464.84,-102.03 453.62,-90.6 444.49,-81.28"/>
<polygon fill="#63b8ff" stroke="#63b8ff" points="446.93,-78.78 437.43,-74.09 441.93,-83.68 446.93,-78.78"/>
</a>
</g>
</g>
<!-- Node18 -->
<g id="Node000018" class="node">
<title>Node18</title>
<g id="a_Node000018"><a xlink:title=" ">
<polygon fill="#e0e0e0" stroke="#999999" points="228,-74 102,-74 102,-55 228,-55 228,-74"/>
<text text-anchor="middle" x="165" y="-62" font-family="Helvetica,sans-Serif" font-size="10.00">AMReX_MultiFabUtil.H</text>
</a>
</g>
</g>
<!-- Node15&#45;&gt;Node18 -->
<g id="edge25_Node000015_Node000018" class="edge">
<title>Node15&#45;&gt;Node18</title>
<g id="a_edge25_Node000015_Node000018"><a xlink:title=" ">
<path fill="none" stroke="#63b8ff" d="M448.37,-113.03C395.95,-104.24 292.14,-86.82 225.77,-75.69"/>
<polygon fill="#63b8ff" stroke="#63b8ff" points="226.3,-72.23 215.86,-74.03 225.14,-79.14 226.3,-72.23"/>
</a>
</g>
</g>
<!-- Node19 -->
<g id="Node000019" class="node">
<title>Node19</title>
<g id="a_Node000019"><a xlink:href="_constants_8_h.html" target="_top" xlink:title=" ">
<polygon fill="white" stroke="#666666" points="84,-74 8,-74 8,-55 84,-55 84,-74"/>
<text text-anchor="middle" x="46" y="-62" font-family="Helvetica,sans-Serif" font-size="10.00">Constants.H</text>
</a>
</g>
</g>
<!-- Node15&#45;&gt;Node19 -->
<g id="edge27_Node000015_Node000019" class="edge">
<title>Node15&#45;&gt;Node19</title>
<g id="a_edge27_Node000015_Node000019"><a xlink:title=" ">
<path fill="none" stroke="#63b8ff" d="M448.46,-115.49C383.29,-109.3 231.93,-94.15 94.48,-74.13"/>
<polygon fill="#63b8ff" stroke="#63b8ff" points="94.59,-70.61 84.19,-72.62 93.57,-77.54 94.59,-70.61"/>
</a>
</g>
</g>
<!-- Node20 -->
<g id="Node000020" class="node">
<title>Node20</title>
<g id="a_Node000020"><a xlink:title=" ">
<polygon fill="#e0e0e0" stroke="#999999" points="92,-19 0,-19 0,0 92,0 92,-19"/>
<text text-anchor="middle" x="46" y="-7" font-family="Helvetica,sans-Serif" font-size="10.00">AMReX_REAL.H</text>
</a>
</g>
</g>
<!-- Node19&#45;&gt;Node20 -->
<g id="edge28_Node000019_Node000020" class="edge">
<title>Node19&#45;&gt;Node20</title>
<g id="a_edge28_Node000019_Node000020"><a xlink:title=" ">
<path fill="none" stroke="#63b8ff" d="M46,-54.75C46,-47.8 46,-37.85 46,-29.13"/>
<polygon fill="#63b8ff" stroke="#63b8ff" points="49.5,-29.09 46,-19.09 42.5,-29.09 49.5,-29.09"/>
</a>
</g>
</g>
<!-- Node22&#45;&gt;Node4 -->
<g id="edge31_Node000022_Node000004" class="edge">
<title>Node22&#45;&gt;Node4</title>
<g id="a_edge31_Node000022_Node000004"><a xlink:title=" ">
<path fill="none" stroke="#63b8ff" d="M1421.26,-109.82C1412.87,-101.21 1400.16,-87.4 1391,-74 1381.04,-59.43 1371.98,-41.48 1365.88,-28.39"/>
<polygon fill="#63b8ff" stroke="#63b8ff" points="1368.98,-26.75 1361.66,-19.08 1362.6,-29.64 1368.98,-26.75"/>
</a>
</g>
</g>
<!-- Node22&#45;&gt;Node10 -->
<g id="edge32_Node000022_Node000010" class="edge">
<title>Node22&#45;&gt;Node10</title>
<g id="a_edge32_Node000022_Node000010"><a xlink:title=" ">
<path fill="none" stroke="#63b8ff" d="M1432.15,-109.75C1433.87,-102.72 1436.35,-92.62 1438.5,-83.84"/>
<polygon fill="#63b8ff" stroke="#63b8ff" points="1441.91,-84.63 1440.89,-74.09 1435.11,-82.97 1441.91,-84.63"/>
</a>
</g>
</g>
<!-- Node23&#45;&gt;Node4 -->
<g id="edge34_Node000023_Node000004" class="edge">
<title>Node23&#45;&gt;Node4</title>
<g id="a_edge34_Node000023_Node000004"><a xlink:title=" ">
<path fill="none" stroke="#63b8ff" d="M1610.51,-164.94C1679.68,-148.61 1808.51,-109.7 1759,-55 1706.85,2.61 1493.86,-28.91 1399.48,-18.83"/>
<polygon fill="#63b8ff" stroke="#63b8ff" points="1399.75,-15.33 1389.38,-17.51 1398.85,-22.27 1399.75,-15.33"/>
</a>
</g>
</g>
<!-- Node23&#45;&gt;Node12 -->
<g id="edge38_Node000023_Node000012" class="edge">
<title>Node23&#45;&gt;Node12</title>
<g id="a_edge38_Node000023_Node000012"><a xlink:title=" ">
<path fill="none" stroke="#63b8ff" d="M1564.39,-164.75C1559.68,-157.42 1552.83,-146.73 1547.03,-137.7"/>
<polygon fill="#63b8ff" stroke="#63b8ff" points="1549.86,-135.62 1541.51,-129.09 1543.96,-139.4 1549.86,-135.62"/>
</a>
</g>
</g>
<!-- Node23&#45;&gt;Node13 -->
<g id="edge35_Node000023_Node000013" class="edge">
<title>Node23&#45;&gt;Node13</title>
<g id="a_edge35_Node000023_Node000013"><a xlink:title=" ">
<path fill="none" stroke="#63b8ff" d="M1573.85,-164.83C1577.6,-156 1583.14,-141.82 1586,-129 1589.29,-114.27 1590.78,-97.23 1591.45,-84.51"/>
<polygon fill="#63b8ff" stroke="#63b8ff" points="1594.96,-84.37 1591.86,-74.24 1587.96,-84.09 1594.96,-84.37"/>
</a>
</g>
</g>
<!-- Node23&#45;&gt;Node14 -->
<g id="edge36_Node000023_Node000014" class="edge">
<title>Node23&#45;&gt;Node14</title>
<g id="a_edge36_Node000023_Node000014"><a xlink:title=" ">
<path fill="none" stroke="#63b8ff" d="M1581.05,-164.66C1604.1,-146.22 1657.57,-103.45 1686.16,-80.57"/>
<polygon fill="#63b8ff" stroke="#63b8ff" points="1688.55,-83.14 1694.18,-74.16 1684.18,-77.67 1688.55,-83.14"/>
</a>
</g>
</g>
<!-- Node23&#45;&gt;Node22 -->
<g id="edge37_Node000023_Node000022" class="edge">
<title>Node23&#45;&gt;Node22</title>
<g id="a_edge37_Node000023_Node000022"><a xlink:title=" ">
<path fill="none" stroke="#63b8ff" d="M1547.51,-164.98C1524.48,-156.27 1488.46,-142.63 1462.37,-132.75"/>
<polygon fill="#63b8ff" stroke="#63b8ff" points="1463.49,-129.44 1452.9,-129.17 1461.02,-135.98 1463.49,-129.44"/>
</a>
</g>
</g>
</g>
</svg>
