<?xml version="1.0" encoding="UTF-8" standalone="no"?>
<!DOCTYPE svg PUBLIC "-//W3C//DTD SVG 1.1//EN"
 "http://www.w3.org/Graphics/SVG/1.1/DTD/svg11.dtd">
<!-- Generated by graphviz version 2.43.0 (0)
 -->
<!-- Title: /home/runner/work/spades/spades/Source/ParticleOps.H Pages: 1 -->
<svg width="618pt" height="324pt"
 viewBox="0.00 0.00 618.00 324.00" xmlns="http://www.w3.org/2000/svg" xmlns:xlink="http://www.w3.org/1999/xlink">
<g id="graph0" class="graph" transform="scale(1 1) rotate(0) translate(4 320)">
<title>/home/runner/work/spades/spades/Source/ParticleOps.H</title>
<!-- Node1 -->
<g id="Node000001" class="node">
<title>Node1</title>
<g id="a_Node000001"><a xlink:title=" ">
<polygon fill="#999999" stroke="#666666" points="394,-316 236,-316 236,-286 394,-286 394,-316"/>
<text text-anchor="start" x="244" y="-304" font-family="Helvetica,sans-Serif" font-size="10.00">/home/runner/work/spades</text>
<text text-anchor="middle" x="315" y="-293" font-family="Helvetica,sans-Serif" font-size="10.00">/spades/Source/ParticleOps.H</text>
</a>
</g>
</g>
<!-- Node2 -->
<g id="Node000002" class="node">
<title>Node2</title>
<g id="a_Node000002"><a xlink:href="_entity_ops_8_h.html" target="_top" xlink:title=" ">
<polygon fill="white" stroke="#666666" points="186.5,-250 35.5,-250 35.5,-220 186.5,-220 186.5,-250"/>
<text text-anchor="start" x="43.5" y="-238" font-family="Helvetica,sans-Serif" font-size="10.00">/home/runner/work/spades</text>
<text text-anchor="middle" x="111" y="-227" font-family="Helvetica,sans-Serif" font-size="10.00">/spades/Source/EntityOps.H</text>
</a>
</g>
</g>
<!-- Node1&#45;&gt;Node2 -->
<g id="edge1_Node000001_Node000002" class="edge">
<title>Node1&#45;&gt;Node2</title>
<g id="a_edge1_Node000001_Node000002"><a xlink:title=" ">
<path fill="none" stroke="#63b8ff" d="M260.35,-282.86C227.6,-272.58 186.47,-259.68 155.66,-250.01"/>
<polygon fill="#63b8ff" stroke="#63b8ff" points="259.64,-286.3 270.23,-285.95 261.74,-279.62 259.64,-286.3"/>
</a>
</g>
</g>
<!-- Node8 -->
<g id="Node000008" class="node">
<title>Node8</title>
<g id="a_Node000008"><a xlink:href="_message_ops_8_h.html" target="_top" xlink:title=" ">
<polygon fill="white" stroke="#666666" points="610,-250 444,-250 444,-220 610,-220 610,-250"/>
<text text-anchor="start" x="452" y="-238" font-family="Helvetica,sans-Serif" font-size="10.00">/home/runner/work/spades</text>
<text text-anchor="middle" x="527" y="-227" font-family="Helvetica,sans-Serif" font-size="10.00">/spades/Source/MessageOps.H</text>
</a>
</g>
</g>
<!-- Node1&#45;&gt;Node8 -->
<g id="edge7_Node000001_Node000008" class="edge">
<title>Node1&#45;&gt;Node8</title>
<g id="a_edge7_Node000001_Node000008"><a xlink:title=" ">
<path fill="none" stroke="#63b8ff" d="M371.35,-282.99C405.46,-272.69 448.44,-259.72 480.58,-250.01"/>
<polygon fill="#63b8ff" stroke="#63b8ff" points="370.09,-279.71 361.52,-285.95 372.11,-286.42 370.09,-279.71"/>
</a>
</g>
</g>
<!-- Node11 -->
<g id="Node000011" class="node">
<title>Node11</title>
<g id="a_Node000011"><a xlink:href="_spades_particle_container_8_h.html" target="_top" xlink:title=" ">
<polygon fill="white" stroke="#666666" points="425.5,-250 204.5,-250 204.5,-220 425.5,-220 425.5,-250"/>
<text text-anchor="start" x="212.5" y="-238" font-family="Helvetica,sans-Serif" font-size="10.00">/home/runner/work/spades</text>
<text text-anchor="middle" x="315" y="-227" font-family="Helvetica,sans-Serif" font-size="10.00">/spades/Source/SpadesParticleContainer.H</text>
</a>
</g>
</g>
<!-- Node1&#45;&gt;Node11 -->
<g id="edge11_Node000001_Node000011" class="edge">
<title>Node1&#45;&gt;Node11</title>
<g id="a_edge11_Node000001_Node000011"><a xlink:title=" ">
<path fill="none" stroke="#63b8ff" d="M315,-275.54C315,-266.96 315,-257.61 315,-250.16"/>
<polygon fill="#63b8ff" stroke="#63b8ff" points="311.5,-275.8 315,-285.8 318.5,-275.8 311.5,-275.8"/>
</a>
</g>
</g>
<!-- Node3 -->
<g id="Node000003" class="node">
<title>Node3</title>
<g id="a_Node000003"><a xlink:href="_entity_particle_container_8_h.html" target="_top" xlink:title=" ">
<polygon fill="white" stroke="#666666" points="252.5,-178.5 37.5,-178.5 37.5,-148.5 252.5,-148.5 252.5,-178.5"/>
<text text-anchor="start" x="45.5" y="-166.5" font-family="Helvetica,sans-Serif" font-size="10.00">/home/runner/work/spades</text>
<text text-anchor="middle" x="145" y="-155.5" font-family="Helvetica,sans-Serif" font-size="10.00">/spades/Source/EntityParticleContainer.H</text>
</a>
</g>
</g>
<!-- Node2&#45;&gt;Node3 -->
<g id="edge2_Node000002_Node000003" class="edge">
<title>Node2&#45;&gt;Node3</title>
<g id="a_edge2_Node000002_Node000003"><a xlink:title=" ">
<path fill="none" stroke="#63b8ff" d="M122.38,-210.73C127.6,-200.06 133.62,-187.77 138.13,-178.54"/>
<polygon fill="#63b8ff" stroke="#63b8ff" points="119.13,-209.41 117.88,-219.94 125.42,-212.49 119.13,-209.41"/>
</a>
</g>
</g>
<!-- Node4 -->
<g id="Node000004" class="node">
<title>Node4</title>
<g id="a_Node000004"><a xlink:href="_entity_particle_container_8cpp.html" target="_top" xlink:title=" ">
<polygon fill="white" stroke="#666666" points="224,-101.5 0,-101.5 0,-71.5 224,-71.5 224,-101.5"/>
<text text-anchor="start" x="8" y="-89.5" font-family="Helvetica,sans-Serif" font-size="10.00">/home/runner/work/spades</text>
<text text-anchor="middle" x="112" y="-78.5" font-family="Helvetica,sans-Serif" font-size="10.00">/spades/Source/EntityParticleContainer.cpp</text>
</a>
</g>
</g>
<!-- Node3&#45;&gt;Node4 -->
<g id="edge3_Node000003_Node000004" class="edge">
<title>Node3&#45;&gt;Node4</title>
<g id="a_edge3_Node000003_Node000004"><a xlink:title=" ">
<path fill="none" stroke="#63b8ff" d="M134.72,-139.15C129.3,-126.82 122.83,-112.11 118.18,-101.54"/>
<polygon fill="#63b8ff" stroke="#63b8ff" points="131.56,-140.65 138.79,-148.39 137.97,-137.83 131.56,-140.65"/>
</a>
</g>
</g>
<!-- Node5 -->
<g id="Node000005" class="node">
<title>Node5</title>
<g id="a_Node000005"><a xlink:href="_s_p_a_d_e_s_8_h.html" target="_top" xlink:title=" ">
<polygon fill="white" stroke="#666666" points="388,-101.5 242,-101.5 242,-71.5 388,-71.5 388,-101.5"/>
<text text-anchor="start" x="250" y="-89.5" font-family="Helvetica,sans-Serif" font-size="10.00">/home/runner/work/spades</text>
<text text-anchor="middle" x="315" y="-78.5" font-family="Helvetica,sans-Serif" font-size="10.00">/spades/Source/SPADES.H</text>
</a>
</g>
</g>
<!-- Node3&#45;&gt;Node5 -->
<g id="edge4_Node000003_Node000005" class="edge">
<title>Node3&#45;&gt;Node5</title>
<g id="a_edge4_Node000003_Node000005"><a xlink:title=" ">
<path fill="none" stroke="#63b8ff" d="M186.28,-144.29C216.1,-131.13 255.79,-113.62 283.17,-101.54"/>
<polygon fill="#63b8ff" stroke="#63b8ff" points="184.71,-141.15 176.98,-148.39 187.54,-147.56 184.71,-141.15"/>
</a>
</g>
</g>
<!-- Node6 -->
<g id="Node000006" class="node">
<title>Node6</title>
<g id="a_Node000006"><a xlink:href="_s_p_a_d_e_s_8cpp.html" target="_top" xlink:title=" ">
<polygon fill="white" stroke="#666666" points="306.5,-30 155.5,-30 155.5,0 306.5,0 306.5,-30"/>
<text text-anchor="start" x="163.5" y="-18" font-family="Helvetica,sans-Serif" font-size="10.00">/home/runner/work/spades</text>
<text text-anchor="middle" x="231" y="-7" font-family="Helvetica,sans-Serif" font-size="10.00">/spades/Source/SPADES.cpp</text>
</a>
</g>
</g>
<!-- Node5&#45;&gt;Node6 -->
<g id="edge5_Node000005_Node000006" class="edge">
<title>Node5&#45;&gt;Node6</title>
<g id="a_edge5_Node000005_Node000006"><a xlink:title=" ">
<path fill="none" stroke="#63b8ff" d="M289.99,-64.81C276.43,-53.59 260.04,-40.02 247.97,-30.04"/>
<polygon fill="#63b8ff" stroke="#63b8ff" points="288.07,-67.76 298,-71.44 292.53,-62.36 288.07,-67.76"/>
</a>
</g>
</g>
<!-- Node7 -->
<g id="Node000007" class="node">
<title>Node7</title>
<g id="a_Node000007"><a xlink:href="main_8cpp.html" target="_top" xlink:title=" ">
<polygon fill="white" stroke="#666666" points="471,-30 325,-30 325,0 471,0 471,-30"/>
<text text-anchor="start" x="333" y="-18" font-family="Helvetica,sans-Serif" font-size="10.00">/home/runner/work/spades</text>
<text text-anchor="middle" x="398" y="-7" font-family="Helvetica,sans-Serif" font-size="10.00">/spades/Source/main.cpp</text>
</a>
</g>
</g>
<!-- Node5&#45;&gt;Node7 -->
<g id="edge6_Node000005_Node000007" class="edge">
<title>Node5&#45;&gt;Node7</title>
<g id="a_edge6_Node000005_Node000007"><a xlink:title=" ">
<path fill="none" stroke="#63b8ff" d="M339.71,-64.81C353.11,-53.59 369.31,-40.02 381.23,-30.04"/>
<polygon fill="#63b8ff" stroke="#63b8ff" points="337.22,-62.33 331.8,-71.44 341.71,-67.7 337.22,-62.33"/>
</a>
</g>
</g>
<!-- Node9 -->
<g id="Node000009" class="node">
<title>Node9</title>
<g id="a_Node000009"><a xlink:href="_message_particle_container_8_h.html" target="_top" xlink:title=" ">
<polygon fill="white" stroke="#666666" points="547.5,-184 374.5,-184 374.5,-143 547.5,-143 547.5,-184"/>
<text text-anchor="start" x="382.5" y="-172" font-family="Helvetica,sans-Serif" font-size="10.00">/home/runner/work/spades</text>
<text text-anchor="start" x="382.5" y="-161" font-family="Helvetica,sans-Serif" font-size="10.00">/spades/Source/MessageParticle</text>
<text text-anchor="middle" x="461" y="-150" font-family="Helvetica,sans-Serif" font-size="10.00">Container.H</text>
</a>
</g>
</g>
<!-- Node8&#45;&gt;Node9 -->
<g id="edge8_Node000008_Node000009" class="edge">
<title>Node8&#45;&gt;Node9</title>
<g id="a_edge8_Node000008_Node000009"><a xlink:title=" ">
<path fill="none" stroke="#63b8ff" d="M506.5,-212.41C497.9,-203.36 487.97,-192.9 479.59,-184.07"/>
<polygon fill="#63b8ff" stroke="#63b8ff" points="504.22,-215.09 513.64,-219.94 509.3,-210.27 504.22,-215.09"/>
</a>
</g>
</g>
<!-- Node9&#45;&gt;Node5 -->
<g id="edge10_Node000009_Node000005" class="edge">
<title>Node9&#45;&gt;Node5</title>
<g id="a_edge10_Node000009_Node000005"><a xlink:title=" ">
<path fill="none" stroke="#63b8ff" d="M413.9,-138.3C390.37,-126.22 362.72,-112.01 342.64,-101.7"/>
<polygon fill="#63b8ff" stroke="#63b8ff" points="412.53,-141.53 423.02,-142.99 415.73,-135.31 412.53,-141.53"/>
</a>
</g>
</g>
<!-- Node10 -->
<g id="Node000010" class="node">
<title>Node10</title>
<g id="a_Node000010"><a xlink:href="_message_particle_container_8cpp.html" target="_top" xlink:title=" ">
<polygon fill="white" stroke="#666666" points="579.5,-107 406.5,-107 406.5,-66 579.5,-66 579.5,-107"/>
<text text-anchor="start" x="414.5" y="-95" font-family="Helvetica,sans-Serif" font-size="10.00">/home/runner/work/spades</text>
<text text-anchor="start" x="414.5" y="-84" font-family="Helvetica,sans-Serif" font-size="10.00">/spades/Source/MessageParticle</text>
<text text-anchor="middle" x="493" y="-73" font-family="Helvetica,sans-Serif" font-size="10.00">Container.cpp</text>
</a>
</g>
</g>
<!-- Node9&#45;&gt;Node10 -->
<g id="edge9_Node000009_Node000010" class="edge">
<title>Node9&#45;&gt;Node10</title>
<g id="a_edge9_Node000009_Node000010"><a xlink:title=" ">
<path fill="none" stroke="#63b8ff" d="M473.35,-133.55C477.13,-124.69 481.2,-115.15 484.65,-107.07"/>
<polygon fill="#63b8ff" stroke="#63b8ff" points="470.11,-132.22 469.41,-142.79 476.55,-134.97 470.11,-132.22"/>
</a>
</g>
</g>
<!-- Node11&#45;&gt;Node3 -->
<g id="edge12_Node000011_Node000003" class="edge">
<title>Node11&#45;&gt;Node3</title>
<g id="a_edge12_Node000011_Node000003"><a xlink:title=" ">
<path fill="none" stroke="#63b8ff" d="M271.24,-216.11C242.65,-204.42 205.84,-189.37 179.35,-178.54"/>
<polygon fill="#63b8ff" stroke="#63b8ff" points="270.02,-219.39 280.6,-219.94 272.67,-212.91 270.02,-219.39"/>
</a>
</g>
</g>
<!-- Node11&#45;&gt;Node5 -->
<g id="edge14_Node000011_Node000005" class="edge">
<title>Node11&#45;&gt;Node5</title>
<g id="a_edge14_Node000011_Node000005"><a xlink:title=" ">
<path fill="none" stroke="#63b8ff" d="M315,-209.65C315,-178.82 315,-126.72 315,-101.72"/>
<polygon fill="#63b8ff" stroke="#63b8ff" points="311.5,-209.95 315,-219.95 318.5,-209.95 311.5,-209.95"/>
</a>
</g>
</g>
<!-- Node11&#45;&gt;Node9 -->
<g id="edge13_Node000011_Node000009" class="edge">
<title>Node11&#45;&gt;Node9</title>
<g id="a_edge13_Node000011_Node000009"><a xlink:title=" ">
<path fill="none" stroke="#63b8ff" d="M353.85,-215.51C374.22,-205.81 399.18,-193.93 419.88,-184.07"/>
<polygon fill="#63b8ff" stroke="#63b8ff" points="352.07,-212.48 344.55,-219.94 355.08,-218.8 352.07,-212.48"/>
</a>
</g>
</g>
</g>
</svg>
