<?xml version="1.0" encoding="UTF-8" standalone="no"?>
<!DOCTYPE svg PUBLIC "-//W3C//DTD SVG 1.1//EN"
 "http://www.w3.org/Graphics/SVG/1.1/DTD/svg11.dtd">
<!-- Generated by graphviz version 2.43.0 (0)
 -->
<!-- Title: /home/runner/work/spades/spades/Source/ParticleData.H Pages: 1 -->
<svg width="796pt" height="456pt"
 viewBox="0.00 0.00 795.68 456.00" xmlns="http://www.w3.org/2000/svg" xmlns:xlink="http://www.w3.org/1999/xlink">
<g id="graph0" class="graph" transform="scale(1 1) rotate(0) translate(4 452)">
<title>/home/runner/work/spades/spades/Source/ParticleData.H</title>
<!-- Node1 -->
<g id="Node000001" class="node">
<title>Node1</title>
<g id="a_Node000001"><a xlink:title=" ">
<polygon fill="#999999" stroke="#666666" points="371.68,-448 208.68,-448 208.68,-418 371.68,-418 371.68,-448"/>
<text text-anchor="start" x="216.68" y="-436" font-family="Helvetica,sans-Serif" font-size="10.00">/home/runner/work/spades</text>
<text text-anchor="middle" x="290.18" y="-425" font-family="Helvetica,sans-Serif" font-size="10.00">/spades/Source/ParticleData.H</text>
</a>
</g>
</g>
<!-- Node2 -->
<g id="Node000002" class="node">
<title>Node2</title>
<g id="a_Node000002"><a xlink:href="_entity_data_8_h.html" target="_top" xlink:title=" ">
<polygon fill="white" stroke="#666666" points="161.68,-382 6.68,-382 6.68,-352 161.68,-352 161.68,-382"/>
<text text-anchor="start" x="14.68" y="-370" font-family="Helvetica,sans-Serif" font-size="10.00">/home/runner/work/spades</text>
<text text-anchor="middle" x="84.18" y="-359" font-family="Helvetica,sans-Serif" font-size="10.00">/spades/Source/EntityData.H</text>
</a>
</g>
</g>
<!-- Node1&#45;&gt;Node2 -->
<g id="edge1_Node000001_Node000002" class="edge">
<title>Node1&#45;&gt;Node2</title>
<g id="a_edge1_Node000001_Node000002"><a xlink:title=" ">
<path fill="none" stroke="#63b8ff" d="M235,-414.86C201.92,-404.58 160.39,-391.68 129.28,-382.01"/>
<polygon fill="#63b8ff" stroke="#63b8ff" points="234.38,-418.33 244.97,-417.95 236.46,-411.65 234.38,-418.33"/>
</a>
</g>
</g>
<!-- Node11 -->
<g id="Node000011" class="node">
<title>Node11</title>
<g id="a_Node000011"><a xlink:href="_message_data_8_h.html" target="_top" xlink:title=" ">
<polygon fill="white" stroke="#666666" points="645.18,-382 475.18,-382 475.18,-352 645.18,-352 645.18,-382"/>
<text text-anchor="start" x="483.18" y="-370" font-family="Helvetica,sans-Serif" font-size="10.00">/home/runner/work/spades</text>
<text text-anchor="middle" x="560.18" y="-359" font-family="Helvetica,sans-Serif" font-size="10.00">/spades/Source/MessageData.H</text>
</a>
</g>
</g>
<!-- Node1&#45;&gt;Node11 -->
<g id="edge13_Node000001_Node000011" class="edge">
<title>Node1&#45;&gt;Node11</title>
<g id="a_edge13_Node000001_Node000011"><a xlink:title=" ">
<path fill="none" stroke="#63b8ff" d="M359.16,-415.65C403.04,-405.25 459.25,-391.93 501.07,-382.01"/>
<polygon fill="#63b8ff" stroke="#63b8ff" points="358.36,-412.24 349.43,-417.95 359.97,-419.05 358.36,-412.24"/>
</a>
</g>
</g>
<!-- Node15 -->
<g id="Node000015" class="node">
<title>Node15</title>
<g id="a_Node000015"><a xlink:href="_particle_ops_8_h.html" target="_top" xlink:title=" ">
<polygon fill="white" stroke="#666666" points="423.18,-382 265.18,-382 265.18,-352 423.18,-352 423.18,-382"/>
<text text-anchor="start" x="273.18" y="-370" font-family="Helvetica,sans-Serif" font-size="10.00">/home/runner/work/spades</text>
<text text-anchor="middle" x="344.18" y="-359" font-family="Helvetica,sans-Serif" font-size="10.00">/spades/Source/ParticleOps.H</text>
</a>
</g>
</g>
<!-- Node1&#45;&gt;Node15 -->
<g id="edge21_Node000001_Node000015" class="edge">
<title>Node1&#45;&gt;Node15</title>
<g id="a_edge21_Node000001_Node000015"><a xlink:title=" ">
<path fill="none" stroke="#63b8ff" d="M308.67,-410.09C316.46,-400.85 325.31,-390.36 332.23,-382.16"/>
<polygon fill="#63b8ff" stroke="#63b8ff" points="305.94,-407.9 302.16,-417.8 311.29,-412.41 305.94,-407.9"/>
</a>
</g>
</g>
<!-- Node16 -->
<g id="Node000016" class="node">
<title>Node16</title>
<g id="a_Node000016"><a xlink:href="_spades_particle_container_8_h.html" target="_top" xlink:title=" ">
<polygon fill="white" stroke="#666666" points="437.68,-316 216.68,-316 216.68,-286 437.68,-286 437.68,-316"/>
<text text-anchor="start" x="224.68" y="-304" font-family="Helvetica,sans-Serif" font-size="10.00">/home/runner/work/spades</text>
<text text-anchor="middle" x="327.18" y="-293" font-family="Helvetica,sans-Serif" font-size="10.00">/spades/Source/SpadesParticleContainer.H</text>
</a>
</g>
</g>
<!-- Node1&#45;&gt;Node16 -->
<g id="edge28_Node000001_Node000016" class="edge">
<title>Node1&#45;&gt;Node16</title>
<g id="a_edge28_Node000001_Node000016"><a xlink:title=" ">
<path fill="none" stroke="#63b8ff" d="M270.14,-409.92C257.89,-393.62 246.3,-371.05 256.18,-352 264.37,-336.21 280.1,-324.35 294.67,-316.16"/>
<polygon fill="#63b8ff" stroke="#63b8ff" points="267.5,-412.23 276.5,-417.83 272.96,-407.84 267.5,-412.23"/>
</a>
</g>
</g>
<!-- Node3 -->
<g id="Node000003" class="node">
<title>Node3</title>
<g id="a_Node000003"><a xlink:href="_entity_ops_8_h.html" target="_top" xlink:title=" ">
<polygon fill="white" stroke="#666666" points="198.68,-316 47.68,-316 47.68,-286 198.68,-286 198.68,-316"/>
<text text-anchor="start" x="55.68" y="-304" font-family="Helvetica,sans-Serif" font-size="10.00">/home/runner/work/spades</text>
<text text-anchor="middle" x="123.18" y="-293" font-family="Helvetica,sans-Serif" font-size="10.00">/spades/Source/EntityOps.H</text>
</a>
</g>
</g>
<!-- Node2&#45;&gt;Node3 -->
<g id="edge2_Node000002_Node000003" class="edge">
<title>Node2&#45;&gt;Node3</title>
<g id="a_edge2_Node000002_Node000003"><a xlink:title=" ">
<path fill="none" stroke="#63b8ff" d="M98.05,-343.24C103.55,-334.21 109.71,-324.11 114.55,-316.16"/>
<polygon fill="#63b8ff" stroke="#63b8ff" points="95.05,-341.44 92.84,-351.8 101.03,-345.08 95.05,-341.44"/>
</a>
</g>
</g>
<!-- Node4 -->
<g id="Node000004" class="node">
<title>Node4</title>
<g id="a_Node000004"><a xlink:href="_entity_particle_container_8_h.html" target="_top" xlink:title=" ">
<polygon fill="white" stroke="#666666" points="230.68,-244.5 15.68,-244.5 15.68,-214.5 230.68,-214.5 230.68,-244.5"/>
<text text-anchor="start" x="23.68" y="-232.5" font-family="Helvetica,sans-Serif" font-size="10.00">/home/runner/work/spades</text>
<text text-anchor="middle" x="123.18" y="-221.5" font-family="Helvetica,sans-Serif" font-size="10.00">/spades/Source/EntityParticleContainer.H</text>
</a>
</g>
</g>
<!-- Node2&#45;&gt;Node4 -->
<g id="edge9_Node000002_Node000004" class="edge">
<title>Node2&#45;&gt;Node4</title>
<g id="a_edge9_Node000002_Node000004"><a xlink:title=" ">
<path fill="none" stroke="#63b8ff" d="M37.58,-346.99C24.78,-339.36 12.43,-329.17 5.18,-316 -1.25,-304.32 -1.97,-297.26 5.18,-286 17.98,-265.84 40.27,-252.86 62.06,-244.58"/>
<polygon fill="#63b8ff" stroke="#63b8ff" points="36.01,-350.12 46.46,-351.88 39.39,-343.99 36.01,-350.12"/>
</a>
</g>
</g>
<!-- Node9 -->
<g id="Node000009" class="node">
<title>Node9</title>
<g id="a_Node000009"><a xlink:href="_phold_8_h.html" target="_top" xlink:title=" ">
<polygon fill="white" stroke="#666666" points="536.68,-244.5 367.68,-244.5 367.68,-214.5 536.68,-214.5 536.68,-244.5"/>
<text text-anchor="start" x="375.68" y="-232.5" font-family="Helvetica,sans-Serif" font-size="10.00">/home/runner/work/spades</text>
<text text-anchor="middle" x="452.18" y="-221.5" font-family="Helvetica,sans-Serif" font-size="10.00">/spades/Source/Models/Phold.H</text>
</a>
</g>
</g>
<!-- Node2&#45;&gt;Node9 -->
<g id="edge10_Node000002_Node000009" class="edge">
<title>Node2&#45;&gt;Node9</title>
<g id="a_edge10_Node000002_Node000009"><a xlink:title=" ">
<path fill="none" stroke="#63b8ff" d="M58.46,-345.09C40.56,-328.04 22.49,-303.94 38.18,-286 48.92,-273.72 249.23,-251.27 367.22,-239.02"/>
<polygon fill="#63b8ff" stroke="#63b8ff" points="56.26,-347.81 66.02,-351.92 60.95,-342.62 56.26,-347.81"/>
</a>
</g>
</g>
<!-- Node3&#45;&gt;Node4 -->
<g id="edge3_Node000003_Node000004" class="edge">
<title>Node3&#45;&gt;Node4</title>
<g id="a_edge3_Node000003_Node000004"><a xlink:title=" ">
<path fill="none" stroke="#63b8ff" d="M123.18,-275.75C123.18,-265.31 123.18,-253.49 123.18,-244.54"/>
<polygon fill="#63b8ff" stroke="#63b8ff" points="119.68,-275.94 123.18,-285.94 126.68,-275.94 119.68,-275.94"/>
</a>
</g>
</g>
<!-- Node5 -->
<g id="Node000005" class="node">
<title>Node5</title>
<g id="a_Node000005"><a xlink:href="_entity_particle_container_8cpp.html" target="_top" xlink:title=" ">
<polygon fill="white" stroke="#666666" points="235.18,-167.5 11.18,-167.5 11.18,-137.5 235.18,-137.5 235.18,-167.5"/>
<text text-anchor="start" x="19.18" y="-155.5" font-family="Helvetica,sans-Serif" font-size="10.00">/home/runner/work/spades</text>
<text text-anchor="middle" x="123.18" y="-144.5" font-family="Helvetica,sans-Serif" font-size="10.00">/spades/Source/EntityParticleContainer.cpp</text>
</a>
</g>
</g>
<!-- Node4&#45;&gt;Node5 -->
<g id="edge4_Node000004_Node000005" class="edge">
<title>Node4&#45;&gt;Node5</title>
<g id="a_edge4_Node000004_Node000005"><a xlink:title=" ">
<path fill="none" stroke="#63b8ff" d="M123.18,-204.04C123.18,-191.95 123.18,-177.79 123.18,-167.54"/>
<polygon fill="#63b8ff" stroke="#63b8ff" points="119.68,-204.39 123.18,-214.39 126.68,-204.39 119.68,-204.39"/>
</a>
</g>
</g>
<!-- Node6 -->
<g id="Node000006" class="node">
<title>Node6</title>
<g id="a_Node000006"><a xlink:href="_s_p_a_d_e_s_8_h.html" target="_top" xlink:title=" ">
<polygon fill="white" stroke="#666666" points="399.18,-167.5 253.18,-167.5 253.18,-137.5 399.18,-137.5 399.18,-167.5"/>
<text text-anchor="start" x="261.18" y="-155.5" font-family="Helvetica,sans-Serif" font-size="10.00">/home/runner/work/spades</text>
<text text-anchor="middle" x="326.18" y="-144.5" font-family="Helvetica,sans-Serif" font-size="10.00">/spades/Source/SPADES.H</text>
</a>
</g>
</g>
<!-- Node4&#45;&gt;Node6 -->
<g id="edge5_Node000004_Node000006" class="edge">
<title>Node4&#45;&gt;Node6</title>
<g id="a_edge5_Node000004_Node000006"><a xlink:title=" ">
<path fill="none" stroke="#63b8ff" d="M171.1,-210.8C206.85,-197.59 255.05,-179.78 288.17,-167.54"/>
<polygon fill="#63b8ff" stroke="#63b8ff" points="169.53,-207.64 161.36,-214.39 171.96,-214.21 169.53,-207.64"/>
</a>
</g>
</g>
<!-- Node7 -->
<g id="Node000007" class="node">
<title>Node7</title>
<g id="a_Node000007"><a xlink:href="_run_time_8_h.html" target="_top" xlink:title=" ">
<polygon fill="white" stroke="#666666" points="450.68,-96 303.68,-96 303.68,-66 450.68,-66 450.68,-96"/>
<text text-anchor="start" x="311.68" y="-84" font-family="Helvetica,sans-Serif" font-size="10.00">/home/runner/work/spades</text>
<text text-anchor="middle" x="377.18" y="-73" font-family="Helvetica,sans-Serif" font-size="10.00">/spades/Source/RunTime.H</text>
</a>
</g>
</g>
<!-- Node6&#45;&gt;Node7 -->
<g id="edge6_Node000006_Node000007" class="edge">
<title>Node6&#45;&gt;Node7</title>
<g id="a_edge6_Node000006_Node000007"><a xlink:title=" ">
<path fill="none" stroke="#63b8ff" d="M342.54,-129.21C350.53,-118.32 359.9,-105.55 366.88,-96.04"/>
<polygon fill="#63b8ff" stroke="#63b8ff" points="339.6,-127.3 336.5,-137.44 345.24,-131.44 339.6,-127.3"/>
</a>
</g>
</g>
<!-- Node8 -->
<g id="Node000008" class="node">
<title>Node8</title>
<g id="a_Node000008"><a xlink:href="main_8cpp.html" target="_top" xlink:title=" ">
<polygon fill="white" stroke="#666666" points="399.18,-30 253.18,-30 253.18,0 399.18,0 399.18,-30"/>
<text text-anchor="start" x="261.18" y="-18" font-family="Helvetica,sans-Serif" font-size="10.00">/home/runner/work/spades</text>
<text text-anchor="middle" x="326.18" y="-7" font-family="Helvetica,sans-Serif" font-size="10.00">/spades/Source/main.cpp</text>
</a>
</g>
</g>
<!-- Node6&#45;&gt;Node8 -->
<g id="edge8_Node000006_Node000008" class="edge">
<title>Node6&#45;&gt;Node8</title>
<g id="a_edge8_Node000006_Node000008"><a xlink:title=" ">
<path fill="none" stroke="#63b8ff" d="M310.02,-128.76C304.13,-119.13 298.17,-107.49 295.18,-96 291.82,-83.1 291.53,-78.82 295.18,-66 298.93,-52.84 307.25,-39.76 314.32,-30.28"/>
<polygon fill="#63b8ff" stroke="#63b8ff" points="307.19,-130.82 315.56,-137.31 313.06,-127.01 307.19,-130.82"/>
</a>
</g>
</g>
<!-- Node7&#45;&gt;Node8 -->
<g id="edge7_Node000007_Node000008" class="edge">
<title>Node7&#45;&gt;Node8</title>
<g id="a_edge7_Node000007_Node000008"><a xlink:title=" ">
<path fill="none" stroke="#63b8ff" d="M359.5,-57.81C352.19,-48.64 343.93,-38.28 337.47,-30.16"/>
<polygon fill="#63b8ff" stroke="#63b8ff" points="356.89,-60.16 365.86,-65.8 362.37,-55.79 356.89,-60.16"/>
</a>
</g>
</g>
<!-- Node9&#45;&gt;Node6 -->
<g id="edge12_Node000009_Node000006" class="edge">
<title>Node9&#45;&gt;Node6</title>
<g id="a_edge12_Node000009_Node000006"><a xlink:title=" ">
<path fill="none" stroke="#63b8ff" d="M419.85,-209.25C397.96,-196.23 369.54,-179.31 349.77,-167.54"/>
<polygon fill="#63b8ff" stroke="#63b8ff" points="418.1,-212.29 428.48,-214.39 421.68,-206.27 418.1,-212.29"/>
</a>
</g>
</g>
<!-- Node10 -->
<g id="Node000010" class="node">
<title>Node10</title>
<g id="a_Node000010"><a xlink:href="_phold_8cpp.html" target="_top" xlink:title=" ">
<polygon fill="white" stroke="#666666" points="596.68,-167.5 417.68,-167.5 417.68,-137.5 596.68,-137.5 596.68,-167.5"/>
<text text-anchor="start" x="425.68" y="-155.5" font-family="Helvetica,sans-Serif" font-size="10.00">/home/runner/work/spades</text>
<text text-anchor="middle" x="507.18" y="-144.5" font-family="Helvetica,sans-Serif" font-size="10.00">/spades/Source/Models/Phold.cpp</text>
</a>
</g>
</g>
<!-- Node9&#45;&gt;Node10 -->
<g id="edge11_Node000009_Node000010" class="edge">
<title>Node9&#45;&gt;Node10</title>
<g id="a_edge11_Node000009_Node000010"><a xlink:title=" ">
<path fill="none" stroke="#63b8ff" d="M468.51,-206.24C477.7,-193.7 488.9,-178.42 496.88,-167.54"/>
<polygon fill="#63b8ff" stroke="#63b8ff" points="465.62,-204.26 462.53,-214.39 471.26,-208.4 465.62,-204.26"/>
</a>
</g>
</g>
<!-- Node11&#45;&gt;Node9 -->
<g id="edge20_Node000011_Node000009" class="edge">
<title>Node11&#45;&gt;Node9</title>
<g id="a_edge20_Node000011_Node000009"><a xlink:title=" ">
<path fill="none" stroke="#63b8ff" d="M521.76,-346.71C508.76,-338.67 495.04,-328.3 485.18,-316 467.87,-294.4 458.84,-262.66 454.84,-244.55"/>
<polygon fill="#63b8ff" stroke="#63b8ff" points="520.21,-349.86 530.6,-351.91 523.75,-343.82 520.21,-349.86"/>
</a>
</g>
</g>
<!-- Node12 -->
<g id="Node000012" class="node">
<title>Node12</title>
<g id="a_Node000012"><a xlink:href="_message_ops_8_h.html" target="_top" xlink:title=" ">
<polygon fill="white" stroke="#666666" points="660.18,-316 494.18,-316 494.18,-286 660.18,-286 660.18,-316"/>
<text text-anchor="start" x="502.18" y="-304" font-family="Helvetica,sans-Serif" font-size="10.00">/home/runner/work/spades</text>
<text text-anchor="middle" x="577.18" y="-293" font-family="Helvetica,sans-Serif" font-size="10.00">/spades/Source/MessageOps.H</text>
</a>
</g>
</g>
<!-- Node11&#45;&gt;Node12 -->
<g id="edge14_Node000011_Node000012" class="edge">
<title>Node11&#45;&gt;Node12</title>
<g id="a_edge14_Node000011_Node000012"><a xlink:title=" ">
<path fill="none" stroke="#63b8ff" d="M566.53,-342.11C568.85,-333.38 571.39,-323.78 573.42,-316.16"/>
<polygon fill="#63b8ff" stroke="#63b8ff" points="563.14,-341.23 563.95,-351.8 569.9,-343.03 563.14,-341.23"/>
</a>
</g>
</g>
<!-- Node13 -->
<g id="Node000013" class="node">
<title>Node13</title>
<g id="a_Node000013"><a xlink:href="_message_particle_container_8_h.html" target="_top" xlink:title=" ">
<polygon fill="white" stroke="#666666" points="727.68,-250 554.68,-250 554.68,-209 727.68,-209 727.68,-250"/>
<text text-anchor="start" x="562.68" y="-238" font-family="Helvetica,sans-Serif" font-size="10.00">/home/runner/work/spades</text>
<text text-anchor="start" x="562.68" y="-227" font-family="Helvetica,sans-Serif" font-size="10.00">/spades/Source/MessageParticle</text>
<text text-anchor="middle" x="641.18" y="-216" font-family="Helvetica,sans-Serif" font-size="10.00">Container.H</text>
</a>
</g>
</g>
<!-- Node11&#45;&gt;Node13 -->
<g id="edge19_Node000011_Node000013" class="edge">
<title>Node11&#45;&gt;Node13</title>
<g id="a_edge19_Node000011_Node000013"><a xlink:title=" ">
<path fill="none" stroke="#63b8ff" d="M630.5,-347.79C645.76,-340.45 660.06,-330.22 669.18,-316 682.34,-295.49 669.06,-268.23 656.68,-250.06"/>
<polygon fill="#63b8ff" stroke="#63b8ff" points="628.65,-344.78 620.9,-352 631.46,-351.19 628.65,-344.78"/>
</a>
</g>
</g>
<!-- Node12&#45;&gt;Node9 -->
<g id="edge18_Node000012_Node000009" class="edge">
<title>Node12&#45;&gt;Node9</title>
<g id="a_edge18_Node000012_Node000009"><a xlink:title=" ">
<path fill="none" stroke="#63b8ff" d="M543.07,-281.03C522.34,-269.51 496.32,-255.04 477.44,-244.54"/>
<polygon fill="#63b8ff" stroke="#63b8ff" points="541.44,-284.14 551.88,-285.94 544.85,-278.02 541.44,-284.14"/>
</a>
</g>
</g>
<!-- Node12&#45;&gt;Node13 -->
<g id="edge15_Node000012_Node000013" class="edge">
<title>Node12&#45;&gt;Node13</title>
<g id="a_edge15_Node000012_Node000013"><a xlink:title=" ">
<path fill="none" stroke="#63b8ff" d="M597.06,-278.41C605.4,-269.36 615.03,-258.9 623.16,-250.07"/>
<polygon fill="#63b8ff" stroke="#63b8ff" points="594.33,-276.21 590.13,-285.94 599.48,-280.95 594.33,-276.21"/>
</a>
</g>
</g>
<!-- Node13&#45;&gt;Node6 -->
<g id="edge17_Node000013_Node000006" class="edge">
<title>Node13&#45;&gt;Node6</title>
<g id="a_edge17_Node000013_Node000006"><a xlink:title=" ">
<path fill="none" stroke="#63b8ff" d="M549.5,-206.67C496.57,-194.07 431.53,-178.58 385.33,-167.58"/>
<polygon fill="#63b8ff" stroke="#63b8ff" points="548.7,-210.08 559.24,-208.99 550.32,-203.27 548.7,-210.08"/>
</a>
</g>
</g>
<!-- Node14 -->
<g id="Node000014" class="node">
<title>Node14</title>
<g id="a_Node000014"><a xlink:href="_message_particle_container_8cpp.html" target="_top" xlink:title=" ">
<polygon fill="white" stroke="#666666" points="787.68,-173 614.68,-173 614.68,-132 787.68,-132 787.68,-173"/>
<text text-anchor="start" x="622.68" y="-161" font-family="Helvetica,sans-Serif" font-size="10.00">/home/runner/work/spades</text>
<text text-anchor="start" x="622.68" y="-150" font-family="Helvetica,sans-Serif" font-size="10.00">/spades/Source/MessageParticle</text>
<text text-anchor="middle" x="701.18" y="-139" font-family="Helvetica,sans-Serif" font-size="10.00">Container.cpp</text>
</a>
</g>
</g>
<!-- Node13&#45;&gt;Node14 -->
<g id="edge16_Node000013_Node000014" class="edge">
<title>Node13&#45;&gt;Node14</title>
<g id="a_edge16_Node000013_Node000014"><a xlink:title=" ">
<path fill="none" stroke="#63b8ff" d="M663.22,-200.95C670.62,-191.7 678.71,-181.58 685.52,-173.07"/>
<polygon fill="#63b8ff" stroke="#63b8ff" points="660.46,-198.8 656.94,-208.79 665.92,-203.17 660.46,-198.8"/>
</a>
</g>
</g>
<!-- Node15&#45;&gt;Node3 -->
<g id="edge22_Node000015_Node000003" class="edge">
<title>Node15&#45;&gt;Node3</title>
<g id="a_edge22_Node000015_Node000003"><a xlink:title=" ">
<path fill="none" stroke="#63b8ff" d="M285.9,-349.12C250.26,-338.8 205.22,-325.76 171.57,-316.01"/>
<polygon fill="#63b8ff" stroke="#63b8ff" points="285.1,-352.54 295.68,-351.95 287.05,-345.81 285.1,-352.54"/>
</a>
</g>
</g>
<!-- Node15&#45;&gt;Node12 -->
<g id="edge23_Node000015_Node000012" class="edge">
<title>Node15&#45;&gt;Node12</title>
<g id="a_edge23_Node000015_Node000012"><a xlink:title=" ">
<path fill="none" stroke="#63b8ff" d="M405.15,-349.25C442.79,-338.91 490.53,-325.8 526.17,-316.01"/>
<polygon fill="#63b8ff" stroke="#63b8ff" points="404.03,-345.93 395.31,-351.95 405.88,-352.68 404.03,-345.93"/>
</a>
</g>
</g>
<!-- Node15&#45;&gt;Node16 -->
<g id="edge24_Node000015_Node000016" class="edge">
<title>Node15&#45;&gt;Node16</title>
<g id="a_edge24_Node000015_Node000016"><a xlink:title=" ">
<path fill="none" stroke="#63b8ff" d="M337.83,-342.11C335.51,-333.38 332.97,-323.78 330.94,-316.16"/>
<polygon fill="#63b8ff" stroke="#63b8ff" points="334.46,-343.03 340.41,-351.8 341.22,-341.23 334.46,-343.03"/>
</a>
</g>
</g>
<!-- Node16&#45;&gt;Node4 -->
<g id="edge25_Node000016_Node000004" class="edge">
<title>Node16&#45;&gt;Node4</title>
<g id="a_edge25_Node000016_Node000004"><a xlink:title=" ">
<path fill="none" stroke="#63b8ff" d="M276.01,-282.57C241.51,-270.81 196.6,-255.51 164.4,-244.54"/>
<polygon fill="#63b8ff" stroke="#63b8ff" points="275.3,-286.02 285.9,-285.94 277.56,-279.4 275.3,-286.02"/>
</a>
</g>
</g>
<!-- Node16&#45;&gt;Node6 -->
<g id="edge27_Node000016_Node000006" class="edge">
<title>Node16&#45;&gt;Node6</title>
<g id="a_edge27_Node000016_Node000006"><a xlink:title=" ">
<path fill="none" stroke="#63b8ff" d="M327.01,-275.65C326.8,-244.82 326.45,-192.72 326.28,-167.72"/>
<polygon fill="#63b8ff" stroke="#63b8ff" points="323.52,-275.98 327.08,-285.95 330.52,-275.93 323.52,-275.98"/>
</a>
</g>
</g>
<!-- Node16&#45;&gt;Node13 -->
<g id="edge26_Node000016_Node000013" class="edge">
<title>Node16&#45;&gt;Node13</title>
<g id="a_edge26_Node000016_Node000013"><a xlink:title=" ">
<path fill="none" stroke="#63b8ff" d="M400.63,-283.74C446.65,-273.56 506.2,-260.38 554.53,-249.68"/>
<polygon fill="#63b8ff" stroke="#63b8ff" points="399.73,-280.36 390.72,-285.94 401.24,-287.19 399.73,-280.36"/>
</a>
</g>
</g>
</g>
</svg>
