<?xml version="1.0" encoding="UTF-8" standalone="no"?>
<!DOCTYPE svg PUBLIC "-//W3C//DTD SVG 1.1//EN"
 "http://www.w3.org/Graphics/SVG/1.1/DTD/svg11.dtd">
<!-- Generated by graphviz version 2.43.0 (0)
 -->
<!-- Title: /home/runner/work/spades/spades/Source/ParticleData.H Pages: 1 -->
<svg width="632pt" height="390pt"
 viewBox="0.00 0.00 632.19 390.00" xmlns="http://www.w3.org/2000/svg" xmlns:xlink="http://www.w3.org/1999/xlink">
<g id="graph0" class="graph" transform="scale(1 1) rotate(0) translate(4 386)">
<title>/home/runner/work/spades/spades/Source/ParticleData.H</title>
<!-- Node1 -->
<g id="Node000001" class="node">
<title>Node1</title>
<g id="a_Node000001"><a xlink:title=" ">
<polygon fill="#999999" stroke="#666666" points="431.5,-382 268.5,-382 268.5,-352 431.5,-352 431.5,-382"/>
<text text-anchor="start" x="276.5" y="-370" font-family="Helvetica,sans-Serif" font-size="10.00">/home/runner/work/spades</text>
<text text-anchor="middle" x="350" y="-359" font-family="Helvetica,sans-Serif" font-size="10.00">/spades/Source/ParticleData.H</text>
</a>
</g>
</g>
<!-- Node2 -->
<g id="Node000002" class="node">
<title>Node2</title>
<g id="a_Node000002"><a xlink:href="_entity_data_8_h.html" target="_top" xlink:title=" ">
<polygon fill="white" stroke="#666666" points="188.5,-316 33.5,-316 33.5,-286 188.5,-286 188.5,-316"/>
<text text-anchor="start" x="41.5" y="-304" font-family="Helvetica,sans-Serif" font-size="10.00">/home/runner/work/spades</text>
<text text-anchor="middle" x="111" y="-293" font-family="Helvetica,sans-Serif" font-size="10.00">/spades/Source/EntityData.H</text>
</a>
</g>
</g>
<!-- Node1&#45;&gt;Node2 -->
<g id="edge1_Node000001_Node000002" class="edge">
<title>Node1&#45;&gt;Node2</title>
<g id="a_edge1_Node000001_Node000002"><a xlink:title=" ">
<path fill="none" stroke="#63b8ff" d="M287.46,-349.25C248.85,-338.91 199.88,-325.8 163.33,-316.01"/>
<polygon fill="#63b8ff" stroke="#63b8ff" points="286.99,-352.75 297.55,-351.95 288.8,-345.99 286.99,-352.75"/>
</a>
</g>
</g>
<!-- Node9 -->
<g id="Node000009" class="node">
<title>Node9</title>
<g id="a_Node000009"><a xlink:href="_message_data_8_h.html" target="_top" xlink:title=" ">
<polygon fill="white" stroke="#666666" points="612,-316 442,-316 442,-286 612,-286 612,-316"/>
<text text-anchor="start" x="450" y="-304" font-family="Helvetica,sans-Serif" font-size="10.00">/home/runner/work/spades</text>
<text text-anchor="middle" x="527" y="-293" font-family="Helvetica,sans-Serif" font-size="10.00">/spades/Source/MessageData.H</text>
</a>
</g>
</g>
<!-- Node1&#45;&gt;Node9 -->
<g id="edge9_Node000001_Node000009" class="edge">
<title>Node1&#45;&gt;Node9</title>
<g id="a_edge9_Node000001_Node000009"><a xlink:title=" ">
<path fill="none" stroke="#63b8ff" d="M398.52,-348.46C426.76,-338.25 461.87,-325.55 488.25,-316.01"/>
<polygon fill="#63b8ff" stroke="#63b8ff" points="397.06,-345.26 388.84,-351.95 399.44,-351.85 397.06,-345.26"/>
</a>
</g>
</g>
<!-- Node13 -->
<g id="Node000013" class="node">
<title>Node13</title>
<g id="a_Node000013"><a xlink:href="_particle_ops_8_h.html" target="_top" xlink:title=" ">
<polygon fill="white" stroke="#666666" points="376,-316 218,-316 218,-286 376,-286 376,-316"/>
<text text-anchor="start" x="226" y="-304" font-family="Helvetica,sans-Serif" font-size="10.00">/home/runner/work/spades</text>
<text text-anchor="middle" x="297" y="-293" font-family="Helvetica,sans-Serif" font-size="10.00">/spades/Source/ParticleOps.H</text>
</a>
</g>
</g>
<!-- Node1&#45;&gt;Node13 -->
<g id="edge15_Node000001_Node000013" class="edge">
<title>Node1&#45;&gt;Node13</title>
<g id="a_edge15_Node000001_Node000013"><a xlink:title=" ">
<path fill="none" stroke="#63b8ff" d="M331.85,-344.09C324.2,-334.85 315.52,-324.36 308.73,-316.16"/>
<polygon fill="#63b8ff" stroke="#63b8ff" points="329.16,-346.33 338.24,-351.8 334.56,-341.86 329.16,-346.33"/>
</a>
</g>
</g>
<!-- Node14 -->
<g id="Node000014" class="node">
<title>Node14</title>
<g id="a_Node000014"><a xlink:href="_spades_particle_container_8_h.html" target="_top" xlink:title=" ">
<polygon fill="white" stroke="#666666" points="425.5,-250 204.5,-250 204.5,-220 425.5,-220 425.5,-250"/>
<text text-anchor="start" x="212.5" y="-238" font-family="Helvetica,sans-Serif" font-size="10.00">/home/runner/work/spades</text>
<text text-anchor="middle" x="315" y="-227" font-family="Helvetica,sans-Serif" font-size="10.00">/spades/Source/SpadesParticleContainer.H</text>
</a>
</g>
</g>
<!-- Node1&#45;&gt;Node14 -->
<g id="edge22_Node000001_Node000014" class="edge">
<title>Node1&#45;&gt;Node14</title>
<g id="a_edge22_Node000001_Node000014"><a xlink:title=" ">
<path fill="none" stroke="#63b8ff" d="M370.44,-344C382.97,-327.73 394.87,-305.17 385,-286 376.87,-270.2 361.17,-258.28 346.7,-250.06"/>
<polygon fill="#63b8ff" stroke="#63b8ff" points="367.61,-341.93 363.95,-351.88 373.01,-346.39 367.61,-341.93"/>
</a>
</g>
</g>
<!-- Node3 -->
<g id="Node000003" class="node">
<title>Node3</title>
<g id="a_Node000003"><a xlink:href="_entity_ops_8_h.html" target="_top" xlink:title=" ">
<polygon fill="white" stroke="#666666" points="186.5,-250 35.5,-250 35.5,-220 186.5,-220 186.5,-250"/>
<text text-anchor="start" x="43.5" y="-238" font-family="Helvetica,sans-Serif" font-size="10.00">/home/runner/work/spades</text>
<text text-anchor="middle" x="111" y="-227" font-family="Helvetica,sans-Serif" font-size="10.00">/spades/Source/EntityOps.H</text>
</a>
</g>
</g>
<!-- Node2&#45;&gt;Node3 -->
<g id="edge2_Node000002_Node000003" class="edge">
<title>Node2&#45;&gt;Node3</title>
<g id="a_edge2_Node000002_Node000003"><a xlink:title=" ">
<path fill="none" stroke="#63b8ff" d="M111,-275.54C111,-266.96 111,-257.61 111,-250.16"/>
<polygon fill="#63b8ff" stroke="#63b8ff" points="107.5,-275.8 111,-285.8 114.5,-275.8 107.5,-275.8"/>
</a>
</g>
</g>
<!-- Node4 -->
<g id="Node000004" class="node">
<title>Node4</title>
<g id="a_Node000004"><a xlink:href="_entity_particle_container_8_h.html" target="_top" xlink:title=" ">
<polygon fill="white" stroke="#666666" points="219.5,-178.5 4.5,-178.5 4.5,-148.5 219.5,-148.5 219.5,-178.5"/>
<text text-anchor="start" x="12.5" y="-166.5" font-family="Helvetica,sans-Serif" font-size="10.00">/home/runner/work/spades</text>
<text text-anchor="middle" x="112" y="-155.5" font-family="Helvetica,sans-Serif" font-size="10.00">/spades/Source/EntityParticleContainer.H</text>
</a>
</g>
</g>
<!-- Node2&#45;&gt;Node4 -->
<g id="edge8_Node000002_Node000004" class="edge">
<title>Node2&#45;&gt;Node4</title>
<g id="a_edge8_Node000002_Node000004"><a xlink:title=" ">
<path fill="none" stroke="#63b8ff" d="M60.25,-281.33C46.73,-273.76 33.74,-263.53 26,-250 19.38,-238.43 19.62,-231.71 26,-220 36.37,-200.96 56.39,-187.47 74.5,-178.55"/>
<polygon fill="#63b8ff" stroke="#63b8ff" points="58.67,-284.45 69.16,-285.93 61.88,-278.23 58.67,-284.45"/>
</a>
</g>
</g>
<!-- Node3&#45;&gt;Node4 -->
<g id="edge3_Node000003_Node000004" class="edge">
<title>Node3&#45;&gt;Node4</title>
<g id="a_edge3_Node000003_Node000004"><a xlink:title=" ">
<path fill="none" stroke="#63b8ff" d="M111.35,-209.75C111.5,-199.31 111.67,-187.49 111.8,-178.54"/>
<polygon fill="#63b8ff" stroke="#63b8ff" points="107.85,-209.89 111.2,-219.94 114.85,-209.99 107.85,-209.89"/>
</a>
</g>
</g>
<!-- Node5 -->
<g id="Node000005" class="node">
<title>Node5</title>
<g id="a_Node000005"><a xlink:href="_entity_particle_container_8cpp.html" target="_top" xlink:title=" ">
<polygon fill="white" stroke="#666666" points="224,-101.5 0,-101.5 0,-71.5 224,-71.5 224,-101.5"/>
<text text-anchor="start" x="8" y="-89.5" font-family="Helvetica,sans-Serif" font-size="10.00">/home/runner/work/spades</text>
<text text-anchor="middle" x="112" y="-78.5" font-family="Helvetica,sans-Serif" font-size="10.00">/spades/Source/EntityParticleContainer.cpp</text>
</a>
</g>
</g>
<!-- Node4&#45;&gt;Node5 -->
<g id="edge4_Node000004_Node000005" class="edge">
<title>Node4&#45;&gt;Node5</title>
<g id="a_edge4_Node000004_Node000005"><a xlink:title=" ">
<path fill="none" stroke="#63b8ff" d="M112,-138.04C112,-125.95 112,-111.79 112,-101.54"/>
<polygon fill="#63b8ff" stroke="#63b8ff" points="108.5,-138.39 112,-148.39 115.5,-138.39 108.5,-138.39"/>
</a>
</g>
</g>
<!-- Node6 -->
<g id="Node000006" class="node">
<title>Node6</title>
<g id="a_Node000006"><a xlink:href="_s_p_a_d_e_s_8_h.html" target="_top" xlink:title=" ">
<polygon fill="white" stroke="#666666" points="388,-101.5 242,-101.5 242,-71.5 388,-71.5 388,-101.5"/>
<text text-anchor="start" x="250" y="-89.5" font-family="Helvetica,sans-Serif" font-size="10.00">/home/runner/work/spades</text>
<text text-anchor="middle" x="315" y="-78.5" font-family="Helvetica,sans-Serif" font-size="10.00">/spades/Source/SPADES.H</text>
</a>
</g>
</g>
<!-- Node4&#45;&gt;Node6 -->
<g id="edge5_Node000004_Node000006" class="edge">
<title>Node4&#45;&gt;Node6</title>
<g id="a_edge5_Node000004_Node000006"><a xlink:title=" ">
<path fill="none" stroke="#63b8ff" d="M159.92,-144.8C195.67,-131.59 243.87,-113.78 276.99,-101.54"/>
<polygon fill="#63b8ff" stroke="#63b8ff" points="158.35,-141.64 150.18,-148.39 160.78,-148.21 158.35,-141.64"/>
</a>
</g>
</g>
<!-- Node7 -->
<g id="Node000007" class="node">
<title>Node7</title>
<g id="a_Node000007"><a xlink:href="_s_p_a_d_e_s_8cpp.html" target="_top" xlink:title=" ">
<polygon fill="white" stroke="#666666" points="307.5,-30 156.5,-30 156.5,0 307.5,0 307.5,-30"/>
<text text-anchor="start" x="164.5" y="-18" font-family="Helvetica,sans-Serif" font-size="10.00">/home/runner/work/spades</text>
<text text-anchor="middle" x="232" y="-7" font-family="Helvetica,sans-Serif" font-size="10.00">/spades/Source/SPADES.cpp</text>
</a>
</g>
</g>
<!-- Node6&#45;&gt;Node7 -->
<g id="edge6_Node000006_Node000007" class="edge">
<title>Node6&#45;&gt;Node7</title>
<g id="a_edge6_Node000006_Node000007"><a xlink:title=" ">
<path fill="none" stroke="#63b8ff" d="M290.29,-64.81C276.89,-53.59 260.69,-40.02 248.77,-30.04"/>
<polygon fill="#63b8ff" stroke="#63b8ff" points="288.29,-67.7 298.2,-71.44 292.78,-62.33 288.29,-67.7"/>
</a>
</g>
</g>
<!-- Node8 -->
<g id="Node000008" class="node">
<title>Node8</title>
<g id="a_Node000008"><a xlink:href="main_8cpp.html" target="_top" xlink:title=" ">
<polygon fill="white" stroke="#666666" points="472,-30 326,-30 326,0 472,0 472,-30"/>
<text text-anchor="start" x="334" y="-18" font-family="Helvetica,sans-Serif" font-size="10.00">/home/runner/work/spades</text>
<text text-anchor="middle" x="399" y="-7" font-family="Helvetica,sans-Serif" font-size="10.00">/spades/Source/main.cpp</text>
</a>
</g>
</g>
<!-- Node6&#45;&gt;Node8 -->
<g id="edge7_Node000006_Node000008" class="edge">
<title>Node6&#45;&gt;Node8</title>
<g id="a_edge7_Node000006_Node000008"><a xlink:title=" ">
<path fill="none" stroke="#63b8ff" d="M340.01,-64.81C353.57,-53.59 369.96,-40.02 382.03,-30.04"/>
<polygon fill="#63b8ff" stroke="#63b8ff" points="337.47,-62.36 332,-71.44 341.93,-67.76 337.47,-62.36"/>
</a>
</g>
</g>
<!-- Node10 -->
<g id="Node000010" class="node">
<title>Node10</title>
<g id="a_Node000010"><a xlink:href="_message_ops_8_h.html" target="_top" xlink:title=" ">
<polygon fill="white" stroke="#666666" points="610,-250 444,-250 444,-220 610,-220 610,-250"/>
<text text-anchor="start" x="452" y="-238" font-family="Helvetica,sans-Serif" font-size="10.00">/home/runner/work/spades</text>
<text text-anchor="middle" x="527" y="-227" font-family="Helvetica,sans-Serif" font-size="10.00">/spades/Source/MessageOps.H</text>
</a>
</g>
</g>
<!-- Node9&#45;&gt;Node10 -->
<g id="edge10_Node000009_Node000010" class="edge">
<title>Node9&#45;&gt;Node10</title>
<g id="a_edge10_Node000009_Node000010"><a xlink:title=" ">
<path fill="none" stroke="#63b8ff" d="M527,-275.54C527,-266.96 527,-257.61 527,-250.16"/>
<polygon fill="#63b8ff" stroke="#63b8ff" points="523.5,-275.8 527,-285.8 530.5,-275.8 523.5,-275.8"/>
</a>
</g>
</g>
<!-- Node11 -->
<g id="Node000011" class="node">
<title>Node11</title>
<g id="a_Node000011"><a xlink:href="_message_particle_container_8_h.html" target="_top" xlink:title=" ">
<polygon fill="white" stroke="#666666" points="596.5,-184 423.5,-184 423.5,-143 596.5,-143 596.5,-184"/>
<text text-anchor="start" x="431.5" y="-172" font-family="Helvetica,sans-Serif" font-size="10.00">/home/runner/work/spades</text>
<text text-anchor="start" x="431.5" y="-161" font-family="Helvetica,sans-Serif" font-size="10.00">/spades/Source/MessageParticle</text>
<text text-anchor="middle" x="510" y="-150" font-family="Helvetica,sans-Serif" font-size="10.00">Container.H</text>
</a>
</g>
</g>
<!-- Node9&#45;&gt;Node11 -->
<g id="edge14_Node000009_Node000011" class="edge">
<title>Node9&#45;&gt;Node11</title>
<g id="a_edge14_Node000009_Node000011"><a xlink:title=" ">
<path fill="none" stroke="#63b8ff" d="M583.41,-281.37C597.47,-273.9 610.84,-263.71 619,-250 625.81,-238.54 625.97,-231.37 619,-220 609.18,-203.98 593.12,-192.4 576.31,-184.11"/>
<polygon fill="#63b8ff" stroke="#63b8ff" points="581.57,-278.37 574.12,-285.89 584.64,-284.66 581.57,-278.37"/>
</a>
</g>
</g>
<!-- Node10&#45;&gt;Node11 -->
<g id="edge11_Node000010_Node000011" class="edge">
<title>Node10&#45;&gt;Node11</title>
<g id="a_edge11_Node000010_Node000011"><a xlink:title=" ">
<path fill="none" stroke="#63b8ff" d="M521.18,-210.19C519.09,-201.68 516.77,-192.19 514.79,-184.07"/>
<polygon fill="#63b8ff" stroke="#63b8ff" points="517.78,-211.05 523.56,-219.94 524.58,-209.39 517.78,-211.05"/>
</a>
</g>
</g>
<!-- Node11&#45;&gt;Node6 -->
<g id="edge13_Node000011_Node000006" class="edge">
<title>Node11&#45;&gt;Node6</title>
<g id="a_edge13_Node000011_Node000006"><a xlink:title=" ">
<path fill="none" stroke="#63b8ff" d="M449.55,-139.25C417.49,-126.92 379.15,-112.17 351.61,-101.58"/>
<polygon fill="#63b8ff" stroke="#63b8ff" points="448.69,-142.67 459.28,-142.99 451.2,-136.13 448.69,-142.67"/>
</a>
</g>
</g>
<!-- Node12 -->
<g id="Node000012" class="node">
<title>Node12</title>
<g id="a_Node000012"><a xlink:href="_message_particle_container_8cpp.html" target="_top" xlink:title=" ">
<polygon fill="white" stroke="#666666" points="596.5,-107 423.5,-107 423.5,-66 596.5,-66 596.5,-107"/>
<text text-anchor="start" x="431.5" y="-95" font-family="Helvetica,sans-Serif" font-size="10.00">/home/runner/work/spades</text>
<text text-anchor="start" x="431.5" y="-84" font-family="Helvetica,sans-Serif" font-size="10.00">/spades/Source/MessageParticle</text>
<text text-anchor="middle" x="510" y="-73" font-family="Helvetica,sans-Serif" font-size="10.00">Container.cpp</text>
</a>
</g>
</g>
<!-- Node11&#45;&gt;Node12 -->
<g id="edge12_Node000011_Node000012" class="edge">
<title>Node11&#45;&gt;Node12</title>
<g id="a_edge12_Node000011_Node000012"><a xlink:title=" ">
<path fill="none" stroke="#63b8ff" d="M510,-132.69C510,-124.08 510,-114.9 510,-107.07"/>
<polygon fill="#63b8ff" stroke="#63b8ff" points="506.5,-132.79 510,-142.79 513.5,-132.79 506.5,-132.79"/>
</a>
</g>
</g>
<!-- Node13&#45;&gt;Node3 -->
<g id="edge16_Node000013_Node000003" class="edge">
<title>Node13&#45;&gt;Node3</title>
<g id="a_edge16_Node000013_Node000003"><a xlink:title=" ">
<path fill="none" stroke="#63b8ff" d="M246.4,-282.59C216.66,-272.36 179.56,-259.59 151.72,-250.01"/>
<polygon fill="#63b8ff" stroke="#63b8ff" points="245.59,-286.01 256.18,-285.95 247.86,-279.39 245.59,-286.01"/>
</a>
</g>
</g>
<!-- Node13&#45;&gt;Node10 -->
<g id="edge17_Node000013_Node000010" class="edge">
<title>Node13&#45;&gt;Node10</title>
<g id="a_edge17_Node000013_Node000010"><a xlink:title=" ">
<path fill="none" stroke="#63b8ff" d="M357.18,-283.25C394.34,-272.91 441.47,-259.8 476.64,-250.01"/>
<polygon fill="#63b8ff" stroke="#63b8ff" points="356.17,-279.9 347.47,-285.95 358.05,-286.65 356.17,-279.9"/>
</a>
</g>
</g>
<!-- Node13&#45;&gt;Node14 -->
<g id="edge18_Node000013_Node000014" class="edge">
<title>Node13&#45;&gt;Node14</title>
<g id="a_edge18_Node000013_Node000014"><a xlink:title=" ">
<path fill="none" stroke="#63b8ff" d="M303.72,-276.11C306.18,-267.38 308.87,-257.78 311.02,-250.16"/>
<polygon fill="#63b8ff" stroke="#63b8ff" points="300.33,-275.22 300.99,-285.8 307.07,-277.12 300.33,-275.22"/>
</a>
</g>
</g>
<!-- Node14&#45;&gt;Node4 -->
<g id="edge19_Node000014_Node000004" class="edge">
<title>Node14&#45;&gt;Node4</title>
<g id="a_edge19_Node000014_Node000004"><a xlink:title=" ">
<path fill="none" stroke="#63b8ff" d="M264.08,-216.57C229.75,-204.81 185.06,-189.51 153.02,-178.54"/>
<polygon fill="#63b8ff" stroke="#63b8ff" points="263.33,-220.01 273.92,-219.94 265.59,-213.39 263.33,-220.01"/>
</a>
</g>
</g>
<!-- Node14&#45;&gt;Node6 -->
<g id="edge21_Node000014_Node000006" class="edge">
<title>Node14&#45;&gt;Node6</title>
<g id="a_edge21_Node000014_Node000006"><a xlink:title=" ">
<path fill="none" stroke="#63b8ff" d="M315,-209.65C315,-178.82 315,-126.72 315,-101.72"/>
<polygon fill="#63b8ff" stroke="#63b8ff" points="311.5,-209.95 315,-219.95 318.5,-209.95 311.5,-209.95"/>
</a>
</g>
</g>
<!-- Node14&#45;&gt;Node11 -->
<g id="edge20_Node000014_Node000011" class="edge">
<title>Node14&#45;&gt;Node11</title>
<g id="a_edge20_Node000014_Node000011"><a xlink:title=" ">
<path fill="none" stroke="#63b8ff" d="M363.95,-216.55C391.68,-206.67 426.43,-194.28 455.08,-184.07"/>
<polygon fill="#63b8ff" stroke="#63b8ff" points="362.71,-213.28 354.46,-219.94 365.06,-219.88 362.71,-213.28"/>
</a>
</g>
</g>
</g>
</svg>
