<?xml version="1.0" encoding="UTF-8" standalone="no"?>
<!DOCTYPE svg PUBLIC "-//W3C//DTD SVG 1.1//EN"
 "http://www.w3.org/Graphics/SVG/1.1/DTD/svg11.dtd">
<!-- Generated by graphviz version 2.43.0 (0)
 -->
<!-- Title: /home/runner/work/spades/spades/Source/Models/Phold.cpp Pages: 1 -->
<svg width="1144pt" height="313pt"
 viewBox="0.00 0.00 1143.50 313.00" xmlns="http://www.w3.org/2000/svg" xmlns:xlink="http://www.w3.org/1999/xlink">
<g id="graph0" class="graph" transform="scale(1 1) rotate(0) translate(4 309)">
<title>/home/runner/work/spades/spades/Source/Models/Phold.cpp</title>
<!-- Node1 -->
<g id="Node000001" class="node">
<title>Node1</title>
<g id="a_Node000001"><a xlink:title=" ">
<polygon fill="#999999" stroke="#666666" points="502.5,-305 323.5,-305 323.5,-275 502.5,-275 502.5,-305"/>
<text text-anchor="start" x="331.5" y="-293" font-family="Helvetica,sans-Serif" font-size="10.00">/home/runner/work/spades</text>
<text text-anchor="middle" x="413" y="-282" font-family="Helvetica,sans-Serif" font-size="10.00">/spades/Source/Models/Phold.cpp</text>
</a>
</g>
</g>
<!-- Node2 -->
<g id="Node000002" class="node">
<title>Node2</title>
<g id="a_Node000002"><a xlink:href="_phold_8_h.html" target="_top" xlink:title=" ">
<polygon fill="white" stroke="#666666" points="440,-239 386,-239 386,-220 440,-220 440,-239"/>
<text text-anchor="middle" x="413" y="-227" font-family="Helvetica,sans-Serif" font-size="10.00">Phold.H</text>
</a>
</g>
</g>
<!-- Node1&#45;&gt;Node2 -->
<g id="edge1_Node000001_Node000002" class="edge">
<title>Node1&#45;&gt;Node2</title>
<g id="a_edge1_Node000001_Node000002"><a xlink:title=" ">
<path fill="none" stroke="#63b8ff" d="M413,-274.84C413,-267.21 413,-257.7 413,-249.45"/>
<polygon fill="#63b8ff" stroke="#63b8ff" points="416.5,-249.27 413,-239.27 409.5,-249.27 416.5,-249.27"/>
</a>
</g>
</g>
<!-- Node3 -->
<g id="Node000003" class="node">
<title>Node3</title>
<g id="a_Node000003"><a xlink:title=" ">
<polygon fill="#e0e0e0" stroke="#999999" points="172.5,-184 53.5,-184 53.5,-165 172.5,-165 172.5,-184"/>
<text text-anchor="middle" x="113" y="-172" font-family="Helvetica,sans-Serif" font-size="10.00">AMReX_ParmParse.H</text>
</a>
</g>
</g>
<!-- Node2&#45;&gt;Node3 -->
<g id="edge2_Node000002_Node000003" class="edge">
<title>Node2&#45;&gt;Node3</title>
<g id="a_edge2_Node000002_Node000003"><a xlink:title=" ">
<path fill="none" stroke="#63b8ff" d="M385.85,-223.7C337.59,-215.18 235.88,-197.21 171.19,-185.78"/>
<polygon fill="#63b8ff" stroke="#63b8ff" points="171.59,-182.3 161.14,-184 170.38,-189.19 171.59,-182.3"/>
</a>
</g>
</g>
<!-- Node4 -->
<g id="Node000004" class="node">
<title>Node4</title>
<g id="a_Node000004"><a xlink:title=" ">
<polygon fill="#e0e0e0" stroke="#999999" points="305.5,-184 190.5,-184 190.5,-165 305.5,-165 305.5,-184"/>
<text text-anchor="middle" x="248" y="-172" font-family="Helvetica,sans-Serif" font-size="10.00">AMReX_Geometry.H</text>
</a>
</g>
</g>
<!-- Node2&#45;&gt;Node4 -->
<g id="edge3_Node000002_Node000004" class="edge">
<title>Node2&#45;&gt;Node4</title>
<g id="a_edge3_Node000002_Node000004"><a xlink:title=" ">
<path fill="none" stroke="#63b8ff" d="M386.49,-219.98C358.79,-211.09 315.14,-197.07 284.26,-187.15"/>
<polygon fill="#63b8ff" stroke="#63b8ff" points="285.31,-183.81 274.72,-184.08 283.17,-190.47 285.31,-183.81"/>
</a>
</g>
</g>
<!-- Node5 -->
<g id="Node000005" class="node">
<title>Node5</title>
<g id="a_Node000005"><a xlink:href="_constants_8_h.html" target="_top" xlink:title=" ">
<polygon fill="white" stroke="#666666" points="112,-129 0,-129 0,-110 112,-110 112,-129"/>
<text text-anchor="middle" x="56" y="-117" font-family="Helvetica,sans-Serif" font-size="10.00">Source/Constants.H</text>
</a>
</g>
</g>
<!-- Node2&#45;&gt;Node5 -->
<g id="edge4_Node000002_Node000005" class="edge">
<title>Node2&#45;&gt;Node5</title>
<g id="a_edge4_Node000002_Node000005"><a xlink:title=" ">
<path fill="none" stroke="#63b8ff" d="M402.78,-219.94C385.62,-206.04 349.4,-178.75 314,-165 296.38,-158.16 192.76,-141.42 122.32,-130.54"/>
<polygon fill="#63b8ff" stroke="#63b8ff" points="122.59,-127.04 112.18,-128.98 121.53,-133.96 122.59,-127.04"/>
</a>
</g>
</g>
<!-- Node7 -->
<g id="Node000007" class="node">
<title>Node7</title>
<g id="a_Node000007"><a xlink:href="_utilities_8_h.html" target="_top" xlink:title=" ">
<polygon fill="white" stroke="#666666" points="463.5,-184 362.5,-184 362.5,-165 463.5,-165 463.5,-184"/>
<text text-anchor="middle" x="413" y="-172" font-family="Helvetica,sans-Serif" font-size="10.00">Source/Utilities.H</text>
</a>
</g>
</g>
<!-- Node2&#45;&gt;Node7 -->
<g id="edge6_Node000002_Node000007" class="edge">
<title>Node2&#45;&gt;Node7</title>
<g id="a_edge6_Node000002_Node000007"><a xlink:title=" ">
<path fill="none" stroke="#63b8ff" d="M413,-219.75C413,-212.8 413,-202.85 413,-194.13"/>
<polygon fill="#63b8ff" stroke="#63b8ff" points="416.5,-194.09 413,-184.09 409.5,-194.09 416.5,-194.09"/>
</a>
</g>
</g>
<!-- Node13 -->
<g id="Node000013" class="node">
<title>Node13</title>
<g id="a_Node000013"><a xlink:href="_message_ops_8_h.html" target="_top" xlink:title=" ">
<polygon fill="white" stroke="#666666" points="823.5,-184 698.5,-184 698.5,-165 823.5,-165 823.5,-184"/>
<text text-anchor="middle" x="761" y="-172" font-family="Helvetica,sans-Serif" font-size="10.00">Source/MessageOps.H</text>
</a>
</g>
</g>
<!-- Node2&#45;&gt;Node13 -->
<g id="edge13_Node000002_Node000013" class="edge">
<title>Node2&#45;&gt;Node13</title>
<g id="a_edge13_Node000002_Node000013"><a xlink:title=" ">
<path fill="none" stroke="#63b8ff" d="M440.02,-224.39C494.27,-216.12 617.86,-197.3 694.88,-185.57"/>
<polygon fill="#63b8ff" stroke="#63b8ff" points="695.6,-189 704.96,-184.04 694.54,-182.08 695.6,-189"/>
</a>
</g>
</g>
<!-- Node16 -->
<g id="Node000016" class="node">
<title>Node16</title>
<g id="a_Node000016"><a xlink:href="_message_data_8_h.html" target="_top" xlink:title=" ">
<polygon fill="white" stroke="#666666" points="1002,-129 908,-129 908,-110 1002,-110 1002,-129"/>
<text text-anchor="middle" x="955" y="-117" font-family="Helvetica,sans-Serif" font-size="10.00">MessageData.H</text>
</a>
</g>
</g>
<!-- Node2&#45;&gt;Node16 -->
<g id="edge27_Node000002_Node000016" class="edge">
<title>Node2&#45;&gt;Node16</title>
<g id="a_edge27_Node000002_Node000016"><a xlink:title=" ">
<path fill="none" stroke="#63b8ff" d="M440.22,-229.08C508.11,-229.79 689.78,-227.16 833,-184 870.74,-172.62 910.54,-149.51 934.05,-134.53"/>
<polygon fill="#63b8ff" stroke="#63b8ff" points="936.02,-137.42 942.51,-129.04 932.21,-131.55 936.02,-137.42"/>
</a>
</g>
</g>
<!-- Node20 -->
<g id="Node000020" class="node">
<title>Node20</title>
<g id="a_Node000020"><a xlink:href="_entity_data_8_h.html" target="_top" xlink:title=" ">
<polygon fill="white" stroke="#666666" points="1135.5,-129 1020.5,-129 1020.5,-110 1135.5,-110 1135.5,-129"/>
<text text-anchor="middle" x="1078" y="-117" font-family="Helvetica,sans-Serif" font-size="10.00">Source/EntityData.H</text>
</a>
</g>
</g>
<!-- Node2&#45;&gt;Node20 -->
<g id="edge28_Node000002_Node000020" class="edge">
<title>Node2&#45;&gt;Node20</title>
<g id="a_edge28_Node000002_Node000020"><a xlink:title=" ">
<path fill="none" stroke="#63b8ff" d="M440.26,-227.72C511.43,-225.26 708.48,-215.89 869,-184 932.78,-171.33 1004.88,-147.14 1045.55,-132.55"/>
<polygon fill="#63b8ff" stroke="#63b8ff" points="1046.97,-135.76 1055.18,-129.06 1044.59,-129.18 1046.97,-135.76"/>
</a>
</g>
</g>
<!-- Node6 -->
<g id="Node000006" class="node">
<title>Node6</title>
<g id="a_Node000006"><a xlink:title=" ">
<polygon fill="#e0e0e0" stroke="#999999" points="102,-74 10,-74 10,-55 102,-55 102,-74"/>
<text text-anchor="middle" x="56" y="-62" font-family="Helvetica,sans-Serif" font-size="10.00">AMReX_REAL.H</text>
</a>
</g>
</g>
<!-- Node5&#45;&gt;Node6 -->
<g id="edge5_Node000005_Node000006" class="edge">
<title>Node5&#45;&gt;Node6</title>
<g id="a_edge5_Node000005_Node000006"><a xlink:title=" ">
<path fill="none" stroke="#63b8ff" d="M56,-109.75C56,-102.8 56,-92.85 56,-84.13"/>
<polygon fill="#63b8ff" stroke="#63b8ff" points="59.5,-84.09 56,-74.09 52.5,-84.09 59.5,-84.09"/>
</a>
</g>
</g>
<!-- Node7&#45;&gt;Node5 -->
<g id="edge12_Node000007_Node000005" class="edge">
<title>Node7&#45;&gt;Node5</title>
<g id="a_edge12_Node000007_Node000005"><a xlink:title=" ">
<path fill="none" stroke="#63b8ff" d="M362.23,-165.96C299.2,-156.61 191.57,-140.63 122.14,-130.32"/>
<polygon fill="#63b8ff" stroke="#63b8ff" points="122.59,-126.85 112.19,-128.84 121.56,-133.77 122.59,-126.85"/>
</a>
</g>
</g>
<!-- Node8 -->
<g id="Node000008" class="node">
<title>Node8</title>
<g id="a_Node000008"><a xlink:title=" ">
<polygon fill="#e0e0e0" stroke="#999999" points="959,-19 897,-19 897,0 959,0 959,-19"/>
<text text-anchor="middle" x="928" y="-7" font-family="Helvetica,sans-Serif" font-size="10.00">AMReX.H</text>
</a>
</g>
</g>
<!-- Node7&#45;&gt;Node8 -->
<g id="edge7_Node000007_Node000008" class="edge">
<title>Node7&#45;&gt;Node8</title>
<g id="a_edge7_Node000007_Node000008"><a xlink:title=" ">
<path fill="none" stroke="#63b8ff" d="M362.46,-166.28C316.34,-157.62 259.01,-140.32 285,-110 363.3,-18.65 756.48,-10.43 886.32,-10.25"/>
<polygon fill="#63b8ff" stroke="#63b8ff" points="886.63,-13.75 896.63,-10.25 886.63,-6.75 886.63,-13.75"/>
</a>
</g>
</g>
<!-- Node9 -->
<g id="Node000009" class="node">
<title>Node9</title>
<g id="a_Node000009"><a xlink:title=" ">
<polygon fill="#e0e0e0" stroke="#999999" points="404,-129 294,-129 294,-110 404,-110 404,-129"/>
<text text-anchor="middle" x="349" y="-117" font-family="Helvetica,sans-Serif" font-size="10.00">AMReX_RealVect.H</text>
</a>
</g>
</g>
<!-- Node7&#45;&gt;Node9 -->
<g id="edge8_Node000007_Node000009" class="edge">
<title>Node7&#45;&gt;Node9</title>
<g id="a_edge8_Node000007_Node000009"><a xlink:title=" ">
<path fill="none" stroke="#63b8ff" d="M402.72,-164.98C393.16,-157.07 378.72,-145.11 367.22,-135.58"/>
<polygon fill="#63b8ff" stroke="#63b8ff" points="369.4,-132.85 359.47,-129.17 364.94,-138.24 369.4,-132.85"/>
</a>
</g>
</g>
<!-- Node10 -->
<g id="Node000010" class="node">
<title>Node10</title>
<g id="a_Node000010"><a xlink:title=" ">
<polygon fill="#e0e0e0" stroke="#999999" points="531.5,-129 422.5,-129 422.5,-110 531.5,-110 531.5,-129"/>
<text text-anchor="middle" x="477" y="-117" font-family="Helvetica,sans-Serif" font-size="10.00">AMReX_MultiFab.H</text>
</a>
</g>
</g>
<!-- Node7&#45;&gt;Node10 -->
<g id="edge9_Node000007_Node000010" class="edge">
<title>Node7&#45;&gt;Node10</title>
<g id="a_edge9_Node000007_Node000010"><a xlink:title=" ">
<path fill="none" stroke="#63b8ff" d="M423.28,-164.98C432.84,-157.07 447.28,-145.11 458.78,-135.58"/>
<polygon fill="#63b8ff" stroke="#63b8ff" points="461.06,-138.24 466.53,-129.17 456.6,-132.85 461.06,-138.24"/>
</a>
</g>
</g>
<!-- Node11 -->
<g id="Node000011" class="node">
<title>Node11</title>
<g id="a_Node000011"><a xlink:title=" ">
<polygon fill="#e0e0e0" stroke="#999999" points="676,-129 550,-129 550,-110 676,-110 676,-129"/>
<text text-anchor="middle" x="613" y="-117" font-family="Helvetica,sans-Serif" font-size="10.00">AMReX_MultiFabUtil.H</text>
</a>
</g>
</g>
<!-- Node7&#45;&gt;Node11 -->
<g id="edge10_Node000007_Node000011" class="edge">
<title>Node7&#45;&gt;Node11</title>
<g id="a_edge10_Node000007_Node000011"><a xlink:title=" ">
<path fill="none" stroke="#63b8ff" d="M445.13,-164.98C479.15,-155.97 533,-141.7 570.5,-131.76"/>
<polygon fill="#63b8ff" stroke="#63b8ff" points="571.84,-135.03 580.61,-129.08 570.05,-128.26 571.84,-135.03"/>
</a>
</g>
</g>
<!-- Node12 -->
<g id="Node000012" class="node">
<title>Node12</title>
<g id="a_Node000012"><a xlink:title=" ">
<polygon fill="#e0e0e0" stroke="#999999" points="238,-129 130,-129 130,-110 238,-110 238,-129"/>
<text text-anchor="middle" x="184" y="-117" font-family="Helvetica,sans-Serif" font-size="10.00">AMReX_Random.H</text>
</a>
</g>
</g>
<!-- Node7&#45;&gt;Node12 -->
<g id="edge11_Node000007_Node000012" class="edge">
<title>Node7&#45;&gt;Node12</title>
<g id="a_edge11_Node000007_Node000012"><a xlink:title=" ">
<path fill="none" stroke="#63b8ff" d="M376.21,-164.98C336.76,-155.86 274.02,-141.33 231.02,-131.38"/>
<polygon fill="#63b8ff" stroke="#63b8ff" points="231.61,-127.93 221.08,-129.08 230.03,-134.75 231.61,-127.93"/>
</a>
</g>
</g>
<!-- Node13&#45;&gt;Node8 -->
<g id="edge14_Node000013_Node000008" class="edge">
<title>Node13&#45;&gt;Node8</title>
<g id="a_edge14_Node000013_Node000008"><a xlink:title=" ">
<path fill="none" stroke="#63b8ff" d="M751.47,-164.68C726.13,-140.77 660.15,-75.1 677,-55 703.26,-23.68 822.3,-14.39 886.56,-11.64"/>
<polygon fill="#63b8ff" stroke="#63b8ff" points="886.9,-15.13 896.76,-11.24 886.63,-8.14 886.9,-15.13"/>
</a>
</g>
</g>
<!-- Node14 -->
<g id="Node000014" class="node">
<title>Node14</title>
<g id="a_Node000014"><a xlink:title=" ">
<polygon fill="#e0e0e0" stroke="#999999" points="786,-74 686,-74 686,-55 786,-55 786,-74"/>
<text text-anchor="middle" x="736" y="-62" font-family="Helvetica,sans-Serif" font-size="10.00">AMReX_Array4.H</text>
</a>
</g>
</g>
<!-- Node13&#45;&gt;Node14 -->
<g id="edge15_Node000013_Node000014" class="edge">
<title>Node13&#45;&gt;Node14</title>
<g id="a_edge15_Node000013_Node000014"><a xlink:title=" ">
<path fill="none" stroke="#63b8ff" d="M758.95,-164.66C754.89,-147.09 745.71,-107.45 740.27,-83.95"/>
<polygon fill="#63b8ff" stroke="#63b8ff" points="743.67,-83.11 738,-74.16 736.85,-84.69 743.67,-83.11"/>
</a>
</g>
</g>
<!-- Node15 -->
<g id="Node000015" class="node">
<title>Node15</title>
<g id="a_Node000015"><a xlink:title=" ">
<polygon fill="#e0e0e0" stroke="#999999" points="894,-74 804,-74 804,-55 894,-55 894,-74"/>
<text text-anchor="middle" x="849" y="-62" font-family="Helvetica,sans-Serif" font-size="10.00">AMReX_Print.H</text>
</a>
</g>
</g>
<!-- Node13&#45;&gt;Node15 -->
<g id="edge16_Node000013_Node000015" class="edge">
<title>Node13&#45;&gt;Node15</title>
<g id="a_edge16_Node000013_Node000015"><a xlink:title=" ">
<path fill="none" stroke="#63b8ff" d="M765.16,-164.74C771.46,-151.97 784.25,-127.81 799,-110 807.94,-99.2 819.56,-88.69 829.35,-80.61"/>
<polygon fill="#63b8ff" stroke="#63b8ff" points="831.75,-83.16 837.36,-74.17 827.37,-77.7 831.75,-83.16"/>
</a>
</g>
</g>
<!-- Node13&#45;&gt;Node16 -->
<g id="edge17_Node000013_Node000016" class="edge">
<title>Node13&#45;&gt;Node16</title>
<g id="a_edge17_Node000013_Node000016"><a xlink:title=" ">
<path fill="none" stroke="#63b8ff" d="M792.17,-164.98C825.16,-155.97 877.4,-141.7 913.77,-131.76"/>
<polygon fill="#63b8ff" stroke="#63b8ff" points="914.86,-135.09 923.59,-129.08 913.02,-128.34 914.86,-135.09"/>
</a>
</g>
</g>
<!-- Node19 -->
<g id="Node000019" class="node">
<title>Node19</title>
<g id="a_Node000019"><a xlink:href="_particle_ops_8_h.html" target="_top" xlink:title=" ">
<polygon fill="white" stroke="#666666" points="890,-129 808,-129 808,-110 890,-110 890,-129"/>
<text text-anchor="middle" x="849" y="-117" font-family="Helvetica,sans-Serif" font-size="10.00">ParticleOps.H</text>
</a>
</g>
</g>
<!-- Node13&#45;&gt;Node19 -->
<g id="edge22_Node000013_Node000019" class="edge">
<title>Node13&#45;&gt;Node19</title>
<g id="a_edge22_Node000013_Node000019"><a xlink:title=" ">
<path fill="none" stroke="#63b8ff" d="M775.14,-164.98C788.79,-156.77 809.69,-144.18 825.78,-134.49"/>
<polygon fill="#63b8ff" stroke="#63b8ff" points="827.84,-137.33 834.6,-129.17 824.23,-131.33 827.84,-137.33"/>
</a>
</g>
</g>
<!-- Node16&#45;&gt;Node8 -->
<g id="edge18_Node000016_Node000008" class="edge">
<title>Node16&#45;&gt;Node8</title>
<g id="a_edge18_Node000016_Node000008"><a xlink:title=" ">
<path fill="none" stroke="#63b8ff" d="M952.79,-109.66C948.4,-92.09 938.49,-52.45 932.61,-28.95"/>
<polygon fill="#63b8ff" stroke="#63b8ff" points="935.99,-28.01 930.16,-19.16 929.19,-29.71 935.99,-28.01"/>
</a>
</g>
</g>
<!-- Node17 -->
<g id="Node000017" class="node">
<title>Node17</title>
<g id="a_Node000017"><a xlink:href="_particle_data_8_h.html" target="_top" xlink:title=" ">
<polygon fill="white" stroke="#666666" points="1074,-74 988,-74 988,-55 1074,-55 1074,-74"/>
<text text-anchor="middle" x="1031" y="-62" font-family="Helvetica,sans-Serif" font-size="10.00">ParticleData.H</text>
</a>
</g>
</g>
<!-- Node16&#45;&gt;Node17 -->
<g id="edge19_Node000016_Node000017" class="edge">
<title>Node16&#45;&gt;Node17</title>
<g id="a_edge19_Node000016_Node000017"><a xlink:title=" ">
<path fill="none" stroke="#63b8ff" d="M967.21,-109.98C978.78,-101.92 996.38,-89.65 1010.16,-80.03"/>
<polygon fill="#63b8ff" stroke="#63b8ff" points="1012.37,-82.76 1018.57,-74.17 1008.36,-77.02 1012.37,-82.76"/>
</a>
</g>
</g>
<!-- Node17&#45;&gt;Node8 -->
<g id="edge20_Node000017_Node000008" class="edge">
<title>Node17&#45;&gt;Node8</title>
<g id="a_edge20_Node000017_Node000008"><a xlink:title=" ">
<path fill="none" stroke="#63b8ff" d="M1014.45,-54.98C998.11,-46.57 972.87,-33.59 953.87,-23.81"/>
<polygon fill="#63b8ff" stroke="#63b8ff" points="955.34,-20.63 944.85,-19.17 952.14,-26.86 955.34,-20.63"/>
</a>
</g>
</g>
<!-- Node18 -->
<g id="Node000018" class="node">
<title>Node18</title>
<g id="a_Node000018"><a xlink:title=" ">
<polygon fill="#e0e0e0" stroke="#999999" points="1080,-19 982,-19 982,0 1080,0 1080,-19"/>
<text text-anchor="middle" x="1031" y="-7" font-family="Helvetica,sans-Serif" font-size="10.00">AMReX_SPACE.H</text>
</a>
</g>
</g>
<!-- Node17&#45;&gt;Node18 -->
<g id="edge21_Node000017_Node000018" class="edge">
<title>Node17&#45;&gt;Node18</title>
<g id="a_edge21_Node000017_Node000018"><a xlink:title=" ">
<path fill="none" stroke="#63b8ff" d="M1031,-54.75C1031,-47.8 1031,-37.85 1031,-29.13"/>
<polygon fill="#63b8ff" stroke="#63b8ff" points="1034.5,-29.09 1031,-19.09 1027.5,-29.09 1034.5,-29.09"/>
</a>
</g>
</g>
<!-- Node19&#45;&gt;Node8 -->
<g id="edge23_Node000019_Node000008" class="edge">
<title>Node19&#45;&gt;Node8</title>
<g id="a_edge23_Node000019_Node000008"><a xlink:title=" ">
<path fill="none" stroke="#63b8ff" d="M863.12,-109.83C875.14,-101.83 892.15,-88.94 903,-74 912.79,-60.52 919.37,-42.69 923.31,-29.35"/>
<polygon fill="#63b8ff" stroke="#63b8ff" points="926.77,-29.97 926.01,-19.4 920.01,-28.14 926.77,-29.97"/>
</a>
</g>
</g>
<!-- Node19&#45;&gt;Node14 -->
<g id="edge24_Node000019_Node000014" class="edge">
<title>Node19&#45;&gt;Node14</title>
<g id="a_edge24_Node000019_Node000014"><a xlink:title=" ">
<path fill="none" stroke="#63b8ff" d="M830.84,-109.98C812.75,-101.5 784.72,-88.35 763.81,-78.54"/>
<polygon fill="#63b8ff" stroke="#63b8ff" points="765.03,-75.25 754.49,-74.17 762.05,-81.59 765.03,-75.25"/>
</a>
</g>
</g>
<!-- Node19&#45;&gt;Node15 -->
<g id="edge25_Node000019_Node000015" class="edge">
<title>Node19&#45;&gt;Node15</title>
<g id="a_edge25_Node000019_Node000015"><a xlink:title=" ">
<path fill="none" stroke="#63b8ff" d="M849,-109.75C849,-102.8 849,-92.85 849,-84.13"/>
<polygon fill="#63b8ff" stroke="#63b8ff" points="852.5,-84.09 849,-74.09 845.5,-84.09 852.5,-84.09"/>
</a>
</g>
</g>
<!-- Node19&#45;&gt;Node17 -->
<g id="edge26_Node000019_Node000017" class="edge">
<title>Node19&#45;&gt;Node17</title>
<g id="a_edge26_Node000019_Node000017"><a xlink:title=" ">
<path fill="none" stroke="#63b8ff" d="M878.24,-109.98C909.06,-101.01 957.78,-86.82 991.89,-76.89"/>
<polygon fill="#63b8ff" stroke="#63b8ff" points="992.91,-80.24 1001.53,-74.08 990.95,-73.52 992.91,-80.24"/>
</a>
</g>
</g>
<!-- Node20&#45;&gt;Node8 -->
<g id="edge29_Node000020_Node000008" class="edge">
<title>Node20&#45;&gt;Node8</title>
<g id="a_edge29_Node000020_Node000008"><a xlink:title=" ">
<path fill="none" stroke="#63b8ff" d="M1082.05,-109.68C1087.47,-96.39 1095.11,-71.08 1083,-55 1075.99,-45.69 1012.51,-29.66 969,-19.6"/>
<polygon fill="#63b8ff" stroke="#63b8ff" points="969.76,-16.18 959.23,-17.36 968.19,-23 969.76,-16.18"/>
</a>
</g>
</g>
<!-- Node20&#45;&gt;Node17 -->
<g id="edge30_Node000020_Node000017" class="edge">
<title>Node20&#45;&gt;Node17</title>
<g id="a_edge30_Node000020_Node000017"><a xlink:title=" ">
<path fill="none" stroke="#63b8ff" d="M1070.24,-109.75C1063.53,-102.18 1053.66,-91.05 1045.49,-81.84"/>
<polygon fill="#63b8ff" stroke="#63b8ff" points="1047.87,-79.25 1038.62,-74.09 1042.63,-83.89 1047.87,-79.25"/>
</a>
</g>
</g>
</g>
</svg>
