<?xml version="1.0" encoding="UTF-8" standalone="no"?>
<!DOCTYPE svg PUBLIC "-//W3C//DTD SVG 1.1//EN"
 "http://www.w3.org/Graphics/SVG/1.1/DTD/svg11.dtd">
<!-- Generated by graphviz version 2.43.0 (0)
 -->
<!-- Title: /home/runner/work/spades/spades/Source/SPADES.H Pages: 1 -->
<!--zoomable 313 -->

<svg id="main" version="1.1" xmlns="http://www.w3.org/2000/svg" xmlns:xlink="http://www.w3.org/1999/xlink" xml:space="preserve" onload="init(evt)">

<style type="text/css"><![CDATA[
.node, .edge {opacity: 0.7;}
.node.selected, .edge.selected {opacity: 1;}
.edge:hover path { stroke: red; }
.edge:hover polygon { stroke: red; fill: red; }
]]></style>

<defs>
  <circle id="rim" cx="0" cy="0" r="7"/>
  <circle id="rim2" cx="0" cy="0" r="3.5"/>
  <g id="zoomPlus">
    <use xlink:href="#rim" fill="#404040"><set attributeName="fill" to="#808080" begin="zoomplus.mouseover" end="zoomplus.mouseout"/></use>
    <path d="M-4,0h8M0,-4v8" fill="none" stroke="white" stroke-width="1.5" pointer-events="none"/>
  </g>
  <g id="zoomMin">
    <use xlink:href="#rim" fill="#404040"><set attributeName="fill" to="#808080" begin="zoomminus.mouseover" end="zoomminus.mouseout"/></use>
    <path d="M-4,0h8" fill="none" stroke="white" stroke-width="1.5" pointer-events="none"/>
  </g>
  <g id="arrowUp" transform="translate(30 24)">
    <use xlink:href="#rim"/>
    <path pointer-events="none" fill="none" stroke="white" stroke-width="1.5" d="M0,-3.0v7 M-2.5,-0.5L0,-3.0L2.5,-0.5"/>
  </g>
  <g id="arrowRight" transform="rotate(90) translate(36 -43)">
    <use xlink:href="#rim"/>
    <path pointer-events="none" fill="none" stroke="white" stroke-width="1.5" d="M0,-3.0v7 M-2.5,-0.5L0,-3.0L2.5,-0.5"/>
  </g>
  <g id="arrowDown" transform="rotate(180) translate(-30 -48)">
    <use xlink:href="#rim"/>
    <path pointer-events="none" fill="none" stroke="white" stroke-width="1.5" d="M0,-3.0v7 M-2.5,-0.5L0,-3.0L2.5,-0.5"/>
  </g>
  <g id="arrowLeft" transform="rotate(270) translate(-36 17)">
    <use xlink:href="#rim"/>
    <path pointer-events="none" fill="none" stroke="white" stroke-width="1.5" d="M0,-3.0v7 M-2.5,-0.5L0,-3.0L2.5,-0.5"/>
  </g>
  <g id="resetDef">
    <use xlink:href="#rim2" fill="#404040"><set attributeName="fill" to="#808080" begin="reset.mouseover" end="reset.mouseout"/></use>
  </g>
</defs>
<script type="application/ecmascript">
var viewWidth = 2556;
var viewHeight = 313;
var sectionId = 'dynsection-0';
</script>
<script type="application/ecmascript" xlink:href="svg.min.js"/>
<svg id="graph" class="graph">
<g id="viewport">
<title>/home/runner/work/spades/spades/Source/SPADES.H</title>
<!-- Node1 -->
<g id="Node000001" class="node">
<title>Node1</title>
<g id="a_Node000001"><a xlink:title=" ">
<polygon fill="#999999" stroke="#666666" points="1703,-305 1557,-305 1557,-275 1703,-275 1703,-305"/>
<text text-anchor="start" x="1565" y="-293" font-family="Helvetica,sans-Serif" font-size="10.00">/home/runner/work/spades</text>
<text text-anchor="middle" x="1630" y="-282" font-family="Helvetica,sans-Serif" font-size="10.00">/spades/Source/SPADES.H</text>
</a>
</g>
</g>
<!-- Node2 -->
<g id="Node000002" class="node">
<title>Node2</title>
<g id="a_Node000002"><a xlink:title=" ">
<polygon fill="#e0e0e0" stroke="#999999" points="464,-19 402,-19 402,0 464,0 464,-19"/>
<text text-anchor="middle" x="433" y="-7" font-family="Helvetica,sans-Serif" font-size="10.00">AMReX.H</text>
</a>
</g>
</g>
<!-- Node1&#45;&gt;Node2 -->
<g id="edge1_Node000001_Node000002" class="edge">
<title>Node1&#45;&gt;Node2</title>
<g id="a_edge1_Node000001_Node000002"><a xlink:title=" ">
<path fill="none" stroke="#63b8ff" d="M1556.8,-287.79C1239.63,-282.07 0,-254.66 0,-175.5 0,-175.5 0,-175.5 0,-118.5 0,-72.76 38.78,-72.62 81,-55 95.2,-49.07 301.73,-25.28 391.66,-15.13"/>
<polygon fill="#63b8ff" stroke="#63b8ff" points="392.23,-18.59 401.77,-13.99 391.44,-11.63 392.23,-18.59"/>
</a>
</g>
</g>
<!-- Node3 -->
<g id="Node000003" class="node">
<title>Node3</title>
<g id="a_Node000003"><a xlink:title=" ">
<polygon fill="#e0e0e0" stroke="#999999" points="1366,-129 1256,-129 1256,-110 1366,-110 1366,-129"/>
<text text-anchor="middle" x="1311" y="-117" font-family="Helvetica,sans-Serif" font-size="10.00">AMReX_AmrCore.H</text>
</a>
</g>
</g>
<!-- Node1&#45;&gt;Node3 -->
<g id="edge2_Node000001_Node000003" class="edge">
<title>Node1&#45;&gt;Node3</title>
<g id="a_edge2_Node000001_Node000003"><a xlink:title=" ">
<path fill="none" stroke="#63b8ff" d="M1556.93,-281.17C1516.3,-274.41 1466.02,-261.94 1426,-239 1380.59,-212.98 1341.46,-163.8 1322.75,-137.73"/>
<polygon fill="#63b8ff" stroke="#63b8ff" points="1325.41,-135.43 1316.8,-129.26 1319.68,-139.45 1325.41,-135.43"/>
</a>
</g>
</g>
<!-- Node4 -->
<g id="Node000004" class="node">
<title>Node4</title>
<g id="a_Node000004"><a xlink:title=" ">
<polygon fill="#e0e0e0" stroke="#999999" points="1715.5,-74 1606.5,-74 1606.5,-55 1715.5,-55 1715.5,-74"/>
<text text-anchor="middle" x="1661" y="-62" font-family="Helvetica,sans-Serif" font-size="10.00">AMReX_MultiFab.H</text>
</a>
</g>
</g>
<!-- Node1&#45;&gt;Node4 -->
<g id="edge3_Node000001_Node000004" class="edge">
<title>Node1&#45;&gt;Node4</title>
<g id="a_edge3_Node000001_Node000004"><a xlink:title=" ">
<path fill="none" stroke="#63b8ff" d="M1631.99,-274.68C1637.38,-235.76 1652.32,-128.07 1658.39,-84.33"/>
<polygon fill="#63b8ff" stroke="#63b8ff" points="1661.88,-84.62 1659.79,-74.23 1654.95,-83.66 1661.88,-84.62"/>
</a>
</g>
</g>
<!-- Node5 -->
<g id="Node000005" class="node">
<title>Node5</title>
<g id="a_Node000005"><a xlink:title=" ">
<polygon fill="#e0e0e0" stroke="#999999" points="1460,-74 1334,-74 1334,-55 1460,-55 1460,-74"/>
<text text-anchor="middle" x="1397" y="-62" font-family="Helvetica,sans-Serif" font-size="10.00">AMReX_MultiFabUtil.H</text>
</a>
</g>
</g>
<!-- Node1&#45;&gt;Node5 -->
<g id="edge4_Node000001_Node000005" class="edge">
<title>Node1&#45;&gt;Node5</title>
<g id="a_edge4_Node000001_Node000005"><a xlink:title=" ">
<path fill="none" stroke="#63b8ff" d="M1629.79,-274.99C1628.5,-241.34 1620.38,-155.36 1572,-110 1556.28,-95.26 1506.98,-83.52 1464.69,-75.81"/>
<polygon fill="#63b8ff" stroke="#63b8ff" points="1465.13,-72.33 1454.68,-74.03 1463.91,-79.22 1465.13,-72.33"/>
</a>
</g>
</g>
<!-- Node6 -->
<g id="Node000006" class="node">
<title>Node6</title>
<g id="a_Node000006"><a xlink:title=" ">
<polygon fill="#e0e0e0" stroke="#999999" points="2136,-239 2024,-239 2024,-220 2136,-220 2136,-239"/>
<text text-anchor="middle" x="2080" y="-227" font-family="Helvetica,sans-Serif" font-size="10.00">AMReX_iMultiFab.H</text>
</a>
</g>
</g>
<!-- Node1&#45;&gt;Node6 -->
<g id="edge5_Node000001_Node000006" class="edge">
<title>Node1&#45;&gt;Node6</title>
<g id="a_edge5_Node000001_Node000006"><a xlink:title=" ">
<path fill="none" stroke="#63b8ff" d="M1703.05,-279.5C1789.07,-268.32 1930.7,-249.91 2013.68,-239.12"/>
<polygon fill="#63b8ff" stroke="#63b8ff" points="2014.29,-242.57 2023.75,-237.81 2013.38,-235.63 2014.29,-242.57"/>
</a>
</g>
</g>
<!-- Node7 -->
<g id="Node000007" class="node">
<title>Node7</title>
<g id="a_Node000007"><a xlink:title=" ">
<polygon fill="#e0e0e0" stroke="#999999" points="1922,-19 1830,-19 1830,0 1922,0 1922,-19"/>
<text text-anchor="middle" x="1876" y="-7" font-family="Helvetica,sans-Serif" font-size="10.00">AMReX_REAL.H</text>
</a>
</g>
</g>
<!-- Node1&#45;&gt;Node7 -->
<g id="edge6_Node000001_Node000007" class="edge">
<title>Node1&#45;&gt;Node7</title>
<g id="a_edge6_Node000001_Node000007"><a xlink:title=" ">
<path fill="none" stroke="#63b8ff" d="M1703.19,-281.32C1809.99,-268.04 1996,-236.21 1996,-175.5 1996,-175.5 1996,-175.5 1996,-118.5 1996,-71.36 1944.2,-39.54 1908.67,-23.26"/>
<polygon fill="#63b8ff" stroke="#63b8ff" points="1909.7,-19.89 1899.14,-19.09 1906.89,-26.31 1909.7,-19.89"/>
</a>
</g>
</g>
<!-- Node8 -->
<g id="Node000008" class="node">
<title>Node8</title>
<g id="a_Node000008"><a xlink:title=" ">
<polygon fill="#e0e0e0" stroke="#999999" points="1929.5,-129 1810.5,-129 1810.5,-110 1929.5,-110 1929.5,-129"/>
<text text-anchor="middle" x="1870" y="-117" font-family="Helvetica,sans-Serif" font-size="10.00">AMReX_ParmParse.H</text>
</a>
</g>
</g>
<!-- Node1&#45;&gt;Node8 -->
<g id="edge7_Node000001_Node000008" class="edge">
<title>Node1&#45;&gt;Node8</title>
<g id="a_edge7_Node000001_Node000008"><a xlink:title=" ">
<path fill="none" stroke="#63b8ff" d="M1650.05,-274.92C1695.15,-243.26 1804.18,-166.71 1849.61,-134.82"/>
<polygon fill="#63b8ff" stroke="#63b8ff" points="1851.63,-137.67 1857.8,-129.06 1847.61,-131.94 1851.63,-137.67"/>
</a>
</g>
</g>
<!-- Node9 -->
<g id="Node000009" class="node">
<title>Node9</title>
<g id="a_Node000009"><a xlink:title=" ">
<polygon fill="#e0e0e0" stroke="#999999" points="2282,-239 2154,-239 2154,-220 2282,-220 2282,-239"/>
<text text-anchor="middle" x="2218" y="-227" font-family="Helvetica,sans-Serif" font-size="10.00">AMReX_FluxRegister.H</text>
</a>
</g>
</g>
<!-- Node1&#45;&gt;Node9 -->
<g id="edge8_Node000001_Node000009" class="edge">
<title>Node1&#45;&gt;Node9</title>
<g id="a_edge8_Node000001_Node000009"><a xlink:title=" ">
<path fill="none" stroke="#63b8ff" d="M1703.39,-282.32C1801.28,-273.31 1980.26,-256.49 2143.67,-239.12"/>
<polygon fill="#63b8ff" stroke="#63b8ff" points="2144.34,-242.57 2153.91,-238.03 2143.6,-235.61 2144.34,-242.57"/>
</a>
</g>
</g>
<!-- Node10 -->
<g id="Node000010" class="node">
<title>Node10</title>
<g id="a_Node000010"><a xlink:title=" ">
<polygon fill="#e0e0e0" stroke="#999999" points="2421.5,-239 2300.5,-239 2300.5,-220 2421.5,-220 2421.5,-239"/>
<text text-anchor="middle" x="2361" y="-227" font-family="Helvetica,sans-Serif" font-size="10.00">AMReX_PlotFileUtil.H</text>
</a>
</g>
</g>
<!-- Node1&#45;&gt;Node10 -->
<g id="edge9_Node000001_Node000010" class="edge">
<title>Node1&#45;&gt;Node10</title>
<g id="a_edge9_Node000001_Node000010"><a xlink:title=" ">
<path fill="none" stroke="#63b8ff" d="M1703.45,-284.54C1823.72,-276.98 2070.36,-260.49 2290.2,-239.03"/>
<polygon fill="#63b8ff" stroke="#63b8ff" points="2290.7,-242.5 2300.31,-238.04 2290.02,-235.53 2290.7,-242.5"/>
</a>
</g>
</g>
<!-- Node11 -->
<g id="Node000011" class="node">
<title>Node11</title>
<g id="a_Node000011"><a xlink:title=" ">
<polygon fill="#e0e0e0" stroke="#999999" points="2548,-239 2440,-239 2440,-220 2548,-220 2548,-239"/>
<text text-anchor="middle" x="2494" y="-227" font-family="Helvetica,sans-Serif" font-size="10.00">AMReX_ErrorList.H</text>
</a>
</g>
</g>
<!-- Node1&#45;&gt;Node11 -->
<g id="edge10_Node000001_Node000011" class="edge">
<title>Node1&#45;&gt;Node11</title>
<g id="a_edge10_Node000001_Node000011"><a xlink:title=" ">
<path fill="none" stroke="#63b8ff" d="M1703.03,-286.2C1842.29,-280.47 2155.61,-265.74 2429.59,-239.07"/>
<polygon fill="#63b8ff" stroke="#63b8ff" points="2430.12,-242.53 2439.73,-238.07 2429.44,-235.57 2430.12,-242.53"/>
</a>
</g>
</g>
<!-- Node12 -->
<g id="Node000012" class="node">
<title>Node12</title>
<g id="a_Node000012"><a xlink:title=" ">
<polygon fill="#e0e0e0" stroke="#999999" points="1240,-74 1132,-74 1132,-55 1240,-55 1240,-74"/>
<text text-anchor="middle" x="1186" y="-62" font-family="Helvetica,sans-Serif" font-size="10.00">AMReX_Random.H</text>
</a>
</g>
</g>
<!-- Node1&#45;&gt;Node12 -->
<g id="edge11_Node000001_Node000012" class="edge">
<title>Node1&#45;&gt;Node12</title>
<g id="a_edge11_Node000001_Node000012"><a xlink:title=" ">
<path fill="none" stroke="#63b8ff" d="M1611.15,-274.72C1555.31,-232.42 1394.55,-110.71 1393,-110 1367.62,-98.38 1299.5,-84.89 1248.28,-75.83"/>
<polygon fill="#63b8ff" stroke="#63b8ff" points="1248.73,-72.36 1238.28,-74.08 1247.53,-79.25 1248.73,-72.36"/>
</a>
</g>
</g>
<!-- Node13 -->
<g id="Node000013" class="node">
<title>Node13</title>
<g id="a_Node000013"><a xlink:href="_constants_8_h.html" target="_top" xlink:title=" ">
<polygon fill="white" stroke="#666666" points="1848,-74 1772,-74 1772,-55 1848,-55 1848,-74"/>
<text text-anchor="middle" x="1810" y="-62" font-family="Helvetica,sans-Serif" font-size="10.00">Constants.H</text>
</a>
</g>
</g>
<!-- Node1&#45;&gt;Node13 -->
<g id="edge12_Node000001_Node000013" class="edge">
<title>Node1&#45;&gt;Node13</title>
<g id="a_edge12_Node000001_Node000013"><a xlink:title=" ">
<path fill="none" stroke="#63b8ff" d="M1700.15,-274.96C1774.29,-255.97 1887.48,-214.15 1939,-129 1959.9,-94.45 1902.88,-78.21 1858.07,-70.93"/>
<polygon fill="#63b8ff" stroke="#63b8ff" points="1858.56,-67.47 1848.15,-69.43 1857.51,-74.39 1858.56,-67.47"/>
</a>
</g>
</g>
<!-- Node14 -->
<g id="Node000014" class="node">
<title>Node14</title>
<g id="a_Node000014"><a xlink:href="_i_c_8_h.html" target="_top" xlink:title=" ">
<polygon fill="white" stroke="#666666" points="1724.5,-184 1687.5,-184 1687.5,-165 1724.5,-165 1724.5,-184"/>
<text text-anchor="middle" x="1706" y="-172" font-family="Helvetica,sans-Serif" font-size="10.00">IC.H</text>
</a>
</g>
</g>
<!-- Node1&#45;&gt;Node14 -->
<g id="edge14_Node000001_Node000014" class="edge">
<title>Node1&#45;&gt;Node14</title>
<g id="a_edge14_Node000001_Node000014"><a xlink:title=" ">
<path fill="none" stroke="#63b8ff" d="M1639.63,-274.63C1653.61,-253.75 1679.49,-215.09 1694.47,-192.72"/>
<polygon fill="#63b8ff" stroke="#63b8ff" points="1697.5,-194.49 1700.15,-184.23 1691.68,-190.59 1697.5,-194.49"/>
</a>
</g>
</g>
<!-- Node16 -->
<g id="Node000016" class="node">
<title>Node16</title>
<g id="a_Node000016"><a xlink:href="_utilities_8_h.html" target="_top" xlink:title=" ">
<polygon fill="white" stroke="#666666" points="1563.5,-129 1498.5,-129 1498.5,-110 1563.5,-110 1563.5,-129"/>
<text text-anchor="middle" x="1531" y="-117" font-family="Helvetica,sans-Serif" font-size="10.00">Utilities.H</text>
</a>
</g>
</g>
<!-- Node1&#45;&gt;Node16 -->
<g id="edge27_Node000001_Node000016" class="edge">
<title>Node1&#45;&gt;Node16</title>
<g id="a_edge27_Node000001_Node000016"><a xlink:title=" ">
<path fill="none" stroke="#63b8ff" d="M1611.7,-274.83C1600.75,-265.59 1587.22,-252.72 1578,-239 1556.39,-206.81 1542.35,-163.19 1535.63,-138.85"/>
<polygon fill="#63b8ff" stroke="#63b8ff" points="1539.01,-137.91 1533.06,-129.14 1532.24,-139.7 1539.01,-137.91"/>
</a>
</g>
</g>
<!-- Node17 -->
<g id="Node000017" class="node">
<title>Node17</title>
<g id="a_Node000017"><a xlink:href="_spades_particle_container_8_h.html" target="_top" xlink:title=" ">
<polygon fill="white" stroke="#666666" points="1106.5,-184 961.5,-184 961.5,-165 1106.5,-165 1106.5,-184"/>
<text text-anchor="middle" x="1034" y="-172" font-family="Helvetica,sans-Serif" font-size="10.00">SpadesParticleContainer.H</text>
</a>
</g>
</g>
<!-- Node1&#45;&gt;Node17 -->
<g id="edge28_Node000001_Node000017" class="edge">
<title>Node1&#45;&gt;Node17</title>
<g id="a_edge28_Node000001_Node000017"><a xlink:title=" ">
<path fill="none" stroke="#63b8ff" d="M1556.75,-287.25C1409.87,-283.09 1090.12,-270.49 1052,-239 1039.03,-228.29 1035.02,-208.99 1033.95,-194.47"/>
<polygon fill="#63b8ff" stroke="#63b8ff" points="1037.44,-193.98 1033.62,-184.1 1030.44,-194.21 1037.44,-193.98"/>
</a>
</g>
</g>
<!-- Node26 -->
<g id="Node000026" class="node">
<title>Node26</title>
<g id="a_Node000026"><a xlink:href="_message_particle_container_8_h.html" target="_top" xlink:title=" ">
<polygon fill="white" stroke="#666666" points="1214.5,-239 1061.5,-239 1061.5,-220 1214.5,-220 1214.5,-239"/>
<text text-anchor="middle" x="1138" y="-227" font-family="Helvetica,sans-Serif" font-size="10.00">MessageParticleContainer.H</text>
</a>
</g>
</g>
<!-- Node1&#45;&gt;Node26 -->
<g id="edge44_Node000001_Node000026" class="edge">
<title>Node1&#45;&gt;Node26</title>
<g id="a_edge44_Node000001_Node000026"><a xlink:title=" ">
<path fill="none" stroke="#63b8ff" d="M1556.87,-280.31C1466.61,-269.57 1313.54,-251.37 1219.56,-240.2"/>
<polygon fill="#63b8ff" stroke="#63b8ff" points="1219.87,-236.71 1209.53,-239 1219.04,-243.66 1219.87,-236.71"/>
</a>
</g>
</g>
<!-- Node29 -->
<g id="Node000029" class="node">
<title>Node29</title>
<g id="a_Node000029"><a xlink:href="_entity_particle_container_8_h.html" target="_top" xlink:title=" ">
<polygon fill="white" stroke="#666666" points="1371,-239 1233,-239 1233,-220 1371,-220 1371,-239"/>
<text text-anchor="middle" x="1302" y="-227" font-family="Helvetica,sans-Serif" font-size="10.00">EntityParticleContainer.H</text>
</a>
</g>
</g>
<!-- Node1&#45;&gt;Node29 -->
<g id="edge60_Node000001_Node000029" class="edge">
<title>Node1&#45;&gt;Node29</title>
<g id="a_edge60_Node000001_Node000029"><a xlink:title=" ">
<path fill="none" stroke="#63b8ff" d="M1556.8,-275.94C1497.43,-265.36 1414.89,-250.63 1360.02,-240.85"/>
<polygon fill="#63b8ff" stroke="#63b8ff" points="1360.57,-237.39 1350.11,-239.08 1359.34,-244.28 1360.57,-237.39"/>
</a>
</g>
</g>
<!-- Node13&#45;&gt;Node7 -->
<g id="edge13_Node000013_Node000007" class="edge">
<title>Node13&#45;&gt;Node7</title>
<g id="a_edge13_Node000013_Node000007"><a xlink:title=" ">
<path fill="none" stroke="#63b8ff" d="M1820.6,-54.98C1830.46,-47.07 1845.35,-35.11 1857.22,-25.58"/>
<polygon fill="#63b8ff" stroke="#63b8ff" points="1859.6,-28.16 1865.2,-19.17 1855.21,-22.7 1859.6,-28.16"/>
</a>
</g>
</g>
<!-- Node14&#45;&gt;Node2 -->
<g id="edge15_Node000014_Node000002" class="edge">
<title>Node14&#45;&gt;Node2</title>
<g id="a_edge15_Node000014_Node000002"><a xlink:title=" ">
<path fill="none" stroke="#63b8ff" d="M1711.5,-164.92C1724.64,-143.23 1754.68,-85.72 1725,-55 1680.55,-8.99 690.23,-9.64 474.32,-10.33"/>
<polygon fill="#63b8ff" stroke="#63b8ff" points="474.04,-6.83 464.06,-10.36 474.07,-13.83 474.04,-6.83"/>
</a>
</g>
</g>
<!-- Node14&#45;&gt;Node4 -->
<g id="edge19_Node000014_Node000004" class="edge">
<title>Node14&#45;&gt;Node4</title>
<g id="a_edge19_Node000014_Node000004"><a xlink:title=" ">
<path fill="none" stroke="#63b8ff" d="M1702.95,-164.79C1698.59,-152.47 1690.19,-129.31 1682,-110 1678.25,-101.15 1673.74,-91.49 1669.86,-83.43"/>
<polygon fill="#63b8ff" stroke="#63b8ff" points="1672.92,-81.73 1665.39,-74.27 1666.63,-84.79 1672.92,-81.73"/>
</a>
</g>
</g>
<!-- Node14&#45;&gt;Node7 -->
<g id="edge16_Node000014_Node000007" class="edge">
<title>Node14&#45;&gt;Node7</title>
<g id="a_edge16_Node000014_Node000007"><a xlink:title=" ">
<path fill="none" stroke="#63b8ff" d="M1719.03,-164.85C1737.48,-152.61 1772.29,-129.55 1802,-110 1826.41,-93.94 1839.53,-97.42 1857,-74 1866.78,-60.89 1871.56,-42.75 1873.87,-29.22"/>
<polygon fill="#63b8ff" stroke="#63b8ff" points="1877.36,-29.53 1875.29,-19.14 1870.43,-28.56 1877.36,-29.53"/>
</a>
</g>
</g>
<!-- Node14&#45;&gt;Node8 -->
<g id="edge18_Node000014_Node000008" class="edge">
<title>Node14&#45;&gt;Node8</title>
<g id="a_edge18_Node000014_Node000008"><a xlink:title=" ">
<path fill="none" stroke="#63b8ff" d="M1724.81,-167.42C1751.27,-158.87 1800,-143.12 1833.66,-132.24"/>
<polygon fill="#63b8ff" stroke="#63b8ff" points="1835.14,-135.44 1843.58,-129.04 1832.99,-128.78 1835.14,-135.44"/>
</a>
</g>
</g>
<!-- Node15 -->
<g id="Node000015" class="node">
<title>Node15</title>
<g id="a_Node000015"><a xlink:title=" ">
<polygon fill="#e0e0e0" stroke="#999999" points="1588,-74 1478,-74 1478,-55 1588,-55 1588,-74"/>
<text text-anchor="middle" x="1533" y="-62" font-family="Helvetica,sans-Serif" font-size="10.00">AMReX_RealVect.H</text>
</a>
</g>
</g>
<!-- Node14&#45;&gt;Node15 -->
<g id="edge17_Node000014_Node000015" class="edge">
<title>Node14&#45;&gt;Node15</title>
<g id="a_edge17_Node000014_Node000015"><a xlink:title=" ">
<path fill="none" stroke="#63b8ff" d="M1692.78,-165C1673.69,-152.74 1637.26,-129.45 1606,-110 1589.36,-99.64 1570.46,-88.13 1556.06,-79.41"/>
<polygon fill="#63b8ff" stroke="#63b8ff" points="1557.68,-76.3 1547.32,-74.12 1554.06,-82.29 1557.68,-76.3"/>
</a>
</g>
</g>
<!-- Node14&#45;&gt;Node16 -->
<g id="edge20_Node000014_Node000016" class="edge">
<title>Node14&#45;&gt;Node16</title>
<g id="a_edge20_Node000014_Node000016"><a xlink:title=" ">
<path fill="none" stroke="#63b8ff" d="M1687.27,-167.83C1659.14,-159.31 1605.4,-143.03 1568.88,-131.97"/>
<polygon fill="#63b8ff" stroke="#63b8ff" points="1569.66,-128.55 1559.07,-129 1567.63,-135.25 1569.66,-128.55"/>
</a>
</g>
</g>
<!-- Node16&#45;&gt;Node2 -->
<g id="edge21_Node000016_Node000002" class="edge">
<title>Node16&#45;&gt;Node2</title>
<g id="a_edge21_Node000016_Node000002"><a xlink:title=" ">
<path fill="none" stroke="#63b8ff" d="M1498.47,-112.31C1448.92,-102.74 1356.92,-84.38 1325,-74 1305.13,-67.54 1302.32,-59.85 1282,-55 1125.85,-17.74 622.06,-11.67 474.18,-10.69"/>
<polygon fill="#63b8ff" stroke="#63b8ff" points="474.18,-7.19 464.15,-10.63 474.13,-14.19 474.18,-7.19"/>
</a>
</g>
</g>
<!-- Node16&#45;&gt;Node4 -->
<g id="edge23_Node000016_Node000004" class="edge">
<title>Node16&#45;&gt;Node4</title>
<g id="a_edge23_Node000016_Node000004"><a xlink:title=" ">
<path fill="none" stroke="#63b8ff" d="M1551.89,-109.98C1573.08,-101.34 1606.13,-87.87 1630.3,-78.02"/>
<polygon fill="#63b8ff" stroke="#63b8ff" points="1631.79,-81.19 1639.73,-74.17 1629.15,-74.7 1631.79,-81.19"/>
</a>
</g>
</g>
<!-- Node16&#45;&gt;Node5 -->
<g id="edge24_Node000016_Node000005" class="edge">
<title>Node16&#45;&gt;Node5</title>
<g id="a_edge24_Node000016_Node000005"><a xlink:title=" ">
<path fill="none" stroke="#63b8ff" d="M1509.47,-109.98C1487.53,-101.3 1453.26,-87.75 1428.31,-77.88"/>
<polygon fill="#63b8ff" stroke="#63b8ff" points="1429.51,-74.59 1418.92,-74.17 1426.93,-81.1 1429.51,-74.59"/>
</a>
</g>
</g>
<!-- Node16&#45;&gt;Node12 -->
<g id="edge25_Node000016_Node000012" class="edge">
<title>Node16&#45;&gt;Node12</title>
<g id="a_edge25_Node000016_Node000012"><a xlink:title=" ">
<path fill="none" stroke="#63b8ff" d="M1498.23,-113.47C1441.44,-104.74 1323.78,-86.67 1250.22,-75.37"/>
<polygon fill="#63b8ff" stroke="#63b8ff" points="1250.56,-71.88 1240.15,-73.82 1249.5,-78.8 1250.56,-71.88"/>
</a>
</g>
</g>
<!-- Node16&#45;&gt;Node13 -->
<g id="edge26_Node000016_Node000013" class="edge">
<title>Node16&#45;&gt;Node13</title>
<g id="a_edge26_Node000016_Node000013"><a xlink:title=" ">
<path fill="none" stroke="#63b8ff" d="M1563.55,-112.32C1612.4,-103.04 1704.98,-85.45 1761.72,-74.67"/>
<polygon fill="#63b8ff" stroke="#63b8ff" points="1762.71,-78.05 1771.88,-72.74 1761.4,-71.17 1762.71,-78.05"/>
</a>
</g>
</g>
<!-- Node16&#45;&gt;Node15 -->
<g id="edge22_Node000016_Node000015" class="edge">
<title>Node16&#45;&gt;Node15</title>
<g id="a_edge22_Node000016_Node000015"><a xlink:title=" ">
<path fill="none" stroke="#63b8ff" d="M1531.33,-109.75C1531.59,-102.8 1531.97,-92.85 1532.3,-84.13"/>
<polygon fill="#63b8ff" stroke="#63b8ff" points="1535.8,-84.21 1532.68,-74.09 1528.8,-83.95 1535.8,-84.21"/>
</a>
</g>
</g>
<!-- Node17&#45;&gt;Node2 -->
<g id="edge29_Node000017_Node000002" class="edge">
<title>Node17&#45;&gt;Node2</title>
<g id="a_edge29_Node000017_Node000002"><a xlink:title=" ">
<path fill="none" stroke="#63b8ff" d="M1030.37,-164.87C1024.01,-150.88 1009.44,-123.46 988,-110 901.58,-55.74 587.8,-23.86 474.32,-13.9"/>
<polygon fill="#63b8ff" stroke="#63b8ff" points="474.55,-10.41 464.29,-13.03 473.95,-17.38 474.55,-10.41"/>
</a>
</g>
</g>
<!-- Node17&#45;&gt;Node3 -->
<g id="edge30_Node000017_Node000003" class="edge">
<title>Node17&#45;&gt;Node3</title>
<g id="a_edge30_Node000017_Node000003"><a xlink:title=" ">
<path fill="none" stroke="#63b8ff" d="M1078.5,-164.98C1126.82,-155.74 1204.04,-140.97 1256.09,-131.01"/>
<polygon fill="#63b8ff" stroke="#63b8ff" points="1256.98,-134.4 1266.15,-129.08 1255.67,-127.52 1256.98,-134.4"/>
</a>
</g>
</g>
<!-- Node17&#45;&gt;Node12 -->
<g id="edge33_Node000017_Node000012" class="edge">
<title>Node17&#45;&gt;Node12</title>
<g id="a_edge33_Node000017_Node000012"><a xlink:title=" ">
<path fill="none" stroke="#63b8ff" d="M1036,-164.85C1039.56,-151.31 1048.25,-125.13 1065,-110 1082.87,-93.86 1107.09,-83.43 1129.17,-76.76"/>
<polygon fill="#63b8ff" stroke="#63b8ff" points="1130.13,-80.12 1138.8,-74.03 1128.22,-73.38 1130.13,-80.12"/>
</a>
</g>
</g>
<!-- Node17&#45;&gt;Node16 -->
<g id="edge42_Node000017_Node000016" class="edge">
<title>Node17&#45;&gt;Node16</title>
<g id="a_edge42_Node000017_Node000016"><a xlink:title=" ">
<path fill="none" stroke="#63b8ff" d="M1106.53,-165.76C1211.67,-154.55 1403.11,-134.14 1488.23,-125.06"/>
<polygon fill="#63b8ff" stroke="#63b8ff" points="1488.74,-128.53 1498.31,-123.99 1488,-121.57 1488.74,-128.53"/>
</a>
</g>
</g>
<!-- Node18 -->
<g id="Node000018" class="node">
<title>Node18</title>
<g id="a_Node000018"><a xlink:title=" ">
<polygon fill="#e0e0e0" stroke="#999999" points="1199.5,-129 1074.5,-129 1074.5,-110 1199.5,-110 1199.5,-129"/>
<text text-anchor="middle" x="1137" y="-117" font-family="Helvetica,sans-Serif" font-size="10.00">AMReX_AmrParGDB.H</text>
</a>
</g>
</g>
<!-- Node17&#45;&gt;Node18 -->
<g id="edge31_Node000017_Node000018" class="edge">
<title>Node17&#45;&gt;Node18</title>
<g id="a_edge31_Node000017_Node000018"><a xlink:title=" ">
<path fill="none" stroke="#63b8ff" d="M1050.55,-164.98C1066.89,-156.57 1092.13,-143.59 1111.13,-133.81"/>
<polygon fill="#63b8ff" stroke="#63b8ff" points="1112.86,-136.86 1120.15,-129.17 1109.66,-130.63 1112.86,-136.86"/>
</a>
</g>
</g>
<!-- Node19 -->
<g id="Node000019" class="node">
<title>Node19</title>
<g id="a_Node000019"><a xlink:title=" ">
<polygon fill="#e0e0e0" stroke="#999999" points="979.5,-129 826.5,-129 826.5,-110 979.5,-110 979.5,-129"/>
<text text-anchor="middle" x="903" y="-117" font-family="Helvetica,sans-Serif" font-size="10.00">AMReX_NeighborParticles.H</text>
</a>
</g>
</g>
<!-- Node17&#45;&gt;Node19 -->
<g id="edge32_Node000017_Node000019" class="edge">
<title>Node17&#45;&gt;Node19</title>
<g id="a_edge32_Node000017_Node000019"><a xlink:title=" ">
<path fill="none" stroke="#63b8ff" d="M1012.95,-164.98C991.59,-156.34 958.3,-142.87 933.94,-133.02"/>
<polygon fill="#63b8ff" stroke="#63b8ff" points="935.01,-129.68 924.43,-129.17 932.39,-136.17 935.01,-129.68"/>
</a>
</g>
</g>
<!-- Node20 -->
<g id="Node000020" class="node">
<title>Node20</title>
<g id="a_Node000020"><a xlink:href="_particle_data_8_h.html" target="_top" xlink:title=" ">
<polygon fill="white" stroke="#666666" points="337,-74 251,-74 251,-55 337,-55 337,-74"/>
<text text-anchor="middle" x="294" y="-62" font-family="Helvetica,sans-Serif" font-size="10.00">ParticleData.H</text>
</a>
</g>
</g>
<!-- Node17&#45;&gt;Node20 -->
<g id="edge34_Node000017_Node000020" class="edge">
<title>Node17&#45;&gt;Node20</title>
<g id="a_edge34_Node000017_Node000020"><a xlink:title=" ">
<path fill="none" stroke="#63b8ff" d="M961.4,-171.84C821.42,-168.05 519.17,-156.85 419,-129 380.28,-118.24 339.52,-94.95 315.45,-79.77"/>
<polygon fill="#63b8ff" stroke="#63b8ff" points="317.09,-76.66 306.79,-74.2 313.31,-82.55 317.09,-76.66"/>
</a>
</g>
</g>
<!-- Node22 -->
<g id="Node000022" class="node">
<title>Node22</title>
<g id="a_Node000022"><a xlink:href="_particle_ops_8_h.html" target="_top" xlink:title=" ">
<polygon fill="white" stroke="#666666" points="510,-129 428,-129 428,-110 510,-110 510,-129"/>
<text text-anchor="middle" x="469" y="-117" font-family="Helvetica,sans-Serif" font-size="10.00">ParticleOps.H</text>
</a>
</g>
</g>
<!-- Node17&#45;&gt;Node22 -->
<g id="edge37_Node000017_Node000022" class="edge">
<title>Node17&#45;&gt;Node22</title>
<g id="a_edge37_Node000017_Node000022"><a xlink:title=" ">
<path fill="none" stroke="#63b8ff" d="M961.29,-166.68C845.29,-155.8 621.16,-134.77 520.33,-125.32"/>
<polygon fill="#63b8ff" stroke="#63b8ff" points="520.39,-121.81 510.1,-124.36 519.73,-128.77 520.39,-121.81"/>
</a>
</g>
</g>
<!-- Node25 -->
<g id="Node000025" class="node">
<title>Node25</title>
<g id="a_Node000025"><a xlink:href="_spades_particle_container_impl_8_h.html" target="_top" xlink:title=" ">
<polygon fill="white" stroke="#666666" points="808.5,-129 641.5,-129 641.5,-110 808.5,-110 808.5,-129"/>
<text text-anchor="middle" x="725" y="-117" font-family="Helvetica,sans-Serif" font-size="10.00">SpadesParticleContainerImpl.H</text>
</a>
</g>
</g>
<!-- Node17&#45;&gt;Node25 -->
<g id="edge43_Node000017_Node000025" class="edge">
<title>Node17&#45;&gt;Node25</title>
<g id="a_edge43_Node000017_Node000025"><a xlink:title=" ">
<path fill="none" stroke="#63b8ff" d="M984.35,-164.98C930.04,-155.67 842.98,-140.74 784.91,-130.78"/>
<polygon fill="#63b8ff" stroke="#63b8ff" points="785.23,-127.28 774.78,-129.04 784.04,-134.18 785.23,-127.28"/>
</a>
</g>
</g>
<!-- Node20&#45;&gt;Node2 -->
<g id="edge35_Node000020_Node000002" class="edge">
<title>Node20&#45;&gt;Node2</title>
<g id="a_edge35_Node000020_Node000002"><a xlink:title=" ">
<path fill="none" stroke="#63b8ff" d="M316.33,-54.98C339.2,-46.27 374.96,-32.63 400.86,-22.75"/>
<polygon fill="#63b8ff" stroke="#63b8ff" points="402.16,-26 410.26,-19.17 399.67,-19.46 402.16,-26"/>
</a>
</g>
</g>
<!-- Node21 -->
<g id="Node000021" class="node">
<title>Node21</title>
<g id="a_Node000021"><a xlink:title=" ">
<polygon fill="#e0e0e0" stroke="#999999" points="343,-19 245,-19 245,0 343,0 343,-19"/>
<text text-anchor="middle" x="294" y="-7" font-family="Helvetica,sans-Serif" font-size="10.00">AMReX_SPACE.H</text>
</a>
</g>
</g>
<!-- Node20&#45;&gt;Node21 -->
<g id="edge36_Node000020_Node000021" class="edge">
<title>Node20&#45;&gt;Node21</title>
<g id="a_edge36_Node000020_Node000021"><a xlink:title=" ">
<path fill="none" stroke="#63b8ff" d="M294,-54.75C294,-47.8 294,-37.85 294,-29.13"/>
<polygon fill="#63b8ff" stroke="#63b8ff" points="297.5,-29.09 294,-19.09 290.5,-29.09 297.5,-29.09"/>
</a>
</g>
</g>
<!-- Node22&#45;&gt;Node2 -->
<g id="edge38_Node000022_Node000002" class="edge">
<title>Node22&#45;&gt;Node2</title>
<g id="a_edge38_Node000022_Node000002"><a xlink:title=" ">
<path fill="none" stroke="#63b8ff" d="M467.52,-109.71C465.31,-97.3 460.66,-74.03 454,-55 450.83,-45.93 446.39,-36.24 442.41,-28.22"/>
<polygon fill="#63b8ff" stroke="#63b8ff" points="445.42,-26.43 437.74,-19.14 439.2,-29.63 445.42,-26.43"/>
</a>
</g>
</g>
<!-- Node22&#45;&gt;Node20 -->
<g id="edge41_Node000022_Node000020" class="edge">
<title>Node22&#45;&gt;Node20</title>
<g id="a_edge41_Node000022_Node000020"><a xlink:title=" ">
<path fill="none" stroke="#63b8ff" d="M440.88,-109.98C411.38,-101.05 364.81,-86.94 332.03,-77.02"/>
<polygon fill="#63b8ff" stroke="#63b8ff" points="332.92,-73.63 322.34,-74.08 330.89,-80.33 332.92,-73.63"/>
</a>
</g>
</g>
<!-- Node23 -->
<g id="Node000023" class="node">
<title>Node23</title>
<g id="a_Node000023"><a xlink:title=" ">
<polygon fill="#e0e0e0" stroke="#999999" points="601,-74 501,-74 501,-55 601,-55 601,-74"/>
<text text-anchor="middle" x="551" y="-62" font-family="Helvetica,sans-Serif" font-size="10.00">AMReX_Array4.H</text>
</a>
</g>
</g>
<!-- Node22&#45;&gt;Node23 -->
<g id="edge39_Node000022_Node000023" class="edge">
<title>Node22&#45;&gt;Node23</title>
<g id="a_edge39_Node000022_Node000023"><a xlink:title=" ">
<path fill="none" stroke="#63b8ff" d="M482.17,-109.98C494.77,-101.84 514,-89.41 528.94,-79.76"/>
<polygon fill="#63b8ff" stroke="#63b8ff" points="531.09,-82.54 537.59,-74.17 527.29,-76.66 531.09,-82.54"/>
</a>
</g>
</g>
<!-- Node24 -->
<g id="Node000024" class="node">
<title>Node24</title>
<g id="a_Node000024"><a xlink:title=" ">
<polygon fill="#e0e0e0" stroke="#999999" points="445,-74 355,-74 355,-55 445,-55 445,-74"/>
<text text-anchor="middle" x="400" y="-62" font-family="Helvetica,sans-Serif" font-size="10.00">AMReX_Print.H</text>
</a>
</g>
</g>
<!-- Node22&#45;&gt;Node24 -->
<g id="edge40_Node000022_Node000024" class="edge">
<title>Node22&#45;&gt;Node24</title>
<g id="a_edge40_Node000022_Node000024"><a xlink:title=" ">
<path fill="none" stroke="#63b8ff" d="M457.91,-109.98C447.51,-102 431.74,-89.88 419.28,-80.31"/>
<polygon fill="#63b8ff" stroke="#63b8ff" points="421.35,-77.49 411.29,-74.17 417.09,-83.04 421.35,-77.49"/>
</a>
</g>
</g>
<!-- Node26&#45;&gt;Node2 -->
<g id="edge45_Node000026_Node000002" class="edge">
<title>Node26&#45;&gt;Node2</title>
<g id="a_edge45_Node000026_Node000002"><a xlink:title=" ">
<path fill="none" stroke="#63b8ff" d="M1061.22,-227.72C869.38,-225.31 372.91,-216.06 211,-184 139.71,-169.88 98.87,-188.41 57,-129 20.95,-77.84 71.07,-82.12 143,-55 187.77,-38.12 322.99,-22.05 391.81,-14.69"/>
<polygon fill="#63b8ff" stroke="#63b8ff" points="392.29,-18.16 401.86,-13.63 391.55,-11.2 392.29,-18.16"/>
</a>
</g>
</g>
<!-- Node26&#45;&gt;Node3 -->
<g id="edge46_Node000026_Node000003" class="edge">
<title>Node26&#45;&gt;Node3</title>
<g id="a_edge46_Node000026_Node000003"><a xlink:title=" ">
<path fill="none" stroke="#63b8ff" d="M1151.86,-219.84C1181.6,-201.28 1251.75,-157.49 1288.17,-134.75"/>
<polygon fill="#63b8ff" stroke="#63b8ff" points="1290.44,-137.46 1297.07,-129.2 1286.73,-131.52 1290.44,-137.46"/>
</a>
</g>
</g>
<!-- Node26&#45;&gt;Node12 -->
<g id="edge48_Node000026_Node000012" class="edge">
<title>Node26&#45;&gt;Node12</title>
<g id="a_edge48_Node000026_Node000012"><a xlink:title=" ">
<path fill="none" stroke="#63b8ff" d="M1146.89,-219.95C1162.85,-203.92 1195.83,-167.46 1208,-129 1212.99,-113.22 1205.7,-95.43 1198.2,-82.71"/>
<polygon fill="#63b8ff" stroke="#63b8ff" points="1200.99,-80.58 1192.63,-74.08 1195.11,-84.38 1200.99,-80.58"/>
</a>
</g>
</g>
<!-- Node26&#45;&gt;Node16 -->
<g id="edge59_Node000026_Node000016" class="edge">
<title>Node26&#45;&gt;Node16</title>
<g id="a_edge59_Node000026_Node000016"><a xlink:title=" ">
<path fill="none" stroke="#63b8ff" d="M1169.17,-219.94C1239.53,-200.6 1410.72,-153.55 1489.76,-131.83"/>
<polygon fill="#63b8ff" stroke="#63b8ff" points="1491.12,-135.09 1499.83,-129.07 1489.26,-128.34 1491.12,-135.09"/>
</a>
</g>
</g>
<!-- Node26&#45;&gt;Node17 -->
<g id="edge49_Node000026_Node000017" class="edge">
<title>Node26&#45;&gt;Node17</title>
<g id="a_edge49_Node000026_Node000017"><a xlink:title=" ">
<path fill="none" stroke="#63b8ff" d="M1121.29,-219.98C1104.79,-211.57 1079.3,-198.59 1060.12,-188.81"/>
<polygon fill="#63b8ff" stroke="#63b8ff" points="1061.51,-185.59 1051.01,-184.17 1058.33,-191.83 1061.51,-185.59"/>
</a>
</g>
</g>
<!-- Node26&#45;&gt;Node18 -->
<g id="edge47_Node000026_Node000018" class="edge">
<title>Node26&#45;&gt;Node18</title>
<g id="a_edge47_Node000026_Node000018"><a xlink:title=" ">
<path fill="none" stroke="#63b8ff" d="M1137.92,-219.66C1137.76,-202.17 1137.39,-162.8 1137.17,-139.27"/>
<polygon fill="#63b8ff" stroke="#63b8ff" points="1140.67,-139.13 1137.08,-129.16 1133.67,-139.19 1140.67,-139.13"/>
</a>
</g>
</g>
<!-- Node27 -->
<g id="Node000027" class="node">
<title>Node27</title>
<g id="a_Node000027"><a xlink:href="_message_data_8_h.html" target="_top" xlink:title=" ">
<polygon fill="white" stroke="#666666" points="160,-129 66,-129 66,-110 160,-110 160,-129"/>
<text text-anchor="middle" x="113" y="-117" font-family="Helvetica,sans-Serif" font-size="10.00">MessageData.H</text>
</a>
</g>
</g>
<!-- Node26&#45;&gt;Node27 -->
<g id="edge50_Node000026_Node000027" class="edge">
<title>Node26&#45;&gt;Node27</title>
<g id="a_edge50_Node000026_Node000027"><a xlink:title=" ">
<path fill="none" stroke="#63b8ff" d="M1061.39,-227.72C878.97,-225.36 422.99,-216.31 274,-184 224.19,-173.2 169.69,-148.83 138.6,-133.62"/>
<polygon fill="#63b8ff" stroke="#63b8ff" points="139.87,-130.34 129.36,-129.03 136.76,-136.61 139.87,-130.34"/>
</a>
</g>
</g>
<!-- Node28 -->
<g id="Node000028" class="node">
<title>Node28</title>
<g id="a_Node000028"><a xlink:href="_message_ops_8_h.html" target="_top" xlink:title=" ">
<polygon fill="white" stroke="#666666" points="372.5,-184 283.5,-184 283.5,-165 372.5,-165 372.5,-184"/>
<text text-anchor="middle" x="328" y="-172" font-family="Helvetica,sans-Serif" font-size="10.00">MessageOps.H</text>
</a>
</g>
</g>
<!-- Node26&#45;&gt;Node28 -->
<g id="edge53_Node000026_Node000028" class="edge">
<title>Node26&#45;&gt;Node28</title>
<g id="a_edge53_Node000026_Node000028"><a xlink:title=" ">
<path fill="none" stroke="#63b8ff" d="M1061.38,-223.67C934.32,-215.63 671.98,-198.91 450,-184 427.97,-182.52 403.71,-180.84 382.66,-179.37"/>
<polygon fill="#63b8ff" stroke="#63b8ff" points="382.83,-175.87 372.61,-178.66 382.34,-182.85 382.83,-175.87"/>
</a>
</g>
</g>
<!-- Node27&#45;&gt;Node2 -->
<g id="edge51_Node000027_Node000002" class="edge">
<title>Node27&#45;&gt;Node2</title>
<g id="a_edge51_Node000027_Node000002"><a xlink:title=" ">
<path fill="none" stroke="#63b8ff" d="M118.17,-109.84C127.05,-95.79 146.62,-68.3 171,-55 190.07,-44.6 322.88,-25.42 391.76,-16"/>
<polygon fill="#63b8ff" stroke="#63b8ff" points="392.4,-19.45 401.84,-14.63 391.46,-12.51 392.4,-19.45"/>
</a>
</g>
</g>
<!-- Node27&#45;&gt;Node20 -->
<g id="edge52_Node000027_Node000020" class="edge">
<title>Node27&#45;&gt;Node20</title>
<g id="a_edge52_Node000027_Node000020"><a xlink:title=" ">
<path fill="none" stroke="#63b8ff" d="M142.08,-109.98C172.6,-101.05 220.76,-86.94 254.66,-77.02"/>
<polygon fill="#63b8ff" stroke="#63b8ff" points="256.08,-80.25 264.69,-74.08 254.11,-73.53 256.08,-80.25"/>
</a>
</g>
</g>
<!-- Node28&#45;&gt;Node2 -->
<g id="edge54_Node000028_Node000002" class="edge">
<title>Node28&#45;&gt;Node2</title>
<g id="a_edge54_Node000028_Node000002"><a xlink:title=" ">
<path fill="none" stroke="#63b8ff" d="M290.44,-164.86C271.12,-158.36 249.14,-147.32 237,-129 218.82,-101.56 213.42,-80.69 234,-55 243.85,-42.7 336.24,-25.99 391.6,-16.95"/>
<polygon fill="#63b8ff" stroke="#63b8ff" points="392.5,-20.35 401.81,-15.3 391.38,-13.44 392.5,-20.35"/>
</a>
</g>
</g>
<!-- Node28&#45;&gt;Node22 -->
<g id="edge58_Node000028_Node000022" class="edge">
<title>Node28&#45;&gt;Node22</title>
<g id="a_edge58_Node000028_Node000022"><a xlink:title=" ">
<path fill="none" stroke="#63b8ff" d="M350.65,-164.98C373.85,-156.27 410.12,-142.63 436.4,-132.75"/>
<polygon fill="#63b8ff" stroke="#63b8ff" points="437.8,-135.97 445.93,-129.17 435.34,-129.41 437.8,-135.97"/>
</a>
</g>
</g>
<!-- Node28&#45;&gt;Node23 -->
<g id="edge55_Node000028_Node000023" class="edge">
<title>Node28&#45;&gt;Node23</title>
<g id="a_edge55_Node000028_Node000023"><a xlink:title=" ">
<path fill="none" stroke="#63b8ff" d="M372.75,-173.51C414.66,-171.3 476.98,-162.05 519,-129 533.23,-117.81 541.65,-98.61 546.26,-84.24"/>
<polygon fill="#63b8ff" stroke="#63b8ff" points="549.69,-84.99 549.07,-74.41 542.95,-83.07 549.69,-84.99"/>
</a>
</g>
</g>
<!-- Node28&#45;&gt;Node24 -->
<g id="edge56_Node000028_Node000024" class="edge">
<title>Node28&#45;&gt;Node24</title>
<g id="a_edge56_Node000028_Node000024"><a xlink:title=" ">
<path fill="none" stroke="#63b8ff" d="M299.37,-164.97C268.63,-154.32 226.55,-134.49 245,-110 251.62,-101.21 308.59,-86.43 351.56,-76.33"/>
<polygon fill="#63b8ff" stroke="#63b8ff" points="352.37,-79.74 361.31,-74.06 350.78,-72.92 352.37,-79.74"/>
</a>
</g>
</g>
<!-- Node28&#45;&gt;Node27 -->
<g id="edge57_Node000028_Node000027" class="edge">
<title>Node28&#45;&gt;Node27</title>
<g id="a_edge57_Node000028_Node000027"><a xlink:title=" ">
<path fill="none" stroke="#63b8ff" d="M293.46,-164.98C256.58,-155.89 198.01,-141.46 157.66,-131.51"/>
<polygon fill="#63b8ff" stroke="#63b8ff" points="158.36,-128.08 147.81,-129.08 156.69,-134.87 158.36,-128.08"/>
</a>
</g>
</g>
<!-- Node29&#45;&gt;Node2 -->
<g id="edge61_Node000029_Node000002" class="edge">
<title>Node29&#45;&gt;Node2</title>
<g id="a_edge61_Node000029_Node000002"><a xlink:title=" ">
<path fill="none" stroke="#63b8ff" d="M1326.29,-219.99C1343.17,-212.88 1364.89,-201.11 1378,-184 1398.41,-157.36 1412.73,-137.14 1393,-110 1362.5,-68.05 1329.4,-95.05 1282,-74 1266.53,-67.13 1265.22,-59.81 1249,-55 1101.71,-11.3 619.59,-9.69 474.61,-10.23"/>
<polygon fill="#63b8ff" stroke="#63b8ff" points="474.35,-6.73 464.37,-10.28 474.38,-13.73 474.35,-6.73"/>
</a>
</g>
</g>
<!-- Node29&#45;&gt;Node3 -->
<g id="edge62_Node000029_Node000003" class="edge">
<title>Node29&#45;&gt;Node3</title>
<g id="a_edge62_Node000029_Node000003"><a xlink:title=" ">
<path fill="none" stroke="#63b8ff" d="M1302.74,-219.66C1304.19,-202.17 1307.47,-162.8 1309.44,-139.27"/>
<polygon fill="#63b8ff" stroke="#63b8ff" points="1312.94,-139.41 1310.28,-129.16 1305.96,-138.83 1312.94,-139.41"/>
</a>
</g>
</g>
<!-- Node29&#45;&gt;Node12 -->
<g id="edge64_Node000029_Node000012" class="edge">
<title>Node29&#45;&gt;Node12</title>
<g id="a_edge64_Node000029_Node000012"><a xlink:title=" ">
<path fill="none" stroke="#63b8ff" d="M1314.84,-219.71C1342.95,-199.41 1405.15,-148.08 1375,-110 1366.84,-99.7 1298.49,-85.43 1246.3,-75.86"/>
<polygon fill="#63b8ff" stroke="#63b8ff" points="1246.9,-72.41 1236.43,-74.07 1245.65,-79.3 1246.9,-72.41"/>
</a>
</g>
</g>
<!-- Node29&#45;&gt;Node16 -->
<g id="edge75_Node000029_Node000016" class="edge">
<title>Node29&#45;&gt;Node16</title>
<g id="a_edge75_Node000029_Node000016"><a xlink:title=" ">
<path fill="none" stroke="#63b8ff" d="M1371.08,-225.22C1409.7,-220.41 1456.97,-209.27 1492,-184 1507.53,-172.79 1518.15,-153.31 1524.33,-138.87"/>
<polygon fill="#63b8ff" stroke="#63b8ff" points="1527.64,-140.02 1528.06,-129.44 1521.13,-137.45 1527.64,-140.02"/>
</a>
</g>
</g>
<!-- Node29&#45;&gt;Node17 -->
<g id="edge65_Node000029_Node000017" class="edge">
<title>Node29&#45;&gt;Node17</title>
<g id="a_edge65_Node000029_Node000017"><a xlink:title=" ">
<path fill="none" stroke="#63b8ff" d="M1258.94,-219.98C1212.29,-210.76 1137.8,-196.03 1087.44,-186.07"/>
<polygon fill="#63b8ff" stroke="#63b8ff" points="1087.89,-182.59 1077.4,-184.08 1086.53,-189.46 1087.89,-182.59"/>
</a>
</g>
</g>
<!-- Node29&#45;&gt;Node18 -->
<g id="edge63_Node000029_Node000018" class="edge">
<title>Node29&#45;&gt;Node18</title>
<g id="a_edge63_Node000029_Node000018"><a xlink:title=" ">
<path fill="none" stroke="#63b8ff" d="M1288.78,-219.84C1260.42,-201.28 1193.51,-157.49 1158.78,-134.75"/>
<polygon fill="#63b8ff" stroke="#63b8ff" points="1160.57,-131.74 1150.29,-129.2 1156.74,-137.6 1160.57,-131.74"/>
</a>
</g>
</g>
<!-- Node30 -->
<g id="Node000030" class="node">
<title>Node30</title>
<g id="a_Node000030"><a xlink:href="_entity_data_8_h.html" target="_top" xlink:title=" ">
<polygon fill="white" stroke="#666666" points="333.5,-129 254.5,-129 254.5,-110 333.5,-110 333.5,-129"/>
<text text-anchor="middle" x="294" y="-117" font-family="Helvetica,sans-Serif" font-size="10.00">EntityData.H</text>
</a>
</g>
</g>
<!-- Node29&#45;&gt;Node30 -->
<g id="edge66_Node000029_Node000030" class="edge">
<title>Node29&#45;&gt;Node30</title>
<g id="a_edge66_Node000029_Node000030"><a xlink:title=" ">
<path fill="none" stroke="#63b8ff" d="M1232.66,-220.82C1229.4,-220.52 1226.16,-220.25 1223,-220 908.47,-195.11 825.19,-236.09 514,-184 445.94,-172.61 369.03,-147.47 326.56,-132.46"/>
<polygon fill="#63b8ff" stroke="#63b8ff" points="327.63,-129.13 317.03,-129.06 325.28,-135.72 327.63,-129.13"/>
</a>
</g>
</g>
<!-- Node31 -->
<g id="Node000031" class="node">
<title>Node31</title>
<g id="a_Node000031"><a xlink:href="_entity_ops_8_h.html" target="_top" xlink:title=" ">
<polygon fill="white" stroke="#666666" points="597,-184 523,-184 523,-165 597,-165 597,-184"/>
<text text-anchor="middle" x="560" y="-172" font-family="Helvetica,sans-Serif" font-size="10.00">EntityOps.H</text>
</a>
</g>
</g>
<!-- Node29&#45;&gt;Node31 -->
<g id="edge69_Node000029_Node000031" class="edge">
<title>Node29&#45;&gt;Node31</title>
<g id="a_edge69_Node000029_Node000031"><a xlink:title=" ">
<path fill="none" stroke="#63b8ff" d="M1232.65,-220.88C1229.39,-220.57 1226.16,-220.28 1223,-220 992.49,-199.87 716.2,-183.97 607.37,-178.02"/>
<polygon fill="#63b8ff" stroke="#63b8ff" points="607.23,-174.51 597.06,-177.46 606.85,-181.5 607.23,-174.51"/>
</a>
</g>
</g>
<!-- Node30&#45;&gt;Node2 -->
<g id="edge67_Node000030_Node000002" class="edge">
<title>Node30&#45;&gt;Node2</title>
<g id="a_edge67_Node000030_Node000002"><a xlink:title=" ">
<path fill="none" stroke="#63b8ff" d="M278.07,-109.94C257.53,-97.81 226.23,-74.87 242,-55 260.37,-31.86 341.61,-19.64 392.04,-14.17"/>
<polygon fill="#63b8ff" stroke="#63b8ff" points="392.41,-17.65 401.99,-13.14 391.68,-10.69 392.41,-17.65"/>
</a>
</g>
</g>
<!-- Node30&#45;&gt;Node20 -->
<g id="edge68_Node000030_Node000020" class="edge">
<title>Node30&#45;&gt;Node20</title>
<g id="a_edge68_Node000030_Node000020"><a xlink:title=" ">
<path fill="none" stroke="#63b8ff" d="M294,-109.75C294,-102.8 294,-92.85 294,-84.13"/>
<polygon fill="#63b8ff" stroke="#63b8ff" points="297.5,-84.09 294,-74.09 290.5,-84.09 297.5,-84.09"/>
</a>
</g>
</g>
<!-- Node31&#45;&gt;Node2 -->
<g id="edge70_Node000031_Node000002" class="edge">
<title>Node31&#45;&gt;Node2</title>
<g id="a_edge70_Node000031_Node000002"><a xlink:title=" ">
<path fill="none" stroke="#63b8ff" d="M569.13,-164.96C590.1,-144.31 637.87,-90.75 610,-55 593.52,-33.86 521.5,-21.22 474.56,-15.09"/>
<polygon fill="#63b8ff" stroke="#63b8ff" points="474.73,-11.58 464.37,-13.81 473.86,-18.53 474.73,-11.58"/>
</a>
</g>
</g>
<!-- Node31&#45;&gt;Node22 -->
<g id="edge73_Node000031_Node000022" class="edge">
<title>Node31&#45;&gt;Node22</title>
<g id="a_edge73_Node000031_Node000022"><a xlink:title=" ">
<path fill="none" stroke="#63b8ff" d="M545.38,-164.98C531.14,-156.69 509.25,-143.94 492.55,-134.22"/>
<polygon fill="#63b8ff" stroke="#63b8ff" points="494.29,-131.18 483.89,-129.17 490.77,-137.23 494.29,-131.18"/>
</a>
</g>
</g>
<!-- Node31&#45;&gt;Node23 -->
<g id="edge71_Node000031_Node000023" class="edge">
<title>Node31&#45;&gt;Node23</title>
<g id="a_edge71_Node000031_Node000023"><a xlink:title=" ">
<path fill="none" stroke="#63b8ff" d="M559.26,-164.66C557.81,-147.17 554.53,-107.8 552.56,-84.27"/>
<polygon fill="#63b8ff" stroke="#63b8ff" points="556.04,-83.83 551.72,-74.16 549.06,-84.41 556.04,-83.83"/>
</a>
</g>
</g>
<!-- Node31&#45;&gt;Node24 -->
<g id="edge72_Node000031_Node000024" class="edge">
<title>Node31&#45;&gt;Node24</title>
<g id="a_edge72_Node000031_Node000024"><a xlink:title=" ">
<path fill="none" stroke="#63b8ff" d="M522.97,-171.23C491.25,-167.34 446.47,-156.89 419,-129 407.28,-117.1 402.74,-98.27 401.01,-84.2"/>
<polygon fill="#63b8ff" stroke="#63b8ff" points="404.49,-83.82 400.14,-74.16 397.51,-84.43 404.49,-83.82"/>
</a>
</g>
</g>
<!-- Node31&#45;&gt;Node30 -->
<g id="edge74_Node000031_Node000030" class="edge">
<title>Node31&#45;&gt;Node30</title>
<g id="a_edge74_Node000031_Node000030"><a xlink:title=" ">
<path fill="none" stroke="#63b8ff" d="M522.73,-166.07C475.95,-156.75 395.55,-140.73 343.61,-130.38"/>
<polygon fill="#63b8ff" stroke="#63b8ff" points="344.11,-126.91 333.61,-128.39 342.74,-133.78 344.11,-126.91"/>
</a>
</g>
</g>
</g>
</svg>

<g id="navigator" transform="translate(0 0)" fill="#404254">
  <rect fill="#f2f5e9" fill-opacity="0.5" stroke="#606060" stroke-width=".5" x="0" y="0" width="60" height="60"/>
  <use id="zoomplus" xlink:href="#zoomPlus" x="17" y="9" onmousedown="handleZoom(evt,'in')"/>
  <use id="zoomminus" xlink:href="#zoomMin" x="42" y="9" onmousedown="handleZoom(evt,'out')"/>
  <use id="reset" xlink:href="#resetDef" x="30" y="36" onmousedown="handleReset()"/>
   <use id="arrowup" xlink:href="#arrowUp" x="0" y="0" onmousedown="handlePan(0,-1)"/>
  <use id="arrowright" xlink:href="#arrowRight" x="0" y="0" onmousedown="handlePan(1,0)"/>
  <use id="arrowdown" xlink:href="#arrowDown" x="0" y="0" onmousedown="handlePan(0,1)"/>
  <use id="arrowleft" xlink:href="#arrowLeft" x="0" y="0" onmousedown="handlePan(-1,0)"/>
</g>
<svg viewBox="0 0 15 15" width="100%" height="30px" preserveAspectRatio="xMaxYMin meet">
 <g id="arrow_out" transform="scale(0.3 0.3)">
  <a xlink:href="_s_p_a_d_e_s_8_h__incl_org.svg" target="_base">
   <rect id="button" ry="5" rx="5" y="6" x="6" height="38" width="38"
        fill="#f2f5e9" fill-opacity="0.5" stroke="#606060" stroke-width="1.0"/>
   <path id="arrow"
     d="M 11.500037,31.436501 C 11.940474,20.09759 22.043105,11.32322 32.158766,21.979434 L 37.068811,17.246167 C 37.068811,17.246167 37.088388,32 37.088388,32 L 22.160133,31.978069 C 22.160133,31.978069 26.997745,27.140456 26.997745,27.140456 C 18.528582,18.264221 13.291696,25.230495 11.500037,31.436501 z"
     style="fill:#404040;"/>
  </a>
 </g>
</svg>

<style type='text/css'>
<![CDATA[
[data-mouse-over-selected='false'] { opacity: 0.7; }
[data-mouse-over-selected='true']  { opacity: 1.0; }
]]>
</style>
<script type="application/ecmascript"><![CDATA[
document.addEventListener('DOMContentLoaded', (event) => {
  highlightEdges();
  highlightAdjacentNodes();
});
]]></script>
</svg>
