<?xml version="1.0" encoding="UTF-8" standalone="no"?>
<!DOCTYPE svg PUBLIC "-//W3C//DTD SVG 1.1//EN"
 "http://www.w3.org/Graphics/SVG/1.1/DTD/svg11.dtd">
<!-- Generated by graphviz version 2.43.0 (0)
 -->
<!-- Title: /home/runner/work/spades/spades/Source/SPADES.H Pages: 1 -->
<svg width="2205pt" height="313pt"
 viewBox="0.00 0.00 2204.50 313.00" xmlns="http://www.w3.org/2000/svg" xmlns:xlink="http://www.w3.org/1999/xlink">
<g id="graph0" class="graph" transform="scale(1 1) rotate(0) translate(4 309)">
<title>/home/runner/work/spades/spades/Source/SPADES.H</title>
<!-- Node1 -->
<g id="Node000001" class="node">
<title>Node1</title>
<g id="a_Node000001"><a xlink:title=" ">
<polygon fill="#999999" stroke="#666666" points="833,-305 687,-305 687,-275 833,-275 833,-305"/>
<text text-anchor="start" x="695" y="-293" font-family="Helvetica,sans-Serif" font-size="10.00">/home/runner/work/spades</text>
<text text-anchor="middle" x="760" y="-282" font-family="Helvetica,sans-Serif" font-size="10.00">/spades/Source/SPADES.H</text>
</a>
</g>
</g>
<!-- Node2 -->
<g id="Node000002" class="node">
<title>Node2</title>
<g id="a_Node000002"><a xlink:title=" ">
<polygon fill="#e0e0e0" stroke="#999999" points="946,-19 884,-19 884,0 946,0 946,-19"/>
<text text-anchor="middle" x="915" y="-7" font-family="Helvetica,sans-Serif" font-size="10.00">AMReX.H</text>
</a>
</g>
</g>
<!-- Node1&#45;&gt;Node2 -->
<g id="edge1_Node000001_Node000002" class="edge">
<title>Node1&#45;&gt;Node2</title>
<g id="a_edge1_Node000001_Node000002"><a xlink:title=" ">
<path fill="none" stroke="#63b8ff" d="M808.09,-274.89C839.34,-263.1 871.46,-244.31 855,-220 830.85,-184.33 793.4,-216.4 765,-184 727.2,-140.89 725.95,-96.03 766,-55 794.08,-26.24 839.9,-15.88 873.32,-12.25"/>
<polygon fill="#63b8ff" stroke="#63b8ff" points="874.06,-15.69 883.7,-11.29 873.42,-8.72 874.06,-15.69"/>
</a>
</g>
</g>
<!-- Node3 -->
<g id="Node000003" class="node">
<title>Node3</title>
<g id="a_Node000003"><a xlink:title=" ">
<polygon fill="#e0e0e0" stroke="#999999" points="1998,-129 1888,-129 1888,-110 1998,-110 1998,-129"/>
<text text-anchor="middle" x="1943" y="-117" font-family="Helvetica,sans-Serif" font-size="10.00">AMReX_AmrCore.H</text>
</a>
</g>
</g>
<!-- Node1&#45;&gt;Node3 -->
<g id="edge2_Node000001_Node000003" class="edge">
<title>Node1&#45;&gt;Node3</title>
<g id="a_edge2_Node000001_Node000003"><a xlink:title=" ">
<path fill="none" stroke="#63b8ff" d="M833.31,-287.68C1077.85,-282.57 1854.62,-260.42 1934,-184 1945.65,-172.79 1946.98,-153.87 1945.95,-139.59"/>
<polygon fill="#63b8ff" stroke="#63b8ff" points="1949.39,-138.9 1944.77,-129.37 1942.44,-139.71 1949.39,-138.9"/>
</a>
</g>
</g>
<!-- Node4 -->
<g id="Node000004" class="node">
<title>Node4</title>
<g id="a_Node000004"><a xlink:title=" ">
<polygon fill="#e0e0e0" stroke="#999999" points="269.5,-74 160.5,-74 160.5,-55 269.5,-55 269.5,-74"/>
<text text-anchor="middle" x="215" y="-62" font-family="Helvetica,sans-Serif" font-size="10.00">AMReX_MultiFab.H</text>
</a>
</g>
</g>
<!-- Node1&#45;&gt;Node4 -->
<g id="edge3_Node000001_Node000004" class="edge">
<title>Node1&#45;&gt;Node4</title>
<g id="a_edge3_Node000001_Node000004"><a xlink:title=" ">
<path fill="none" stroke="#63b8ff" d="M687,-288.71C527.81,-287.33 160.63,-279.7 123,-239 77.17,-189.43 157.29,-112.73 195.93,-80.54"/>
<polygon fill="#63b8ff" stroke="#63b8ff" points="198.37,-83.06 203.91,-74.03 193.95,-77.64 198.37,-83.06"/>
</a>
</g>
</g>
<!-- Node5 -->
<g id="Node000005" class="node">
<title>Node5</title>
<g id="a_Node000005"><a xlink:title=" ">
<polygon fill="#e0e0e0" stroke="#999999" points="618,-74 492,-74 492,-55 618,-55 618,-74"/>
<text text-anchor="middle" x="555" y="-62" font-family="Helvetica,sans-Serif" font-size="10.00">AMReX_MultiFabUtil.H</text>
</a>
</g>
</g>
<!-- Node1&#45;&gt;Node5 -->
<g id="edge4_Node000001_Node000005" class="edge">
<title>Node1&#45;&gt;Node5</title>
<g id="a_edge4_Node000001_Node000005"><a xlink:title=" ">
<path fill="none" stroke="#63b8ff" d="M796.82,-275C824.77,-262.22 855.76,-242.03 839,-220 802.7,-172.28 763.11,-209.82 709,-184 671.04,-165.89 665.35,-154.62 632,-129 611.36,-113.15 588.44,-94.04 573.01,-80.95"/>
<polygon fill="#63b8ff" stroke="#63b8ff" points="575.16,-78.18 565.28,-74.36 570.62,-83.51 575.16,-78.18"/>
</a>
</g>
</g>
<!-- Node6 -->
<g id="Node000006" class="node">
<title>Node6</title>
<g id="a_Node000006"><a xlink:title=" ">
<polygon fill="#e0e0e0" stroke="#999999" points="254,-239 142,-239 142,-220 254,-220 254,-239"/>
<text text-anchor="middle" x="198" y="-227" font-family="Helvetica,sans-Serif" font-size="10.00">AMReX_iMultiFab.H</text>
</a>
</g>
</g>
<!-- Node1&#45;&gt;Node6 -->
<g id="edge5_Node000001_Node000006" class="edge">
<title>Node1&#45;&gt;Node6</title>
<g id="a_edge5_Node000001_Node000006"><a xlink:title=" ">
<path fill="none" stroke="#63b8ff" d="M686.6,-281.99C590.41,-272.71 416.47,-255.56 268,-239 266.73,-238.86 265.46,-238.72 264.17,-238.57"/>
<polygon fill="#63b8ff" stroke="#63b8ff" points="264.49,-235.08 254.15,-237.42 263.69,-242.04 264.49,-235.08"/>
</a>
</g>
</g>
<!-- Node7 -->
<g id="Node000007" class="node">
<title>Node7</title>
<g id="a_Node000007"><a xlink:title=" ">
<polygon fill="#e0e0e0" stroke="#999999" points="112,-19 20,-19 20,0 112,0 112,-19"/>
<text text-anchor="middle" x="66" y="-7" font-family="Helvetica,sans-Serif" font-size="10.00">AMReX_REAL.H</text>
</a>
</g>
</g>
<!-- Node1&#45;&gt;Node7 -->
<g id="edge6_Node000001_Node000007" class="edge">
<title>Node1&#45;&gt;Node7</title>
<g id="a_edge6_Node000001_Node000007"><a xlink:title=" ">
<path fill="none" stroke="#63b8ff" d="M686.75,-288.49C536.23,-286.65 197.2,-278.14 89,-239 43.31,-222.47 0,-224.09 0,-175.5 0,-175.5 0,-175.5 0,-118.5 0,-89.04 3.56,-80.09 19,-55 25.94,-43.72 36.46,-33.39 45.79,-25.53"/>
<polygon fill="#63b8ff" stroke="#63b8ff" points="48.26,-28.03 53.88,-19.05 43.89,-22.56 48.26,-28.03"/>
</a>
</g>
</g>
<!-- Node8 -->
<g id="Node000008" class="node">
<title>Node8</title>
<g id="a_Node000008"><a xlink:title=" ">
<polygon fill="#e0e0e0" stroke="#999999" points="466.5,-129 347.5,-129 347.5,-110 466.5,-110 466.5,-129"/>
<text text-anchor="middle" x="407" y="-117" font-family="Helvetica,sans-Serif" font-size="10.00">AMReX_ParmParse.H</text>
</a>
</g>
</g>
<!-- Node1&#45;&gt;Node8 -->
<g id="edge7_Node000001_Node000008" class="edge">
<title>Node1&#45;&gt;Node8</title>
<g id="a_edge7_Node000001_Node000008"><a xlink:title=" ">
<path fill="none" stroke="#63b8ff" d="M686.85,-286.29C563.79,-280.97 326.26,-267.16 301,-239 266.8,-200.87 337.86,-155.76 379.56,-133.82"/>
<polygon fill="#63b8ff" stroke="#63b8ff" points="381.41,-136.81 388.71,-129.13 378.22,-130.58 381.41,-136.81"/>
</a>
</g>
</g>
<!-- Node9 -->
<g id="Node000009" class="node">
<title>Node9</title>
<g id="a_Node000009"><a xlink:title=" ">
<polygon fill="#e0e0e0" stroke="#999999" points="548,-239 420,-239 420,-220 548,-220 548,-239"/>
<text text-anchor="middle" x="484" y="-227" font-family="Helvetica,sans-Serif" font-size="10.00">AMReX_FluxRegister.H</text>
</a>
</g>
</g>
<!-- Node1&#45;&gt;Node9 -->
<g id="edge8_Node000001_Node000009" class="edge">
<title>Node1&#45;&gt;Node9</title>
<g id="a_edge8_Node000001_Node000009"><a xlink:title=" ">
<path fill="none" stroke="#63b8ff" d="M693.89,-274.99C644.92,-264.61 579.19,-250.68 534.42,-241.19"/>
<polygon fill="#63b8ff" stroke="#63b8ff" points="534.86,-237.7 524.36,-239.05 533.41,-244.55 534.86,-237.7"/>
</a>
</g>
</g>
<!-- Node10 -->
<g id="Node000010" class="node">
<title>Node10</title>
<g id="a_Node000010"><a xlink:title=" ">
<polygon fill="#e0e0e0" stroke="#999999" points="687.5,-239 566.5,-239 566.5,-220 687.5,-220 687.5,-239"/>
<text text-anchor="middle" x="627" y="-227" font-family="Helvetica,sans-Serif" font-size="10.00">AMReX_PlotFileUtil.H</text>
</a>
</g>
</g>
<!-- Node1&#45;&gt;Node10 -->
<g id="edge9_Node000001_Node000010" class="edge">
<title>Node1&#45;&gt;Node10</title>
<g id="a_edge9_Node000001_Node000010"><a xlink:title=" ">
<path fill="none" stroke="#63b8ff" d="M728.14,-274.99C706.15,-265.31 677.15,-252.56 655.84,-243.18"/>
<polygon fill="#63b8ff" stroke="#63b8ff" points="657.2,-239.96 646.64,-239.14 654.39,-246.37 657.2,-239.96"/>
</a>
</g>
</g>
<!-- Node11 -->
<g id="Node000011" class="node">
<title>Node11</title>
<g id="a_Node000011"><a xlink:title=" ">
<polygon fill="#e0e0e0" stroke="#999999" points="814,-239 706,-239 706,-220 814,-220 814,-239"/>
<text text-anchor="middle" x="760" y="-227" font-family="Helvetica,sans-Serif" font-size="10.00">AMReX_ErrorList.H</text>
</a>
</g>
</g>
<!-- Node1&#45;&gt;Node11 -->
<g id="edge10_Node000001_Node000011" class="edge">
<title>Node1&#45;&gt;Node11</title>
<g id="a_edge10_Node000001_Node000011"><a xlink:title=" ">
<path fill="none" stroke="#63b8ff" d="M760,-274.84C760,-267.21 760,-257.7 760,-249.45"/>
<polygon fill="#63b8ff" stroke="#63b8ff" points="763.5,-249.27 760,-239.27 756.5,-249.27 763.5,-249.27"/>
</a>
</g>
</g>
<!-- Node12 -->
<g id="Node000012" class="node">
<title>Node12</title>
<g id="a_Node000012"><a xlink:title=" ">
<polygon fill="#e0e0e0" stroke="#999999" points="1914,-74 1806,-74 1806,-55 1914,-55 1914,-74"/>
<text text-anchor="middle" x="1860" y="-62" font-family="Helvetica,sans-Serif" font-size="10.00">AMReX_Random.H</text>
</a>
</g>
</g>
<!-- Node1&#45;&gt;Node12 -->
<g id="edge11_Node000001_Node000012" class="edge">
<title>Node1&#45;&gt;Node12</title>
<g id="a_edge11_Node000001_Node000012"><a xlink:title=" ">
<path fill="none" stroke="#63b8ff" d="M833.2,-287.73C1036.06,-283.84 1602.53,-270.41 1786,-239 1870.13,-224.6 1896.9,-228.07 1970,-184 2004.87,-162.98 2048.73,-142.34 2024,-110 2011.58,-93.76 1964.55,-82.07 1924.02,-74.75"/>
<polygon fill="#63b8ff" stroke="#63b8ff" points="1924.61,-71.3 1914.15,-73.03 1923.4,-78.2 1924.61,-71.3"/>
</a>
</g>
</g>
<!-- Node13 -->
<g id="Node000013" class="node">
<title>Node13</title>
<g id="a_Node000013"><a xlink:href="_constants_8_h.html" target="_top" xlink:title=" ">
<polygon fill="white" stroke="#666666" points="104,-74 28,-74 28,-55 104,-55 104,-74"/>
<text text-anchor="middle" x="66" y="-62" font-family="Helvetica,sans-Serif" font-size="10.00">Constants.H</text>
</a>
</g>
</g>
<!-- Node1&#45;&gt;Node13 -->
<g id="edge12_Node000001_Node000013" class="edge">
<title>Node1&#45;&gt;Node13</title>
<g id="a_edge12_Node000001_Node000013"><a xlink:title=" ">
<path fill="none" stroke="#63b8ff" d="M686.86,-288.16C525.8,-285.63 151.29,-275.83 108,-239 62.2,-200.04 61.7,-120.49 64.14,-84.24"/>
<polygon fill="#63b8ff" stroke="#63b8ff" points="67.64,-84.36 64.98,-74.1 60.67,-83.78 67.64,-84.36"/>
</a>
</g>
</g>
<!-- Node14 -->
<g id="Node000014" class="node">
<title>Node14</title>
<g id="a_Node000014"><a xlink:href="_i_c_8_h.html" target="_top" xlink:title=" ">
<polygon fill="white" stroke="#666666" points="253.5,-184 216.5,-184 216.5,-165 253.5,-165 253.5,-184"/>
<text text-anchor="middle" x="235" y="-172" font-family="Helvetica,sans-Serif" font-size="10.00">IC.H</text>
</a>
</g>
</g>
<!-- Node1&#45;&gt;Node14 -->
<g id="edge14_Node000001_Node000014" class="edge">
<title>Node1&#45;&gt;Node14</title>
<g id="a_edge14_Node000001_Node000014"><a xlink:title=" ">
<path fill="none" stroke="#63b8ff" d="M686.96,-288.61C529.64,-287.02 169.93,-278.99 133,-239 107.65,-211.54 167.73,-191.42 206.09,-181.81"/>
<polygon fill="#63b8ff" stroke="#63b8ff" points="207.34,-185.11 216.25,-179.38 205.71,-178.3 207.34,-185.11"/>
</a>
</g>
</g>
<!-- Node16 -->
<g id="Node000016" class="node">
<title>Node16</title>
<g id="a_Node000016"><a xlink:href="_utilities_8_h.html" target="_top" xlink:title=" ">
<polygon fill="white" stroke="#666666" points="573.5,-129 508.5,-129 508.5,-110 573.5,-110 573.5,-129"/>
<text text-anchor="middle" x="541" y="-117" font-family="Helvetica,sans-Serif" font-size="10.00">Utilities.H</text>
</a>
</g>
</g>
<!-- Node1&#45;&gt;Node16 -->
<g id="edge27_Node000001_Node000016" class="edge">
<title>Node1&#45;&gt;Node16</title>
<g id="a_edge27_Node000001_Node000016"><a xlink:title=" ">
<path fill="none" stroke="#63b8ff" d="M787.95,-274.97C811.75,-261.2 839.65,-239.48 823,-220 756.36,-142.01 684.47,-234.2 595,-184 575.74,-173.2 560.26,-152.71 550.89,-137.93"/>
<polygon fill="#63b8ff" stroke="#63b8ff" points="553.79,-135.96 545.64,-129.19 547.79,-139.57 553.79,-135.96"/>
</a>
</g>
</g>
<!-- Node17 -->
<g id="Node000017" class="node">
<title>Node17</title>
<g id="a_Node000017"><a xlink:href="_spades_particle_container_8_h.html" target="_top" xlink:title=" ">
<polygon fill="white" stroke="#666666" points="1475.5,-184 1330.5,-184 1330.5,-165 1475.5,-165 1475.5,-184"/>
<text text-anchor="middle" x="1403" y="-172" font-family="Helvetica,sans-Serif" font-size="10.00">SpadesParticleContainer.H</text>
</a>
</g>
</g>
<!-- Node1&#45;&gt;Node17 -->
<g id="edge28_Node000001_Node000017" class="edge">
<title>Node1&#45;&gt;Node17</title>
<g id="a_edge28_Node000001_Node000017"><a xlink:title=" ">
<path fill="none" stroke="#63b8ff" d="M833.05,-287.49C987.66,-283.68 1337.37,-271.53 1380,-239 1393.82,-228.46 1399.34,-208.84 1401.55,-194.18"/>
<polygon fill="#63b8ff" stroke="#63b8ff" points="1405.03,-194.51 1402.67,-184.18 1398.08,-193.73 1405.03,-194.51"/>
</a>
</g>
</g>
<!-- Node26 -->
<g id="Node000026" class="node">
<title>Node26</title>
<g id="a_Node000026"><a xlink:href="_message_particle_container_8_h.html" target="_top" xlink:title=" ">
<polygon fill="white" stroke="#666666" points="1163.5,-239 1010.5,-239 1010.5,-220 1163.5,-220 1163.5,-239"/>
<text text-anchor="middle" x="1087" y="-227" font-family="Helvetica,sans-Serif" font-size="10.00">MessageParticleContainer.H</text>
</a>
</g>
</g>
<!-- Node1&#45;&gt;Node26 -->
<g id="edge44_Node000001_Node000026" class="edge">
<title>Node1&#45;&gt;Node26</title>
<g id="a_edge44_Node000001_Node000026"><a xlink:title=" ">
<path fill="none" stroke="#63b8ff" d="M833.39,-275.87C892.59,-265.28 974.73,-250.59 1029.3,-240.82"/>
<polygon fill="#63b8ff" stroke="#63b8ff" points="1029.93,-244.27 1039.16,-239.06 1028.7,-237.37 1029.93,-244.27"/>
</a>
</g>
</g>
<!-- Node29 -->
<g id="Node000029" class="node">
<title>Node29</title>
<g id="a_Node000029"><a xlink:href="_entity_particle_container_8_h.html" target="_top" xlink:title=" ">
<polygon fill="white" stroke="#666666" points="1371,-239 1233,-239 1233,-220 1371,-220 1371,-239"/>
<text text-anchor="middle" x="1302" y="-227" font-family="Helvetica,sans-Serif" font-size="10.00">EntityParticleContainer.H</text>
</a>
</g>
</g>
<!-- Node1&#45;&gt;Node29 -->
<g id="edge60_Node000001_Node000029" class="edge">
<title>Node1&#45;&gt;Node29</title>
<g id="a_edge60_Node000001_Node000029"><a xlink:title=" ">
<path fill="none" stroke="#63b8ff" d="M833.1,-281.11C934.61,-270.15 1117.57,-250.41 1222.42,-239.09"/>
<polygon fill="#63b8ff" stroke="#63b8ff" points="1223.06,-242.54 1232.63,-237.99 1222.31,-235.58 1223.06,-242.54"/>
</a>
</g>
</g>
<!-- Node32 -->
<g id="Node000032" class="node">
<title>Node32</title>
<g id="a_Node000032"><a xlink:href="_phold_8_h.html" target="_top" xlink:title=" ">
<polygon fill="white" stroke="#666666" points="402,-239 310,-239 310,-220 402,-220 402,-239"/>
<text text-anchor="middle" x="356" y="-227" font-family="Helvetica,sans-Serif" font-size="10.00">Models/Phold.H</text>
</a>
</g>
</g>
<!-- Node1&#45;&gt;Node32 -->
<g id="edge76_Node000001_Node000032" class="edge">
<title>Node1&#45;&gt;Node32</title>
<g id="a_edge76_Node000001_Node000032"><a xlink:title=" ">
<path fill="none" stroke="#63b8ff" d="M686.77,-278.75C618.41,-269.12 513.25,-254.18 412.28,-239.18"/>
<polygon fill="#63b8ff" stroke="#63b8ff" points="412.61,-235.69 402.21,-237.68 411.58,-242.61 412.61,-235.69"/>
</a>
</g>
</g>
<!-- Node34 -->
<g id="Node000034" class="node">
<title>Node34</title>
<g id="a_Node000034"><a xlink:title=" ">
<polygon fill="#e0e0e0" stroke="#999999" points="2196.5,-239 2123.5,-239 2123.5,-220 2196.5,-220 2196.5,-239"/>
<text text-anchor="middle" x="2160" y="-227" font-family="Helvetica,sans-Serif" font-size="10.00">SPADES.tpp</text>
</a>
</g>
</g>
<!-- Node1&#45;&gt;Node34 -->
<g id="edge84_Node000001_Node000034" class="edge">
<title>Node1&#45;&gt;Node34</title>
<g id="a_edge84_Node000001_Node000034"><a xlink:title=" ">
<path fill="none" stroke="#63b8ff" d="M833.34,-289.57C1036.58,-290.46 1624.02,-288.2 2109,-239 2110.31,-238.87 2111.63,-238.72 2112.96,-238.57"/>
<polygon fill="#63b8ff" stroke="#63b8ff" points="2113.85,-241.98 2123.3,-237.19 2112.93,-235.04 2113.85,-241.98"/>
</a>
</g>
</g>
<!-- Node13&#45;&gt;Node7 -->
<g id="edge13_Node000013_Node000007" class="edge">
<title>Node13&#45;&gt;Node7</title>
<g id="a_edge13_Node000013_Node000007"><a xlink:title=" ">
<path fill="none" stroke="#63b8ff" d="M66,-54.75C66,-47.8 66,-37.85 66,-29.13"/>
<polygon fill="#63b8ff" stroke="#63b8ff" points="69.5,-29.09 66,-19.09 62.5,-29.09 69.5,-29.09"/>
</a>
</g>
</g>
<!-- Node14&#45;&gt;Node2 -->
<g id="edge15_Node000014_Node000002" class="edge">
<title>Node14&#45;&gt;Node2</title>
<g id="a_edge15_Node000014_Node000002"><a xlink:title=" ">
<path fill="none" stroke="#63b8ff" d="M237.92,-164.97C246.18,-142.33 272.05,-80.73 317,-55 365.06,-27.49 746.31,-14.97 873.71,-11.52"/>
<polygon fill="#63b8ff" stroke="#63b8ff" points="873.94,-15.02 883.84,-11.26 873.75,-8.02 873.94,-15.02"/>
</a>
</g>
</g>
<!-- Node14&#45;&gt;Node4 -->
<g id="edge19_Node000014_Node000004" class="edge">
<title>Node14&#45;&gt;Node4</title>
<g id="a_edge19_Node000014_Node000004"><a xlink:title=" ">
<path fill="none" stroke="#63b8ff" d="M233.36,-164.66C230.12,-147.17 222.83,-107.8 218.48,-84.27"/>
<polygon fill="#63b8ff" stroke="#63b8ff" points="221.87,-83.35 216.6,-74.16 214.98,-84.63 221.87,-83.35"/>
</a>
</g>
</g>
<!-- Node14&#45;&gt;Node7 -->
<g id="edge16_Node000014_Node000007" class="edge">
<title>Node14&#45;&gt;Node7</title>
<g id="a_edge16_Node000014_Node000007"><a xlink:title=" ">
<path fill="none" stroke="#63b8ff" d="M226.16,-164.84C206.11,-145.21 155.62,-95.87 113,-55 103.06,-45.47 91.88,-34.87 82.91,-26.41"/>
<polygon fill="#63b8ff" stroke="#63b8ff" points="85.07,-23.64 75.4,-19.33 80.27,-28.74 85.07,-23.64"/>
</a>
</g>
</g>
<!-- Node14&#45;&gt;Node8 -->
<g id="edge18_Node000014_Node000008" class="edge">
<title>Node14&#45;&gt;Node8</title>
<g id="a_edge18_Node000014_Node000008"><a xlink:title=" ">
<path fill="none" stroke="#63b8ff" d="M253.73,-167.73C281.43,-159.19 333.87,-143.03 369.62,-132.02"/>
<polygon fill="#63b8ff" stroke="#63b8ff" points="370.7,-135.35 379.22,-129.06 368.64,-128.66 370.7,-135.35"/>
</a>
</g>
</g>
<!-- Node15 -->
<g id="Node000015" class="node">
<title>Node15</title>
<g id="a_Node000015"><a xlink:title=" ">
<polygon fill="#e0e0e0" stroke="#999999" points="436,-74 326,-74 326,-55 436,-55 436,-74"/>
<text text-anchor="middle" x="381" y="-62" font-family="Helvetica,sans-Serif" font-size="10.00">AMReX_RealVect.H</text>
</a>
</g>
</g>
<!-- Node14&#45;&gt;Node15 -->
<g id="edge17_Node000014_Node000015" class="edge">
<title>Node14&#45;&gt;Node15</title>
<g id="a_edge17_Node000014_Node000015"><a xlink:title=" ">
<path fill="none" stroke="#63b8ff" d="M246.7,-164.84C271.58,-146.44 329.99,-103.23 360.94,-80.34"/>
<polygon fill="#63b8ff" stroke="#63b8ff" points="363.29,-82.96 369.24,-74.2 359.12,-77.33 363.29,-82.96"/>
</a>
</g>
</g>
<!-- Node14&#45;&gt;Node16 -->
<g id="edge20_Node000014_Node000016" class="edge">
<title>Node14&#45;&gt;Node16</title>
<g id="a_edge20_Node000014_Node000016"><a xlink:title=" ">
<path fill="none" stroke="#63b8ff" d="M253.68,-170.26C301.82,-161.93 431.03,-139.55 498.56,-127.85"/>
<polygon fill="#63b8ff" stroke="#63b8ff" points="499.2,-131.29 508.45,-126.14 498,-124.4 499.2,-131.29"/>
</a>
</g>
</g>
<!-- Node16&#45;&gt;Node2 -->
<g id="edge21_Node000016_Node000002" class="edge">
<title>Node16&#45;&gt;Node2</title>
<g id="a_edge21_Node000016_Node000002"><a xlink:title=" ">
<path fill="none" stroke="#63b8ff" d="M523.17,-109.9C500.19,-97.72 465.2,-74.73 483,-55 508.91,-26.28 770.85,-15.01 873.78,-11.67"/>
<polygon fill="#63b8ff" stroke="#63b8ff" points="873.92,-15.17 883.81,-11.35 873.7,-8.17 873.92,-15.17"/>
</a>
</g>
</g>
<!-- Node16&#45;&gt;Node4 -->
<g id="edge23_Node000016_Node000004" class="edge">
<title>Node16&#45;&gt;Node4</title>
<g id="a_edge23_Node000016_Node000004"><a xlink:title=" ">
<path fill="none" stroke="#63b8ff" d="M508.25,-113.18C454.5,-104.44 346.67,-86.91 277.81,-75.71"/>
<polygon fill="#63b8ff" stroke="#63b8ff" points="277.96,-72.19 267.52,-74.04 276.83,-79.1 277.96,-72.19"/>
</a>
</g>
</g>
<!-- Node16&#45;&gt;Node5 -->
<g id="edge24_Node000016_Node000005" class="edge">
<title>Node16&#45;&gt;Node5</title>
<g id="a_edge24_Node000016_Node000005"><a xlink:title=" ">
<path fill="none" stroke="#63b8ff" d="M543.31,-109.75C545.17,-102.72 547.84,-92.62 550.15,-83.84"/>
<polygon fill="#63b8ff" stroke="#63b8ff" points="553.56,-84.65 552.73,-74.09 546.79,-82.86 553.56,-84.65"/>
</a>
</g>
</g>
<!-- Node16&#45;&gt;Node12 -->
<g id="edge25_Node000016_Node000012" class="edge">
<title>Node16&#45;&gt;Node12</title>
<g id="a_edge25_Node000016_Node000012"><a xlink:title=" ">
<path fill="none" stroke="#63b8ff" d="M573.6,-117.19C746.77,-110.23 1559.7,-77.57 1795.65,-68.09"/>
<polygon fill="#63b8ff" stroke="#63b8ff" points="1795.93,-71.58 1805.78,-67.68 1795.65,-64.58 1795.93,-71.58"/>
</a>
</g>
</g>
<!-- Node16&#45;&gt;Node13 -->
<g id="edge26_Node000016_Node000013" class="edge">
<title>Node16&#45;&gt;Node13</title>
<g id="a_edge26_Node000016_Node000013"><a xlink:title=" ">
<path fill="none" stroke="#63b8ff" d="M508.28,-114.08C497.96,-112.72 486.51,-111.26 476,-110 345.47,-94.38 191.26,-78.28 114.49,-70.42"/>
<polygon fill="#63b8ff" stroke="#63b8ff" points="114.49,-66.9 104.19,-69.36 113.78,-73.86 114.49,-66.9"/>
</a>
</g>
</g>
<!-- Node16&#45;&gt;Node15 -->
<g id="edge22_Node000016_Node000015" class="edge">
<title>Node16&#45;&gt;Node15</title>
<g id="a_edge22_Node000016_Node000015"><a xlink:title=" ">
<path fill="none" stroke="#63b8ff" d="M515.29,-109.98C488.55,-101.13 446.47,-87.19 416.55,-77.28"/>
<polygon fill="#63b8ff" stroke="#63b8ff" points="417.5,-73.9 406.91,-74.08 415.3,-80.55 417.5,-73.9"/>
</a>
</g>
</g>
<!-- Node17&#45;&gt;Node2 -->
<g id="edge29_Node000017_Node000002" class="edge">
<title>Node17&#45;&gt;Node2</title>
<g id="a_edge29_Node000017_Node000002"><a xlink:title=" ">
<path fill="none" stroke="#63b8ff" d="M1402.73,-164.96C1401.86,-151.59 1398.29,-125.62 1384,-110 1339.42,-61.29 1309.87,-71.75 1246,-55 1143.94,-28.24 1019.73,-17.04 956.42,-12.8"/>
<polygon fill="#63b8ff" stroke="#63b8ff" points="956.27,-9.28 946.06,-12.13 955.82,-16.27 956.27,-9.28"/>
</a>
</g>
</g>
<!-- Node17&#45;&gt;Node3 -->
<g id="edge30_Node000017_Node000003" class="edge">
<title>Node17&#45;&gt;Node3</title>
<g id="a_edge30_Node000017_Node000003"><a xlink:title=" ">
<path fill="none" stroke="#63b8ff" d="M1475.55,-166.38C1581.36,-155.99 1776.43,-136.85 1877.88,-126.89"/>
<polygon fill="#63b8ff" stroke="#63b8ff" points="1878.38,-130.36 1887.99,-125.9 1877.7,-123.39 1878.38,-130.36"/>
</a>
</g>
</g>
<!-- Node17&#45;&gt;Node12 -->
<g id="edge33_Node000017_Node000012" class="edge">
<title>Node17&#45;&gt;Node12</title>
<g id="a_edge33_Node000017_Node000012"><a xlink:title=" ">
<path fill="none" stroke="#63b8ff" d="M1475.76,-169.72C1569.72,-164.02 1727.53,-151.43 1781,-129 1806.47,-118.32 1830.4,-96.87 1845.11,-81.87"/>
<polygon fill="#63b8ff" stroke="#63b8ff" points="1847.94,-83.97 1852.28,-74.31 1842.86,-79.15 1847.94,-83.97"/>
</a>
</g>
</g>
<!-- Node17&#45;&gt;Node16 -->
<g id="edge42_Node000017_Node000016" class="edge">
<title>Node17&#45;&gt;Node16</title>
<g id="a_edge42_Node000017_Node000016"><a xlink:title=" ">
<path fill="none" stroke="#63b8ff" d="M1330.25,-169.03C1156.59,-158.35 722.02,-131.63 583.87,-123.14"/>
<polygon fill="#63b8ff" stroke="#63b8ff" points="583.89,-119.63 573.69,-122.51 583.46,-126.62 583.89,-119.63"/>
</a>
</g>
</g>
<!-- Node18 -->
<g id="Node000018" class="node">
<title>Node18</title>
<g id="a_Node000018"><a xlink:title=" ">
<polygon fill="#e0e0e0" stroke="#999999" points="1374.5,-129 1249.5,-129 1249.5,-110 1374.5,-110 1374.5,-129"/>
<text text-anchor="middle" x="1312" y="-117" font-family="Helvetica,sans-Serif" font-size="10.00">AMReX_AmrParGDB.H</text>
</a>
</g>
</g>
<!-- Node17&#45;&gt;Node18 -->
<g id="edge31_Node000017_Node000018" class="edge">
<title>Node17&#45;&gt;Node18</title>
<g id="a_edge31_Node000017_Node000018"><a xlink:title=" ">
<path fill="none" stroke="#63b8ff" d="M1388.38,-164.98C1374.14,-156.69 1352.25,-143.94 1335.55,-134.22"/>
<polygon fill="#63b8ff" stroke="#63b8ff" points="1337.29,-131.18 1326.89,-129.17 1333.77,-137.23 1337.29,-131.18"/>
</a>
</g>
</g>
<!-- Node19 -->
<g id="Node000019" class="node">
<title>Node19</title>
<g id="a_Node000019"><a xlink:title=" ">
<polygon fill="#e0e0e0" stroke="#999999" points="1584.5,-129 1431.5,-129 1431.5,-110 1584.5,-110 1584.5,-129"/>
<text text-anchor="middle" x="1508" y="-117" font-family="Helvetica,sans-Serif" font-size="10.00">AMReX_NeighborParticles.H</text>
</a>
</g>
</g>
<!-- Node17&#45;&gt;Node19 -->
<g id="edge32_Node000017_Node000019" class="edge">
<title>Node17&#45;&gt;Node19</title>
<g id="a_edge32_Node000017_Node000019"><a xlink:title=" ">
<path fill="none" stroke="#63b8ff" d="M1419.87,-164.98C1436.61,-156.54 1462.5,-143.47 1481.89,-133.68"/>
<polygon fill="#63b8ff" stroke="#63b8ff" points="1483.47,-136.8 1490.82,-129.17 1480.32,-130.55 1483.47,-136.8"/>
</a>
</g>
</g>
<!-- Node20 -->
<g id="Node000020" class="node">
<title>Node20</title>
<g id="a_Node000020"><a xlink:href="_particle_data_8_h.html" target="_top" xlink:title=" ">
<polygon fill="white" stroke="#666666" points="1237,-74 1151,-74 1151,-55 1237,-55 1237,-74"/>
<text text-anchor="middle" x="1194" y="-62" font-family="Helvetica,sans-Serif" font-size="10.00">ParticleData.H</text>
</a>
</g>
</g>
<!-- Node17&#45;&gt;Node20 -->
<g id="edge34_Node000017_Node000020" class="edge">
<title>Node17&#45;&gt;Node20</title>
<g id="a_edge34_Node000017_Node000020"><a xlink:title=" ">
<path fill="none" stroke="#63b8ff" d="M1475.61,-171.73C1592.55,-167.56 1805.62,-153.91 1765,-110 1730.29,-72.48 1382.89,-66.52 1247.56,-65.63"/>
<polygon fill="#63b8ff" stroke="#63b8ff" points="1247.45,-62.13 1237.43,-65.57 1247.4,-69.13 1247.45,-62.13"/>
</a>
</g>
</g>
<!-- Node22 -->
<g id="Node000022" class="node">
<title>Node22</title>
<g id="a_Node000022"><a xlink:href="_particle_ops_8_h.html" target="_top" xlink:title=" ">
<polygon fill="white" stroke="#666666" points="1022,-129 940,-129 940,-110 1022,-110 1022,-129"/>
<text text-anchor="middle" x="981" y="-117" font-family="Helvetica,sans-Serif" font-size="10.00">ParticleOps.H</text>
</a>
</g>
</g>
<!-- Node17&#45;&gt;Node22 -->
<g id="edge37_Node000017_Node000022" class="edge">
<title>Node17&#45;&gt;Node22</title>
<g id="a_edge37_Node000017_Node000022"><a xlink:title=" ">
<path fill="none" stroke="#63b8ff" d="M1330.15,-165.86C1257.26,-157.97 1141.66,-144.8 1032.08,-129.09"/>
<polygon fill="#63b8ff" stroke="#63b8ff" points="1032.57,-125.63 1022.18,-127.67 1031.57,-132.56 1032.57,-125.63"/>
</a>
</g>
</g>
<!-- Node25 -->
<g id="Node000025" class="node">
<title>Node25</title>
<g id="a_Node000025"><a xlink:title=" ">
<polygon fill="#e0e0e0" stroke="#999999" points="1755.5,-129 1602.5,-129 1602.5,-110 1755.5,-110 1755.5,-129"/>
<text text-anchor="middle" x="1679" y="-117" font-family="Helvetica,sans-Serif" font-size="10.00">SpadesParticleContainer.tpp</text>
</a>
</g>
</g>
<!-- Node17&#45;&gt;Node25 -->
<g id="edge43_Node000017_Node000025" class="edge">
<title>Node17&#45;&gt;Node25</title>
<g id="a_edge43_Node000017_Node000025"><a xlink:title=" ">
<path fill="none" stroke="#63b8ff" d="M1447.34,-164.98C1495.49,-155.74 1572.42,-140.97 1624.29,-131.01"/>
<polygon fill="#63b8ff" stroke="#63b8ff" points="1625.15,-134.41 1634.31,-129.08 1623.83,-127.53 1625.15,-134.41"/>
</a>
</g>
</g>
<!-- Node20&#45;&gt;Node2 -->
<g id="edge35_Node000020_Node000002" class="edge">
<title>Node20&#45;&gt;Node2</title>
<g id="a_edge35_Node000020_Node000002"><a xlink:title=" ">
<path fill="none" stroke="#63b8ff" d="M1150.71,-55.28C1097.62,-45.19 1008.28,-28.22 956.17,-18.32"/>
<polygon fill="#63b8ff" stroke="#63b8ff" points="956.74,-14.87 946.27,-16.44 955.44,-21.74 956.74,-14.87"/>
</a>
</g>
</g>
<!-- Node21 -->
<g id="Node000021" class="node">
<title>Node21</title>
<g id="a_Node000021"><a xlink:title=" ">
<polygon fill="#e0e0e0" stroke="#999999" points="1243,-19 1145,-19 1145,0 1243,0 1243,-19"/>
<text text-anchor="middle" x="1194" y="-7" font-family="Helvetica,sans-Serif" font-size="10.00">AMReX_SPACE.H</text>
</a>
</g>
</g>
<!-- Node20&#45;&gt;Node21 -->
<g id="edge36_Node000020_Node000021" class="edge">
<title>Node20&#45;&gt;Node21</title>
<g id="a_edge36_Node000020_Node000021"><a xlink:title=" ">
<path fill="none" stroke="#63b8ff" d="M1194,-54.75C1194,-47.8 1194,-37.85 1194,-29.13"/>
<polygon fill="#63b8ff" stroke="#63b8ff" points="1197.5,-29.09 1194,-19.09 1190.5,-29.09 1197.5,-29.09"/>
</a>
</g>
</g>
<!-- Node22&#45;&gt;Node2 -->
<g id="edge38_Node000022_Node000002" class="edge">
<title>Node22&#45;&gt;Node2</title>
<g id="a_edge38_Node000022_Node000002"><a xlink:title=" ">
<path fill="none" stroke="#63b8ff" d="M995.57,-109.82C1013.97,-97.74 1041.66,-75.07 1028,-55 1011.99,-31.49 981.47,-20.4 956.18,-15.17"/>
<polygon fill="#63b8ff" stroke="#63b8ff" points="956.54,-11.68 946.08,-13.32 955.29,-18.56 956.54,-11.68"/>
</a>
</g>
</g>
<!-- Node22&#45;&gt;Node20 -->
<g id="edge41_Node000022_Node000020" class="edge">
<title>Node22&#45;&gt;Node20</title>
<g id="a_edge41_Node000022_Node000020"><a xlink:title=" ">
<path fill="none" stroke="#63b8ff" d="M1015.22,-109.98C1051.76,-100.89 1109.78,-86.46 1149.76,-76.51"/>
<polygon fill="#63b8ff" stroke="#63b8ff" points="1150.65,-79.89 1159.51,-74.08 1148.96,-73.1 1150.65,-79.89"/>
</a>
</g>
</g>
<!-- Node23 -->
<g id="Node000023" class="node">
<title>Node23</title>
<g id="a_Node000023"><a xlink:title=" ">
<polygon fill="#e0e0e0" stroke="#999999" points="1019,-74 919,-74 919,-55 1019,-55 1019,-74"/>
<text text-anchor="middle" x="969" y="-62" font-family="Helvetica,sans-Serif" font-size="10.00">AMReX_Array4.H</text>
</a>
</g>
</g>
<!-- Node22&#45;&gt;Node23 -->
<g id="edge39_Node000022_Node000023" class="edge">
<title>Node22&#45;&gt;Node23</title>
<g id="a_edge39_Node000022_Node000023"><a xlink:title=" ">
<path fill="none" stroke="#63b8ff" d="M979.02,-109.75C977.43,-102.72 975.14,-92.62 973.15,-83.84"/>
<polygon fill="#63b8ff" stroke="#63b8ff" points="976.57,-83.07 970.94,-74.09 969.74,-84.62 976.57,-83.07"/>
</a>
</g>
</g>
<!-- Node24 -->
<g id="Node000024" class="node">
<title>Node24</title>
<g id="a_Node000024"><a xlink:title=" ">
<polygon fill="#e0e0e0" stroke="#999999" points="901,-74 811,-74 811,-55 901,-55 901,-74"/>
<text text-anchor="middle" x="856" y="-62" font-family="Helvetica,sans-Serif" font-size="10.00">AMReX_Print.H</text>
</a>
</g>
</g>
<!-- Node22&#45;&gt;Node24 -->
<g id="edge40_Node000022_Node000024" class="edge">
<title>Node22&#45;&gt;Node24</title>
<g id="a_edge40_Node000022_Node000024"><a xlink:title=" ">
<path fill="none" stroke="#63b8ff" d="M960.92,-109.98C940.63,-101.38 909.04,-87.99 885.83,-78.15"/>
<polygon fill="#63b8ff" stroke="#63b8ff" points="887.02,-74.85 876.45,-74.17 884.29,-81.3 887.02,-74.85"/>
</a>
</g>
</g>
<!-- Node26&#45;&gt;Node2 -->
<g id="edge45_Node000026_Node000002" class="edge">
<title>Node26&#45;&gt;Node2</title>
<g id="a_edge45_Node000026_Node000002"><a xlink:title=" ">
<path fill="none" stroke="#63b8ff" d="M1010.29,-222.43C925.18,-214.9 797.79,-200.96 783,-184 745.31,-140.79 748.5,-101.53 782,-55 802.77,-26.15 843.11,-15.73 873.94,-12.11"/>
<polygon fill="#63b8ff" stroke="#63b8ff" points="874.38,-15.58 883.99,-11.12 873.69,-8.62 874.38,-15.58"/>
</a>
</g>
</g>
<!-- Node26&#45;&gt;Node3 -->
<g id="edge46_Node000026_Node000003" class="edge">
<title>Node26&#45;&gt;Node3</title>
<g id="a_edge46_Node000026_Node000003"><a xlink:title=" ">
<path fill="none" stroke="#63b8ff" d="M1163.8,-223.64C1183.43,-222.43 1204.49,-221.15 1224,-220 1296.21,-215.76 1807.37,-212.14 1874,-184 1897.57,-174.05 1918.2,-152.38 1930.62,-137.14"/>
<polygon fill="#63b8ff" stroke="#63b8ff" points="1933.55,-139.08 1936.95,-129.04 1928.04,-134.77 1933.55,-139.08"/>
</a>
</g>
</g>
<!-- Node26&#45;&gt;Node12 -->
<g id="edge48_Node000026_Node000012" class="edge">
<title>Node26&#45;&gt;Node12</title>
<g id="a_edge48_Node000026_Node000012"><a xlink:title=" ">
<path fill="none" stroke="#63b8ff" d="M1163.56,-221.35C1338.19,-204.57 1755.08,-161.6 1810,-129 1828.23,-118.18 1842.36,-98 1850.88,-83.29"/>
<polygon fill="#63b8ff" stroke="#63b8ff" points="1854.15,-84.61 1855.86,-74.16 1848,-81.26 1854.15,-84.61"/>
</a>
</g>
</g>
<!-- Node26&#45;&gt;Node16 -->
<g id="edge59_Node000026_Node000016" class="edge">
<title>Node26&#45;&gt;Node16</title>
<g id="a_edge59_Node000026_Node000016"><a xlink:title=" ">
<path fill="none" stroke="#63b8ff" d="M1010.33,-228.2C925.69,-226.07 786.16,-217.17 671,-184 630.98,-172.47 588.26,-149.24 563.13,-134.3"/>
<polygon fill="#63b8ff" stroke="#63b8ff" points="564.77,-131.2 554.4,-129.02 561.15,-137.19 564.77,-131.2"/>
</a>
</g>
</g>
<!-- Node26&#45;&gt;Node17 -->
<g id="edge49_Node000026_Node000017" class="edge">
<title>Node26&#45;&gt;Node17</title>
<g id="a_edge49_Node000026_Node000017"><a xlink:title=" ">
<path fill="none" stroke="#63b8ff" d="M1137.77,-219.98C1193.43,-210.65 1282.71,-195.67 1342.1,-185.71"/>
<polygon fill="#63b8ff" stroke="#63b8ff" points="1342.81,-189.14 1352.09,-184.04 1341.65,-182.24 1342.81,-189.14"/>
</a>
</g>
</g>
<!-- Node26&#45;&gt;Node18 -->
<g id="edge47_Node000026_Node000018" class="edge">
<title>Node26&#45;&gt;Node18</title>
<g id="a_edge47_Node000026_Node000018"><a xlink:title=" ">
<path fill="none" stroke="#63b8ff" d="M1105.03,-219.84C1144.46,-200.92 1238.53,-155.77 1285.03,-133.45"/>
<polygon fill="#63b8ff" stroke="#63b8ff" points="1286.69,-136.53 1294.19,-129.05 1283.66,-130.22 1286.69,-136.53"/>
</a>
</g>
</g>
<!-- Node27 -->
<g id="Node000027" class="node">
<title>Node27</title>
<g id="a_Node000027"><a xlink:href="_message_data_8_h.html" target="_top" xlink:title=" ">
<polygon fill="white" stroke="#666666" points="1134,-129 1040,-129 1040,-110 1134,-110 1134,-129"/>
<text text-anchor="middle" x="1087" y="-117" font-family="Helvetica,sans-Serif" font-size="10.00">MessageData.H</text>
</a>
</g>
</g>
<!-- Node26&#45;&gt;Node27 -->
<g id="edge50_Node000026_Node000027" class="edge">
<title>Node26&#45;&gt;Node27</title>
<g id="a_edge50_Node000026_Node000027"><a xlink:title=" ">
<path fill="none" stroke="#63b8ff" d="M1087,-219.66C1087,-202.17 1087,-162.8 1087,-139.27"/>
<polygon fill="#63b8ff" stroke="#63b8ff" points="1090.5,-139.16 1087,-129.16 1083.5,-139.16 1090.5,-139.16"/>
</a>
</g>
</g>
<!-- Node28 -->
<g id="Node000028" class="node">
<title>Node28</title>
<g id="a_Node000028"><a xlink:href="_message_ops_8_h.html" target="_top" xlink:title=" ">
<polygon fill="white" stroke="#666666" points="880.5,-184 791.5,-184 791.5,-165 880.5,-165 880.5,-184"/>
<text text-anchor="middle" x="836" y="-172" font-family="Helvetica,sans-Serif" font-size="10.00">MessageOps.H</text>
</a>
</g>
</g>
<!-- Node26&#45;&gt;Node28 -->
<g id="edge53_Node000026_Node000028" class="edge">
<title>Node26&#45;&gt;Node28</title>
<g id="a_edge53_Node000026_Node000028"><a xlink:title=" ">
<path fill="none" stroke="#63b8ff" d="M1046.67,-219.98C1003.16,-210.8 933.8,-196.15 886.65,-186.19"/>
<polygon fill="#63b8ff" stroke="#63b8ff" points="887.15,-182.72 876.64,-184.08 885.7,-189.57 887.15,-182.72"/>
</a>
</g>
</g>
<!-- Node27&#45;&gt;Node2 -->
<g id="edge51_Node000027_Node000002" class="edge">
<title>Node27&#45;&gt;Node2</title>
<g id="a_edge51_Node000027_Node000002"><a xlink:title=" ">
<path fill="none" stroke="#63b8ff" d="M1083.18,-109.8C1076.78,-96.2 1062.65,-69.93 1043,-55 1017.42,-35.56 982.71,-24.2 955.89,-17.83"/>
<polygon fill="#63b8ff" stroke="#63b8ff" points="956.55,-14.39 946.03,-15.63 955.02,-21.22 956.55,-14.39"/>
</a>
</g>
</g>
<!-- Node27&#45;&gt;Node20 -->
<g id="edge52_Node000027_Node000020" class="edge">
<title>Node27&#45;&gt;Node20</title>
<g id="a_edge52_Node000027_Node000020"><a xlink:title=" ">
<path fill="none" stroke="#63b8ff" d="M1104.19,-109.98C1121.25,-101.54 1147.63,-88.47 1167.4,-78.68"/>
<polygon fill="#63b8ff" stroke="#63b8ff" points="1169.09,-81.75 1176.5,-74.17 1165.98,-75.47 1169.09,-81.75"/>
</a>
</g>
</g>
<!-- Node28&#45;&gt;Node2 -->
<g id="edge54_Node000028_Node000002" class="edge">
<title>Node28&#45;&gt;Node2</title>
<g id="a_edge54_Node000028_Node000002"><a xlink:title=" ">
<path fill="none" stroke="#63b8ff" d="M827.81,-164.73C809.51,-144.03 768.77,-91.16 794,-55 811.83,-29.45 846.05,-18.52 873.56,-13.88"/>
<polygon fill="#63b8ff" stroke="#63b8ff" points="874.34,-17.3 883.73,-12.39 873.33,-10.38 874.34,-17.3"/>
</a>
</g>
</g>
<!-- Node28&#45;&gt;Node22 -->
<g id="edge58_Node000028_Node000022" class="edge">
<title>Node28&#45;&gt;Node22</title>
<g id="a_edge58_Node000028_Node000022"><a xlink:title=" ">
<path fill="none" stroke="#63b8ff" d="M859.3,-164.98C883.25,-156.23 920.78,-142.51 947.83,-132.62"/>
<polygon fill="#63b8ff" stroke="#63b8ff" points="949.09,-135.89 957.28,-129.17 946.69,-129.32 949.09,-135.89"/>
</a>
</g>
</g>
<!-- Node28&#45;&gt;Node23 -->
<g id="edge55_Node000028_Node000023" class="edge">
<title>Node28&#45;&gt;Node23</title>
<g id="a_edge55_Node000028_Node000023"><a xlink:title=" ">
<path fill="none" stroke="#63b8ff" d="M846.88,-164.66C869.6,-146.22 922.27,-103.45 950.44,-80.57"/>
<polygon fill="#63b8ff" stroke="#63b8ff" points="952.78,-83.18 958.34,-74.16 948.37,-77.75 952.78,-83.18"/>
</a>
</g>
</g>
<!-- Node28&#45;&gt;Node24 -->
<g id="edge56_Node000028_Node000024" class="edge">
<title>Node28&#45;&gt;Node24</title>
<g id="a_edge56_Node000028_Node000024"><a xlink:title=" ">
<path fill="none" stroke="#63b8ff" d="M831.1,-164.71C824.84,-152.3 815.56,-129.03 822,-110 825.56,-99.47 832.72,-89.48 839.55,-81.63"/>
<polygon fill="#63b8ff" stroke="#63b8ff" points="842.13,-84.01 846.39,-74.31 837.01,-79.23 842.13,-84.01"/>
</a>
</g>
</g>
<!-- Node28&#45;&gt;Node27 -->
<g id="edge57_Node000028_Node000027" class="edge">
<title>Node28&#45;&gt;Node27</title>
<g id="a_edge57_Node000028_Node000027"><a xlink:title=" ">
<path fill="none" stroke="#63b8ff" d="M876.33,-164.98C919.84,-155.8 989.2,-141.15 1036.35,-131.19"/>
<polygon fill="#63b8ff" stroke="#63b8ff" points="1037.3,-134.57 1046.36,-129.08 1035.85,-127.72 1037.3,-134.57"/>
</a>
</g>
</g>
<!-- Node29&#45;&gt;Node2 -->
<g id="edge61_Node000029_Node000002" class="edge">
<title>Node29&#45;&gt;Node2</title>
<g id="a_edge61_Node000029_Node000002"><a xlink:title=" ">
<path fill="none" stroke="#63b8ff" d="M1371.21,-226.67C1531.11,-222.06 1916.63,-208.51 1970,-184 2007,-167.01 2044.8,-145 2024,-110 1997.89,-66.06 1972.24,-68.7 1923,-55 1899.33,-48.41 1142.69,-19.18 956.22,-12.07"/>
<polygon fill="#63b8ff" stroke="#63b8ff" points="956.14,-8.56 946.01,-11.68 955.87,-15.56 956.14,-8.56"/>
</a>
</g>
</g>
<!-- Node29&#45;&gt;Node3 -->
<g id="edge62_Node000029_Node000003" class="edge">
<title>Node29&#45;&gt;Node3</title>
<g id="a_edge62_Node000029_Node000003"><a xlink:title=" ">
<path fill="none" stroke="#63b8ff" d="M1371.05,-227.3C1521.31,-224.15 1868.08,-213.71 1912,-184 1927.06,-173.81 1935.07,-154.14 1939.15,-139.37"/>
<polygon fill="#63b8ff" stroke="#63b8ff" points="1942.64,-139.82 1941.55,-129.28 1935.83,-138.2 1942.64,-139.82"/>
</a>
</g>
</g>
<!-- Node29&#45;&gt;Node12 -->
<g id="edge64_Node000029_Node000012" class="edge">
<title>Node29&#45;&gt;Node12</title>
<g id="a_edge64_Node000029_Node000012"><a xlink:title=" ">
<path fill="none" stroke="#63b8ff" d="M1371.06,-228.55C1512.97,-227.85 1832.52,-221.96 1934,-184 1977.27,-167.81 2034.53,-147.1 2007,-110 1987.94,-84.32 1954.47,-72.93 1924.28,-68.08"/>
<polygon fill="#63b8ff" stroke="#63b8ff" points="1924.58,-64.59 1914.19,-66.68 1923.62,-71.53 1924.58,-64.59"/>
</a>
</g>
</g>
<!-- Node29&#45;&gt;Node16 -->
<g id="edge75_Node000029_Node000016" class="edge">
<title>Node29&#45;&gt;Node16</title>
<g id="a_edge75_Node000029_Node000016"><a xlink:title=" ">
<path fill="none" stroke="#63b8ff" d="M1232.7,-224.04C1111.9,-216.01 867.55,-198.61 783,-184 708.83,-171.19 624.19,-146.62 577.24,-132.09"/>
<polygon fill="#63b8ff" stroke="#63b8ff" points="578.12,-128.7 567.53,-129.06 576.03,-135.38 578.12,-128.7"/>
</a>
</g>
</g>
<!-- Node29&#45;&gt;Node17 -->
<g id="edge65_Node000029_Node000017" class="edge">
<title>Node29&#45;&gt;Node17</title>
<g id="a_edge65_Node000029_Node000017"><a xlink:title=" ">
<path fill="none" stroke="#63b8ff" d="M1318.23,-219.98C1334.18,-211.61 1358.78,-198.7 1377.38,-188.95"/>
<polygon fill="#63b8ff" stroke="#63b8ff" points="1379.25,-191.92 1386.48,-184.17 1376,-185.72 1379.25,-191.92"/>
</a>
</g>
</g>
<!-- Node29&#45;&gt;Node18 -->
<g id="edge63_Node000029_Node000018" class="edge">
<title>Node29&#45;&gt;Node18</title>
<g id="a_edge63_Node000029_Node000018"><a xlink:title=" ">
<path fill="none" stroke="#63b8ff" d="M1302.82,-219.66C1304.44,-202.17 1308.08,-162.8 1310.26,-139.27"/>
<polygon fill="#63b8ff" stroke="#63b8ff" points="1313.76,-139.44 1311.2,-129.16 1306.79,-138.79 1313.76,-139.44"/>
</a>
</g>
</g>
<!-- Node30 -->
<g id="Node000030" class="node">
<title>Node30</title>
<g id="a_Node000030"><a xlink:href="_entity_data_8_h.html" target="_top" xlink:title=" ">
<polygon fill="white" stroke="#666666" points="1231.5,-129 1152.5,-129 1152.5,-110 1231.5,-110 1231.5,-129"/>
<text text-anchor="middle" x="1192" y="-117" font-family="Helvetica,sans-Serif" font-size="10.00">EntityData.H</text>
</a>
</g>
</g>
<!-- Node29&#45;&gt;Node30 -->
<g id="edge66_Node000029_Node000030" class="edge">
<title>Node29&#45;&gt;Node30</title>
<g id="a_edge66_Node000029_Node000030"><a xlink:title=" ">
<path fill="none" stroke="#63b8ff" d="M1293,-219.66C1274.37,-201.38 1231.4,-159.18 1207.96,-136.17"/>
<polygon fill="#63b8ff" stroke="#63b8ff" points="1210.41,-133.67 1200.82,-129.16 1205.5,-138.66 1210.41,-133.67"/>
</a>
</g>
</g>
<!-- Node31 -->
<g id="Node000031" class="node">
<title>Node31</title>
<g id="a_Node000031"><a xlink:href="_entity_ops_8_h.html" target="_top" xlink:title=" ">
<polygon fill="white" stroke="#666666" points="975,-184 901,-184 901,-165 975,-165 975,-184"/>
<text text-anchor="middle" x="938" y="-172" font-family="Helvetica,sans-Serif" font-size="10.00">EntityOps.H</text>
</a>
</g>
</g>
<!-- Node29&#45;&gt;Node31 -->
<g id="edge69_Node000029_Node000031" class="edge">
<title>Node29&#45;&gt;Node31</title>
<g id="a_edge69_Node000029_Node000031"><a xlink:title=" ">
<path fill="none" stroke="#63b8ff" d="M1243.52,-219.98C1171.79,-209.54 1051.6,-192.04 985.37,-182.4"/>
<polygon fill="#63b8ff" stroke="#63b8ff" points="985.62,-178.9 975.22,-180.92 984.61,-185.82 985.62,-178.9"/>
</a>
</g>
</g>
<!-- Node30&#45;&gt;Node2 -->
<g id="edge67_Node000030_Node000002" class="edge">
<title>Node30&#45;&gt;Node2</title>
<g id="a_edge67_Node000030_Node000002"><a xlink:title=" ">
<path fill="none" stroke="#63b8ff" d="M1177.14,-110C1153.83,-96.9 1106.96,-71.57 1065,-55 1029.02,-40.8 986.66,-28.62 956.14,-20.62"/>
<polygon fill="#63b8ff" stroke="#63b8ff" points="956.83,-17.18 946.27,-18.07 955.08,-23.96 956.83,-17.18"/>
</a>
</g>
</g>
<!-- Node30&#45;&gt;Node20 -->
<g id="edge68_Node000030_Node000020" class="edge">
<title>Node30&#45;&gt;Node20</title>
<g id="a_edge68_Node000030_Node000020"><a xlink:title=" ">
<path fill="none" stroke="#63b8ff" d="M1192.33,-109.75C1192.59,-102.8 1192.97,-92.85 1193.3,-84.13"/>
<polygon fill="#63b8ff" stroke="#63b8ff" points="1196.8,-84.21 1193.68,-74.09 1189.8,-83.95 1196.8,-84.21"/>
</a>
</g>
</g>
<!-- Node31&#45;&gt;Node2 -->
<g id="edge70_Node000031_Node000002" class="edge">
<title>Node31&#45;&gt;Node2</title>
<g id="a_edge70_Node000031_Node000002"><a xlink:title=" ">
<path fill="none" stroke="#63b8ff" d="M915.73,-164.93C883.71,-151.24 825.9,-121.09 802,-74 785.5,-41.49 835.15,-24.69 873.83,-16.74"/>
<polygon fill="#63b8ff" stroke="#63b8ff" points="874.71,-20.14 883.88,-14.82 873.4,-13.26 874.71,-20.14"/>
</a>
</g>
</g>
<!-- Node31&#45;&gt;Node22 -->
<g id="edge73_Node000031_Node000022" class="edge">
<title>Node31&#45;&gt;Node22</title>
<g id="a_edge73_Node000031_Node000022"><a xlink:title=" ">
<path fill="none" stroke="#63b8ff" d="M945.1,-164.75C951.17,-157.26 960.09,-146.28 967.51,-137.13"/>
<polygon fill="#63b8ff" stroke="#63b8ff" points="970.45,-139.06 974.03,-129.09 965.01,-134.65 970.45,-139.06"/>
</a>
</g>
</g>
<!-- Node31&#45;&gt;Node23 -->
<g id="edge71_Node000031_Node000023" class="edge">
<title>Node31&#45;&gt;Node23</title>
<g id="a_edge71_Node000031_Node000023"><a xlink:title=" ">
<path fill="none" stroke="#63b8ff" d="M934.69,-164.99C930.36,-152.51 924.09,-128.73 931,-110 935.06,-98.99 943.19,-88.86 950.9,-81.05"/>
<polygon fill="#63b8ff" stroke="#63b8ff" points="953.42,-83.48 958.29,-74.07 948.61,-78.39 953.42,-83.48"/>
</a>
</g>
</g>
<!-- Node31&#45;&gt;Node24 -->
<g id="edge72_Node000031_Node000024" class="edge">
<title>Node31&#45;&gt;Node24</title>
<g id="a_edge72_Node000031_Node000024"><a xlink:title=" ">
<path fill="none" stroke="#63b8ff" d="M931.29,-164.66C917.65,-146.69 886.48,-105.64 868.82,-82.38"/>
<polygon fill="#63b8ff" stroke="#63b8ff" points="871.41,-80.01 862.57,-74.16 865.83,-84.24 871.41,-80.01"/>
</a>
</g>
</g>
<!-- Node31&#45;&gt;Node30 -->
<g id="edge74_Node000031_Node000030" class="edge">
<title>Node31&#45;&gt;Node30</title>
<g id="a_edge74_Node000031_Node000030"><a xlink:title=" ">
<path fill="none" stroke="#63b8ff" d="M975.21,-165.74C1019.33,-156.53 1093.06,-141.14 1142.11,-130.91"/>
<polygon fill="#63b8ff" stroke="#63b8ff" points="1143.11,-134.28 1152.18,-128.81 1141.68,-127.43 1143.11,-134.28"/>
</a>
</g>
</g>
<!-- Node32&#45;&gt;Node8 -->
<g id="edge77_Node000032_Node000008" class="edge">
<title>Node32&#45;&gt;Node8</title>
<g id="a_edge77_Node000032_Node000008"><a xlink:title=" ">
<path fill="none" stroke="#63b8ff" d="M357.61,-219.95C360.18,-207.43 365.86,-183.59 375,-165 379.87,-155.09 386.9,-145.02 393.13,-136.98"/>
<polygon fill="#63b8ff" stroke="#63b8ff" points="395.9,-139.12 399.44,-129.14 390.44,-134.74 395.9,-139.12"/>
</a>
</g>
</g>
<!-- Node32&#45;&gt;Node13 -->
<g id="edge79_Node000032_Node000013" class="edge">
<title>Node32&#45;&gt;Node13</title>
<g id="a_edge79_Node000032_Node000013"><a xlink:title=" ">
<path fill="none" stroke="#63b8ff" d="M310.45,-219.97C279.94,-213.07 239.55,-201.56 207,-184 155.16,-156.05 104.93,-106.98 80.83,-81.65"/>
<polygon fill="#63b8ff" stroke="#63b8ff" points="83.08,-78.93 73.69,-74.03 77.97,-83.72 83.08,-78.93"/>
</a>
</g>
</g>
<!-- Node32&#45;&gt;Node16 -->
<g id="edge80_Node000032_Node000016" class="edge">
<title>Node32&#45;&gt;Node16</title>
<g id="a_edge80_Node000032_Node000016"><a xlink:title=" ">
<path fill="none" stroke="#63b8ff" d="M398.39,-219.99C437.25,-211.51 491.22,-197.8 508,-184 522.07,-172.43 530.85,-153.28 535.78,-139.03"/>
<polygon fill="#63b8ff" stroke="#63b8ff" points="539.18,-139.89 538.83,-129.3 532.5,-137.8 539.18,-139.89"/>
</a>
</g>
</g>
<!-- Node32&#45;&gt;Node27 -->
<g id="edge82_Node000032_Node000027" class="edge">
<title>Node32&#45;&gt;Node27</title>
<g id="a_edge82_Node000032_Node000027"><a xlink:title=" ">
<path fill="none" stroke="#63b8ff" d="M402.17,-221.05C405.16,-220.67 408.12,-220.31 411,-220 537.84,-206.24 862.4,-222.63 984,-184 1016.64,-173.63 1049.48,-150.71 1069.03,-135.44"/>
<polygon fill="#63b8ff" stroke="#63b8ff" points="1071.41,-138.01 1077.03,-129.03 1067.03,-132.55 1071.41,-138.01"/>
</a>
</g>
</g>
<!-- Node32&#45;&gt;Node28 -->
<g id="edge81_Node000032_Node000028" class="edge">
<title>Node32&#45;&gt;Node28</title>
<g id="a_edge81_Node000032_Node000028"><a xlink:title=" ">
<path fill="none" stroke="#63b8ff" d="M402.19,-221.19C405.17,-220.77 408.13,-220.37 411,-220 543.64,-202.82 700.25,-187.77 781.27,-180.37"/>
<polygon fill="#63b8ff" stroke="#63b8ff" points="781.61,-183.85 791.25,-179.46 780.97,-176.88 781.61,-183.85"/>
</a>
</g>
</g>
<!-- Node32&#45;&gt;Node30 -->
<g id="edge83_Node000032_Node000030" class="edge">
<title>Node32&#45;&gt;Node30</title>
<g id="a_edge83_Node000032_Node000030"><a xlink:title=" ">
<path fill="none" stroke="#63b8ff" d="M402.17,-221.04C405.16,-220.66 408.12,-220.31 411,-220 679.28,-191.36 752.77,-238.58 1017,-184 1071.02,-172.84 1130.78,-148.34 1164.63,-133.25"/>
<polygon fill="#63b8ff" stroke="#63b8ff" points="1166.19,-136.38 1173.86,-129.07 1163.31,-130 1166.19,-136.38"/>
</a>
</g>
</g>
<!-- Node33 -->
<g id="Node000033" class="node">
<title>Node33</title>
<g id="a_Node000033"><a xlink:title=" ">
<polygon fill="#e0e0e0" stroke="#999999" points="499.5,-184 384.5,-184 384.5,-165 499.5,-165 499.5,-184"/>
<text text-anchor="middle" x="442" y="-172" font-family="Helvetica,sans-Serif" font-size="10.00">AMReX_Geometry.H</text>
</a>
</g>
</g>
<!-- Node32&#45;&gt;Node33 -->
<g id="edge78_Node000032_Node000033" class="edge">
<title>Node32&#45;&gt;Node33</title>
<g id="a_edge78_Node000032_Node000033"><a xlink:title=" ">
<path fill="none" stroke="#63b8ff" d="M369.82,-219.98C383.15,-211.77 403.58,-199.18 419.31,-189.49"/>
<polygon fill="#63b8ff" stroke="#63b8ff" points="421.25,-192.4 427.93,-184.17 417.58,-186.44 421.25,-192.4"/>
</a>
</g>
</g>
</g>
</svg>
