<?xml version="1.0" encoding="UTF-8" standalone="no"?>
<!DOCTYPE svg PUBLIC "-//W3C//DTD SVG 1.1//EN"
 "http://www.w3.org/Graphics/SVG/1.1/DTD/svg11.dtd">
<!-- Generated by graphviz version 2.43.0 (0)
 -->
<!-- Title: /home/runner/work/spades/spades/Source/Utilities.cpp Pages: 1 -->
<svg width="698pt" height="203pt"
 viewBox="0.00 0.00 698.00 203.00" xmlns="http://www.w3.org/2000/svg" xmlns:xlink="http://www.w3.org/1999/xlink">
<g id="graph0" class="graph" transform="scale(1 1) rotate(0) translate(4 199)">
<title>/home/runner/work/spades/spades/Source/Utilities.cpp</title>
<!-- Node1 -->
<g id="Node000001" class="node">
<title>Node1</title>
<g id="a_Node000001"><a xlink:title=" ">
<polygon fill="#999999" stroke="#666666" points="407,-195 255,-195 255,-165 407,-165 407,-195"/>
<text text-anchor="start" x="263" y="-183" font-family="Helvetica,sans-Serif" font-size="10.00">/home/runner/work/spades</text>
<text text-anchor="middle" x="331" y="-172" font-family="Helvetica,sans-Serif" font-size="10.00">/spades/Source/Utilities.cpp</text>
</a>
</g>
</g>
<!-- Node2 -->
<g id="Node000002" class="node">
<title>Node2</title>
<g id="a_Node000002"><a xlink:href="_utilities_8_h.html" target="_top" xlink:title=" ">
<polygon fill="white" stroke="#666666" points="363.5,-129 298.5,-129 298.5,-110 363.5,-110 363.5,-129"/>
<text text-anchor="middle" x="331" y="-117" font-family="Helvetica,sans-Serif" font-size="10.00">Utilities.H</text>
</a>
</g>
</g>
<!-- Node1&#45;&gt;Node2 -->
<g id="edge1_Node000001_Node000002" class="edge">
<title>Node1&#45;&gt;Node2</title>
<g id="a_edge1_Node000001_Node000002"><a xlink:title=" ">
<path fill="none" stroke="#63b8ff" d="M331,-164.84C331,-157.21 331,-147.7 331,-139.45"/>
<polygon fill="#63b8ff" stroke="#63b8ff" points="334.5,-139.27 331,-129.27 327.5,-139.27 334.5,-139.27"/>
</a>
</g>
</g>
<!-- Node3 -->
<g id="Node000003" class="node">
<title>Node3</title>
<g id="a_Node000003"><a xlink:title=" ">
<polygon fill="#e0e0e0" stroke="#999999" points="62,-74 0,-74 0,-55 62,-55 62,-74"/>
<text text-anchor="middle" x="31" y="-62" font-family="Helvetica,sans-Serif" font-size="10.00">AMReX.H</text>
</a>
</g>
</g>
<!-- Node2&#45;&gt;Node3 -->
<g id="edge2_Node000002_Node000003" class="edge">
<title>Node2&#45;&gt;Node3</title>
<g id="a_edge2_Node000002_Node000003"><a xlink:title=" ">
<path fill="none" stroke="#63b8ff" d="M298.5,-113.36C251.03,-105.77 159.73,-90.82 72.49,-74.23"/>
<polygon fill="#63b8ff" stroke="#63b8ff" points="72.9,-70.74 62.42,-72.3 71.58,-77.62 72.9,-70.74"/>
</a>
</g>
</g>
<!-- Node4 -->
<g id="Node000004" class="node">
<title>Node4</title>
<g id="a_Node000004"><a xlink:title=" ">
<polygon fill="#e0e0e0" stroke="#999999" points="190,-74 80,-74 80,-55 190,-55 190,-74"/>
<text text-anchor="middle" x="135" y="-62" font-family="Helvetica,sans-Serif" font-size="10.00">AMReX_RealVect.H</text>
</a>
</g>
</g>
<!-- Node2&#45;&gt;Node4 -->
<g id="edge3_Node000002_Node000004" class="edge">
<title>Node2&#45;&gt;Node4</title>
<g id="a_edge3_Node000002_Node000004"><a xlink:title=" ">
<path fill="none" stroke="#63b8ff" d="M299.51,-109.98C266.18,-100.97 213.4,-86.7 176.65,-76.76"/>
<polygon fill="#63b8ff" stroke="#63b8ff" points="177.3,-73.31 166.74,-74.08 175.48,-80.07 177.3,-73.31"/>
</a>
</g>
</g>
<!-- Node5 -->
<g id="Node000005" class="node">
<title>Node5</title>
<g id="a_Node000005"><a xlink:title=" ">
<polygon fill="#e0e0e0" stroke="#999999" points="317.5,-74 208.5,-74 208.5,-55 317.5,-55 317.5,-74"/>
<text text-anchor="middle" x="263" y="-62" font-family="Helvetica,sans-Serif" font-size="10.00">AMReX_MultiFab.H</text>
</a>
</g>
</g>
<!-- Node2&#45;&gt;Node5 -->
<g id="edge4_Node000002_Node000005" class="edge">
<title>Node2&#45;&gt;Node5</title>
<g id="a_edge4_Node000002_Node000005"><a xlink:title=" ">
<path fill="none" stroke="#63b8ff" d="M320.07,-109.98C309.92,-102.07 294.58,-90.11 282.35,-80.58"/>
<polygon fill="#63b8ff" stroke="#63b8ff" points="284.16,-77.56 274.12,-74.17 279.86,-83.08 284.16,-77.56"/>
</a>
</g>
</g>
<!-- Node6 -->
<g id="Node000006" class="node">
<title>Node6</title>
<g id="a_Node000006"><a xlink:title=" ">
<polygon fill="#e0e0e0" stroke="#999999" points="462,-74 336,-74 336,-55 462,-55 462,-74"/>
<text text-anchor="middle" x="399" y="-62" font-family="Helvetica,sans-Serif" font-size="10.00">AMReX_MultiFabUtil.H</text>
</a>
</g>
</g>
<!-- Node2&#45;&gt;Node6 -->
<g id="edge5_Node000002_Node000006" class="edge">
<title>Node2&#45;&gt;Node6</title>
<g id="a_edge5_Node000002_Node000006"><a xlink:title=" ">
<path fill="none" stroke="#63b8ff" d="M341.93,-109.98C352.08,-102.07 367.42,-90.11 379.65,-80.58"/>
<polygon fill="#63b8ff" stroke="#63b8ff" points="382.14,-83.08 387.88,-74.17 377.84,-77.56 382.14,-83.08"/>
</a>
</g>
</g>
<!-- Node7 -->
<g id="Node000007" class="node">
<title>Node7</title>
<g id="a_Node000007"><a xlink:title=" ">
<polygon fill="#e0e0e0" stroke="#999999" points="588,-74 480,-74 480,-55 588,-55 588,-74"/>
<text text-anchor="middle" x="534" y="-62" font-family="Helvetica,sans-Serif" font-size="10.00">AMReX_Random.H</text>
</a>
</g>
</g>
<!-- Node2&#45;&gt;Node7 -->
<g id="edge6_Node000002_Node000007" class="edge">
<title>Node2&#45;&gt;Node7</title>
<g id="a_edge6_Node000002_Node000007"><a xlink:title=" ">
<path fill="none" stroke="#63b8ff" d="M363.62,-109.98C398.29,-100.93 453.26,-86.58 491.35,-76.64"/>
<polygon fill="#63b8ff" stroke="#63b8ff" points="492.34,-79.99 501.13,-74.08 490.57,-73.22 492.34,-79.99"/>
</a>
</g>
</g>
<!-- Node8 -->
<g id="Node000008" class="node">
<title>Node8</title>
<g id="a_Node000008"><a xlink:href="_constants_8_h.html" target="_top" xlink:title=" ">
<polygon fill="white" stroke="#666666" points="682,-74 606,-74 606,-55 682,-55 682,-74"/>
<text text-anchor="middle" x="644" y="-62" font-family="Helvetica,sans-Serif" font-size="10.00">Constants.H</text>
</a>
</g>
</g>
<!-- Node2&#45;&gt;Node8 -->
<g id="edge7_Node000002_Node000008" class="edge">
<title>Node2&#45;&gt;Node8</title>
<g id="a_edge7_Node000002_Node000008"><a xlink:title=" ">
<path fill="none" stroke="#63b8ff" d="M363.78,-113.16C412.2,-105.24 505.95,-89.78 595.71,-74.21"/>
<polygon fill="#63b8ff" stroke="#63b8ff" points="596.54,-77.62 605.79,-72.45 595.34,-70.72 596.54,-77.62"/>
</a>
</g>
</g>
<!-- Node9 -->
<g id="Node000009" class="node">
<title>Node9</title>
<g id="a_Node000009"><a xlink:title=" ">
<polygon fill="#e0e0e0" stroke="#999999" points="690,-19 598,-19 598,0 690,0 690,-19"/>
<text text-anchor="middle" x="644" y="-7" font-family="Helvetica,sans-Serif" font-size="10.00">AMReX_REAL.H</text>
</a>
</g>
</g>
<!-- Node8&#45;&gt;Node9 -->
<g id="edge8_Node000008_Node000009" class="edge">
<title>Node8&#45;&gt;Node9</title>
<g id="a_edge8_Node000008_Node000009"><a xlink:title=" ">
<path fill="none" stroke="#63b8ff" d="M644,-54.75C644,-47.8 644,-37.85 644,-29.13"/>
<polygon fill="#63b8ff" stroke="#63b8ff" points="647.5,-29.09 644,-19.09 640.5,-29.09 647.5,-29.09"/>
</a>
</g>
</g>
</g>
</svg>
