<?xml version="1.0" encoding="UTF-8" standalone="no"?>
<!DOCTYPE svg PUBLIC "-//W3C//DTD SVG 1.1//EN"
 "http://www.w3.org/Graphics/SVG/1.1/DTD/svg11.dtd">
<!-- Generated by graphviz version 2.43.0 (0)
 -->
<!-- Title: /home/runner/work/spades/spades/Source/Utilities.H Pages: 1 -->
<svg width="789pt" height="324pt"
 viewBox="0.00 0.00 789.00 324.00" xmlns="http://www.w3.org/2000/svg" xmlns:xlink="http://www.w3.org/1999/xlink">
<g id="graph0" class="graph" transform="scale(1 1) rotate(0) translate(4 320)">
<title>/home/runner/work/spades/spades/Source/Utilities.H</title>
<!-- Node1 -->
<g id="Node000001" class="node">
<title>Node1</title>
<g id="a_Node000001"><a xlink:title=" ">
<polygon fill="#999999" stroke="#666666" points="484,-316 338,-316 338,-286 484,-286 484,-316"/>
<text text-anchor="start" x="346" y="-304" font-family="Helvetica,sans-Serif" font-size="10.00">/home/runner/work/spades</text>
<text text-anchor="middle" x="411" y="-293" font-family="Helvetica,sans-Serif" font-size="10.00">/spades/Source/Utilities.H</text>
</a>
</g>
</g>
<!-- Node2 -->
<g id="Node000002" class="node">
<title>Node2</title>
<g id="a_Node000002"><a xlink:href="_entity_particle_container_8_h.html" target="_top" xlink:title=" ">
<polygon fill="white" stroke="#666666" points="222.5,-178.5 7.5,-178.5 7.5,-148.5 222.5,-148.5 222.5,-178.5"/>
<text text-anchor="start" x="15.5" y="-166.5" font-family="Helvetica,sans-Serif" font-size="10.00">/home/runner/work/spades</text>
<text text-anchor="middle" x="115" y="-155.5" font-family="Helvetica,sans-Serif" font-size="10.00">/spades/Source/EntityParticleContainer.H</text>
</a>
</g>
</g>
<!-- Node1&#45;&gt;Node2 -->
<g id="edge1_Node000001_Node000002" class="edge">
<title>Node1&#45;&gt;Node2</title>
<g id="a_edge1_Node000001_Node000002"><a xlink:title=" ">
<path fill="none" stroke="#63b8ff" d="M327.57,-295.11C255.99,-289.16 160.2,-276.41 133,-250 113.74,-231.3 112.51,-197.58 113.58,-178.56"/>
<polygon fill="#63b8ff" stroke="#63b8ff" points="327.69,-298.64 337.94,-295.94 328.25,-291.66 327.69,-298.64"/>
</a>
</g>
</g>
<!-- Node4 -->
<g id="Node000004" class="node">
<title>Node4</title>
<g id="a_Node000004"><a xlink:href="_s_p_a_d_e_s_8_h.html" target="_top" xlink:title=" ">
<polygon fill="white" stroke="#666666" points="388,-101.5 242,-101.5 242,-71.5 388,-71.5 388,-101.5"/>
<text text-anchor="start" x="250" y="-89.5" font-family="Helvetica,sans-Serif" font-size="10.00">/home/runner/work/spades</text>
<text text-anchor="middle" x="315" y="-78.5" font-family="Helvetica,sans-Serif" font-size="10.00">/spades/Source/SPADES.H</text>
</a>
</g>
</g>
<!-- Node1&#45;&gt;Node4 -->
<g id="edge12_Node000001_Node000004" class="edge">
<title>Node1&#45;&gt;Node4</title>
<g id="a_edge12_Node000001_Node000004"><a xlink:title=" ">
<path fill="none" stroke="#63b8ff" d="M402.04,-276.39C395.15,-259.79 384.68,-237.52 372,-220 358.55,-201.41 346.03,-204.12 335,-184 320.44,-157.45 316.45,-121.48 315.38,-101.81"/>
<polygon fill="#63b8ff" stroke="#63b8ff" points="398.88,-277.91 405.85,-285.89 405.38,-275.31 398.88,-277.91"/>
</a>
</g>
</g>
<!-- Node7 -->
<g id="Node000007" class="node">
<title>Node7</title>
<g id="a_Node000007"><a xlink:href="_i_c_8_h.html" target="_top" xlink:title=" ">
<polygon fill="white" stroke="#666666" points="611,-250 465,-250 465,-220 611,-220 611,-250"/>
<text text-anchor="start" x="473" y="-238" font-family="Helvetica,sans-Serif" font-size="10.00">/home/runner/work/spades</text>
<text text-anchor="middle" x="538" y="-227" font-family="Helvetica,sans-Serif" font-size="10.00">/spades/Source/IC.H</text>
</a>
</g>
</g>
<!-- Node1&#45;&gt;Node7 -->
<g id="edge6_Node000001_Node000007" class="edge">
<title>Node1&#45;&gt;Node7</title>
<g id="a_edge6_Node000001_Node000007"><a xlink:title=" ">
<path fill="none" stroke="#63b8ff" d="M447.95,-281.38C467.83,-271.36 491.93,-259.22 510.19,-250.01"/>
<polygon fill="#63b8ff" stroke="#63b8ff" points="446.23,-278.33 438.87,-285.95 449.38,-284.58 446.23,-278.33"/>
</a>
</g>
</g>
<!-- Node9 -->
<g id="Node000009" class="node">
<title>Node9</title>
<g id="a_Node000009"><a xlink:href="_message_particle_container_8_h.html" target="_top" xlink:title=" ">
<polygon fill="white" stroke="#666666" points="516.5,-184 343.5,-184 343.5,-143 516.5,-143 516.5,-184"/>
<text text-anchor="start" x="351.5" y="-172" font-family="Helvetica,sans-Serif" font-size="10.00">/home/runner/work/spades</text>
<text text-anchor="start" x="351.5" y="-161" font-family="Helvetica,sans-Serif" font-size="10.00">/spades/Source/MessageParticle</text>
<text text-anchor="middle" x="430" y="-150" font-family="Helvetica,sans-Serif" font-size="10.00">Container.H</text>
</a>
</g>
</g>
<!-- Node1&#45;&gt;Node9 -->
<g id="edge9_Node000001_Node000009" class="edge">
<title>Node1&#45;&gt;Node9</title>
<g id="a_edge9_Node000001_Node000009"><a xlink:title=" ">
<path fill="none" stroke="#63b8ff" d="M414.43,-275.54C418.1,-249.38 423.85,-208.39 427.24,-184.21"/>
<polygon fill="#63b8ff" stroke="#63b8ff" points="410.92,-275.37 413,-285.76 417.85,-276.34 410.92,-275.37"/>
</a>
</g>
</g>
<!-- Node11 -->
<g id="Node000011" class="node">
<title>Node11</title>
<g id="a_Node000011"><a xlink:href="_spades_particle_container_8_h.html" target="_top" xlink:title=" ">
<polygon fill="white" stroke="#666666" points="363.5,-250 142.5,-250 142.5,-220 363.5,-220 363.5,-250"/>
<text text-anchor="start" x="150.5" y="-238" font-family="Helvetica,sans-Serif" font-size="10.00">/home/runner/work/spades</text>
<text text-anchor="middle" x="253" y="-227" font-family="Helvetica,sans-Serif" font-size="10.00">/spades/Source/SpadesParticleContainer.H</text>
</a>
</g>
</g>
<!-- Node1&#45;&gt;Node11 -->
<g id="edge13_Node000001_Node000011" class="edge">
<title>Node1&#45;&gt;Node11</title>
<g id="a_edge13_Node000001_Node000011"><a xlink:title=" ">
<path fill="none" stroke="#63b8ff" d="M367.03,-282.19C341.94,-272.02 310.93,-259.47 287.59,-250.01"/>
<polygon fill="#63b8ff" stroke="#63b8ff" points="365.74,-285.44 376.33,-285.95 368.37,-278.96 365.74,-285.44"/>
</a>
</g>
</g>
<!-- Node12 -->
<g id="Node000012" class="node">
<title>Node12</title>
<g id="a_Node000012"><a xlink:href="_utilities_8cpp.html" target="_top" xlink:title=" ">
<polygon fill="white" stroke="#666666" points="781,-250 629,-250 629,-220 781,-220 781,-250"/>
<text text-anchor="start" x="637" y="-238" font-family="Helvetica,sans-Serif" font-size="10.00">/home/runner/work/spades</text>
<text text-anchor="middle" x="705" y="-227" font-family="Helvetica,sans-Serif" font-size="10.00">/spades/Source/Utilities.cpp</text>
</a>
</g>
</g>
<!-- Node1&#45;&gt;Node12 -->
<g id="edge17_Node000001_Node000012" class="edge">
<title>Node1&#45;&gt;Node12</title>
<g id="a_edge17_Node000001_Node000012"><a xlink:title=" ">
<path fill="none" stroke="#63b8ff" d="M485.51,-283.78C533.37,-273.36 594.9,-259.97 640.63,-250.01"/>
<polygon fill="#63b8ff" stroke="#63b8ff" points="484.55,-280.41 475.52,-285.95 486.04,-287.25 484.55,-280.41"/>
</a>
</g>
</g>
<!-- Node3 -->
<g id="Node000003" class="node">
<title>Node3</title>
<g id="a_Node000003"><a xlink:href="_entity_particle_container_8cpp.html" target="_top" xlink:title=" ">
<polygon fill="white" stroke="#666666" points="224,-101.5 0,-101.5 0,-71.5 224,-71.5 224,-101.5"/>
<text text-anchor="start" x="8" y="-89.5" font-family="Helvetica,sans-Serif" font-size="10.00">/home/runner/work/spades</text>
<text text-anchor="middle" x="112" y="-78.5" font-family="Helvetica,sans-Serif" font-size="10.00">/spades/Source/EntityParticleContainer.cpp</text>
</a>
</g>
</g>
<!-- Node2&#45;&gt;Node3 -->
<g id="edge2_Node000002_Node000003" class="edge">
<title>Node2&#45;&gt;Node3</title>
<g id="a_edge2_Node000002_Node000003"><a xlink:title=" ">
<path fill="none" stroke="#63b8ff" d="M114.02,-138.04C113.54,-125.95 112.97,-111.79 112.56,-101.54"/>
<polygon fill="#63b8ff" stroke="#63b8ff" points="110.54,-138.54 114.44,-148.39 117.53,-138.26 110.54,-138.54"/>
</a>
</g>
</g>
<!-- Node2&#45;&gt;Node4 -->
<g id="edge3_Node000002_Node000004" class="edge">
<title>Node2&#45;&gt;Node4</title>
<g id="a_edge3_Node000002_Node000004"><a xlink:title=" ">
<path fill="none" stroke="#63b8ff" d="M162.21,-144.8C197.43,-131.59 244.92,-113.78 277.55,-101.54"/>
<polygon fill="#63b8ff" stroke="#63b8ff" points="160.75,-141.6 152.62,-148.39 163.21,-148.16 160.75,-141.6"/>
</a>
</g>
</g>
<!-- Node5 -->
<g id="Node000005" class="node">
<title>Node5</title>
<g id="a_Node000005"><a xlink:href="_s_p_a_d_e_s_8cpp.html" target="_top" xlink:title=" ">
<polygon fill="white" stroke="#666666" points="306.5,-30 155.5,-30 155.5,0 306.5,0 306.5,-30"/>
<text text-anchor="start" x="163.5" y="-18" font-family="Helvetica,sans-Serif" font-size="10.00">/home/runner/work/spades</text>
<text text-anchor="middle" x="231" y="-7" font-family="Helvetica,sans-Serif" font-size="10.00">/spades/Source/SPADES.cpp</text>
</a>
</g>
</g>
<!-- Node4&#45;&gt;Node5 -->
<g id="edge4_Node000004_Node000005" class="edge">
<title>Node4&#45;&gt;Node5</title>
<g id="a_edge4_Node000004_Node000005"><a xlink:title=" ">
<path fill="none" stroke="#63b8ff" d="M289.99,-64.81C276.43,-53.59 260.04,-40.02 247.97,-30.04"/>
<polygon fill="#63b8ff" stroke="#63b8ff" points="288.07,-67.76 298,-71.44 292.53,-62.36 288.07,-67.76"/>
</a>
</g>
</g>
<!-- Node6 -->
<g id="Node000006" class="node">
<title>Node6</title>
<g id="a_Node000006"><a xlink:href="main_8cpp.html" target="_top" xlink:title=" ">
<polygon fill="white" stroke="#666666" points="471,-30 325,-30 325,0 471,0 471,-30"/>
<text text-anchor="start" x="333" y="-18" font-family="Helvetica,sans-Serif" font-size="10.00">/home/runner/work/spades</text>
<text text-anchor="middle" x="398" y="-7" font-family="Helvetica,sans-Serif" font-size="10.00">/spades/Source/main.cpp</text>
</a>
</g>
</g>
<!-- Node4&#45;&gt;Node6 -->
<g id="edge5_Node000004_Node000006" class="edge">
<title>Node4&#45;&gt;Node6</title>
<g id="a_edge5_Node000004_Node000006"><a xlink:title=" ">
<path fill="none" stroke="#63b8ff" d="M339.71,-64.81C353.11,-53.59 369.31,-40.02 381.23,-30.04"/>
<polygon fill="#63b8ff" stroke="#63b8ff" points="337.22,-62.33 331.8,-71.44 341.71,-67.7 337.22,-62.33"/>
</a>
</g>
</g>
<!-- Node7&#45;&gt;Node4 -->
<g id="edge8_Node000007_Node000004" class="edge">
<title>Node7&#45;&gt;Node4</title>
<g id="a_edge8_Node000007_Node000004"><a xlink:title=" ">
<path fill="none" stroke="#63b8ff" d="M541.63,-209.7C543.22,-189.43 541.9,-161.04 526,-143 520.86,-137.17 435.46,-115.97 374.9,-101.53"/>
<polygon fill="#63b8ff" stroke="#63b8ff" points="538.14,-209.42 540.56,-219.73 545.1,-210.16 538.14,-209.42"/>
</a>
</g>
</g>
<!-- Node8 -->
<g id="Node000008" class="node">
<title>Node8</title>
<g id="a_Node000008"><a xlink:href="_i_c_8cpp.html" target="_top" xlink:title=" ">
<polygon fill="white" stroke="#666666" points="719,-178.5 573,-178.5 573,-148.5 719,-148.5 719,-178.5"/>
<text text-anchor="start" x="581" y="-166.5" font-family="Helvetica,sans-Serif" font-size="10.00">/home/runner/work/spades</text>
<text text-anchor="middle" x="646" y="-155.5" font-family="Helvetica,sans-Serif" font-size="10.00">/spades/Source/IC.cpp</text>
</a>
</g>
</g>
<!-- Node7&#45;&gt;Node8 -->
<g id="edge7_Node000007_Node000008" class="edge">
<title>Node7&#45;&gt;Node8</title>
<g id="a_edge7_Node000007_Node000008"><a xlink:title=" ">
<path fill="none" stroke="#63b8ff" d="M568.68,-214.25C586.39,-202.86 608.23,-188.81 624.18,-178.54"/>
<polygon fill="#63b8ff" stroke="#63b8ff" points="566.37,-211.58 559.86,-219.94 570.16,-217.47 566.37,-211.58"/>
</a>
</g>
</g>
<!-- Node9&#45;&gt;Node4 -->
<g id="edge11_Node000009_Node000004" class="edge">
<title>Node9&#45;&gt;Node4</title>
<g id="a_edge11_Node000009_Node000004"><a xlink:title=" ">
<path fill="none" stroke="#63b8ff" d="M391.42,-137.34C373.21,-125.47 352.16,-111.74 336.77,-101.7"/>
<polygon fill="#63b8ff" stroke="#63b8ff" points="389.8,-140.46 400.09,-142.99 393.62,-134.6 389.8,-140.46"/>
</a>
</g>
</g>
<!-- Node10 -->
<g id="Node000010" class="node">
<title>Node10</title>
<g id="a_Node000010"><a xlink:href="_message_particle_container_8cpp.html" target="_top" xlink:title=" ">
<polygon fill="white" stroke="#666666" points="579.5,-107 406.5,-107 406.5,-66 579.5,-66 579.5,-107"/>
<text text-anchor="start" x="414.5" y="-95" font-family="Helvetica,sans-Serif" font-size="10.00">/home/runner/work/spades</text>
<text text-anchor="start" x="414.5" y="-84" font-family="Helvetica,sans-Serif" font-size="10.00">/spades/Source/MessageParticle</text>
<text text-anchor="middle" x="493" y="-73" font-family="Helvetica,sans-Serif" font-size="10.00">Container.cpp</text>
</a>
</g>
</g>
<!-- Node9&#45;&gt;Node10 -->
<g id="edge10_Node000009_Node000010" class="edge">
<title>Node9&#45;&gt;Node10</title>
<g id="a_edge10_Node000009_Node000010"><a xlink:title=" ">
<path fill="none" stroke="#63b8ff" d="M453.14,-134.95C460.91,-125.7 469.41,-115.58 476.56,-107.07"/>
<polygon fill="#63b8ff" stroke="#63b8ff" points="450.3,-132.89 446.55,-142.79 455.66,-137.39 450.3,-132.89"/>
</a>
</g>
</g>
<!-- Node11&#45;&gt;Node2 -->
<g id="edge14_Node000011_Node000002" class="edge">
<title>Node11&#45;&gt;Node2</title>
<g id="a_edge14_Node000011_Node000002"><a xlink:title=" ">
<path fill="none" stroke="#63b8ff" d="M215.96,-215.34C192.97,-203.77 163.92,-189.14 142.88,-178.54"/>
<polygon fill="#63b8ff" stroke="#63b8ff" points="214.57,-218.56 225.07,-219.94 217.72,-212.31 214.57,-218.56"/>
</a>
</g>
</g>
<!-- Node11&#45;&gt;Node4 -->
<g id="edge16_Node000011_Node000004" class="edge">
<title>Node11&#45;&gt;Node4</title>
<g id="a_edge16_Node000011_Node000004"><a xlink:title=" ">
<path fill="none" stroke="#63b8ff" d="M262.97,-210.45C275.97,-179.73 298.31,-126.94 308.98,-101.72"/>
<polygon fill="#63b8ff" stroke="#63b8ff" points="259.62,-209.38 258.94,-219.95 266.07,-212.11 259.62,-209.38"/>
</a>
</g>
</g>
<!-- Node11&#45;&gt;Node9 -->
<g id="edge15_Node000011_Node000009" class="edge">
<title>Node11&#45;&gt;Node9</title>
<g id="a_edge15_Node000011_Node000009"><a xlink:title=" ">
<path fill="none" stroke="#63b8ff" d="M298.43,-216.16C323.42,-206.35 354.49,-194.15 380.15,-184.07"/>
<polygon fill="#63b8ff" stroke="#63b8ff" points="296.85,-213.02 288.82,-219.94 299.41,-219.54 296.85,-213.02"/>
</a>
</g>
</g>
</g>
</svg>
