<?xml version="1.0" encoding="UTF-8" standalone="no"?>
<!DOCTYPE svg PUBLIC "-//W3C//DTD SVG 1.1//EN"
 "http://www.w3.org/Graphics/SVG/1.1/DTD/svg11.dtd">
<!-- Generated by graphviz version 2.43.0 (0)
 -->
<!-- Title: /home/runner/work/spades/spades/Source/Utilities.H Pages: 1 -->
<svg width="1071pt" height="390pt"
 viewBox="0.00 0.00 1071.00 390.00" xmlns="http://www.w3.org/2000/svg" xmlns:xlink="http://www.w3.org/1999/xlink">
<g id="graph0" class="graph" transform="scale(1 1) rotate(0) translate(4 386)">
<title>/home/runner/work/spades/spades/Source/Utilities.H</title>
<!-- Node1 -->
<g id="Node000001" class="node">
<title>Node1</title>
<g id="a_Node000001"><a xlink:title=" ">
<polygon fill="#999999" stroke="#666666" points="630,-382 484,-382 484,-352 630,-352 630,-382"/>
<text text-anchor="start" x="492" y="-370" font-family="Helvetica,sans-Serif" font-size="10.00">/home/runner/work/spades</text>
<text text-anchor="middle" x="557" y="-359" font-family="Helvetica,sans-Serif" font-size="10.00">/spades/Source/Utilities.H</text>
</a>
</g>
</g>
<!-- Node2 -->
<g id="Node000002" class="node">
<title>Node2</title>
<g id="a_Node000002"><a xlink:href="_entity_particle_container_8_h.html" target="_top" xlink:title=" ">
<polygon fill="white" stroke="#666666" points="417.5,-244.5 202.5,-244.5 202.5,-214.5 417.5,-214.5 417.5,-244.5"/>
<text text-anchor="start" x="210.5" y="-232.5" font-family="Helvetica,sans-Serif" font-size="10.00">/home/runner/work/spades</text>
<text text-anchor="middle" x="310" y="-221.5" font-family="Helvetica,sans-Serif" font-size="10.00">/spades/Source/EntityParticleContainer.H</text>
</a>
</g>
</g>
<!-- Node1&#45;&gt;Node2 -->
<g id="edge1_Node000001_Node000002" class="edge">
<title>Node1&#45;&gt;Node2</title>
<g id="a_edge1_Node000001_Node000002"><a xlink:title=" ">
<path fill="none" stroke="#63b8ff" d="M484.24,-349.04C457.91,-341.18 428.63,-330.33 404,-316 370.44,-296.47 338.6,-263.38 321.97,-244.61"/>
<polygon fill="#63b8ff" stroke="#63b8ff" points="483.59,-352.5 494.16,-351.91 485.53,-345.77 483.59,-352.5"/>
</a>
</g>
</g>
<!-- Node4 -->
<g id="Node000004" class="node">
<title>Node4</title>
<g id="a_Node000004"><a xlink:href="_s_p_a_d_e_s_8_h.html" target="_top" xlink:title=" ">
<polygon fill="white" stroke="#666666" points="538,-167.5 392,-167.5 392,-137.5 538,-137.5 538,-167.5"/>
<text text-anchor="start" x="400" y="-155.5" font-family="Helvetica,sans-Serif" font-size="10.00">/home/runner/work/spades</text>
<text text-anchor="middle" x="465" y="-144.5" font-family="Helvetica,sans-Serif" font-size="10.00">/spades/Source/SPADES.H</text>
</a>
</g>
</g>
<!-- Node1&#45;&gt;Node4 -->
<g id="edge16_Node000001_Node000004" class="edge">
<title>Node1&#45;&gt;Node4</title>
<g id="a_edge16_Node000001_Node000004"><a xlink:title=" ">
<path fill="none" stroke="#63b8ff" d="M476.86,-347.91C461.14,-340.61 446.58,-330.36 437,-316 420.76,-291.64 448.33,-202.51 460.09,-167.63"/>
<polygon fill="#63b8ff" stroke="#63b8ff" points="475.65,-351.2 486.22,-351.88 478.38,-344.75 475.65,-351.2"/>
</a>
</g>
</g>
<!-- Node7 -->
<g id="Node000007" class="node">
<title>Node7</title>
<g id="a_Node000007"><a xlink:href="_i_c_8_h.html" target="_top" xlink:title=" ">
<polygon fill="white" stroke="#666666" points="247,-316 101,-316 101,-286 247,-286 247,-316"/>
<text text-anchor="start" x="109" y="-304" font-family="Helvetica,sans-Serif" font-size="10.00">/home/runner/work/spades</text>
<text text-anchor="middle" x="174" y="-293" font-family="Helvetica,sans-Serif" font-size="10.00">/spades/Source/IC.H</text>
</a>
</g>
</g>
<!-- Node1&#45;&gt;Node7 -->
<g id="edge7_Node000001_Node000007" class="edge">
<title>Node1&#45;&gt;Node7</title>
<g id="a_edge7_Node000001_Node000007"><a xlink:title=" ">
<path fill="none" stroke="#63b8ff" d="M473.42,-352.03C405.88,-340.75 311.74,-325.02 247.14,-314.22"/>
<polygon fill="#63b8ff" stroke="#63b8ff" points="473.17,-355.54 483.61,-353.74 474.32,-348.64 473.17,-355.54"/>
</a>
</g>
</g>
<!-- Node9 -->
<g id="Node000009" class="node">
<title>Node9</title>
<g id="a_Node000009"><a xlink:href="_message_particle_container_8_h.html" target="_top" xlink:title=" ">
<polygon fill="white" stroke="#666666" points="685.5,-250 512.5,-250 512.5,-209 685.5,-209 685.5,-250"/>
<text text-anchor="start" x="520.5" y="-238" font-family="Helvetica,sans-Serif" font-size="10.00">/home/runner/work/spades</text>
<text text-anchor="start" x="520.5" y="-227" font-family="Helvetica,sans-Serif" font-size="10.00">/spades/Source/MessageParticle</text>
<text text-anchor="middle" x="599" y="-216" font-family="Helvetica,sans-Serif" font-size="10.00">Container.H</text>
</a>
</g>
</g>
<!-- Node1&#45;&gt;Node9 -->
<g id="edge10_Node000001_Node000009" class="edge">
<title>Node1&#45;&gt;Node9</title>
<g id="a_edge10_Node000001_Node000009"><a xlink:title=" ">
<path fill="none" stroke="#63b8ff" d="M635.97,-348.02C651.76,-340.71 666.41,-330.43 676,-316 692.36,-291.38 664.07,-266.65 637.29,-250.16"/>
<polygon fill="#63b8ff" stroke="#63b8ff" points="634.43,-344.87 626.58,-351.99 637.15,-351.32 634.43,-344.87"/>
</a>
</g>
</g>
<!-- Node11 -->
<g id="Node000011" class="node">
<title>Node11</title>
<g id="a_Node000011"><a xlink:href="_phold_8_h.html" target="_top" xlink:title=" ">
<polygon fill="white" stroke="#666666" points="892.5,-316 723.5,-316 723.5,-286 892.5,-286 892.5,-316"/>
<text text-anchor="start" x="731.5" y="-304" font-family="Helvetica,sans-Serif" font-size="10.00">/home/runner/work/spades</text>
<text text-anchor="middle" x="808" y="-293" font-family="Helvetica,sans-Serif" font-size="10.00">/spades/Source/Models/Phold.H</text>
</a>
</g>
</g>
<!-- Node1&#45;&gt;Node11 -->
<g id="edge13_Node000001_Node000011" class="edge">
<title>Node1&#45;&gt;Node11</title>
<g id="a_edge13_Node000001_Node000011"><a xlink:title=" ">
<path fill="none" stroke="#63b8ff" d="M621.9,-349.45C662.57,-339.08 714.41,-325.86 753.05,-316.01"/>
<polygon fill="#63b8ff" stroke="#63b8ff" points="620.91,-346.09 612.08,-351.95 622.64,-352.88 620.91,-346.09"/>
</a>
</g>
</g>
<!-- Node13 -->
<g id="Node000013" class="node">
<title>Node13</title>
<g id="a_Node000013"><a xlink:href="_spades_particle_container_8_h.html" target="_top" xlink:title=" ">
<polygon fill="white" stroke="#666666" points="667.5,-316 446.5,-316 446.5,-286 667.5,-286 667.5,-316"/>
<text text-anchor="start" x="454.5" y="-304" font-family="Helvetica,sans-Serif" font-size="10.00">/home/runner/work/spades</text>
<text text-anchor="middle" x="557" y="-293" font-family="Helvetica,sans-Serif" font-size="10.00">/spades/Source/SpadesParticleContainer.H</text>
</a>
</g>
</g>
<!-- Node1&#45;&gt;Node13 -->
<g id="edge17_Node000001_Node000013" class="edge">
<title>Node1&#45;&gt;Node13</title>
<g id="a_edge17_Node000001_Node000013"><a xlink:title=" ">
<path fill="none" stroke="#63b8ff" d="M557,-341.54C557,-332.96 557,-323.61 557,-316.16"/>
<polygon fill="#63b8ff" stroke="#63b8ff" points="553.5,-341.8 557,-351.8 560.5,-341.8 553.5,-341.8"/>
</a>
</g>
</g>
<!-- Node14 -->
<g id="Node000014" class="node">
<title>Node14</title>
<g id="a_Node000014"><a xlink:href="_utilities_8cpp.html" target="_top" xlink:title=" ">
<polygon fill="white" stroke="#666666" points="1063,-316 911,-316 911,-286 1063,-286 1063,-316"/>
<text text-anchor="start" x="919" y="-304" font-family="Helvetica,sans-Serif" font-size="10.00">/home/runner/work/spades</text>
<text text-anchor="middle" x="987" y="-293" font-family="Helvetica,sans-Serif" font-size="10.00">/spades/Source/Utilities.cpp</text>
</a>
</g>
</g>
<!-- Node1&#45;&gt;Node14 -->
<g id="edge21_Node000001_Node000014" class="edge">
<title>Node1&#45;&gt;Node14</title>
<g id="a_edge21_Node000001_Node000014"><a xlink:title=" ">
<path fill="none" stroke="#63b8ff" d="M640.24,-354.31C709.95,-344.42 812.03,-329.71 901,-316 904.14,-315.52 907.34,-315.02 910.58,-314.51"/>
<polygon fill="#63b8ff" stroke="#63b8ff" points="639.61,-350.86 630.2,-355.73 640.59,-357.79 639.61,-350.86"/>
</a>
</g>
</g>
<!-- Node3 -->
<g id="Node000003" class="node">
<title>Node3</title>
<g id="a_Node000003"><a xlink:href="_entity_particle_container_8cpp.html" target="_top" xlink:title=" ">
<polygon fill="white" stroke="#666666" points="374,-167.5 150,-167.5 150,-137.5 374,-137.5 374,-167.5"/>
<text text-anchor="start" x="158" y="-155.5" font-family="Helvetica,sans-Serif" font-size="10.00">/home/runner/work/spades</text>
<text text-anchor="middle" x="262" y="-144.5" font-family="Helvetica,sans-Serif" font-size="10.00">/spades/Source/EntityParticleContainer.cpp</text>
</a>
</g>
</g>
<!-- Node2&#45;&gt;Node3 -->
<g id="edge2_Node000002_Node000003" class="edge">
<title>Node2&#45;&gt;Node3</title>
<g id="a_edge2_Node000002_Node000003"><a xlink:title=" ">
<path fill="none" stroke="#63b8ff" d="M295.52,-205.88C287.54,-193.41 277.88,-178.32 270.99,-167.54"/>
<polygon fill="#63b8ff" stroke="#63b8ff" points="292.63,-207.86 300.97,-214.39 298.53,-204.08 292.63,-207.86"/>
</a>
</g>
</g>
<!-- Node2&#45;&gt;Node4 -->
<g id="edge3_Node000002_Node000004" class="edge">
<title>Node2&#45;&gt;Node4</title>
<g id="a_edge3_Node000002_Node000004"><a xlink:title=" ">
<path fill="none" stroke="#63b8ff" d="M348.35,-209.94C375.45,-196.83 411.23,-179.52 435.98,-167.54"/>
<polygon fill="#63b8ff" stroke="#63b8ff" points="346.63,-206.89 339.15,-214.39 349.68,-213.19 346.63,-206.89"/>
</a>
</g>
</g>
<!-- Node5 -->
<g id="Node000005" class="node">
<title>Node5</title>
<g id="a_Node000005"><a xlink:href="_run_time_8_h.html" target="_top" xlink:title=" ">
<polygon fill="white" stroke="#666666" points="487.5,-96 340.5,-96 340.5,-66 487.5,-66 487.5,-96"/>
<text text-anchor="start" x="348.5" y="-84" font-family="Helvetica,sans-Serif" font-size="10.00">/home/runner/work/spades</text>
<text text-anchor="middle" x="414" y="-73" font-family="Helvetica,sans-Serif" font-size="10.00">/spades/Source/RunTime.H</text>
</a>
</g>
</g>
<!-- Node4&#45;&gt;Node5 -->
<g id="edge4_Node000004_Node000005" class="edge">
<title>Node4&#45;&gt;Node5</title>
<g id="a_edge4_Node000004_Node000005"><a xlink:title=" ">
<path fill="none" stroke="#63b8ff" d="M448.64,-129.21C440.65,-118.32 431.28,-105.55 424.31,-96.04"/>
<polygon fill="#63b8ff" stroke="#63b8ff" points="445.94,-131.44 454.68,-137.44 451.58,-127.3 445.94,-131.44"/>
</a>
</g>
</g>
<!-- Node6 -->
<g id="Node000006" class="node">
<title>Node6</title>
<g id="a_Node000006"><a xlink:href="main_8cpp.html" target="_top" xlink:title=" ">
<polygon fill="white" stroke="#666666" points="538,-30 392,-30 392,0 538,0 538,-30"/>
<text text-anchor="start" x="400" y="-18" font-family="Helvetica,sans-Serif" font-size="10.00">/home/runner/work/spades</text>
<text text-anchor="middle" x="465" y="-7" font-family="Helvetica,sans-Serif" font-size="10.00">/spades/Source/main.cpp</text>
</a>
</g>
</g>
<!-- Node4&#45;&gt;Node6 -->
<g id="edge6_Node000004_Node000006" class="edge">
<title>Node4&#45;&gt;Node6</title>
<g id="a_edge6_Node000004_Node000006"><a xlink:title=" ">
<path fill="none" stroke="#63b8ff" d="M481.16,-128.76C487.05,-119.13 493.01,-107.49 496,-96 499.36,-83.1 499.65,-78.82 496,-66 492.25,-52.84 483.93,-39.76 476.86,-30.28"/>
<polygon fill="#63b8ff" stroke="#63b8ff" points="478.12,-127.01 475.62,-137.31 483.99,-130.82 478.12,-127.01"/>
</a>
</g>
</g>
<!-- Node5&#45;&gt;Node6 -->
<g id="edge5_Node000005_Node000006" class="edge">
<title>Node5&#45;&gt;Node6</title>
<g id="a_edge5_Node000005_Node000006"><a xlink:title=" ">
<path fill="none" stroke="#63b8ff" d="M431.68,-57.81C438.99,-48.64 447.25,-38.28 453.71,-30.16"/>
<polygon fill="#63b8ff" stroke="#63b8ff" points="428.81,-55.79 425.32,-65.8 434.29,-60.16 428.81,-55.79"/>
</a>
</g>
</g>
<!-- Node7&#45;&gt;Node4 -->
<g id="edge9_Node000007_Node000004" class="edge">
<title>Node7&#45;&gt;Node4</title>
<g id="a_edge9_Node000007_Node000004"><a xlink:title=" ">
<path fill="none" stroke="#63b8ff" d="M172.19,-275.55C172.09,-254.94 175.52,-226.15 193,-209 254.34,-148.79 298.95,-190.95 383,-173 390.87,-171.32 399.14,-169.46 407.28,-167.58"/>
<polygon fill="#63b8ff" stroke="#63b8ff" points="168.7,-275.87 172.53,-285.75 175.7,-275.64 168.7,-275.87"/>
</a>
</g>
</g>
<!-- Node8 -->
<g id="Node000008" class="node">
<title>Node8</title>
<g id="a_Node000008"><a xlink:href="_i_c_8cpp.html" target="_top" xlink:title=" ">
<polygon fill="white" stroke="#666666" points="146,-244.5 0,-244.5 0,-214.5 146,-214.5 146,-244.5"/>
<text text-anchor="start" x="8" y="-232.5" font-family="Helvetica,sans-Serif" font-size="10.00">/home/runner/work/spades</text>
<text text-anchor="middle" x="73" y="-221.5" font-family="Helvetica,sans-Serif" font-size="10.00">/spades/Source/IC.cpp</text>
</a>
</g>
</g>
<!-- Node7&#45;&gt;Node8 -->
<g id="edge8_Node000007_Node000008" class="edge">
<title>Node7&#45;&gt;Node8</title>
<g id="a_edge8_Node000007_Node000008"><a xlink:title=" ">
<path fill="none" stroke="#63b8ff" d="M145.31,-280.25C128.75,-268.86 108.32,-254.81 93.41,-244.54"/>
<polygon fill="#63b8ff" stroke="#63b8ff" points="143.34,-283.15 153.56,-285.94 147.31,-277.38 143.34,-283.15"/>
</a>
</g>
</g>
<!-- Node9&#45;&gt;Node4 -->
<g id="edge12_Node000009_Node000004" class="edge">
<title>Node9&#45;&gt;Node4</title>
<g id="a_edge12_Node000009_Node000004"><a xlink:title=" ">
<path fill="none" stroke="#63b8ff" d="M555.19,-203.98C533.73,-191.97 508.63,-177.92 490.37,-167.7"/>
<polygon fill="#63b8ff" stroke="#63b8ff" points="553.71,-207.16 564.14,-208.99 557.13,-201.05 553.71,-207.16"/>
</a>
</g>
</g>
<!-- Node10 -->
<g id="Node000010" class="node">
<title>Node10</title>
<g id="a_Node000010"><a xlink:href="_message_particle_container_8cpp.html" target="_top" xlink:title=" ">
<polygon fill="white" stroke="#666666" points="729.5,-173 556.5,-173 556.5,-132 729.5,-132 729.5,-173"/>
<text text-anchor="start" x="564.5" y="-161" font-family="Helvetica,sans-Serif" font-size="10.00">/home/runner/work/spades</text>
<text text-anchor="start" x="564.5" y="-150" font-family="Helvetica,sans-Serif" font-size="10.00">/spades/Source/MessageParticle</text>
<text text-anchor="middle" x="643" y="-139" font-family="Helvetica,sans-Serif" font-size="10.00">Container.cpp</text>
</a>
</g>
</g>
<!-- Node9&#45;&gt;Node10 -->
<g id="edge11_Node000009_Node000010" class="edge">
<title>Node9&#45;&gt;Node10</title>
<g id="a_edge11_Node000009_Node000010"><a xlink:title=" ">
<path fill="none" stroke="#63b8ff" d="M615.66,-200.11C620.95,-191.09 626.68,-181.33 631.52,-173.07"/>
<polygon fill="#63b8ff" stroke="#63b8ff" points="612.6,-198.4 610.56,-208.79 618.64,-201.94 612.6,-198.4"/>
</a>
</g>
</g>
<!-- Node11&#45;&gt;Node4 -->
<g id="edge15_Node000011_Node000004" class="edge">
<title>Node11&#45;&gt;Node4</title>
<g id="a_edge15_Node000011_Node000004"><a xlink:title=" ">
<path fill="none" stroke="#63b8ff" d="M775.47,-280.55C761.85,-271.85 746.17,-261.07 733,-250 713.75,-233.81 715.77,-221.59 694,-209 692.11,-207.91 590.86,-183.58 523.64,-167.5"/>
<polygon fill="#63b8ff" stroke="#63b8ff" points="773.74,-283.6 784.07,-285.95 777.46,-277.67 773.74,-283.6"/>
</a>
</g>
</g>
<!-- Node12 -->
<g id="Node000012" class="node">
<title>Node12</title>
<g id="a_Node000012"><a xlink:href="_phold_8cpp.html" target="_top" xlink:title=" ">
<polygon fill="white" stroke="#666666" points="921.5,-244.5 742.5,-244.5 742.5,-214.5 921.5,-214.5 921.5,-244.5"/>
<text text-anchor="start" x="750.5" y="-232.5" font-family="Helvetica,sans-Serif" font-size="10.00">/home/runner/work/spades</text>
<text text-anchor="middle" x="832" y="-221.5" font-family="Helvetica,sans-Serif" font-size="10.00">/spades/Source/Models/Phold.cpp</text>
</a>
</g>
</g>
<!-- Node11&#45;&gt;Node12 -->
<g id="edge14_Node000011_Node000012" class="edge">
<title>Node11&#45;&gt;Node12</title>
<g id="a_edge14_Node000011_Node000012"><a xlink:title=" ">
<path fill="none" stroke="#63b8ff" d="M816.15,-276.4C819.81,-265.81 824,-253.68 827.15,-244.54"/>
<polygon fill="#63b8ff" stroke="#63b8ff" points="812.81,-275.34 812.86,-285.94 819.43,-277.63 812.81,-275.34"/>
</a>
</g>
</g>
<!-- Node13&#45;&gt;Node2 -->
<g id="edge18_Node000013_Node000002" class="edge">
<title>Node13&#45;&gt;Node2</title>
<g id="a_edge18_Node000013_Node000002"><a xlink:title=" ">
<path fill="none" stroke="#63b8ff" d="M497.18,-283.17C455.15,-271.34 399.56,-255.7 359.91,-244.54"/>
<polygon fill="#63b8ff" stroke="#63b8ff" points="496.44,-286.6 507.02,-285.94 498.34,-279.86 496.44,-286.6"/>
</a>
</g>
</g>
<!-- Node13&#45;&gt;Node4 -->
<g id="edge20_Node000013_Node000004" class="edge">
<title>Node13&#45;&gt;Node4</title>
<g id="a_edge20_Node000013_Node000004"><a xlink:title=" ">
<path fill="none" stroke="#63b8ff" d="M530.18,-279.44C520.64,-271.11 510.43,-260.88 503,-250 484.92,-223.54 473.61,-187.22 468.4,-167.55"/>
<polygon fill="#63b8ff" stroke="#63b8ff" points="528.05,-282.22 537.96,-285.97 532.55,-276.86 528.05,-282.22"/>
</a>
</g>
</g>
<!-- Node13&#45;&gt;Node9 -->
<g id="edge19_Node000013_Node000009" class="edge">
<title>Node13&#45;&gt;Node9</title>
<g id="a_edge19_Node000013_Node000009"><a xlink:title=" ">
<path fill="none" stroke="#63b8ff" d="M570.71,-277.31C576.03,-268.52 582.05,-258.55 587.17,-250.07"/>
<polygon fill="#63b8ff" stroke="#63b8ff" points="567.68,-275.57 565.5,-285.94 573.67,-279.19 567.68,-275.57"/>
</a>
</g>
</g>
</g>
</svg>
