<?xml version="1.0" encoding="UTF-8" standalone="no"?>
<!DOCTYPE svg PUBLIC "-//W3C//DTD SVG 1.1//EN"
 "http://www.w3.org/Graphics/SVG/1.1/DTD/svg11.dtd">
<!-- Generated by graphviz version 2.43.0 (0)
 -->
<!-- Title: spades::SPADES::rollback_statistics Pages: 1 -->
<svg width="934pt" height="51pt"
 viewBox="0.00 0.00 934.00 50.50" xmlns="http://www.w3.org/2000/svg" xmlns:xlink="http://www.w3.org/1999/xlink">
<g id="graph0" class="graph" transform="scale(1 1) rotate(0) translate(4 46.5)">
<title>spades::SPADES::rollback_statistics</title>
<!-- Node1 -->
<g id="Node000001" class="node">
<title>Node1</title>
<g id="a_Node000001"><a xlink:title="Print rollback statistics.">
<polygon fill="#999999" stroke="#666666" points="926,-30 786,-30 786,0 926,0 926,-30"/>
<text text-anchor="start" x="794" y="-18" font-family="Helvetica,sans-Serif" font-size="10.00">spades::SPADES::rollback</text>
<text text-anchor="middle" x="856" y="-7" font-family="Helvetica,sans-Serif" font-size="10.00">_statistics</text>
</a>
</g>
</g>
<!-- Node2 -->
<g id="Node000002" class="node">
<title>Node2</title>
<g id="a_Node000002"><a xlink:href="classspades_1_1_s_p_a_d_e_s.html#ae394ed7dee73e2bee962cf3eead24cc4" target="_top" xlink:title="Perform rollback.">
<polygon fill="white" stroke="#666666" points="750,-24.5 610,-24.5 610,-5.5 750,-5.5 750,-24.5"/>
<text text-anchor="middle" x="680" y="-12.5" font-family="Helvetica,sans-Serif" font-size="10.00">spades::SPADES::rollback</text>
</a>
</g>
</g>
<!-- Node1&#45;&gt;Node2 -->
<g id="edge1_Node000001_Node000002" class="edge">
<title>Node1&#45;&gt;Node2</title>
<g id="a_edge1_Node000001_Node000002"><a xlink:title=" ">
<path fill="none" stroke="#63b8ff" d="M775.97,-15C767.38,-15 758.68,-15 750.22,-15"/>
<polygon fill="#63b8ff" stroke="#63b8ff" points="775.98,-18.5 785.98,-15 775.98,-11.5 775.98,-18.5"/>
</a>
</g>
</g>
<!-- Node2&#45;&gt;Node2 -->
<g id="edge6_Node000002_Node000002" class="edge">
<title>Node2&#45;&gt;Node2</title>
<g id="a_edge6_Node000002_Node000002"><a xlink:title=" ">
<path fill="none" stroke="#63b8ff" d="M712.93,-32.95C712,-38.32 701.02,-42.5 680,-42.5 648.72,-42.5 639.68,-33.23 652.87,-24.58"/>
<polygon fill="#63b8ff" stroke="#63b8ff" points="715.7,-30.8 707.13,-24.58 709.95,-34.79 715.7,-30.8"/>
</a>
</g>
</g>
<!-- Node3 -->
<g id="Node000003" class="node">
<title>Node3</title>
<g id="a_Node000003"><a xlink:href="classspades_1_1_s_p_a_d_e_s.html#a0b81ab952fa2884baa10af3a0c79de6e" target="_top" xlink:title="Advance for a single time step.">
<polygon fill="white" stroke="#666666" points="574,-24.5 432,-24.5 432,-5.5 574,-5.5 574,-24.5"/>
<text text-anchor="middle" x="503" y="-12.5" font-family="Helvetica,sans-Serif" font-size="10.00">spades::SPADES::advance</text>
</a>
</g>
</g>
<!-- Node2&#45;&gt;Node3 -->
<g id="edge2_Node000002_Node000003" class="edge">
<title>Node2&#45;&gt;Node3</title>
<g id="a_edge2_Node000002_Node000003"><a xlink:title=" ">
<path fill="none" stroke="#63b8ff" d="M599.83,-15C591.25,-15 582.56,-15 574.1,-15"/>
<polygon fill="#63b8ff" stroke="#63b8ff" points="599.84,-18.5 609.84,-15 599.84,-11.5 599.84,-18.5"/>
</a>
</g>
</g>
<!-- Node4 -->
<g id="Node000004" class="node">
<title>Node4</title>
<g id="a_Node000004"><a xlink:href="classspades_1_1_s_p_a_d_e_s.html#a63f0eec354a17c365e13f2268872c154" target="_top" xlink:title="Advance by the time step.">
<polygon fill="white" stroke="#666666" points="396,-24.5 247,-24.5 247,-5.5 396,-5.5 396,-24.5"/>
<text text-anchor="middle" x="321.5" y="-12.5" font-family="Helvetica,sans-Serif" font-size="10.00">spades::SPADES::time_step</text>
</a>
</g>
</g>
<!-- Node3&#45;&gt;Node4 -->
<g id="edge3_Node000003_Node000004" class="edge">
<title>Node3&#45;&gt;Node4</title>
<g id="a_edge3_Node000003_Node000004"><a xlink:title=" ">
<path fill="none" stroke="#63b8ff" d="M421.59,-15C413.13,-15 404.55,-15 396.17,-15"/>
<polygon fill="#63b8ff" stroke="#63b8ff" points="421.83,-18.5 431.83,-15 421.83,-11.5 421.83,-18.5"/>
</a>
</g>
</g>
<!-- Node5 -->
<g id="Node000005" class="node">
<title>Node5</title>
<g id="a_Node000005"><a xlink:href="classspades_1_1_s_p_a_d_e_s.html#af3d4d2fbe90c38c164a2dd23d9471391" target="_top" xlink:title="Advance solution to final time.">
<polygon fill="white" stroke="#666666" points="211,-24.5 77,-24.5 77,-5.5 211,-5.5 211,-24.5"/>
<text text-anchor="middle" x="144" y="-12.5" font-family="Helvetica,sans-Serif" font-size="10.00">spades::SPADES::evolve</text>
</a>
</g>
</g>
<!-- Node4&#45;&gt;Node5 -->
<g id="edge4_Node000004_Node000005" class="edge">
<title>Node4&#45;&gt;Node5</title>
<g id="a_edge4_Node000004_Node000005"><a xlink:title=" ">
<path fill="none" stroke="#63b8ff" d="M236.8,-15C228.21,-15 219.58,-15 211.22,-15"/>
<polygon fill="#63b8ff" stroke="#63b8ff" points="236.84,-18.5 246.84,-15 236.83,-11.5 236.84,-18.5"/>
</a>
</g>
</g>
<!-- Node6 -->
<g id="Node000006" class="node">
<title>Node6</title>
<g id="a_Node000006"><a xlink:href="main_8cpp.html#a0ddf1224851353fc92bfbff6f499fa97" target="_top" xlink:title="Main function.">
<polygon fill="white" stroke="#666666" points="41,-24.5 0,-24.5 0,-5.5 41,-5.5 41,-24.5"/>
<text text-anchor="middle" x="20.5" y="-12.5" font-family="Helvetica,sans-Serif" font-size="10.00">main</text>
</a>
</g>
</g>
<!-- Node5&#45;&gt;Node6 -->
<g id="edge5_Node000005_Node000006" class="edge">
<title>Node5&#45;&gt;Node6</title>
<g id="a_edge5_Node000005_Node000006"><a xlink:title=" ">
<path fill="none" stroke="#63b8ff" d="M66.65,-15C57.34,-15 48.56,-15 41.25,-15"/>
<polygon fill="#63b8ff" stroke="#63b8ff" points="66.92,-18.5 76.92,-15 66.92,-11.5 66.92,-18.5"/>
</a>
</g>
</g>
</g>
</svg>
