<?xml version="1.0" encoding="UTF-8" standalone="no"?>
<!DOCTYPE svg PUBLIC "-//W3C//DTD SVG 1.1//EN"
 "http://www.w3.org/Graphics/SVG/1.1/DTD/svg11.dtd">
<!-- Generated by graphviz version 2.43.0 (0)
 -->
<!-- Title: spades::particles::MessageParticleContainer Pages: 1 -->
<svg width="601pt" height="71pt"
 viewBox="0.00 0.00 601.00 71.00" xmlns="http://www.w3.org/2000/svg" xmlns:xlink="http://www.w3.org/1999/xlink">
<g id="graph0" class="graph" transform="scale(1 1) rotate(0) translate(4 67)">
<title>spades::particles::MessageParticleContainer</title>
<!-- Node1 -->
<g id="Node000001" class="node">
<title>Node1</title>
<g id="a_Node000001"><a xlink:title="Main SPADES message container.">
<polygon fill="#999999" stroke="#666666" points="593,-46.5 450,-46.5 450,-16.5 593,-16.5 593,-46.5"/>
<text text-anchor="start" x="458" y="-34.5" font-family="Helvetica,sans-Serif" font-size="10.00">spades::particles::</text>
<text text-anchor="middle" x="521.5" y="-23.5" font-family="Helvetica,sans-Serif" font-size="10.00">MessageParticleContainer</text>
</a>
</g>
</g>
<!-- Node2 -->
<g id="Node000002" class="node">
<title>Node2</title>
<g id="a_Node000002"><a xlink:href="classspades_1_1particles_1_1_spades_particle_container.html" target="_top" xlink:title=" ">
<polygon fill="white" stroke="#666666" points="414,-63 218,-63 218,0 414,0 414,-63"/>
<text text-anchor="start" x="226" y="-51" font-family="Helvetica,sans-Serif" font-size="10.00">spades::particles::</text>
<text text-anchor="start" x="226" y="-40" font-family="Helvetica,sans-Serif" font-size="10.00">SpadesParticleContainer</text>
<text text-anchor="start" x="226" y="-29" font-family="Helvetica,sans-Serif" font-size="10.00">&lt; MessageTypes::NTYPES,</text>
<text text-anchor="start" x="226" y="-18" font-family="Helvetica,sans-Serif" font-size="10.00"> 0, 0, MessageRealData::</text>
<text text-anchor="middle" x="316" y="-7" font-family="Helvetica,sans-Serif" font-size="10.00">ncomps, MessageIntData::ncomps &gt;</text>
</a>
</g>
</g>
<!-- Node2&#45;&gt;Node1 -->
<g id="edge1_Node000001_Node000002" class="edge">
<title>Node2&#45;&gt;Node1</title>
<g id="a_edge1_Node000001_Node000002"><a xlink:title=" ">
<path fill="none" stroke="#63b8ff" d="M424.37,-31.5C432.96,-31.5 441.5,-31.5 449.73,-31.5"/>
<polygon fill="#63b8ff" stroke="#63b8ff" points="424.28,-28 414.28,-31.5 424.28,-35 424.28,-28"/>
</a>
</g>
</g>
<!-- Node3 -->
<g id="Node000003" class="node">
<title>Node3</title>
<g id="a_Node000003"><a xlink:title=" ">
<polygon fill="white" stroke="#666666" points="182,-52 0,-52 0,-11 182,-11 182,-52"/>
<text text-anchor="start" x="8" y="-40" font-family="Helvetica,sans-Serif" font-size="10.00">amrex::NeighborParticleContainer</text>
<text text-anchor="start" x="8" y="-29" font-family="Helvetica,sans-Serif" font-size="10.00">&lt; NStructReal, NStructInt,</text>
<text text-anchor="middle" x="91" y="-18" font-family="Helvetica,sans-Serif" font-size="10.00"> NArrayReal, NArrayInt &gt;</text>
</a>
</g>
</g>
<!-- Node3&#45;&gt;Node2 -->
<g id="edge2_Node000002_Node000003" class="edge">
<title>Node3&#45;&gt;Node2</title>
<g id="a_edge2_Node000002_Node000003"><a xlink:title=" ">
<path fill="none" stroke="#63b8ff" d="M192.3,-31.5C200.74,-31.5 209.26,-31.5 217.68,-31.5"/>
<polygon fill="#63b8ff" stroke="#63b8ff" points="192.06,-28 182.06,-31.5 192.06,-35 192.06,-28"/>
</a>
</g>
</g>
</g>
</svg>
