<?xml version="1.0" encoding="UTF-8" standalone="no"?>
<!DOCTYPE svg PUBLIC "-//W3C//DTD SVG 1.1//EN"
 "http://www.w3.org/Graphics/SVG/1.1/DTD/svg11.dtd">
<!-- Generated by graphviz version 2.43.0 (0)
 -->
<!-- Title: spades::SPADES::write_info_file Pages: 1 -->
<svg width="550pt" height="86pt"
 viewBox="0.00 0.00 550.00 86.00" xmlns="http://www.w3.org/2000/svg" xmlns:xlink="http://www.w3.org/1999/xlink">
<g id="graph0" class="graph" transform="scale(1 1) rotate(0) translate(4 82)">
<title>spades::SPADES::write_info_file</title>
<!-- Node1 -->
<g id="Node000001" class="node">
<title>Node1</title>
<g id="a_Node000001"><a xlink:title="Write job info to disk.">
<polygon fill="#999999" stroke="#666666" points="542,-54 417,-54 417,-24 542,-24 542,-54"/>
<text text-anchor="start" x="425" y="-42" font-family="Helvetica,sans-Serif" font-size="10.00">spades::SPADES::write</text>
<text text-anchor="middle" x="479.5" y="-31" font-family="Helvetica,sans-Serif" font-size="10.00">_info_file</text>
</a>
</g>
</g>
<!-- Node2 -->
<g id="Node000002" class="node">
<title>Node2</title>
<g id="a_Node000002"><a xlink:href="classspades_1_1_s_p_a_d_e_s.html#ae3d9cc7f3a32593dbed6aa1899aed241" target="_top" xlink:title="Write checkpoint file to disk.">
<polygon fill="white" stroke="#666666" points="381,-78 256,-78 256,-48 381,-48 381,-78"/>
<text text-anchor="start" x="264" y="-66" font-family="Helvetica,sans-Serif" font-size="10.00">spades::SPADES::write</text>
<text text-anchor="middle" x="318.5" y="-55" font-family="Helvetica,sans-Serif" font-size="10.00">_checkpoint_file</text>
</a>
</g>
</g>
<!-- Node1&#45;&gt;Node2 -->
<g id="edge1_Node000001_Node000002" class="edge">
<title>Node1&#45;&gt;Node2</title>
<g id="a_edge1_Node000001_Node000002"><a xlink:title=" ">
<path fill="none" stroke="#63b8ff" d="M406.41,-49.88C398.01,-51.15 389.5,-52.43 381.26,-53.68"/>
<polygon fill="#63b8ff" stroke="#63b8ff" points="407.21,-53.3 416.57,-48.35 406.16,-46.38 407.21,-53.3"/>
</a>
</g>
</g>
<!-- Node6 -->
<g id="Node000006" class="node">
<title>Node6</title>
<g id="a_Node000006"><a xlink:href="classspades_1_1_s_p_a_d_e_s.html#ae734db0eea8651621eb07bbf6c8db9f3" target="_top" xlink:title="Write plotfile to disk.">
<polygon fill="white" stroke="#666666" points="381,-30 256,-30 256,0 381,0 381,-30"/>
<text text-anchor="start" x="264" y="-18" font-family="Helvetica,sans-Serif" font-size="10.00">spades::SPADES::write</text>
<text text-anchor="middle" x="318.5" y="-7" font-family="Helvetica,sans-Serif" font-size="10.00">_plot_file</text>
</a>
</g>
</g>
<!-- Node1&#45;&gt;Node6 -->
<g id="edge6_Node000001_Node000006" class="edge">
<title>Node1&#45;&gt;Node6</title>
<g id="a_edge6_Node000001_Node000006"><a xlink:title=" ">
<path fill="none" stroke="#63b8ff" d="M406.41,-28.12C398.01,-26.85 389.5,-25.57 381.26,-24.32"/>
<polygon fill="#63b8ff" stroke="#63b8ff" points="406.16,-31.62 416.57,-29.65 407.21,-24.7 406.16,-31.62"/>
</a>
</g>
</g>
<!-- Node3 -->
<g id="Node000003" class="node">
<title>Node3</title>
<g id="a_Node000003"><a xlink:href="classspades_1_1_s_p_a_d_e_s.html#af3d4d2fbe90c38c164a2dd23d9471391" target="_top" xlink:title="Advance solution to final time.">
<polygon fill="white" stroke="#666666" points="215.5,-66.5 81.5,-66.5 81.5,-47.5 215.5,-47.5 215.5,-66.5"/>
<text text-anchor="middle" x="148.5" y="-54.5" font-family="Helvetica,sans-Serif" font-size="10.00">spades::SPADES::evolve</text>
</a>
</g>
</g>
<!-- Node2&#45;&gt;Node3 -->
<g id="edge2_Node000002_Node000003" class="edge">
<title>Node2&#45;&gt;Node3</title>
<g id="a_edge2_Node000002_Node000003"><a xlink:title=" ">
<path fill="none" stroke="#63b8ff" d="M245.62,-60.43C235.66,-60.08 225.47,-59.71 215.62,-59.36"/>
<polygon fill="#63b8ff" stroke="#63b8ff" points="245.78,-63.94 255.9,-60.8 246.03,-56.95 245.78,-63.94"/>
</a>
</g>
</g>
<!-- Node5 -->
<g id="Node000005" class="node">
<title>Node5</title>
<g id="a_Node000005"><a xlink:href="classspades_1_1_s_p_a_d_e_s.html#a30fb207b5d878663ebf2b17cffc473e8" target="_top" xlink:title="Initializes data.">
<polygon fill="white" stroke="#666666" points="220,-29.5 77,-29.5 77,-10.5 220,-10.5 220,-29.5"/>
<text text-anchor="middle" x="148.5" y="-17.5" font-family="Helvetica,sans-Serif" font-size="10.00">spades::SPADES::init_data</text>
</a>
</g>
</g>
<!-- Node2&#45;&gt;Node5 -->
<g id="edge4_Node000002_Node000005" class="edge">
<title>Node2&#45;&gt;Node5</title>
<g id="a_edge4_Node000002_Node000005"><a xlink:title=" ">
<path fill="none" stroke="#63b8ff" d="M248.78,-45.41C227.54,-39.97 204.96,-34.19 186.7,-29.52"/>
<polygon fill="#63b8ff" stroke="#63b8ff" points="248.19,-48.87 258.74,-47.96 249.92,-42.09 248.19,-48.87"/>
</a>
</g>
</g>
<!-- Node4 -->
<g id="Node000004" class="node">
<title>Node4</title>
<g id="a_Node000004"><a xlink:href="main_8cpp.html#a0ddf1224851353fc92bfbff6f499fa97" target="_top" xlink:title="Main function.">
<polygon fill="white" stroke="#666666" points="41,-47.5 0,-47.5 0,-28.5 41,-28.5 41,-47.5"/>
<text text-anchor="middle" x="20.5" y="-35.5" font-family="Helvetica,sans-Serif" font-size="10.00">main</text>
</a>
</g>
</g>
<!-- Node3&#45;&gt;Node4 -->
<g id="edge3_Node000003_Node000004" class="edge">
<title>Node3&#45;&gt;Node4</title>
<g id="a_edge3_Node000003_Node000004"><a xlink:title=" ">
<path fill="none" stroke="#63b8ff" d="M73.88,-45.9C61.78,-44.07 50.22,-42.33 41.05,-40.95"/>
<polygon fill="#63b8ff" stroke="#63b8ff" points="73.72,-49.41 84.13,-47.44 74.76,-42.49 73.72,-49.41"/>
</a>
</g>
</g>
<!-- Node5&#45;&gt;Node4 -->
<g id="edge5_Node000005_Node000004" class="edge">
<title>Node5&#45;&gt;Node4</title>
<g id="a_edge5_Node000005_Node000004"><a xlink:title=" ">
<path fill="none" stroke="#63b8ff" d="M70.68,-30.97C59.79,-32.53 49.48,-34 41.13,-35.2"/>
<polygon fill="#63b8ff" stroke="#63b8ff" points="71.41,-34.41 80.81,-29.53 70.42,-27.48 71.41,-34.41"/>
</a>
</g>
</g>
<!-- Node6&#45;&gt;Node3 -->
<g id="edge7_Node000006_Node000003" class="edge">
<title>Node6&#45;&gt;Node3</title>
<g id="a_edge7_Node000006_Node000003"><a xlink:title=" ">
<path fill="none" stroke="#63b8ff" d="M247.38,-32.53C226.88,-37.65 205.26,-43.06 187.56,-47.48"/>
<polygon fill="#63b8ff" stroke="#63b8ff" points="248.47,-35.87 257.32,-30.04 246.77,-29.07 248.47,-35.87"/>
</a>
</g>
</g>
<!-- Node6&#45;&gt;Node5 -->
<g id="edge8_Node000006_Node000005" class="edge">
<title>Node6&#45;&gt;Node5</title>
<g id="a_edge8_Node000006_Node000005"><a xlink:title=" ">
<path fill="none" stroke="#63b8ff" d="M245.7,-17.14C237.25,-17.39 228.63,-17.65 220.19,-17.9"/>
<polygon fill="#63b8ff" stroke="#63b8ff" points="246.01,-20.63 255.9,-16.83 245.8,-13.63 246.01,-20.63"/>
</a>
</g>
</g>
</g>
</svg>
