<?xml version="1.0" encoding="UTF-8" standalone="no"?>
<!DOCTYPE svg PUBLIC "-//W3C//DTD SVG 1.1//EN"
 "http://www.w3.org/Graphics/SVG/1.1/DTD/svg11.dtd">
<!-- Generated by graphviz version 2.43.0 (0)
 -->
<!-- Title: spades::SPADES::plot_file_var_names Pages: 1 -->
<svg width="699pt" height="73pt"
 viewBox="0.00 0.00 699.00 72.50" xmlns="http://www.w3.org/2000/svg" xmlns:xlink="http://www.w3.org/1999/xlink">
<g id="graph0" class="graph" transform="scale(1 1) rotate(0) translate(4 68.5)">
<title>spades::SPADES::plot_file_var_names</title>
<!-- Node1 -->
<g id="Node000001" class="node">
<title>Node1</title>
<g id="a_Node000001"><a xlink:title="Set plotfile variables names.">
<polygon fill="#999999" stroke="#666666" points="691,-42.5 572,-42.5 572,-12.5 691,-12.5 691,-42.5"/>
<text text-anchor="start" x="580" y="-30.5" font-family="Helvetica,sans-Serif" font-size="10.00">spades::SPADES::plot</text>
<text text-anchor="middle" x="631.5" y="-19.5" font-family="Helvetica,sans-Serif" font-size="10.00">_file_var_names</text>
</a>
</g>
</g>
<!-- Node2 -->
<g id="Node000002" class="node">
<title>Node2</title>
<g id="a_Node000002"><a xlink:href="classspades_1_1_s_p_a_d_e_s.html#a87ad184e18217adfb1fc08cdf8892622" target="_top" xlink:title="Put together the MultiFab for output.">
<polygon fill="white" stroke="#666666" points="536,-64.5 417,-64.5 417,-34.5 536,-34.5 536,-64.5"/>
<text text-anchor="start" x="425" y="-52.5" font-family="Helvetica,sans-Serif" font-size="10.00">spades::SPADES::plot</text>
<text text-anchor="middle" x="476.5" y="-41.5" font-family="Helvetica,sans-Serif" font-size="10.00">_file_mf</text>
</a>
</g>
</g>
<!-- Node1&#45;&gt;Node2 -->
<g id="edge1_Node000001_Node000002" class="edge">
<title>Node1&#45;&gt;Node2</title>
<g id="a_edge1_Node000001_Node000002"><a xlink:title=" ">
<path fill="none" stroke="#63b8ff" d="M561.79,-37.38C553.2,-38.62 544.47,-39.87 536.06,-41.08"/>
<polygon fill="#63b8ff" stroke="#63b8ff" points="562.38,-40.83 571.78,-35.94 561.39,-33.9 562.38,-40.83"/>
</a>
</g>
</g>
<!-- Node3 -->
<g id="Node000003" class="node">
<title>Node3</title>
<g id="a_Node000003"><a xlink:href="classspades_1_1_s_p_a_d_e_s.html#ae734db0eea8651621eb07bbf6c8db9f3" target="_top" xlink:title="Write plotfile to disk.">
<polygon fill="white" stroke="#666666" points="381,-42.5 256,-42.5 256,-12.5 381,-12.5 381,-42.5"/>
<text text-anchor="start" x="264" y="-30.5" font-family="Helvetica,sans-Serif" font-size="10.00">spades::SPADES::write</text>
<text text-anchor="middle" x="318.5" y="-19.5" font-family="Helvetica,sans-Serif" font-size="10.00">_plot_file</text>
</a>
</g>
</g>
<!-- Node1&#45;&gt;Node3 -->
<g id="edge7_Node000001_Node000003" class="edge">
<title>Node1&#45;&gt;Node3</title>
<g id="a_edge7_Node000001_Node000003"><a xlink:title=" ">
<path fill="none" stroke="#63b8ff" d="M561.69,-25.87C553.04,-25.72 544.31,-25.59 536,-25.5 483.11,-24.94 469.89,-24.96 417,-25.5 405.4,-25.62 393.03,-25.82 381.13,-26.04"/>
<polygon fill="#63b8ff" stroke="#63b8ff" points="561.71,-29.37 571.78,-26.06 561.84,-22.38 561.71,-29.37"/>
</a>
</g>
</g>
<!-- Node2&#45;&gt;Node3 -->
<g id="edge2_Node000002_Node000003" class="edge">
<title>Node2&#45;&gt;Node3</title>
<g id="a_edge2_Node000002_Node000003"><a xlink:title=" ">
<path fill="none" stroke="#63b8ff" d="M407,-39.84C398.42,-38.63 389.69,-37.4 381.23,-36.21"/>
<polygon fill="#63b8ff" stroke="#63b8ff" points="406.58,-43.31 416.97,-41.25 407.55,-36.38 406.58,-43.31"/>
</a>
</g>
</g>
<!-- Node4 -->
<g id="Node000004" class="node">
<title>Node4</title>
<g id="a_Node000004"><a xlink:href="classspades_1_1_s_p_a_d_e_s.html#af3d4d2fbe90c38c164a2dd23d9471391" target="_top" xlink:title="Advance solution to final time.">
<polygon fill="white" stroke="#666666" points="215.5,-56 81.5,-56 81.5,-37 215.5,-37 215.5,-56"/>
<text text-anchor="middle" x="148.5" y="-44" font-family="Helvetica,sans-Serif" font-size="10.00">spades::SPADES::evolve</text>
</a>
</g>
</g>
<!-- Node3&#45;&gt;Node4 -->
<g id="edge3_Node000003_Node000004" class="edge">
<title>Node3&#45;&gt;Node4</title>
<g id="a_edge3_Node000003_Node000004"><a xlink:title=" ">
<path fill="none" stroke="#63b8ff" d="M245.94,-35.59C235.88,-36.73 225.57,-37.9 215.62,-39.02"/>
<polygon fill="#63b8ff" stroke="#63b8ff" points="246.35,-39.07 255.9,-34.47 245.57,-32.11 246.35,-39.07"/>
</a>
</g>
</g>
<!-- Node6 -->
<g id="Node000006" class="node">
<title>Node6</title>
<g id="a_Node000006"><a xlink:href="classspades_1_1_s_p_a_d_e_s.html#a30fb207b5d878663ebf2b17cffc473e8" target="_top" xlink:title="Initializes data.">
<polygon fill="white" stroke="#666666" points="220,-19 77,-19 77,0 220,0 220,-19"/>
<text text-anchor="middle" x="148.5" y="-7" font-family="Helvetica,sans-Serif" font-size="10.00">spades::SPADES::init_data</text>
</a>
</g>
</g>
<!-- Node3&#45;&gt;Node6 -->
<g id="edge5_Node000003_Node000006" class="edge">
<title>Node3&#45;&gt;Node6</title>
<g id="a_edge5_Node000003_Node000006"><a xlink:title=" ">
<path fill="none" stroke="#63b8ff" d="M245.7,-19.81C237.25,-18.9 228.63,-17.98 220.19,-17.07"/>
<polygon fill="#63b8ff" stroke="#63b8ff" points="245.58,-23.31 255.9,-20.9 246.33,-16.35 245.58,-23.31"/>
</a>
</g>
</g>
<!-- Node5 -->
<g id="Node000005" class="node">
<title>Node5</title>
<g id="a_Node000005"><a xlink:href="main_8cpp.html#a0ddf1224851353fc92bfbff6f499fa97" target="_top" xlink:title="Main function.">
<polygon fill="white" stroke="#666666" points="41,-37 0,-37 0,-18 41,-18 41,-37"/>
<text text-anchor="middle" x="20.5" y="-25" font-family="Helvetica,sans-Serif" font-size="10.00">main</text>
</a>
</g>
</g>
<!-- Node4&#45;&gt;Node5 -->
<g id="edge4_Node000004_Node000005" class="edge">
<title>Node4&#45;&gt;Node5</title>
<g id="a_edge4_Node000004_Node000005"><a xlink:title=" ">
<path fill="none" stroke="#63b8ff" d="M73.88,-35.4C61.78,-33.57 50.22,-31.83 41.05,-30.45"/>
<polygon fill="#63b8ff" stroke="#63b8ff" points="73.72,-38.91 84.13,-36.94 74.76,-31.99 73.72,-38.91"/>
</a>
</g>
</g>
<!-- Node6&#45;&gt;Node5 -->
<g id="edge6_Node000006_Node000005" class="edge">
<title>Node6&#45;&gt;Node5</title>
<g id="a_edge6_Node000006_Node000005"><a xlink:title=" ">
<path fill="none" stroke="#63b8ff" d="M70.68,-20.47C59.79,-22.03 49.48,-23.5 41.13,-24.7"/>
<polygon fill="#63b8ff" stroke="#63b8ff" points="71.41,-23.91 80.81,-19.03 70.42,-16.98 71.41,-23.91"/>
</a>
</g>
</g>
</g>
</svg>
