<?xml version="1.0" encoding="UTF-8" standalone="no"?>
<!DOCTYPE svg PUBLIC "-//W3C//DTD SVG 1.1//EN"
 "http://www.w3.org/Graphics/SVG/1.1/DTD/svg11.dtd">
<!-- Generated by graphviz version 2.43.0 (0)
 -->
<!-- Title: spades::SPADES::write_plot_file Pages: 1 -->
<svg width="449pt" height="172pt"
 viewBox="0.00 0.00 449.00 172.00" xmlns="http://www.w3.org/2000/svg" xmlns:xlink="http://www.w3.org/1999/xlink">
<g id="graph0" class="graph" transform="scale(1 1) rotate(0) translate(4 168)">
<title>spades::SPADES::write_plot_file</title>
<!-- Node1 -->
<g id="Node000001" class="node">
<title>Node1</title>
<g id="a_Node000001"><a xlink:title="Write plotfile to disk.">
<polygon fill="#999999" stroke="#666666" points="125,-99 0,-99 0,-69 125,-69 125,-99"/>
<text text-anchor="start" x="8" y="-87" font-family="Helvetica,sans-Serif" font-size="10.00">spades::SPADES::write</text>
<text text-anchor="middle" x="62.5" y="-76" font-family="Helvetica,sans-Serif" font-size="10.00">_plot_file</text>
</a>
</g>
</g>
<!-- Node2 -->
<g id="Node000002" class="node">
<title>Node2</title>
<g id="a_Node000002"><a xlink:href="classspades_1_1_s_p_a_d_e_s.html#a87ad184e18217adfb1fc08cdf8892622" target="_top" xlink:title="Put together the MultiFab for output.">
<polygon fill="white" stroke="#666666" points="283,-164 164,-164 164,-134 283,-134 283,-164"/>
<text text-anchor="start" x="172" y="-152" font-family="Helvetica,sans-Serif" font-size="10.00">spades::SPADES::plot</text>
<text text-anchor="middle" x="223.5" y="-141" font-family="Helvetica,sans-Serif" font-size="10.00">_file_mf</text>
</a>
</g>
</g>
<!-- Node1&#45;&gt;Node2 -->
<g id="edge1_Node000001_Node000002" class="edge">
<title>Node1&#45;&gt;Node2</title>
<g id="a_edge1_Node000001_Node000002"><a xlink:title=" ">
<path fill="none" stroke="#63b8ff" d="M100.38,-99.08C122.97,-108.31 152.09,-120.22 176.23,-130.08"/>
<polygon fill="#63b8ff" stroke="#63b8ff" points="174.97,-133.35 185.55,-133.89 177.62,-126.87 174.97,-133.35"/>
</a>
</g>
</g>
<!-- Node3 -->
<g id="Node000003" class="node">
<title>Node3</title>
<g id="a_Node000003"><a xlink:href="classspades_1_1_s_p_a_d_e_s.html#a9d99d17b8514b6251b7711959c2deba6" target="_top" xlink:title="Set plotfile variables names.">
<polygon fill="white" stroke="#666666" points="441,-142 322,-142 322,-112 441,-112 441,-142"/>
<text text-anchor="start" x="330" y="-130" font-family="Helvetica,sans-Serif" font-size="10.00">spades::SPADES::plot</text>
<text text-anchor="middle" x="381.5" y="-119" font-family="Helvetica,sans-Serif" font-size="10.00">_file_var_names</text>
</a>
</g>
</g>
<!-- Node1&#45;&gt;Node3 -->
<g id="edge4_Node000001_Node000003" class="edge">
<title>Node1&#45;&gt;Node3</title>
<g id="a_edge4_Node000001_Node000003"><a xlink:title=" ">
<path fill="none" stroke="#63b8ff" d="M125.37,-92.39C178.97,-99.66 256.42,-110.17 311.9,-117.69"/>
<polygon fill="#63b8ff" stroke="#63b8ff" points="311.61,-121.19 321.99,-119.06 312.55,-114.25 311.61,-121.19"/>
</a>
</g>
</g>
<!-- Node4 -->
<g id="Node000004" class="node">
<title>Node4</title>
<g id="a_Node000004"><a xlink:href="classspades_1_1_s_p_a_d_e_s.html#a5b00ea3a0f4445a415ed8061def3e9fd" target="_top" xlink:title="Get plotfile name.">
<polygon fill="white" stroke="#666666" points="283,-78 164,-78 164,-48 283,-48 283,-78"/>
<text text-anchor="start" x="172" y="-66" font-family="Helvetica,sans-Serif" font-size="10.00">spades::SPADES::plot</text>
<text text-anchor="middle" x="223.5" y="-55" font-family="Helvetica,sans-Serif" font-size="10.00">_file_name</text>
</a>
</g>
</g>
<!-- Node1&#45;&gt;Node4 -->
<g id="edge3_Node000001_Node000004" class="edge">
<title>Node1&#45;&gt;Node4</title>
<g id="a_edge3_Node000001_Node000004"><a xlink:title=" ">
<path fill="none" stroke="#63b8ff" d="M125.43,-75.82C134.71,-74.59 144.34,-73.32 153.75,-72.08"/>
<polygon fill="#63b8ff" stroke="#63b8ff" points="154.41,-75.52 163.86,-70.74 153.49,-68.58 154.41,-75.52"/>
</a>
</g>
</g>
<!-- Node5 -->
<g id="Node000005" class="node">
<title>Node5</title>
<g id="a_Node000005"><a xlink:href="classspades_1_1_s_p_a_d_e_s.html#ab8b581263b8652535599daa49eb1d922" target="_top" xlink:title="Write job info to disk.">
<polygon fill="white" stroke="#666666" points="286,-30 161,-30 161,0 286,0 286,-30"/>
<text text-anchor="start" x="169" y="-18" font-family="Helvetica,sans-Serif" font-size="10.00">spades::SPADES::write</text>
<text text-anchor="middle" x="223.5" y="-7" font-family="Helvetica,sans-Serif" font-size="10.00">_info_file</text>
</a>
</g>
</g>
<!-- Node1&#45;&gt;Node5 -->
<g id="edge5_Node000001_Node000005" class="edge">
<title>Node1&#45;&gt;Node5</title>
<g id="a_edge5_Node000001_Node000005"><a xlink:title=" ">
<path fill="none" stroke="#63b8ff" d="M94.9,-68.92C113.9,-59.94 138.7,-48.49 161,-39 165.09,-37.26 169.34,-35.5 173.63,-33.76"/>
<polygon fill="#63b8ff" stroke="#63b8ff" points="175.01,-36.98 182.99,-30.01 172.4,-30.48 175.01,-36.98"/>
</a>
</g>
</g>
<!-- Node2&#45;&gt;Node3 -->
<g id="edge2_Node000002_Node000003" class="edge">
<title>Node2&#45;&gt;Node3</title>
<g id="a_edge2_Node000002_Node000003"><a xlink:title=" ">
<path fill="none" stroke="#63b8ff" d="M283.03,-140.75C292.46,-139.42 302.3,-138.03 311.95,-136.67"/>
<polygon fill="#63b8ff" stroke="#63b8ff" points="312.49,-140.13 321.9,-135.26 311.51,-133.2 312.49,-140.13"/>
</a>
</g>
</g>
</g>
</svg>
