<?xml version="1.0" encoding="UTF-8" standalone="no"?>
<!DOCTYPE svg PUBLIC "-//W3C//DTD SVG 1.1//EN"
 "http://www.w3.org/Graphics/SVG/1.1/DTD/svg11.dtd">
<!-- Generated by graphviz version 2.43.0 (0)
 -->
<!-- Title: spades::SPADES::summary Pages: 1 -->
<svg width="596pt" height="64pt"
 viewBox="0.00 0.00 596.00 64.00" xmlns="http://www.w3.org/2000/svg" xmlns:xlink="http://www.w3.org/1999/xlink">
<g id="graph0" class="graph" transform="scale(1 1) rotate(0) translate(4 60)">
<title>spades::SPADES::summary</title>
<!-- Node1 -->
<g id="Node000001" class="node">
<title>Node1</title>
<g id="a_Node000001"><a xlink:title="Compute summary data.">
<polygon fill="#999999" stroke="#666666" points="588,-38 441,-38 441,-19 588,-19 588,-38"/>
<text text-anchor="middle" x="514.5" y="-26" font-family="Helvetica,sans-Serif" font-size="10.00">spades::SPADES::summary</text>
</a>
</g>
</g>
<!-- Node2 -->
<g id="Node000002" class="node">
<title>Node2</title>
<g id="a_Node000002"><a xlink:href="classspades_1_1_s_p_a_d_e_s.html#a30fb207b5d878663ebf2b17cffc473e8" target="_top" xlink:title="Initializes data.">
<polygon fill="white" stroke="#666666" points="220,-56 77,-56 77,-37 220,-37 220,-56"/>
<text text-anchor="middle" x="148.5" y="-44" font-family="Helvetica,sans-Serif" font-size="10.00">spades::SPADES::init_data</text>
</a>
</g>
</g>
<!-- Node1&#45;&gt;Node2 -->
<g id="edge1_Node000001_Node000002" class="edge">
<title>Node1&#45;&gt;Node2</title>
<g id="a_edge1_Node000001_Node000002"><a xlink:title=" ">
<path fill="none" stroke="#63b8ff" d="M430.34,-32.61C366.9,-35.75 280.46,-40.02 220.3,-43"/>
<polygon fill="#63b8ff" stroke="#63b8ff" points="430.9,-36.09 440.71,-32.1 430.55,-29.1 430.9,-36.09"/>
</a>
</g>
</g>
<!-- Node4 -->
<g id="Node000004" class="node">
<title>Node4</title>
<g id="a_Node000004"><a xlink:href="classspades_1_1_s_p_a_d_e_s.html#a63f0eec354a17c365e13f2268872c154" target="_top" xlink:title="Advance by the time step.">
<polygon fill="white" stroke="#666666" points="405,-19 256,-19 256,0 405,0 405,-19"/>
<text text-anchor="middle" x="330.5" y="-7" font-family="Helvetica,sans-Serif" font-size="10.00">spades::SPADES::time_step</text>
</a>
</g>
</g>
<!-- Node1&#45;&gt;Node4 -->
<g id="edge3_Node000001_Node000004" class="edge">
<title>Node1&#45;&gt;Node4</title>
<g id="a_edge3_Node000001_Node000004"><a xlink:title=" ">
<path fill="none" stroke="#63b8ff" d="M430.57,-19.84C422.14,-18.96 413.61,-18.07 405.29,-17.2"/>
<polygon fill="#63b8ff" stroke="#63b8ff" points="430.47,-23.35 440.78,-20.91 431.2,-16.39 430.47,-23.35"/>
</a>
</g>
</g>
<!-- Node3 -->
<g id="Node000003" class="node">
<title>Node3</title>
<g id="a_Node000003"><a xlink:href="main_8cpp.html#a0ddf1224851353fc92bfbff6f499fa97" target="_top" xlink:title="Main function.">
<polygon fill="white" stroke="#666666" points="41,-37 0,-37 0,-18 41,-18 41,-37"/>
<text text-anchor="middle" x="20.5" y="-25" font-family="Helvetica,sans-Serif" font-size="10.00">main</text>
</a>
</g>
</g>
<!-- Node2&#45;&gt;Node3 -->
<g id="edge2_Node000002_Node000003" class="edge">
<title>Node2&#45;&gt;Node3</title>
<g id="a_edge2_Node000002_Node000003"><a xlink:title=" ">
<path fill="none" stroke="#63b8ff" d="M73.88,-35.4C61.78,-33.57 50.22,-31.83 41.05,-30.45"/>
<polygon fill="#63b8ff" stroke="#63b8ff" points="73.72,-38.91 84.13,-36.94 74.76,-31.99 73.72,-38.91"/>
</a>
</g>
</g>
<!-- Node5 -->
<g id="Node000005" class="node">
<title>Node5</title>
<g id="a_Node000005"><a xlink:href="classspades_1_1_s_p_a_d_e_s.html#af3d4d2fbe90c38c164a2dd23d9471391" target="_top" xlink:title="Advance solution to final time.">
<polygon fill="white" stroke="#666666" points="215.5,-19 81.5,-19 81.5,0 215.5,0 215.5,-19"/>
<text text-anchor="middle" x="148.5" y="-7" font-family="Helvetica,sans-Serif" font-size="10.00">spades::SPADES::evolve</text>
</a>
</g>
</g>
<!-- Node4&#45;&gt;Node5 -->
<g id="edge4_Node000004_Node000005" class="edge">
<title>Node4&#45;&gt;Node5</title>
<g id="a_edge4_Node000004_Node000005"><a xlink:title=" ">
<path fill="none" stroke="#63b8ff" d="M245.72,-9.5C235.62,-9.5 225.41,-9.5 215.61,-9.5"/>
<polygon fill="#63b8ff" stroke="#63b8ff" points="245.77,-13 255.77,-9.5 245.77,-6 245.77,-13"/>
</a>
</g>
</g>
<!-- Node5&#45;&gt;Node3 -->
<g id="edge5_Node000005_Node000003" class="edge">
<title>Node5&#45;&gt;Node3</title>
<g id="a_edge5_Node000005_Node000003"><a xlink:title=" ">
<path fill="none" stroke="#63b8ff" d="M71.26,-20.39C60.1,-21.99 49.52,-23.5 41.01,-24.71"/>
<polygon fill="#63b8ff" stroke="#63b8ff" points="71.77,-23.85 81.18,-18.97 70.78,-16.92 71.77,-23.85"/>
</a>
</g>
</g>
</g>
</svg>
