<?xml version="1.0" encoding="UTF-8" standalone="no"?>
<!DOCTYPE svg PUBLIC "-//W3C//DTD SVG 1.1//EN"
 "http://www.w3.org/Graphics/SVG/1.1/DTD/svg11.dtd">
<!-- Generated by graphviz version 2.43.0 (0)
 -->
<!-- Title: spades::SPADES::update_gvt Pages: 1 -->
<svg width="773pt" height="114pt"
 viewBox="0.00 0.00 773.00 113.50" xmlns="http://www.w3.org/2000/svg" xmlns:xlink="http://www.w3.org/1999/xlink">
<g id="graph0" class="graph" transform="scale(1 1) rotate(0) translate(4 109.5)">
<title>spades::SPADES::update_gvt</title>
<!-- Node1 -->
<g id="Node000001" class="node">
<title>Node1</title>
<g id="a_Node000001"><a xlink:title="Update the global virtual time.">
<polygon fill="#999999" stroke="#666666" points="765,-67.5 610,-67.5 610,-48.5 765,-48.5 765,-67.5"/>
<text text-anchor="middle" x="687.5" y="-55.5" font-family="Helvetica,sans-Serif" font-size="10.00">spades::SPADES::update_gvt</text>
</a>
</g>
</g>
<!-- Node2 -->
<g id="Node000002" class="node">
<title>Node2</title>
<g id="a_Node000002"><a xlink:href="classspades_1_1_s_p_a_d_e_s.html#a0b81ab952fa2884baa10af3a0c79de6e" target="_top" xlink:title="Advance for a single time step.">
<polygon fill="white" stroke="#666666" points="574,-105.5 432,-105.5 432,-86.5 574,-86.5 574,-105.5"/>
<text text-anchor="middle" x="503" y="-93.5" font-family="Helvetica,sans-Serif" font-size="10.00">spades::SPADES::advance</text>
</a>
</g>
</g>
<!-- Node1&#45;&gt;Node2 -->
<g id="edge1_Node000001_Node000002" class="edge">
<title>Node1&#45;&gt;Node2</title>
<g id="a_edge1_Node000001_Node000002"><a xlink:title=" ">
<path fill="none" stroke="#63b8ff" d="M630.4,-69.68C604.52,-75.07 574.19,-81.39 549.72,-86.48"/>
<polygon fill="#63b8ff" stroke="#63b8ff" points="631.37,-73.05 640.45,-67.59 629.94,-66.2 631.37,-73.05"/>
</a>
</g>
</g>
<!-- Node6 -->
<g id="Node000006" class="node">
<title>Node6</title>
<g id="a_Node000006"><a xlink:href="classspades_1_1_s_p_a_d_e_s.html#a30fb207b5d878663ebf2b17cffc473e8" target="_top" xlink:title="Initializes data.">
<polygon fill="white" stroke="#666666" points="393,-67.5 250,-67.5 250,-48.5 393,-48.5 393,-67.5"/>
<text text-anchor="middle" x="321.5" y="-55.5" font-family="Helvetica,sans-Serif" font-size="10.00">spades::SPADES::init_data</text>
</a>
</g>
</g>
<!-- Node1&#45;&gt;Node6 -->
<g id="edge5_Node000001_Node000006" class="edge">
<title>Node1&#45;&gt;Node6</title>
<g id="a_edge5_Node000001_Node000006"><a xlink:title=" ">
<path fill="none" stroke="#63b8ff" d="M599.42,-58C536.37,-58 452.21,-58 393.28,-58"/>
<polygon fill="#63b8ff" stroke="#63b8ff" points="599.75,-61.5 609.75,-58 599.75,-54.5 599.75,-61.5"/>
</a>
</g>
</g>
<!-- Node7 -->
<g id="Node000007" class="node">
<title>Node7</title>
<g id="a_Node000007"><a xlink:href="classspades_1_1_s_p_a_d_e_s.html#aad6ae6cbed80abcb958b023437280061" target="_top" xlink:title="Read checkpoint file from disk.">
<polygon fill="white" stroke="#666666" points="564,-30 442,-30 442,0 564,0 564,-30"/>
<text text-anchor="start" x="450" y="-18" font-family="Helvetica,sans-Serif" font-size="10.00">spades::SPADES::read</text>
<text text-anchor="middle" x="503" y="-7" font-family="Helvetica,sans-Serif" font-size="10.00">_checkpoint_file</text>
</a>
</g>
</g>
<!-- Node1&#45;&gt;Node7 -->
<g id="edge7_Node000001_Node000007" class="edge">
<title>Node1&#45;&gt;Node7</title>
<g id="a_edge7_Node000001_Node000007"><a xlink:title=" ">
<path fill="none" stroke="#63b8ff" d="M636.08,-46.12C613.8,-40.87 587.44,-34.66 564.15,-29.17"/>
<polygon fill="#63b8ff" stroke="#63b8ff" points="635.46,-49.57 646,-48.46 637.07,-42.76 635.46,-49.57"/>
</a>
</g>
</g>
<!-- Node3 -->
<g id="Node000003" class="node">
<title>Node3</title>
<g id="a_Node000003"><a xlink:href="classspades_1_1_s_p_a_d_e_s.html#a63f0eec354a17c365e13f2268872c154" target="_top" xlink:title="Advance by the time step.">
<polygon fill="white" stroke="#666666" points="396,-105.5 247,-105.5 247,-86.5 396,-86.5 396,-105.5"/>
<text text-anchor="middle" x="321.5" y="-93.5" font-family="Helvetica,sans-Serif" font-size="10.00">spades::SPADES::time_step</text>
</a>
</g>
</g>
<!-- Node2&#45;&gt;Node3 -->
<g id="edge2_Node000002_Node000003" class="edge">
<title>Node2&#45;&gt;Node3</title>
<g id="a_edge2_Node000002_Node000003"><a xlink:title=" ">
<path fill="none" stroke="#63b8ff" d="M421.59,-96C413.13,-96 404.55,-96 396.17,-96"/>
<polygon fill="#63b8ff" stroke="#63b8ff" points="421.83,-99.5 431.83,-96 421.83,-92.5 421.83,-99.5"/>
</a>
</g>
</g>
<!-- Node4 -->
<g id="Node000004" class="node">
<title>Node4</title>
<g id="a_Node000004"><a xlink:href="classspades_1_1_s_p_a_d_e_s.html#af3d4d2fbe90c38c164a2dd23d9471391" target="_top" xlink:title="Advance solution to final time.">
<polygon fill="white" stroke="#666666" points="211,-105.5 77,-105.5 77,-86.5 211,-86.5 211,-105.5"/>
<text text-anchor="middle" x="144" y="-93.5" font-family="Helvetica,sans-Serif" font-size="10.00">spades::SPADES::evolve</text>
</a>
</g>
</g>
<!-- Node3&#45;&gt;Node4 -->
<g id="edge3_Node000003_Node000004" class="edge">
<title>Node3&#45;&gt;Node4</title>
<g id="a_edge3_Node000003_Node000004"><a xlink:title=" ">
<path fill="none" stroke="#63b8ff" d="M236.8,-96C228.21,-96 219.58,-96 211.22,-96"/>
<polygon fill="#63b8ff" stroke="#63b8ff" points="236.84,-99.5 246.84,-96 236.83,-92.5 236.84,-99.5"/>
</a>
</g>
</g>
<!-- Node5 -->
<g id="Node000005" class="node">
<title>Node5</title>
<g id="a_Node000005"><a xlink:href="main_8cpp.html#a0ddf1224851353fc92bfbff6f499fa97" target="_top" xlink:title="Main function.">
<polygon fill="white" stroke="#666666" points="41,-86.5 0,-86.5 0,-67.5 41,-67.5 41,-86.5"/>
<text text-anchor="middle" x="20.5" y="-74.5" font-family="Helvetica,sans-Serif" font-size="10.00">main</text>
</a>
</g>
</g>
<!-- Node4&#45;&gt;Node5 -->
<g id="edge4_Node000004_Node000005" class="edge">
<title>Node4&#45;&gt;Node5</title>
<g id="a_edge4_Node000004_Node000005"><a xlink:title=" ">
<path fill="none" stroke="#63b8ff" d="M71.9,-84.88C60.62,-83.12 49.83,-81.43 41.15,-80.07"/>
<polygon fill="#63b8ff" stroke="#63b8ff" points="71.47,-88.36 81.89,-86.44 72.55,-81.44 71.47,-88.36"/>
</a>
</g>
</g>
<!-- Node6&#45;&gt;Node5 -->
<g id="edge6_Node000006_Node000005" class="edge">
<title>Node6&#45;&gt;Node5</title>
<g id="a_edge6_Node000006_Node000005"><a xlink:title=" ">
<path fill="none" stroke="#63b8ff" d="M239.44,-63.15C171.92,-67.44 80.65,-73.24 41.11,-75.75"/>
<polygon fill="#63b8ff" stroke="#63b8ff" points="239.88,-66.63 249.64,-62.5 239.44,-59.64 239.88,-66.63"/>
</a>
</g>
</g>
<!-- Node7&#45;&gt;Node6 -->
<g id="edge8_Node000007_Node000006" class="edge">
<title>Node7&#45;&gt;Node6</title>
<g id="a_edge8_Node000007_Node000006"><a xlink:title=" ">
<path fill="none" stroke="#63b8ff" d="M431.76,-31.83C408.17,-37.48 382.7,-43.58 362.29,-48.47"/>
<polygon fill="#63b8ff" stroke="#63b8ff" points="432.82,-35.17 441.73,-29.44 431.19,-28.36 432.82,-35.17"/>
</a>
</g>
</g>
</g>
</svg>
