<?xml version="1.0" encoding="UTF-8" standalone="no"?>
<!DOCTYPE svg PUBLIC "-//W3C//DTD SVG 1.1//EN"
 "http://www.w3.org/Graphics/SVG/1.1/DTD/svg11.dtd">
<!-- Generated by graphviz version 2.43.0 (0)
 -->
<!-- Title: spades::SPADES::read_rng_file Pages: 1 -->
<svg width="544pt" height="38pt"
 viewBox="0.00 0.00 544.00 38.00" xmlns="http://www.w3.org/2000/svg" xmlns:xlink="http://www.w3.org/1999/xlink">
<g id="graph0" class="graph" transform="scale(1 1) rotate(0) translate(4 34)">
<title>spades::SPADES::read_rng_file</title>
<!-- Node1 -->
<g id="Node000001" class="node">
<title>Node1</title>
<g id="a_Node000001"><a xlink:title="Read random number generator seed info.">
<polygon fill="#999999" stroke="#666666" points="536,-30 414,-30 414,0 536,0 536,-30"/>
<text text-anchor="start" x="422" y="-18" font-family="Helvetica,sans-Serif" font-size="10.00">spades::SPADES::read</text>
<text text-anchor="middle" x="475" y="-7" font-family="Helvetica,sans-Serif" font-size="10.00">_rng_file</text>
</a>
</g>
</g>
<!-- Node2 -->
<g id="Node000002" class="node">
<title>Node2</title>
<g id="a_Node000002"><a xlink:href="classspades_1_1_s_p_a_d_e_s.html#aad6ae6cbed80abcb958b023437280061" target="_top" xlink:title="Read checkpoint file from disk.">
<polygon fill="white" stroke="#666666" points="378,-30 256,-30 256,0 378,0 378,-30"/>
<text text-anchor="start" x="264" y="-18" font-family="Helvetica,sans-Serif" font-size="10.00">spades::SPADES::read</text>
<text text-anchor="middle" x="317" y="-7" font-family="Helvetica,sans-Serif" font-size="10.00">_checkpoint_file</text>
</a>
</g>
</g>
<!-- Node1&#45;&gt;Node2 -->
<g id="edge1_Node000001_Node000002" class="edge">
<title>Node1&#45;&gt;Node2</title>
<g id="a_edge1_Node000001_Node000002"><a xlink:title=" ">
<path fill="none" stroke="#63b8ff" d="M403.46,-15C395.01,-15 386.44,-15 378.15,-15"/>
<polygon fill="#63b8ff" stroke="#63b8ff" points="403.69,-18.5 413.69,-15 403.69,-11.5 403.69,-18.5"/>
</a>
</g>
</g>
<!-- Node3 -->
<g id="Node000003" class="node">
<title>Node3</title>
<g id="a_Node000003"><a xlink:href="classspades_1_1_s_p_a_d_e_s.html#a30fb207b5d878663ebf2b17cffc473e8" target="_top" xlink:title="Initializes data.">
<polygon fill="white" stroke="#666666" points="220,-24.5 77,-24.5 77,-5.5 220,-5.5 220,-24.5"/>
<text text-anchor="middle" x="148.5" y="-12.5" font-family="Helvetica,sans-Serif" font-size="10.00">spades::SPADES::init_data</text>
</a>
</g>
</g>
<!-- Node2&#45;&gt;Node3 -->
<g id="edge2_Node000002_Node000003" class="edge">
<title>Node2&#45;&gt;Node3</title>
<g id="a_edge2_Node000002_Node000003"><a xlink:title=" ">
<path fill="none" stroke="#63b8ff" d="M245.65,-15C237.17,-15 228.49,-15 220.01,-15"/>
<polygon fill="#63b8ff" stroke="#63b8ff" points="245.89,-18.5 255.89,-15 245.89,-11.5 245.89,-18.5"/>
</a>
</g>
</g>
<!-- Node4 -->
<g id="Node000004" class="node">
<title>Node4</title>
<g id="a_Node000004"><a xlink:href="main_8cpp.html#a0ddf1224851353fc92bfbff6f499fa97" target="_top" xlink:title="Main function.">
<polygon fill="white" stroke="#666666" points="41,-24.5 0,-24.5 0,-5.5 41,-5.5 41,-24.5"/>
<text text-anchor="middle" x="20.5" y="-12.5" font-family="Helvetica,sans-Serif" font-size="10.00">main</text>
</a>
</g>
</g>
<!-- Node3&#45;&gt;Node4 -->
<g id="edge3_Node000003_Node000004" class="edge">
<title>Node3&#45;&gt;Node4</title>
<g id="a_edge3_Node000003_Node000004"><a xlink:title=" ">
<path fill="none" stroke="#63b8ff" d="M66.74,-15C57.29,-15 48.42,-15 41.08,-15"/>
<polygon fill="#63b8ff" stroke="#63b8ff" points="66.77,-18.5 76.77,-15 66.77,-11.5 66.77,-18.5"/>
</a>
</g>
</g>
</g>
</svg>
