<?xml version="1.0" encoding="UTF-8" standalone="no"?>
<!DOCTYPE svg PUBLIC "-//W3C//DTD SVG 1.1//EN"
 "http://www.w3.org/Graphics/SVG/1.1/DTD/svg11.dtd">
<!-- Generated by graphviz version 2.43.0 (0)
 -->
<!-- Title: spades::SPADES::compute_dt Pages: 1 -->
<svg width="422pt" height="64pt"
 viewBox="0.00 0.00 422.00 64.00" xmlns="http://www.w3.org/2000/svg" xmlns:xlink="http://www.w3.org/1999/xlink">

<svg id="main" version="1.1" xmlns="http://www.w3.org/2000/svg" xmlns:xlink="http://www.w3.org/1999/xlink" xml:space="preserve">

<style type="text/css"><![CDATA[
.node, .edge {opacity: 0.7;}
.node.selected, .edge.selected {opacity: 1;}
.edge:hover path { stroke: red; }
.edge:hover polygon { stroke: red; fill: red; }
]]></style>
<script type="application/ecmascript" xlink:href="svg.min.js"/>
<svg id="graph" class="graph">
<g id="graph0" class="graph" transform="scale(1 1) rotate(0) translate(4 60)">
<title>spades::SPADES::compute_dt</title>
<!-- Node1 -->
<g id="Node000001" class="node">
<title>Node1</title>
<g id="a_Node000001"><a xlink:title="Wrapper for EstTimeStep.">
<polygon fill="#999999" stroke="#666666" points="414,-37 256,-37 256,-18 414,-18 414,-37"/>
<text text-anchor="middle" x="335" y="-25" font-family="Helvetica,sans-Serif" font-size="10.00">spades::SPADES::compute_dt</text>
</a>
</g>
</g>
<!-- Node2 -->
<g id="Node000002" class="node">
<title>Node2</title>
<g id="a_Node000002"><a xlink:href="classspades_1_1_s_p_a_d_e_s.html#af3d4d2fbe90c38c164a2dd23d9471391" target="_top" xlink:title="Advance solution to final time.">
<polygon fill="white" stroke="#666666" points="215.5,-56 81.5,-56 81.5,-37 215.5,-37 215.5,-56"/>
<text text-anchor="middle" x="148.5" y="-44" font-family="Helvetica,sans-Serif" font-size="10.00">spades::SPADES::evolve</text>
</a>
</g>
</g>
<!-- Node1&#45;&gt;Node2 -->
<g id="edge1_Node000001_Node000002" class="edge">
<title>Node1&#45;&gt;Node2</title>
<g id="a_edge1_Node000001_Node000002"><a xlink:title=" ">
<path fill="none" stroke="#63b8ff" d="M245.68,-36.6C235.57,-37.64 225.39,-38.68 215.64,-39.69"/>
<polygon fill="#63b8ff" stroke="#63b8ff" points="246.17,-40.06 255.76,-35.56 245.45,-33.1 246.17,-40.06"/>
</a>
</g>
</g>
<!-- Node4 -->
<g id="Node000004" class="node">
<title>Node4</title>
<g id="a_Node000004"><a xlink:href="classspades_1_1_s_p_a_d_e_s.html#a30fb207b5d878663ebf2b17cffc473e8" target="_top" xlink:title="Initializes data.">
<polygon fill="white" stroke="#666666" points="220,-19 77,-19 77,0 220,0 220,-19"/>
<text text-anchor="middle" x="148.5" y="-7" font-family="Helvetica,sans-Serif" font-size="10.00">spades::SPADES::init_data</text>
</a>
</g>
</g>
<!-- Node1&#45;&gt;Node4 -->
<g id="edge3_Node000001_Node000004" class="edge">
<title>Node1&#45;&gt;Node4</title>
<g id="a_edge3_Node000001_Node000004"><a xlink:title=" ">
<path fill="none" stroke="#63b8ff" d="M245.75,-18.89C237.2,-18.06 228.6,-17.22 220.26,-16.4"/>
<polygon fill="#63b8ff" stroke="#63b8ff" points="245.46,-22.38 255.76,-19.87 246.14,-15.41 245.46,-22.38"/>
</a>
</g>
</g>
<!-- Node3 -->
<g id="Node000003" class="node">
<title>Node3</title>
<g id="a_Node000003"><a xlink:href="main_8cpp.html#a0ddf1224851353fc92bfbff6f499fa97" target="_top" xlink:title="Main function.">
<polygon fill="white" stroke="#666666" points="41,-37 0,-37 0,-18 41,-18 41,-37"/>
<text text-anchor="middle" x="20.5" y="-25" font-family="Helvetica,sans-Serif" font-size="10.00">main</text>
</a>
</g>
</g>
<!-- Node2&#45;&gt;Node3 -->
<g id="edge2_Node000002_Node000003" class="edge">
<title>Node2&#45;&gt;Node3</title>
<g id="a_edge2_Node000002_Node000003"><a xlink:title=" ">
<path fill="none" stroke="#63b8ff" d="M73.88,-35.4C61.78,-33.57 50.22,-31.83 41.05,-30.45"/>
<polygon fill="#63b8ff" stroke="#63b8ff" points="73.72,-38.91 84.13,-36.94 74.76,-31.99 73.72,-38.91"/>
</a>
</g>
</g>
<!-- Node4&#45;&gt;Node3 -->
<g id="edge4_Node000004_Node000003" class="edge">
<title>Node4&#45;&gt;Node3</title>
<g id="a_edge4_Node000004_Node000003"><a xlink:title=" ">
<path fill="none" stroke="#63b8ff" d="M70.68,-20.47C59.79,-22.03 49.48,-23.5 41.13,-24.7"/>
<polygon fill="#63b8ff" stroke="#63b8ff" points="71.41,-23.91 80.81,-19.03 70.42,-16.98 71.41,-23.91"/>
</a>
</g>
</g>
</g>
</svg>
</svg>

<style type='text/css'>
<![CDATA[
[data-mouse-over-selected='false'] { opacity: 0.7; }
[data-mouse-over-selected='true']  { opacity: 1.0; }
]]>
</style>
<script type="application/ecmascript"><![CDATA[
document.addEventListener('DOMContentLoaded', (event) => {
  highlightEdges();
  highlightAdjacentNodes();
});
]]></script>
</svg>
