<?xml version="1.0" encoding="UTF-8" standalone="no"?>
<!DOCTYPE svg PUBLIC "-//W3C//DTD SVG 1.1//EN"
 "http://www.w3.org/Graphics/SVG/1.1/DTD/svg11.dtd">
<!-- Generated by graphviz version 2.43.0 (0)
 -->
<!-- Title: spades::SPADES::update_lbts Pages: 1 -->
<svg width="776pt" height="65pt"
 viewBox="0.00 0.00 776.00 65.00" xmlns="http://www.w3.org/2000/svg" xmlns:xlink="http://www.w3.org/1999/xlink">
<g id="graph0" class="graph" transform="scale(1 1) rotate(0) translate(4 61)">
<title>spades::SPADES::update_lbts</title>
<!-- Node1 -->
<g id="Node000001" class="node">
<title>Node1</title>
<g id="a_Node000001"><a xlink:title="Update the Lower Bound on Incoming Time Stamp.">
<polygon fill="#999999" stroke="#666666" points="768,-38 610,-38 610,-19 768,-19 768,-38"/>
<text text-anchor="middle" x="689" y="-26" font-family="Helvetica,sans-Serif" font-size="10.00">spades::SPADES::update_lbts</text>
</a>
</g>
</g>
<!-- Node2 -->
<g id="Node000002" class="node">
<title>Node2</title>
<g id="a_Node000002"><a xlink:href="classspades_1_1_s_p_a_d_e_s.html#a0b81ab952fa2884baa10af3a0c79de6e" target="_top" xlink:title="Advance for a single time step.">
<polygon fill="white" stroke="#666666" points="574,-57 432,-57 432,-38 574,-38 574,-57"/>
<text text-anchor="middle" x="503" y="-45" font-family="Helvetica,sans-Serif" font-size="10.00">spades::SPADES::advance</text>
</a>
</g>
</g>
<!-- Node1&#45;&gt;Node2 -->
<g id="edge1_Node000001_Node000002" class="edge">
<title>Node1&#45;&gt;Node2</title>
<g id="a_edge1_Node000001_Node000002"><a xlink:title=" ">
<path fill="none" stroke="#63b8ff" d="M599.91,-37.6C591.31,-38.48 582.66,-39.38 574.27,-40.24"/>
<polygon fill="#63b8ff" stroke="#63b8ff" points="600.38,-41.07 609.97,-36.56 599.66,-34.1 600.38,-41.07"/>
</a>
</g>
</g>
<!-- Node6 -->
<g id="Node000006" class="node">
<title>Node6</title>
<g id="a_Node000006"><a xlink:href="classspades_1_1_s_p_a_d_e_s.html#a30fb207b5d878663ebf2b17cffc473e8" target="_top" xlink:title="Initializes data.">
<polygon fill="white" stroke="#666666" points="393,-19 250,-19 250,0 393,0 393,-19"/>
<text text-anchor="middle" x="321.5" y="-7" font-family="Helvetica,sans-Serif" font-size="10.00">spades::SPADES::init_data</text>
</a>
</g>
</g>
<!-- Node1&#45;&gt;Node6 -->
<g id="edge5_Node000001_Node000006" class="edge">
<title>Node1&#45;&gt;Node6</title>
<g id="a_edge5_Node000001_Node000006"><a xlink:title=" ">
<path fill="none" stroke="#63b8ff" d="M599.6,-23.9C536.21,-20.61 451.95,-16.23 393.05,-13.17"/>
<polygon fill="#63b8ff" stroke="#63b8ff" points="599.42,-27.4 609.59,-24.42 599.79,-20.41 599.42,-27.4"/>
</a>
</g>
</g>
<!-- Node3 -->
<g id="Node000003" class="node">
<title>Node3</title>
<g id="a_Node000003"><a xlink:href="classspades_1_1_s_p_a_d_e_s.html#a63f0eec354a17c365e13f2268872c154" target="_top" xlink:title="Advance by the time step.">
<polygon fill="white" stroke="#666666" points="396,-57 247,-57 247,-38 396,-38 396,-57"/>
<text text-anchor="middle" x="321.5" y="-45" font-family="Helvetica,sans-Serif" font-size="10.00">spades::SPADES::time_step</text>
</a>
</g>
</g>
<!-- Node2&#45;&gt;Node3 -->
<g id="edge2_Node000002_Node000003" class="edge">
<title>Node2&#45;&gt;Node3</title>
<g id="a_edge2_Node000002_Node000003"><a xlink:title=" ">
<path fill="none" stroke="#63b8ff" d="M421.59,-47.5C413.13,-47.5 404.55,-47.5 396.17,-47.5"/>
<polygon fill="#63b8ff" stroke="#63b8ff" points="421.83,-51 431.83,-47.5 421.83,-44 421.83,-51"/>
</a>
</g>
</g>
<!-- Node4 -->
<g id="Node000004" class="node">
<title>Node4</title>
<g id="a_Node000004"><a xlink:href="classspades_1_1_s_p_a_d_e_s.html#af3d4d2fbe90c38c164a2dd23d9471391" target="_top" xlink:title="Advance solution to final time.">
<polygon fill="white" stroke="#666666" points="211,-57 77,-57 77,-38 211,-38 211,-57"/>
<text text-anchor="middle" x="144" y="-45" font-family="Helvetica,sans-Serif" font-size="10.00">spades::SPADES::evolve</text>
</a>
</g>
</g>
<!-- Node3&#45;&gt;Node4 -->
<g id="edge3_Node000003_Node000004" class="edge">
<title>Node3&#45;&gt;Node4</title>
<g id="a_edge3_Node000003_Node000004"><a xlink:title=" ">
<path fill="none" stroke="#63b8ff" d="M236.8,-47.5C228.21,-47.5 219.58,-47.5 211.22,-47.5"/>
<polygon fill="#63b8ff" stroke="#63b8ff" points="236.84,-51 246.84,-47.5 236.83,-44 236.84,-51"/>
</a>
</g>
</g>
<!-- Node5 -->
<g id="Node000005" class="node">
<title>Node5</title>
<g id="a_Node000005"><a xlink:href="main_8cpp.html#a0ddf1224851353fc92bfbff6f499fa97" target="_top" xlink:title="Main function.">
<polygon fill="white" stroke="#666666" points="41,-38 0,-38 0,-19 41,-19 41,-38"/>
<text text-anchor="middle" x="20.5" y="-26" font-family="Helvetica,sans-Serif" font-size="10.00">main</text>
</a>
</g>
</g>
<!-- Node4&#45;&gt;Node5 -->
<g id="edge4_Node000004_Node000005" class="edge">
<title>Node4&#45;&gt;Node5</title>
<g id="a_edge4_Node000004_Node000005"><a xlink:title=" ">
<path fill="none" stroke="#63b8ff" d="M71.9,-36.38C60.62,-34.62 49.83,-32.93 41.15,-31.57"/>
<polygon fill="#63b8ff" stroke="#63b8ff" points="71.47,-39.86 81.89,-37.94 72.55,-32.94 71.47,-39.86"/>
</a>
</g>
</g>
<!-- Node6&#45;&gt;Node5 -->
<g id="edge6_Node000006_Node000005" class="edge">
<title>Node6&#45;&gt;Node5</title>
<g id="a_edge6_Node000006_Node000005"><a xlink:title=" ">
<path fill="none" stroke="#63b8ff" d="M239.44,-14.65C171.92,-18.94 80.65,-24.74 41.11,-27.25"/>
<polygon fill="#63b8ff" stroke="#63b8ff" points="239.88,-18.13 249.64,-14 239.44,-11.14 239.88,-18.13"/>
</a>
</g>
</g>
</g>
</svg>
