<?xml version="1.0" encoding="UTF-8" standalone="no"?>
<!DOCTYPE svg PUBLIC "-//W3C//DTD SVG 1.1//EN"
 "http://www.w3.org/Graphics/SVG/1.1/DTD/svg11.dtd">
<!-- Generated by graphviz version 2.43.0 (0)
 -->
<!-- Title: spades::particles::EntityParticleContainer Pages: 1 -->
<svg width="554pt" height="71pt"
 viewBox="0.00 0.00 554.00 71.00" xmlns="http://www.w3.org/2000/svg" xmlns:xlink="http://www.w3.org/1999/xlink">
<g id="graph0" class="graph" transform="scale(1 1) rotate(0) translate(4 67)">
<title>spades::particles::EntityParticleContainer</title>
<!-- Node1 -->
<g id="Node000001" class="node">
<title>Node1</title>
<g id="a_Node000001"><a xlink:title="Main SPADES entity container.">
<polygon fill="#999999" stroke="#666666" points="546,-46.5 418,-46.5 418,-16.5 546,-16.5 546,-46.5"/>
<text text-anchor="start" x="426" y="-34.5" font-family="Helvetica,sans-Serif" font-size="10.00">spades::particles::</text>
<text text-anchor="middle" x="482" y="-23.5" font-family="Helvetica,sans-Serif" font-size="10.00">EntityParticleContainer</text>
</a>
</g>
</g>
<!-- Node2 -->
<g id="Node000002" class="node">
<title>Node2</title>
<g id="a_Node000002"><a xlink:href="classspades_1_1particles_1_1_spades_particle_container.html" target="_top" xlink:title=" ">
<polygon fill="white" stroke="#666666" points="382,-63 218,-63 218,0 382,0 382,-63"/>
<text text-anchor="start" x="226" y="-51" font-family="Helvetica,sans-Serif" font-size="10.00">spades::particles::</text>
<text text-anchor="start" x="226" y="-40" font-family="Helvetica,sans-Serif" font-size="10.00">SpadesParticleContainer</text>
<text text-anchor="start" x="226" y="-29" font-family="Helvetica,sans-Serif" font-size="10.00">&lt; EntityTypes::NTYPES,</text>
<text text-anchor="start" x="226" y="-18" font-family="Helvetica,sans-Serif" font-size="10.00"> 0, 0, EntityRealData::ncomps,</text>
<text text-anchor="middle" x="300" y="-7" font-family="Helvetica,sans-Serif" font-size="10.00"> EntityIntData::ncomps &gt;</text>
</a>
</g>
</g>
<!-- Node2&#45;&gt;Node1 -->
<g id="edge1_Node000001_Node000002" class="edge">
<title>Node2&#45;&gt;Node1</title>
<g id="a_edge1_Node000001_Node000002"><a xlink:title=" ">
<path fill="none" stroke="#63b8ff" d="M392.24,-31.5C400.93,-31.5 409.6,-31.5 417.94,-31.5"/>
<polygon fill="#63b8ff" stroke="#63b8ff" points="392.05,-28 382.05,-31.5 392.05,-35 392.05,-28"/>
</a>
</g>
</g>
<!-- Node3 -->
<g id="Node000003" class="node">
<title>Node3</title>
<g id="a_Node000003"><a xlink:title=" ">
<polygon fill="white" stroke="#666666" points="182,-52 0,-52 0,-11 182,-11 182,-52"/>
<text text-anchor="start" x="8" y="-40" font-family="Helvetica,sans-Serif" font-size="10.00">amrex::NeighborParticleContainer</text>
<text text-anchor="start" x="8" y="-29" font-family="Helvetica,sans-Serif" font-size="10.00">&lt; NStructReal, NStructInt,</text>
<text text-anchor="middle" x="91" y="-18" font-family="Helvetica,sans-Serif" font-size="10.00"> NArrayReal, NArrayInt &gt;</text>
</a>
</g>
</g>
<!-- Node3&#45;&gt;Node2 -->
<g id="edge2_Node000002_Node000003" class="edge">
<title>Node3&#45;&gt;Node2</title>
<g id="a_edge2_Node000002_Node000003"><a xlink:title=" ">
<path fill="none" stroke="#63b8ff" d="M192.25,-31.5C200.85,-31.5 209.47,-31.5 217.89,-31.5"/>
<polygon fill="#63b8ff" stroke="#63b8ff" points="192.19,-28 182.19,-31.5 192.19,-35 192.19,-28"/>
</a>
</g>
</g>
</g>
</svg>
