<?xml version="1.0" encoding="UTF-8" standalone="no"?>
<!DOCTYPE svg PUBLIC "-//W3C//DTD SVG 1.1//EN"
 "http://www.w3.org/Graphics/SVG/1.1/DTD/svg11.dtd">
<!-- Generated by graphviz version 2.43.0 (0)
 -->
<!-- Title: spades::SPADES::time_step Pages: 1 -->
<svg width="728pt" height="168pt"
 viewBox="0.00 0.00 728.00 167.50" xmlns="http://www.w3.org/2000/svg" xmlns:xlink="http://www.w3.org/1999/xlink">
<g id="graph0" class="graph" transform="scale(1 1) rotate(0) translate(4 163.5)">
<title>spades::SPADES::time_step</title>
<!-- Node1 -->
<g id="Node000001" class="node">
<title>Node1</title>
<g id="a_Node000001"><a xlink:title="Advance by the time step.">
<polygon fill="#999999" stroke="#666666" points="149,-55 0,-55 0,-36 149,-36 149,-55"/>
<text text-anchor="middle" x="74.5" y="-43" font-family="Helvetica,sans-Serif" font-size="10.00">spades::SPADES::time_step</text>
</a>
</g>
</g>
<!-- Node2 -->
<g id="Node000002" class="node">
<title>Node2</title>
<g id="a_Node000002"><a xlink:href="classspades_1_1_s_p_a_d_e_s.html#a0b81ab952fa2884baa10af3a0c79de6e" target="_top" xlink:title="Advance for a single time step.">
<polygon fill="white" stroke="#666666" points="329.5,-74 187.5,-74 187.5,-55 329.5,-55 329.5,-74"/>
<text text-anchor="middle" x="258.5" y="-62" font-family="Helvetica,sans-Serif" font-size="10.00">spades::SPADES::advance</text>
</a>
</g>
</g>
<!-- Node1&#45;&gt;Node2 -->
<g id="edge1_Node000001_Node000002" class="edge">
<title>Node1&#45;&gt;Node2</title>
<g id="a_edge1_Node000001_Node000002"><a xlink:title=" ">
<path fill="none" stroke="#63b8ff" d="M149,-53.17C158.28,-54.14 167.8,-55.14 177.17,-56.11"/>
<polygon fill="#63b8ff" stroke="#63b8ff" points="176.95,-59.61 187.26,-57.17 177.68,-52.65 176.95,-59.61"/>
</a>
</g>
</g>
<!-- Node9 -->
<g id="Node000009" class="node">
<title>Node9</title>
<g id="a_Node000009"><a xlink:href="classspades_1_1_s_p_a_d_e_s.html#a9736b6ab6437acce27bb8b8ace6f0a0f" target="_top" xlink:title="Compute summary data.">
<polygon fill="white" stroke="#666666" points="332,-37 185,-37 185,-18 332,-18 332,-37"/>
<text text-anchor="middle" x="258.5" y="-25" font-family="Helvetica,sans-Serif" font-size="10.00">spades::SPADES::summary</text>
</a>
</g>
</g>
<!-- Node1&#45;&gt;Node9 -->
<g id="edge9_Node000001_Node000009" class="edge">
<title>Node1&#45;&gt;Node9</title>
<g id="a_edge9_Node000001_Node000009"><a xlink:title=" ">
<path fill="none" stroke="#63b8ff" d="M149,-38.23C157.51,-37.39 166.23,-36.53 174.85,-35.67"/>
<polygon fill="#63b8ff" stroke="#63b8ff" points="175.3,-39.15 184.91,-34.68 174.61,-32.18 175.3,-39.15"/>
</a>
</g>
</g>
<!-- Node3 -->
<g id="Node000003" class="node">
<title>Node3</title>
<g id="a_Node000003"><a xlink:href="classspades_1_1_s_p_a_d_e_s.html#ac061c297f58d191b31b5ff6529a03e87" target="_top" xlink:title="Process messages.">
<polygon fill="white" stroke="#666666" points="516,-159.5 378,-159.5 378,-129.5 516,-129.5 516,-159.5"/>
<text text-anchor="start" x="386" y="-147.5" font-family="Helvetica,sans-Serif" font-size="10.00">spades::SPADES::process</text>
<text text-anchor="middle" x="447" y="-136.5" font-family="Helvetica,sans-Serif" font-size="10.00">_messages</text>
</a>
</g>
</g>
<!-- Node2&#45;&gt;Node3 -->
<g id="edge2_Node000002_Node000003" class="edge">
<title>Node2&#45;&gt;Node3</title>
<g id="a_edge2_Node000002_Node000003"><a xlink:title=" ">
<path fill="none" stroke="#63b8ff" d="M276.39,-74.13C297.41,-85.85 334.59,-105.78 368,-119.5 373.48,-121.75 379.24,-123.93 385.04,-126"/>
<polygon fill="#63b8ff" stroke="#63b8ff" points="384.22,-129.42 394.81,-129.38 386.5,-122.8 384.22,-129.42"/>
</a>
</g>
</g>
<!-- Node5 -->
<g id="Node000005" class="node">
<title>Node5</title>
<g id="a_Node000005"><a xlink:href="classspades_1_1_s_p_a_d_e_s.html#ae394ed7dee73e2bee962cf3eead24cc4" target="_top" xlink:title="Perform rollback.">
<polygon fill="white" stroke="#666666" points="517,-93 377,-93 377,-74 517,-74 517,-93"/>
<text text-anchor="middle" x="447" y="-81" font-family="Helvetica,sans-Serif" font-size="10.00">spades::SPADES::rollback</text>
</a>
</g>
</g>
<!-- Node2&#45;&gt;Node5 -->
<g id="edge4_Node000002_Node000005" class="edge">
<title>Node2&#45;&gt;Node5</title>
<g id="a_edge4_Node000002_Node000005"><a xlink:title=" ">
<path fill="none" stroke="#63b8ff" d="M329.74,-71.66C341.76,-72.88 354.33,-74.16 366.56,-75.41"/>
<polygon fill="#63b8ff" stroke="#63b8ff" points="366.45,-78.91 376.75,-76.44 367.16,-71.95 366.45,-78.91"/>
</a>
</g>
</g>
<!-- Node7 -->
<g id="Node000007" class="node">
<title>Node7</title>
<g id="a_Node000007"><a xlink:href="classspades_1_1_s_p_a_d_e_s.html#afaac93099a04dc1dbabe0f3fbf7dc553" target="_top" xlink:title="Update the global virtual time.">
<polygon fill="white" stroke="#666666" points="524.5,-56 369.5,-56 369.5,-37 524.5,-37 524.5,-56"/>
<text text-anchor="middle" x="447" y="-44" font-family="Helvetica,sans-Serif" font-size="10.00">spades::SPADES::update_gvt</text>
</a>
</g>
</g>
<!-- Node2&#45;&gt;Node7 -->
<g id="edge7_Node000002_Node000007" class="edge">
<title>Node2&#45;&gt;Node7</title>
<g id="a_edge7_Node000002_Node000007"><a xlink:title=" ">
<path fill="none" stroke="#63b8ff" d="M329.74,-57.72C339.32,-56.8 349.25,-55.84 359.08,-54.89"/>
<polygon fill="#63b8ff" stroke="#63b8ff" points="359.65,-58.35 369.27,-53.91 358.98,-51.38 359.65,-58.35"/>
</a>
</g>
</g>
<!-- Node8 -->
<g id="Node000008" class="node">
<title>Node8</title>
<g id="a_Node000008"><a xlink:href="classspades_1_1_s_p_a_d_e_s.html#a9dadb2f517014aa3fe8e9f841535e836" target="_top" xlink:title="Update the Lower Bound on Incoming Time Stamp.">
<polygon fill="white" stroke="#666666" points="526,-19 368,-19 368,0 526,0 526,-19"/>
<text text-anchor="middle" x="447" y="-7" font-family="Helvetica,sans-Serif" font-size="10.00">spades::SPADES::update_lbts</text>
</a>
</g>
</g>
<!-- Node2&#45;&gt;Node8 -->
<g id="edge8_Node000002_Node000008" class="edge">
<title>Node2&#45;&gt;Node8</title>
<g id="a_edge8_Node000002_Node000008"><a xlink:title=" ">
<path fill="none" stroke="#63b8ff" d="M302.13,-54.9C312.06,-52.24 322.5,-49.08 332,-45.5 348.74,-39.2 351.17,-33.55 368,-27.5 373.92,-25.37 380.19,-23.43 386.49,-21.68"/>
<polygon fill="#63b8ff" stroke="#63b8ff" points="387.6,-25.01 396.39,-19.09 385.83,-18.24 387.6,-25.01"/>
</a>
</g>
</g>
<!-- Node4 -->
<g id="Node000004" class="node">
<title>Node4</title>
<g id="a_Node000004"><a xlink:href="namespacespades.html#af26487ec3507565fa67121a8663f2429" target="_top" xlink:title="Exponential distribution.">
<polygon fill="white" stroke="#666666" points="720,-154 562,-154 562,-135 720,-135 720,-154"/>
<text text-anchor="middle" x="641" y="-142" font-family="Helvetica,sans-Serif" font-size="10.00">spades::random_exponential</text>
</a>
</g>
</g>
<!-- Node3&#45;&gt;Node4 -->
<g id="edge3_Node000003_Node000004" class="edge">
<title>Node3&#45;&gt;Node4</title>
<g id="a_edge3_Node000003_Node000004"><a xlink:title=" ">
<path fill="none" stroke="#63b8ff" d="M516.23,-144.5C527.65,-144.5 539.65,-144.5 551.49,-144.5"/>
<polygon fill="#63b8ff" stroke="#63b8ff" points="551.84,-148 561.84,-144.5 551.84,-141 551.84,-148"/>
</a>
</g>
</g>
<!-- Node5&#45;&gt;Node5 -->
<g id="edge5_Node000005_Node000005" class="edge">
<title>Node5&#45;&gt;Node5</title>
<g id="a_edge5_Node000005_Node000005"><a xlink:title=" ">
<path fill="none" stroke="#63b8ff" d="M418.02,-93.08C403.93,-101.73 413.59,-111 447,-111 469.97,-111 481.72,-106.62 482.23,-101.07"/>
<polygon fill="#63b8ff" stroke="#63b8ff" points="484.9,-98.8 475.98,-93.08 479.39,-103.11 484.9,-98.8"/>
</a>
</g>
</g>
<!-- Node6 -->
<g id="Node000006" class="node">
<title>Node6</title>
<g id="a_Node000006"><a xlink:href="classspades_1_1_s_p_a_d_e_s.html#a4f9fe635aff84c88ddbc02fe531a0efc" target="_top" xlink:title="Print rollback statistics.">
<polygon fill="white" stroke="#666666" points="711,-98.5 571,-98.5 571,-68.5 711,-68.5 711,-98.5"/>
<text text-anchor="start" x="579" y="-86.5" font-family="Helvetica,sans-Serif" font-size="10.00">spades::SPADES::rollback</text>
<text text-anchor="middle" x="641" y="-75.5" font-family="Helvetica,sans-Serif" font-size="10.00">_statistics</text>
</a>
</g>
</g>
<!-- Node5&#45;&gt;Node6 -->
<g id="edge6_Node000005_Node000006" class="edge">
<title>Node5&#45;&gt;Node6</title>
<g id="a_edge6_Node000005_Node000006"><a xlink:title=" ">
<path fill="none" stroke="#63b8ff" d="M517.05,-83.5C531.15,-83.5 546.09,-83.5 560.52,-83.5"/>
<polygon fill="#63b8ff" stroke="#63b8ff" points="560.92,-87 570.92,-83.5 560.92,-80 560.92,-87"/>
</a>
</g>
</g>
</g>
</svg>
