<?xml version="1.0" encoding="UTF-8" standalone="no"?>
<!DOCTYPE svg PUBLIC "-//W3C//DTD SVG 1.1//EN"
 "http://www.w3.org/Graphics/SVG/1.1/DTD/svg11.dtd">
<!-- Generated by graphviz version 2.43.0 (0)
 -->
<!-- Title: spades::SPADES::init_data Pages: 1 -->
<!--zoomable 547 -->

<svg id="main" version="1.1" xmlns="http://www.w3.org/2000/svg" xmlns:xlink="http://www.w3.org/1999/xlink" xml:space="preserve" onload="init(evt)">

<style type="text/css"><![CDATA[
.node, .edge {opacity: 0.7;}
.node.selected, .edge.selected {opacity: 1;}
.edge:hover path { stroke: red; }
.edge:hover polygon { stroke: red; fill: red; }
]]></style>

<defs>
  <circle id="rim" cx="0" cy="0" r="7"/>
  <circle id="rim2" cx="0" cy="0" r="3.5"/>
  <g id="zoomPlus">
    <use xlink:href="#rim" fill="#404040"><set attributeName="fill" to="#808080" begin="zoomplus.mouseover" end="zoomplus.mouseout"/></use>
    <path d="M-4,0h8M0,-4v8" fill="none" stroke="white" stroke-width="1.5" pointer-events="none"/>
  </g>
  <g id="zoomMin">
    <use xlink:href="#rim" fill="#404040"><set attributeName="fill" to="#808080" begin="zoomminus.mouseover" end="zoomminus.mouseout"/></use>
    <path d="M-4,0h8" fill="none" stroke="white" stroke-width="1.5" pointer-events="none"/>
  </g>
  <g id="arrowUp" transform="translate(30 24)">
    <use xlink:href="#rim"/>
    <path pointer-events="none" fill="none" stroke="white" stroke-width="1.5" d="M0,-3.0v7 M-2.5,-0.5L0,-3.0L2.5,-0.5"/>
  </g>
  <g id="arrowRight" transform="rotate(90) translate(36 -43)">
    <use xlink:href="#rim"/>
    <path pointer-events="none" fill="none" stroke="white" stroke-width="1.5" d="M0,-3.0v7 M-2.5,-0.5L0,-3.0L2.5,-0.5"/>
  </g>
  <g id="arrowDown" transform="rotate(180) translate(-30 -48)">
    <use xlink:href="#rim"/>
    <path pointer-events="none" fill="none" stroke="white" stroke-width="1.5" d="M0,-3.0v7 M-2.5,-0.5L0,-3.0L2.5,-0.5"/>
  </g>
  <g id="arrowLeft" transform="rotate(270) translate(-36 17)">
    <use xlink:href="#rim"/>
    <path pointer-events="none" fill="none" stroke="white" stroke-width="1.5" d="M0,-3.0v7 M-2.5,-0.5L0,-3.0L2.5,-0.5"/>
  </g>
  <g id="resetDef">
    <use xlink:href="#rim2" fill="#404040"><set attributeName="fill" to="#808080" begin="reset.mouseover" end="reset.mouseout"/></use>
  </g>
</defs>
<script type="application/ecmascript">
var viewWidth = 691;
var viewHeight = 547;
var sectionId = 'dynsection-14';
</script>
<script type="application/ecmascript" xlink:href="svg.min.js"/>
<svg id="graph" class="graph">
<g id="viewport">
<title>spades::SPADES::init_data</title>
<!-- Node1 -->
<g id="Node000001" class="node">
<title>Node1</title>
<g id="a_Node000001"><a xlink:title="Initializes data.">
<polygon fill="#999999" stroke="#666666" points="143,-323.5 0,-323.5 0,-304.5 143,-304.5 143,-323.5"/>
<text text-anchor="middle" x="71.5" y="-311.5" font-family="Helvetica,sans-Serif" font-size="10.00">spades::SPADES::init_data</text>
</a>
</g>
</g>
<!-- Node2 -->
<g id="Node000002" class="node">
<title>Node2</title>
<g id="a_Node000002"><a xlink:href="classspades_1_1_s_p_a_d_e_s.html#a46f92068ce623b245dc5a07279419076" target="_top" xlink:title="Wrapper for EstTimeStep.">
<polygon fill="white" stroke="#666666" points="337,-528.5 179,-528.5 179,-509.5 337,-509.5 337,-528.5"/>
<text text-anchor="middle" x="258" y="-516.5" font-family="Helvetica,sans-Serif" font-size="10.00">spades::SPADES::compute_dt</text>
</a>
</g>
</g>
<!-- Node1&#45;&gt;Node2 -->
<g id="edge1_Node000001_Node000002" class="edge">
<title>Node1&#45;&gt;Node2</title>
<g id="a_edge1_Node000001_Node000002"><a xlink:title=" ">
<path fill="none" stroke="#63b8ff" d="M75.69,-323.53C85.91,-352.71 120.67,-441.73 179,-490 186.93,-496.56 196.49,-501.72 206.15,-505.74"/>
<polygon fill="#63b8ff" stroke="#63b8ff" points="205.21,-509.13 215.8,-509.4 207.69,-502.58 205.21,-509.13"/>
</a>
</g>
</g>
<!-- Node4 -->
<g id="Node000004" class="node">
<title>Node4</title>
<g id="a_Node000004"><a xlink:href="classspades_1_1_s_p_a_d_e_s.html#af38332640c7da1be964c522f05dace79" target="_top" xlink:title="Initialize the particle containers.">
<polygon fill="white" stroke="#666666" points="508.5,-491 392.5,-491 392.5,-461 508.5,-461 508.5,-491"/>
<text text-anchor="start" x="400.5" y="-479" font-family="Helvetica,sans-Serif" font-size="10.00">spades::SPADES::init</text>
<text text-anchor="middle" x="450.5" y="-468" font-family="Helvetica,sans-Serif" font-size="10.00">_particle_containers</text>
</a>
</g>
</g>
<!-- Node1&#45;&gt;Node4 -->
<g id="edge3_Node000001_Node000004" class="edge">
<title>Node1&#45;&gt;Node4</title>
<g id="a_edge3_Node000001_Node000004"><a xlink:title=" ">
<path fill="none" stroke="#63b8ff" d="M76.21,-323.55C87.17,-350.29 122.24,-425.96 179,-457 241.54,-491.2 324.72,-491.59 382.26,-486.2"/>
<polygon fill="#63b8ff" stroke="#63b8ff" points="382.74,-489.67 392.33,-485.17 382.03,-482.71 382.74,-489.67"/>
</a>
</g>
</g>
<!-- Node5 -->
<g id="Node000005" class="node">
<title>Node5</title>
<g id="a_Node000005"><a xlink:href="classspades_1_1_s_p_a_d_e_s.html#ad1b05918d14d80fa87d906c67d7f2931" target="_top" xlink:title="Initialize the random number generator.">
<polygon fill="white" stroke="#666666" points="326.5,-447.5 189.5,-447.5 189.5,-428.5 326.5,-428.5 326.5,-447.5"/>
<text text-anchor="middle" x="258" y="-435.5" font-family="Helvetica,sans-Serif" font-size="10.00">spades::SPADES::init_rng</text>
</a>
</g>
</g>
<!-- Node1&#45;&gt;Node5 -->
<g id="edge4_Node000001_Node000005" class="edge">
<title>Node1&#45;&gt;Node5</title>
<g id="a_edge4_Node000001_Node000005"><a xlink:title=" ">
<path fill="none" stroke="#63b8ff" d="M79.28,-323.56C94.55,-344.35 133.87,-393.84 179,-419 183.01,-421.24 187.28,-423.21 191.68,-424.96"/>
<polygon fill="#63b8ff" stroke="#63b8ff" points="190.86,-428.38 201.46,-428.42 193.2,-421.78 190.86,-428.38"/>
</a>
</g>
</g>
<!-- Node6 -->
<g id="Node000006" class="node">
<title>Node6</title>
<g id="a_Node000006"><a xlink:href="classspades_1_1_s_p_a_d_e_s.html#aad6ae6cbed80abcb958b023437280061" target="_top" xlink:title="Read checkpoint file from disk.">
<polygon fill="white" stroke="#666666" points="319,-410 197,-410 197,-380 319,-380 319,-410"/>
<text text-anchor="start" x="205" y="-398" font-family="Helvetica,sans-Serif" font-size="10.00">spades::SPADES::read</text>
<text text-anchor="middle" x="258" y="-387" font-family="Helvetica,sans-Serif" font-size="10.00">_checkpoint_file</text>
</a>
</g>
</g>
<!-- Node1&#45;&gt;Node6 -->
<g id="edge5_Node000001_Node000006" class="edge">
<title>Node1&#45;&gt;Node6</title>
<g id="a_edge5_Node000001_Node000006"><a xlink:title=" ">
<path fill="none" stroke="#63b8ff" d="M90.72,-323.57C111.72,-334.46 147.42,-352.46 179,-366 187.2,-369.52 195.98,-373.02 204.59,-376.32"/>
<polygon fill="#63b8ff" stroke="#63b8ff" points="203.6,-379.69 214.19,-379.95 206.07,-373.14 203.6,-379.69"/>
</a>
</g>
</g>
<!-- Node10 -->
<g id="Node000010" class="node">
<title>Node10</title>
<g id="a_Node000010"><a xlink:href="classspades_1_1_s_p_a_d_e_s.html#afaac93099a04dc1dbabe0f3fbf7dc553" target="_top" xlink:title="Update the global virtual time.">
<polygon fill="white" stroke="#666666" points="528,-356.5 373,-356.5 373,-337.5 528,-337.5 528,-356.5"/>
<text text-anchor="middle" x="450.5" y="-344.5" font-family="Helvetica,sans-Serif" font-size="10.00">spades::SPADES::update_gvt</text>
</a>
</g>
</g>
<!-- Node1&#45;&gt;Node10 -->
<g id="edge13_Node000001_Node000010" class="edge">
<title>Node1&#45;&gt;Node10</title>
<g id="a_edge13_Node000001_Node000010"><a xlink:title=" ">
<path fill="none" stroke="#63b8ff" d="M118.71,-323.54C137.36,-327.05 159.13,-330.72 179,-333 240.23,-340.02 309.66,-343.52 362.84,-345.27"/>
<polygon fill="#63b8ff" stroke="#63b8ff" points="362.81,-348.77 372.92,-345.58 363.03,-341.77 362.81,-348.77"/>
</a>
</g>
</g>
<!-- Node11 -->
<g id="Node000011" class="node">
<title>Node11</title>
<g id="a_Node000011"><a xlink:href="classspades_1_1_s_p_a_d_e_s.html#a3e0b5b0dec949d60d2ef8ecb5e1dce43" target="_top" xlink:title="Set the user defined IC functions.">
<polygon fill="white" stroke="#666666" points="325,-323.5 191,-323.5 191,-304.5 325,-304.5 325,-323.5"/>
<text text-anchor="middle" x="258" y="-311.5" font-family="Helvetica,sans-Serif" font-size="10.00">spades::SPADES::set_ics</text>
</a>
</g>
</g>
<!-- Node1&#45;&gt;Node11 -->
<g id="edge11_Node000001_Node000011" class="edge">
<title>Node1&#45;&gt;Node11</title>
<g id="a_edge11_Node000001_Node000011"><a xlink:title=" ">
<path fill="none" stroke="#63b8ff" d="M143.04,-314C155.28,-314 168.06,-314 180.45,-314"/>
<polygon fill="#63b8ff" stroke="#63b8ff" points="180.75,-317.5 190.75,-314 180.75,-310.5 180.75,-317.5"/>
</a>
</g>
</g>
<!-- Node12 -->
<g id="Node000012" class="node">
<title>Node12</title>
<g id="a_Node000012"><a xlink:href="classspades_1_1_s_p_a_d_e_s.html#a9736b6ab6437acce27bb8b8ace6f0a0f" target="_top" xlink:title="Compute summary data.">
<polygon fill="white" stroke="#666666" points="331.5,-286.5 184.5,-286.5 184.5,-267.5 331.5,-267.5 331.5,-286.5"/>
<text text-anchor="middle" x="258" y="-274.5" font-family="Helvetica,sans-Serif" font-size="10.00">spades::SPADES::summary</text>
</a>
</g>
</g>
<!-- Node1&#45;&gt;Node12 -->
<g id="edge12_Node000001_Node000012" class="edge">
<title>Node1&#45;&gt;Node12</title>
<g id="a_edge12_Node000001_Node000012"><a xlink:title=" ">
<path fill="none" stroke="#63b8ff" d="M120.01,-304.47C144.24,-299.61 173.89,-293.67 199.41,-288.55"/>
<polygon fill="#63b8ff" stroke="#63b8ff" points="200.21,-291.96 209.33,-286.56 198.83,-285.1 200.21,-291.96"/>
</a>
</g>
</g>
<!-- Node13 -->
<g id="Node000013" class="node">
<title>Node13</title>
<g id="a_Node000013"><a xlink:href="classspades_1_1_s_p_a_d_e_s.html#a9dadb2f517014aa3fe8e9f841535e836" target="_top" xlink:title="Update the Lower Bound on Incoming Time Stamp.">
<polygon fill="white" stroke="#666666" points="337,-249.5 179,-249.5 179,-230.5 337,-230.5 337,-249.5"/>
<text text-anchor="middle" x="258" y="-237.5" font-family="Helvetica,sans-Serif" font-size="10.00">spades::SPADES::update_lbts</text>
</a>
</g>
</g>
<!-- Node1&#45;&gt;Node13 -->
<g id="edge14_Node000001_Node000013" class="edge">
<title>Node1&#45;&gt;Node13</title>
<g id="a_edge14_Node000001_Node000013"><a xlink:title=" ">
<path fill="none" stroke="#63b8ff" d="M88.19,-304.38C108.5,-292.29 145.28,-271.61 179,-259 185.73,-256.48 192.92,-254.21 200.1,-252.18"/>
<polygon fill="#63b8ff" stroke="#63b8ff" points="201.09,-255.54 209.85,-249.57 199.28,-248.78 201.09,-255.54"/>
</a>
</g>
</g>
<!-- Node14 -->
<g id="Node000014" class="node">
<title>Node14</title>
<g id="a_Node000014"><a xlink:href="classspades_1_1_s_p_a_d_e_s.html#ae3d9cc7f3a32593dbed6aa1899aed241" target="_top" xlink:title="Write checkpoint file to disk.">
<polygon fill="white" stroke="#666666" points="320.5,-212 195.5,-212 195.5,-182 320.5,-182 320.5,-212"/>
<text text-anchor="start" x="203.5" y="-200" font-family="Helvetica,sans-Serif" font-size="10.00">spades::SPADES::write</text>
<text text-anchor="middle" x="258" y="-189" font-family="Helvetica,sans-Serif" font-size="10.00">_checkpoint_file</text>
</a>
</g>
</g>
<!-- Node1&#45;&gt;Node14 -->
<g id="edge15_Node000001_Node000014" class="edge">
<title>Node1&#45;&gt;Node14</title>
<g id="a_edge15_Node000001_Node000014"><a xlink:title=" ">
<path fill="none" stroke="#63b8ff" d="M81.2,-304.22C98.23,-285.65 137.88,-245.07 179,-222 182.87,-219.83 186.96,-217.81 191.15,-215.95"/>
<polygon fill="#63b8ff" stroke="#63b8ff" points="192.55,-219.16 200.46,-212.11 189.88,-212.69 192.55,-219.16"/>
</a>
</g>
</g>
<!-- Node18 -->
<g id="Node000018" class="node">
<title>Node18</title>
<g id="a_Node000018"><a xlink:href="classspades_1_1_s_p_a_d_e_s.html#af219b4e2f38e0e7870f3fdd7b862861c" target="_top" xlink:title="Write simulation information.">
<polygon fill="white" stroke="#666666" points="320.5,-164 195.5,-164 195.5,-134 320.5,-134 320.5,-164"/>
<text text-anchor="start" x="203.5" y="-152" font-family="Helvetica,sans-Serif" font-size="10.00">spades::SPADES::write</text>
<text text-anchor="middle" x="258" y="-141" font-family="Helvetica,sans-Serif" font-size="10.00">_data_file</text>
</a>
</g>
</g>
<!-- Node1&#45;&gt;Node18 -->
<g id="edge19_Node000001_Node000018" class="edge">
<title>Node1&#45;&gt;Node18</title>
<g id="a_edge19_Node000001_Node000018"><a xlink:title=" ">
<path fill="none" stroke="#63b8ff" d="M77,-304.49C89.46,-279.14 126.99,-209.44 179,-173 181.26,-171.42 183.63,-169.93 186.08,-168.55"/>
<polygon fill="#63b8ff" stroke="#63b8ff" points="187.87,-171.56 195.22,-163.94 184.72,-165.31 187.87,-171.56"/>
</a>
</g>
</g>
<!-- Node19 -->
<g id="Node000019" class="node">
<title>Node19</title>
<g id="a_Node000019"><a xlink:href="classspades_1_1_s_p_a_d_e_s.html#ae734db0eea8651621eb07bbf6c8db9f3" target="_top" xlink:title="Write plotfile to disk.">
<polygon fill="white" stroke="#666666" points="320.5,-116 195.5,-116 195.5,-86 320.5,-86 320.5,-116"/>
<text text-anchor="start" x="203.5" y="-104" font-family="Helvetica,sans-Serif" font-size="10.00">spades::SPADES::write</text>
<text text-anchor="middle" x="258" y="-93" font-family="Helvetica,sans-Serif" font-size="10.00">_plot_file</text>
</a>
</g>
</g>
<!-- Node1&#45;&gt;Node19 -->
<g id="edge20_Node000001_Node000019" class="edge">
<title>Node1&#45;&gt;Node19</title>
<g id="a_edge20_Node000001_Node000019"><a xlink:title=" ">
<path fill="none" stroke="#63b8ff" d="M75.09,-304.49C83.98,-273.66 116.23,-175.56 179,-125 181.28,-123.17 183.69,-121.47 186.21,-119.91"/>
<polygon fill="#63b8ff" stroke="#63b8ff" points="187.99,-122.92 195.11,-115.07 184.65,-116.77 187.99,-122.92"/>
</a>
</g>
</g>
<!-- Node3 -->
<g id="Node000003" class="node">
<title>Node3</title>
<g id="a_Node000003"><a xlink:href="classspades_1_1_s_p_a_d_e_s.html#a0690c31594c265dcf9dcc47d49d4e0e6" target="_top" xlink:title="Compute the time step.">
<polygon fill="white" stroke="#666666" points="508.5,-539 392.5,-539 392.5,-509 508.5,-509 508.5,-539"/>
<text text-anchor="start" x="400.5" y="-527" font-family="Helvetica,sans-Serif" font-size="10.00">spades::SPADES::est</text>
<text text-anchor="middle" x="450.5" y="-516" font-family="Helvetica,sans-Serif" font-size="10.00">_time_step</text>
</a>
</g>
</g>
<!-- Node2&#45;&gt;Node3 -->
<g id="edge2_Node000002_Node000003" class="edge">
<title>Node2&#45;&gt;Node3</title>
<g id="a_edge2_Node000002_Node000003"><a xlink:title=" ">
<path fill="none" stroke="#63b8ff" d="M337.03,-521.05C351.92,-521.44 367.38,-521.84 381.9,-522.23"/>
<polygon fill="#63b8ff" stroke="#63b8ff" points="382.2,-525.73 392.29,-522.5 382.39,-518.74 382.2,-525.73"/>
</a>
</g>
</g>
<!-- Node6&#45;&gt;Node4 -->
<g id="edge7_Node000006_Node000004" class="edge">
<title>Node6&#45;&gt;Node4</title>
<g id="a_edge7_Node000006_Node000004"><a xlink:title=" ">
<path fill="none" stroke="#63b8ff" d="M315.59,-410.03C323,-412.88 330.33,-416.2 337,-420 355.59,-430.61 354.37,-441.45 373,-452 376.22,-453.82 379.59,-455.52 383.05,-457.11"/>
<polygon fill="#63b8ff" stroke="#63b8ff" points="381.8,-460.38 392.38,-461.05 384.53,-453.94 381.8,-460.38"/>
</a>
</g>
</g>
<!-- Node7 -->
<g id="Node000007" class="node">
<title>Node7</title>
<g id="a_Node000007"><a xlink:href="namespacespades.html#a741b3219a89d09ae76ded1bdabbe9eb1" target="_top" xlink:title="Skip to the next line in stream.">
<polygon fill="white" stroke="#666666" points="515,-442.5 386,-442.5 386,-423.5 515,-423.5 515,-442.5"/>
<text text-anchor="middle" x="450.5" y="-430.5" font-family="Helvetica,sans-Serif" font-size="10.00">spades::goto_next_line</text>
</a>
</g>
</g>
<!-- Node6&#45;&gt;Node7 -->
<g id="edge6_Node000006_Node000007" class="edge">
<title>Node6&#45;&gt;Node7</title>
<g id="a_edge6_Node000006_Node000007"><a xlink:title=" ">
<path fill="none" stroke="#63b8ff" d="M319.01,-406.97C342.29,-411.61 368.83,-416.91 391.88,-421.51"/>
<polygon fill="#63b8ff" stroke="#63b8ff" points="391.36,-424.97 401.85,-423.5 392.73,-418.11 391.36,-424.97"/>
</a>
</g>
</g>
<!-- Node8 -->
<g id="Node000008" class="node">
<title>Node8</title>
<g id="a_Node000008"><a xlink:href="classspades_1_1_s_p_a_d_e_s.html#a881660503379f75fe58ac988149a4b63" target="_top" xlink:title="Read random number generator seed info.">
<polygon fill="white" stroke="#666666" points="511.5,-405 389.5,-405 389.5,-375 511.5,-375 511.5,-405"/>
<text text-anchor="start" x="397.5" y="-393" font-family="Helvetica,sans-Serif" font-size="10.00">spades::SPADES::read</text>
<text text-anchor="middle" x="450.5" y="-382" font-family="Helvetica,sans-Serif" font-size="10.00">_rng_file</text>
</a>
</g>
</g>
<!-- Node6&#45;&gt;Node8 -->
<g id="edge8_Node000006_Node000008" class="edge">
<title>Node6&#45;&gt;Node8</title>
<g id="a_edge8_Node000006_Node000008"><a xlink:title=" ">
<path fill="none" stroke="#63b8ff" d="M319.01,-393.42C338.15,-392.92 359.49,-392.36 379.27,-391.84"/>
<polygon fill="#63b8ff" stroke="#63b8ff" points="379.56,-395.34 389.46,-391.58 379.37,-388.34 379.56,-395.34"/>
</a>
</g>
</g>
<!-- Node6&#45;&gt;Node10 -->
<g id="edge10_Node000006_Node000010" class="edge">
<title>Node6&#45;&gt;Node10</title>
<g id="a_edge10_Node000006_Node000010"><a xlink:title=" ">
<path fill="none" stroke="#63b8ff" d="M317.86,-379.96C335.58,-375.45 355.08,-370.51 373,-366 382.06,-363.72 391.74,-361.31 401.05,-358.99"/>
<polygon fill="#63b8ff" stroke="#63b8ff" points="402.1,-362.33 410.96,-356.53 400.42,-355.54 402.1,-362.33"/>
</a>
</g>
</g>
<!-- Node9 -->
<g id="Node000009" class="node">
<title>Node9</title>
<g id="a_Node000009"><a xlink:href="namespacespades.html#ae5dca7276a49079908e771b6fcff00ba" target="_top" xlink:title="Read and broadcast file to all ranks.">
<polygon fill="white" stroke="#666666" points="673,-399.5 574,-399.5 574,-380.5 673,-380.5 673,-399.5"/>
<text text-anchor="middle" x="623.5" y="-387.5" font-family="Helvetica,sans-Serif" font-size="10.00">spades::read_file</text>
</a>
</g>
</g>
<!-- Node8&#45;&gt;Node9 -->
<g id="edge9_Node000008_Node000009" class="edge">
<title>Node8&#45;&gt;Node9</title>
<g id="a_edge9_Node000008_Node000009"><a xlink:title=" ">
<path fill="none" stroke="#63b8ff" d="M511.79,-390C528.59,-390 546.82,-390 563.54,-390"/>
<polygon fill="#63b8ff" stroke="#63b8ff" points="563.74,-393.5 573.74,-390 563.74,-386.5 563.74,-393.5"/>
</a>
</g>
</g>
<!-- Node15 -->
<g id="Node000015" class="node">
<title>Node15</title>
<g id="a_Node000015"><a xlink:href="classspades_1_1_s_p_a_d_e_s.html#a931e7876f1853cc4c42373c82820ce2a" target="_top" xlink:title="Get checkpoint file name.">
<polygon fill="white" stroke="#666666" points="509.5,-260 391.5,-260 391.5,-230 509.5,-230 509.5,-260"/>
<text text-anchor="start" x="399.5" y="-248" font-family="Helvetica,sans-Serif" font-size="10.00">spades::SPADES::chk</text>
<text text-anchor="middle" x="450.5" y="-237" font-family="Helvetica,sans-Serif" font-size="10.00">_file_name</text>
</a>
</g>
</g>
<!-- Node14&#45;&gt;Node15 -->
<g id="edge16_Node000014_Node000015" class="edge">
<title>Node14&#45;&gt;Node15</title>
<g id="a_edge16_Node000014_Node000015"><a xlink:title=" ">
<path fill="none" stroke="#63b8ff" d="M318.75,-212.06C338.63,-217.06 360.92,-222.68 381.38,-227.84"/>
<polygon fill="#63b8ff" stroke="#63b8ff" points="380.71,-231.28 391.26,-230.33 382.42,-224.49 380.71,-231.28"/>
</a>
</g>
</g>
<!-- Node16 -->
<g id="Node000016" class="node">
<title>Node16</title>
<g id="a_Node000016"><a xlink:href="classspades_1_1_s_p_a_d_e_s.html#ab8b581263b8652535599daa49eb1d922" target="_top" xlink:title="Write job info to disk.">
<polygon fill="white" stroke="#666666" points="513,-164 388,-164 388,-134 513,-134 513,-164"/>
<text text-anchor="start" x="396" y="-152" font-family="Helvetica,sans-Serif" font-size="10.00">spades::SPADES::write</text>
<text text-anchor="middle" x="450.5" y="-141" font-family="Helvetica,sans-Serif" font-size="10.00">_info_file</text>
</a>
</g>
</g>
<!-- Node14&#45;&gt;Node16 -->
<g id="edge17_Node000014_Node000016" class="edge">
<title>Node14&#45;&gt;Node16</title>
<g id="a_edge17_Node000014_Node000016"><a xlink:title=" ">
<path fill="none" stroke="#63b8ff" d="M318.75,-181.94C338.26,-177.03 360.08,-171.53 380.22,-166.46"/>
<polygon fill="#63b8ff" stroke="#63b8ff" points="381.12,-169.84 389.96,-164 379.41,-163.05 381.12,-169.84"/>
</a>
</g>
</g>
<!-- Node17 -->
<g id="Node000017" class="node">
<title>Node17</title>
<g id="a_Node000017"><a xlink:href="classspades_1_1_s_p_a_d_e_s.html#a6154cf5ada53b75fd6c5f609de9c5b11" target="_top" xlink:title="Write random number generator seed info.">
<polygon fill="white" stroke="#666666" points="513,-212 388,-212 388,-182 513,-182 513,-212"/>
<text text-anchor="start" x="396" y="-200" font-family="Helvetica,sans-Serif" font-size="10.00">spades::SPADES::write</text>
<text text-anchor="middle" x="450.5" y="-189" font-family="Helvetica,sans-Serif" font-size="10.00">_rng_file</text>
</a>
</g>
</g>
<!-- Node14&#45;&gt;Node17 -->
<g id="edge18_Node000014_Node000017" class="edge">
<title>Node14&#45;&gt;Node17</title>
<g id="a_edge18_Node000014_Node000017"><a xlink:title=" ">
<path fill="none" stroke="#63b8ff" d="M320.59,-197C338.83,-197 358.97,-197 377.79,-197"/>
<polygon fill="#63b8ff" stroke="#63b8ff" points="377.8,-200.5 387.8,-197 377.8,-193.5 377.8,-200.5"/>
</a>
</g>
</g>
<!-- Node19&#45;&gt;Node16 -->
<g id="edge25_Node000019_Node000016" class="edge">
<title>Node19&#45;&gt;Node16</title>
<g id="a_edge25_Node000019_Node000016"><a xlink:title=" ">
<path fill="none" stroke="#63b8ff" d="M318.75,-116.06C338.26,-120.97 360.08,-126.47 380.22,-131.54"/>
<polygon fill="#63b8ff" stroke="#63b8ff" points="379.41,-134.95 389.96,-134 381.12,-128.16 379.41,-134.95"/>
</a>
</g>
</g>
<!-- Node20 -->
<g id="Node000020" class="node">
<title>Node20</title>
<g id="a_Node000020"><a xlink:href="classspades_1_1_s_p_a_d_e_s.html#a87ad184e18217adfb1fc08cdf8892622" target="_top" xlink:title="Put together the MultiFab for output.">
<polygon fill="white" stroke="#666666" points="510,-116 391,-116 391,-86 510,-86 510,-116"/>
<text text-anchor="start" x="399" y="-104" font-family="Helvetica,sans-Serif" font-size="10.00">spades::SPADES::plot</text>
<text text-anchor="middle" x="450.5" y="-93" font-family="Helvetica,sans-Serif" font-size="10.00">_file_mf</text>
</a>
</g>
</g>
<!-- Node19&#45;&gt;Node20 -->
<g id="edge21_Node000019_Node000020" class="edge">
<title>Node19&#45;&gt;Node20</title>
<g id="a_edge21_Node000019_Node000020"><a xlink:title=" ">
<path fill="none" stroke="#63b8ff" d="M320.59,-101C339.75,-101 361,-101 380.62,-101"/>
<polygon fill="#63b8ff" stroke="#63b8ff" points="380.72,-104.5 390.72,-101 380.72,-97.5 380.72,-104.5"/>
</a>
</g>
</g>
<!-- Node21 -->
<g id="Node000021" class="node">
<title>Node21</title>
<g id="a_Node000021"><a xlink:href="classspades_1_1_s_p_a_d_e_s.html#a9d99d17b8514b6251b7711959c2deba6" target="_top" xlink:title="Set plotfile variables names.">
<polygon fill="white" stroke="#666666" points="683,-95 564,-95 564,-65 683,-65 683,-95"/>
<text text-anchor="start" x="572" y="-83" font-family="Helvetica,sans-Serif" font-size="10.00">spades::SPADES::plot</text>
<text text-anchor="middle" x="623.5" y="-72" font-family="Helvetica,sans-Serif" font-size="10.00">_file_var_names</text>
</a>
</g>
</g>
<!-- Node19&#45;&gt;Node21 -->
<g id="edge24_Node000019_Node000021" class="edge">
<title>Node19&#45;&gt;Node21</title>
<g id="a_edge24_Node000019_Node000021"><a xlink:title=" ">
<path fill="none" stroke="#63b8ff" d="M318.98,-85.94C336.29,-82.26 355.3,-78.84 373,-77 441.52,-69.87 459.12,-75.91 528,-77 536.32,-77.13 545.04,-77.33 553.69,-77.56"/>
<polygon fill="#63b8ff" stroke="#63b8ff" points="553.68,-81.06 563.78,-77.85 553.88,-74.06 553.68,-81.06"/>
</a>
</g>
</g>
<!-- Node22 -->
<g id="Node000022" class="node">
<title>Node22</title>
<g id="a_Node000022"><a xlink:href="classspades_1_1_s_p_a_d_e_s.html#a5b00ea3a0f4445a415ed8061def3e9fd" target="_top" xlink:title="Get plotfile name.">
<polygon fill="white" stroke="#666666" points="510,-30 391,-30 391,0 510,0 510,-30"/>
<text text-anchor="start" x="399" y="-18" font-family="Helvetica,sans-Serif" font-size="10.00">spades::SPADES::plot</text>
<text text-anchor="middle" x="450.5" y="-7" font-family="Helvetica,sans-Serif" font-size="10.00">_file_name</text>
</a>
</g>
</g>
<!-- Node19&#45;&gt;Node22 -->
<g id="edge23_Node000019_Node000022" class="edge">
<title>Node19&#45;&gt;Node22</title>
<g id="a_edge23_Node000019_Node000022"><a xlink:title=" ">
<path fill="none" stroke="#63b8ff" d="M287.2,-85.9C310.04,-73.91 343.21,-57.06 373,-44 381.03,-40.48 389.64,-36.97 398.08,-33.67"/>
<polygon fill="#63b8ff" stroke="#63b8ff" points="399.43,-36.9 407.5,-30.05 396.91,-30.37 399.43,-36.9"/>
</a>
</g>
</g>
<!-- Node20&#45;&gt;Node21 -->
<g id="edge22_Node000020_Node000021" class="edge">
<title>Node20&#45;&gt;Node21</title>
<g id="a_edge22_Node000020_Node000021"><a xlink:title=" ">
<path fill="none" stroke="#63b8ff" d="M510.35,-93.77C524.26,-92.06 539.23,-90.23 553.54,-88.47"/>
<polygon fill="#63b8ff" stroke="#63b8ff" points="554.33,-91.9 563.83,-87.2 553.48,-84.95 554.33,-91.9"/>
</a>
</g>
</g>
</g>
</svg>

<g id="navigator" transform="translate(0 0)" fill="#404254">
  <rect fill="#f2f5e9" fill-opacity="0.5" stroke="#606060" stroke-width=".5" x="0" y="0" width="60" height="60"/>
  <use id="zoomplus" xlink:href="#zoomPlus" x="17" y="9" onmousedown="handleZoom(evt,'in')"/>
  <use id="zoomminus" xlink:href="#zoomMin" x="42" y="9" onmousedown="handleZoom(evt,'out')"/>
  <use id="reset" xlink:href="#resetDef" x="30" y="36" onmousedown="handleReset()"/>
   <use id="arrowup" xlink:href="#arrowUp" x="0" y="0" onmousedown="handlePan(0,-1)"/>
  <use id="arrowright" xlink:href="#arrowRight" x="0" y="0" onmousedown="handlePan(1,0)"/>
  <use id="arrowdown" xlink:href="#arrowDown" x="0" y="0" onmousedown="handlePan(0,1)"/>
  <use id="arrowleft" xlink:href="#arrowLeft" x="0" y="0" onmousedown="handlePan(-1,0)"/>
</g>
<svg viewBox="0 0 15 15" width="100%" height="30px" preserveAspectRatio="xMaxYMin meet">
 <g id="arrow_out" transform="scale(0.3 0.3)">
  <a xlink:href="classspades_1_1_s_p_a_d_e_s_a30fb207b5d878663ebf2b17cffc473e8_cgraph_org.svg" target="_base">
   <rect id="button" ry="5" rx="5" y="6" x="6" height="38" width="38"
        fill="#f2f5e9" fill-opacity="0.5" stroke="#606060" stroke-width="1.0"/>
   <path id="arrow"
     d="M 11.500037,31.436501 C 11.940474,20.09759 22.043105,11.32322 32.158766,21.979434 L 37.068811,17.246167 C 37.068811,17.246167 37.088388,32 37.088388,32 L 22.160133,31.978069 C 22.160133,31.978069 26.997745,27.140456 26.997745,27.140456 C 18.528582,18.264221 13.291696,25.230495 11.500037,31.436501 z"
     style="fill:#404040;"/>
  </a>
 </g>
</svg>

<style type='text/css'>
<![CDATA[
[data-mouse-over-selected='false'] { opacity: 0.7; }
[data-mouse-over-selected='true']  { opacity: 1.0; }
]]>
</style>
<script type="application/ecmascript"><![CDATA[
document.addEventListener('DOMContentLoaded', (event) => {
  highlightEdges();
  highlightAdjacentNodes();
});
]]></script>
</svg>
