<?xml version="1.0" encoding="UTF-8" standalone="no"?>
<!DOCTYPE svg PUBLIC "-//W3C//DTD SVG 1.1//EN"
 "http://www.w3.org/Graphics/SVG/1.1/DTD/svg11.dtd">
<!-- Generated by graphviz version 2.43.0 (0)
 -->
<!-- Title: spades::SPADES::advance Pages: 1 -->
<svg width="538pt" height="168pt"
 viewBox="0.00 0.00 538.00 167.50" xmlns="http://www.w3.org/2000/svg" xmlns:xlink="http://www.w3.org/1999/xlink">
<g id="graph0" class="graph" transform="scale(1 1) rotate(0) translate(4 163.5)">
<title>spades::SPADES::advance</title>
<!-- Node1 -->
<g id="Node000001" class="node">
<title>Node1</title>
<g id="a_Node000001"><a xlink:title="Advance for a single time step.">
<polygon fill="#999999" stroke="#666666" points="142,-74 0,-74 0,-55 142,-55 142,-74"/>
<text text-anchor="middle" x="71" y="-62" font-family="Helvetica,sans-Serif" font-size="10.00">spades::SPADES::advance</text>
</a>
</g>
</g>
<!-- Node2 -->
<g id="Node000002" class="node">
<title>Node2</title>
<g id="a_Node000002"><a xlink:href="classspades_1_1_s_p_a_d_e_s.html#ac061c297f58d191b31b5ff6529a03e87" target="_top" xlink:title="Process messages.">
<polygon fill="white" stroke="#666666" points="326,-159.5 188,-159.5 188,-129.5 326,-129.5 326,-159.5"/>
<text text-anchor="start" x="196" y="-147.5" font-family="Helvetica,sans-Serif" font-size="10.00">spades::SPADES::process</text>
<text text-anchor="middle" x="257" y="-136.5" font-family="Helvetica,sans-Serif" font-size="10.00">_messages</text>
</a>
</g>
</g>
<!-- Node1&#45;&gt;Node2 -->
<g id="edge1_Node000001_Node000002" class="edge">
<title>Node1&#45;&gt;Node2</title>
<g id="a_edge1_Node000001_Node000002"><a xlink:title=" ">
<path fill="none" stroke="#63b8ff" d="M88.47,-74.16C108.97,-85.91 145.27,-105.88 178,-119.5 183.47,-121.78 189.22,-123.97 195.02,-126.06"/>
<polygon fill="#63b8ff" stroke="#63b8ff" points="194.19,-129.47 204.78,-129.45 196.49,-122.86 194.19,-129.47"/>
</a>
</g>
</g>
<!-- Node4 -->
<g id="Node000004" class="node">
<title>Node4</title>
<g id="a_Node000004"><a xlink:href="classspades_1_1_s_p_a_d_e_s.html#ae394ed7dee73e2bee962cf3eead24cc4" target="_top" xlink:title="Perform rollback.">
<polygon fill="white" stroke="#666666" points="327,-93 187,-93 187,-74 327,-74 327,-93"/>
<text text-anchor="middle" x="257" y="-81" font-family="Helvetica,sans-Serif" font-size="10.00">spades::SPADES::rollback</text>
</a>
</g>
</g>
<!-- Node1&#45;&gt;Node4 -->
<g id="edge3_Node000001_Node000004" class="edge">
<title>Node1&#45;&gt;Node4</title>
<g id="a_edge3_Node000001_Node000004"><a xlink:title=" ">
<path fill="none" stroke="#63b8ff" d="M142.09,-71.74C153.4,-72.91 165.18,-74.12 176.69,-75.31"/>
<polygon fill="#63b8ff" stroke="#63b8ff" points="176.41,-78.8 186.72,-76.35 177.13,-71.84 176.41,-78.8"/>
</a>
</g>
</g>
<!-- Node6 -->
<g id="Node000006" class="node">
<title>Node6</title>
<g id="a_Node000006"><a xlink:href="classspades_1_1_s_p_a_d_e_s.html#afaac93099a04dc1dbabe0f3fbf7dc553" target="_top" xlink:title="Update the global virtual time.">
<polygon fill="white" stroke="#666666" points="334.5,-56 179.5,-56 179.5,-37 334.5,-37 334.5,-56"/>
<text text-anchor="middle" x="257" y="-44" font-family="Helvetica,sans-Serif" font-size="10.00">spades::SPADES::update_gvt</text>
</a>
</g>
</g>
<!-- Node1&#45;&gt;Node6 -->
<g id="edge6_Node000001_Node000006" class="edge">
<title>Node1&#45;&gt;Node6</title>
<g id="a_edge6_Node000001_Node000006"><a xlink:title=" ">
<path fill="none" stroke="#63b8ff" d="M142.09,-57.64C150.94,-56.78 160.08,-55.88 169.16,-55"/>
<polygon fill="#63b8ff" stroke="#63b8ff" points="169.75,-58.45 179.36,-54 169.06,-51.49 169.75,-58.45"/>
</a>
</g>
</g>
<!-- Node7 -->
<g id="Node000007" class="node">
<title>Node7</title>
<g id="a_Node000007"><a xlink:href="classspades_1_1_s_p_a_d_e_s.html#a9dadb2f517014aa3fe8e9f841535e836" target="_top" xlink:title="Update the Lower Bound on Incoming Time Stamp.">
<polygon fill="white" stroke="#666666" points="336,-19 178,-19 178,0 336,0 336,-19"/>
<text text-anchor="middle" x="257" y="-7" font-family="Helvetica,sans-Serif" font-size="10.00">spades::SPADES::update_lbts</text>
</a>
</g>
</g>
<!-- Node1&#45;&gt;Node7 -->
<g id="edge7_Node000001_Node000007" class="edge">
<title>Node1&#45;&gt;Node7</title>
<g id="a_edge7_Node000001_Node000007"><a xlink:title=" ">
<path fill="none" stroke="#63b8ff" d="M97.02,-54.9C118.35,-46.92 149.91,-35.62 178,-27.5 185.42,-25.36 193.29,-23.3 201.06,-21.38"/>
<polygon fill="#63b8ff" stroke="#63b8ff" points="201.92,-24.78 210.83,-19.04 200.29,-17.97 201.92,-24.78"/>
</a>
</g>
</g>
<!-- Node3 -->
<g id="Node000003" class="node">
<title>Node3</title>
<g id="a_Node000003"><a xlink:href="namespacespades.html#af26487ec3507565fa67121a8663f2429" target="_top" xlink:title="Exponential distribution.">
<polygon fill="white" stroke="#666666" points="530,-154 372,-154 372,-135 530,-135 530,-154"/>
<text text-anchor="middle" x="451" y="-142" font-family="Helvetica,sans-Serif" font-size="10.00">spades::random_exponential</text>
</a>
</g>
</g>
<!-- Node2&#45;&gt;Node3 -->
<g id="edge2_Node000002_Node000003" class="edge">
<title>Node2&#45;&gt;Node3</title>
<g id="a_edge2_Node000002_Node000003"><a xlink:title=" ">
<path fill="none" stroke="#63b8ff" d="M326.23,-144.5C337.65,-144.5 349.65,-144.5 361.49,-144.5"/>
<polygon fill="#63b8ff" stroke="#63b8ff" points="361.84,-148 371.84,-144.5 361.84,-141 361.84,-148"/>
</a>
</g>
</g>
<!-- Node4&#45;&gt;Node4 -->
<g id="edge4_Node000004_Node000004" class="edge">
<title>Node4&#45;&gt;Node4</title>
<g id="a_edge4_Node000004_Node000004"><a xlink:title=" ">
<path fill="none" stroke="#63b8ff" d="M228.33,-93.08C214.39,-101.73 223.94,-111 257,-111 279.73,-111 291.35,-106.62 291.86,-101.07"/>
<polygon fill="#63b8ff" stroke="#63b8ff" points="294.56,-98.84 285.67,-93.08 289.03,-103.13 294.56,-98.84"/>
</a>
</g>
</g>
<!-- Node5 -->
<g id="Node000005" class="node">
<title>Node5</title>
<g id="a_Node000005"><a xlink:href="classspades_1_1_s_p_a_d_e_s.html#a4f9fe635aff84c88ddbc02fe531a0efc" target="_top" xlink:title="Print rollback statistics.">
<polygon fill="white" stroke="#666666" points="521,-98.5 381,-98.5 381,-68.5 521,-68.5 521,-98.5"/>
<text text-anchor="start" x="389" y="-86.5" font-family="Helvetica,sans-Serif" font-size="10.00">spades::SPADES::rollback</text>
<text text-anchor="middle" x="451" y="-75.5" font-family="Helvetica,sans-Serif" font-size="10.00">_statistics</text>
</a>
</g>
</g>
<!-- Node4&#45;&gt;Node5 -->
<g id="edge5_Node000004_Node000005" class="edge">
<title>Node4&#45;&gt;Node5</title>
<g id="a_edge5_Node000004_Node000005"><a xlink:title=" ">
<path fill="none" stroke="#63b8ff" d="M327.05,-83.5C341.15,-83.5 356.09,-83.5 370.52,-83.5"/>
<polygon fill="#63b8ff" stroke="#63b8ff" points="370.92,-87 380.92,-83.5 370.92,-80 370.92,-87"/>
</a>
</g>
</g>
</g>
</svg>
