<?xml version="1.0" encoding="UTF-8" standalone="no"?>
<!DOCTYPE svg PUBLIC "-//W3C//DTD SVG 1.1//EN"
 "http://www.w3.org/Graphics/SVG/1.1/DTD/svg11.dtd">
<!-- Generated by graphviz version 2.43.0 (0)
 -->
<!-- Title: spades::SPADES::read_checkpoint_file Pages: 1 -->
<svg width="456pt" height="161pt"
 viewBox="0.00 0.00 456.00 161.00" xmlns="http://www.w3.org/2000/svg" xmlns:xlink="http://www.w3.org/1999/xlink">

<svg id="main" version="1.1" xmlns="http://www.w3.org/2000/svg" xmlns:xlink="http://www.w3.org/1999/xlink" xml:space="preserve">

<style type="text/css"><![CDATA[
.node, .edge {opacity: 0.7;}
.node.selected, .edge.selected {opacity: 1;}
.edge:hover path { stroke: red; }
.edge:hover polygon { stroke: red; fill: red; }
]]></style>
<script type="application/ecmascript" xlink:href="svg.min.js"/>
<svg id="graph" class="graph">
<g id="graph0" class="graph" transform="scale(1 1) rotate(0) translate(4 157)">
<title>spades::SPADES::read_checkpoint_file</title>
<!-- Node1 -->
<g id="Node000001" class="node">
<title>Node1</title>
<g id="a_Node000001"><a xlink:title="Read checkpoint file from disk.">
<polygon fill="#999999" stroke="#666666" points="122,-91.5 0,-91.5 0,-61.5 122,-61.5 122,-91.5"/>
<text text-anchor="start" x="8" y="-79.5" font-family="Helvetica,sans-Serif" font-size="10.00">spades::SPADES::read</text>
<text text-anchor="middle" x="61" y="-68.5" font-family="Helvetica,sans-Serif" font-size="10.00">_checkpoint_file</text>
</a>
</g>
</g>
<!-- Node2 -->
<g id="Node000002" class="node">
<title>Node2</title>
<g id="a_Node000002"><a xlink:href="namespacespades.html#a741b3219a89d09ae76ded1bdabbe9eb1" target="_top" xlink:title="Skip to the next line in stream.">
<polygon fill="white" stroke="#666666" points="300,-153 171,-153 171,-134 300,-134 300,-153"/>
<text text-anchor="middle" x="235.5" y="-141" font-family="Helvetica,sans-Serif" font-size="10.00">spades::goto_next_line</text>
</a>
</g>
</g>
<!-- Node1&#45;&gt;Node2 -->
<g id="edge1_Node000001_Node000002" class="edge">
<title>Node1&#45;&gt;Node2</title>
<g id="a_edge1_Node000001_Node000002"><a xlink:title=" ">
<path fill="none" stroke="#63b8ff" d="M88.19,-91.57C107.11,-101.96 133.53,-115.47 158,-124.5 164.8,-127.01 172.05,-129.29 179.29,-131.34"/>
<polygon fill="#63b8ff" stroke="#63b8ff" points="178.53,-134.76 189.1,-133.97 180.35,-128 178.53,-134.76"/>
</a>
</g>
</g>
<!-- Node3 -->
<g id="Node000003" class="node">
<title>Node3</title>
<g id="a_Node000003"><a xlink:href="classspades_1_1_s_p_a_d_e_s.html#af38332640c7da1be964c522f05dace79" target="_top" xlink:title="Initialize the particle containers.">
<polygon fill="white" stroke="#666666" points="293.5,-115.5 177.5,-115.5 177.5,-85.5 293.5,-85.5 293.5,-115.5"/>
<text text-anchor="start" x="185.5" y="-103.5" font-family="Helvetica,sans-Serif" font-size="10.00">spades::SPADES::init</text>
<text text-anchor="middle" x="235.5" y="-92.5" font-family="Helvetica,sans-Serif" font-size="10.00">_particle_containers</text>
</a>
</g>
</g>
<!-- Node1&#45;&gt;Node3 -->
<g id="edge2_Node000001_Node000003" class="edge">
<title>Node1&#45;&gt;Node3</title>
<g id="a_edge2_Node000001_Node000003"><a xlink:title=" ">
<path fill="none" stroke="#63b8ff" d="M122.33,-84.89C136.86,-86.91 152.46,-89.09 167.28,-91.15"/>
<polygon fill="#63b8ff" stroke="#63b8ff" points="167,-94.64 177.39,-92.55 167.97,-87.71 167,-94.64"/>
</a>
</g>
</g>
<!-- Node4 -->
<g id="Node000004" class="node">
<title>Node4</title>
<g id="a_Node000004"><a xlink:href="classspades_1_1_s_p_a_d_e_s.html#a881660503379f75fe58ac988149a4b63" target="_top" xlink:title="Read random number generator seed info.">
<polygon fill="white" stroke="#666666" points="296.5,-67.5 174.5,-67.5 174.5,-37.5 296.5,-37.5 296.5,-67.5"/>
<text text-anchor="start" x="182.5" y="-55.5" font-family="Helvetica,sans-Serif" font-size="10.00">spades::SPADES::read</text>
<text text-anchor="middle" x="235.5" y="-44.5" font-family="Helvetica,sans-Serif" font-size="10.00">_rng_file</text>
</a>
</g>
</g>
<!-- Node1&#45;&gt;Node4 -->
<g id="edge3_Node000001_Node000004" class="edge">
<title>Node1&#45;&gt;Node4</title>
<g id="a_edge3_Node000001_Node000004"><a xlink:title=" ">
<path fill="none" stroke="#63b8ff" d="M122.33,-68.11C135.94,-66.21 150.49,-64.19 164.45,-62.25"/>
<polygon fill="#63b8ff" stroke="#63b8ff" points="165.07,-65.69 174.49,-60.85 164.11,-58.76 165.07,-65.69"/>
</a>
</g>
</g>
<!-- Node6 -->
<g id="Node000006" class="node">
<title>Node6</title>
<g id="a_Node000006"><a xlink:href="classspades_1_1_s_p_a_d_e_s.html#afaac93099a04dc1dbabe0f3fbf7dc553" target="_top" xlink:title="Update the global virtual time.">
<polygon fill="white" stroke="#666666" points="313,-19 158,-19 158,0 313,0 313,-19"/>
<text text-anchor="middle" x="235.5" y="-7" font-family="Helvetica,sans-Serif" font-size="10.00">spades::SPADES::update_gvt</text>
</a>
</g>
</g>
<!-- Node1&#45;&gt;Node6 -->
<g id="edge5_Node000001_Node000006" class="edge">
<title>Node1&#45;&gt;Node6</title>
<g id="a_edge5_Node000001_Node000006"><a xlink:title=" ">
<path fill="none" stroke="#63b8ff" d="M88.19,-61.43C107.11,-51.04 133.53,-37.53 158,-28.5 164.8,-25.99 172.05,-23.71 179.29,-21.66"/>
<polygon fill="#63b8ff" stroke="#63b8ff" points="180.35,-25 189.1,-19.03 178.53,-18.24 180.35,-25"/>
</a>
</g>
</g>
<!-- Node5 -->
<g id="Node000005" class="node">
<title>Node5</title>
<g id="a_Node000005"><a xlink:href="namespacespades.html#ae5dca7276a49079908e771b6fcff00ba" target="_top" xlink:title="Read and broadcast file to all ranks.">
<polygon fill="white" stroke="#666666" points="448,-62 349,-62 349,-43 448,-43 448,-62"/>
<text text-anchor="middle" x="398.5" y="-50" font-family="Helvetica,sans-Serif" font-size="10.00">spades::read_file</text>
</a>
</g>
</g>
<!-- Node4&#45;&gt;Node5 -->
<g id="edge4_Node000004_Node000005" class="edge">
<title>Node4&#45;&gt;Node5</title>
<g id="a_edge4_Node000004_Node000005"><a xlink:title=" ">
<path fill="none" stroke="#63b8ff" d="M296.91,-52.5C310.56,-52.5 325.04,-52.5 338.62,-52.5"/>
<polygon fill="#63b8ff" stroke="#63b8ff" points="338.81,-56 348.81,-52.5 338.81,-49 338.81,-56"/>
</a>
</g>
</g>
</g>
</svg>
</svg>

<style type='text/css'>
<![CDATA[
[data-mouse-over-selected='false'] { opacity: 0.7; }
[data-mouse-over-selected='true']  { opacity: 1.0; }
]]>
</style>
<script type="application/ecmascript"><![CDATA[
document.addEventListener('DOMContentLoaded', (event) => {
  highlightEdges();
  highlightAdjacentNodes();
});
]]></script>
</svg>
