<?xml version="1.0" encoding="UTF-8" standalone="no"?>
<!DOCTYPE svg PUBLIC "-//W3C//DTD SVG 1.1//EN"
 "http://www.w3.org/Graphics/SVG/1.1/DTD/svg11.dtd">
<!-- Generated by graphviz version 2.43.0 (0)
 -->
<!-- Title: spades::SPADES::evolve Pages: 1 -->
<!--zoomable 427 -->

<svg id="main" version="1.1" xmlns="http://www.w3.org/2000/svg" xmlns:xlink="http://www.w3.org/1999/xlink" xml:space="preserve" onload="init(evt)">

<style type="text/css"><![CDATA[
.node, .edge {opacity: 0.7;}
.node.selected, .edge.selected {opacity: 1;}
.edge:hover path { stroke: red; }
.edge:hover polygon { stroke: red; fill: red; }
]]></style>

<defs>
  <circle id="rim" cx="0" cy="0" r="7"/>
  <circle id="rim2" cx="0" cy="0" r="3.5"/>
  <g id="zoomPlus">
    <use xlink:href="#rim" fill="#404040"><set attributeName="fill" to="#808080" begin="zoomplus.mouseover" end="zoomplus.mouseout"/></use>
    <path d="M-4,0h8M0,-4v8" fill="none" stroke="white" stroke-width="1.5" pointer-events="none"/>
  </g>
  <g id="zoomMin">
    <use xlink:href="#rim" fill="#404040"><set attributeName="fill" to="#808080" begin="zoomminus.mouseover" end="zoomminus.mouseout"/></use>
    <path d="M-4,0h8" fill="none" stroke="white" stroke-width="1.5" pointer-events="none"/>
  </g>
  <g id="arrowUp" transform="translate(30 24)">
    <use xlink:href="#rim"/>
    <path pointer-events="none" fill="none" stroke="white" stroke-width="1.5" d="M0,-3.0v7 M-2.5,-0.5L0,-3.0L2.5,-0.5"/>
  </g>
  <g id="arrowRight" transform="rotate(90) translate(36 -43)">
    <use xlink:href="#rim"/>
    <path pointer-events="none" fill="none" stroke="white" stroke-width="1.5" d="M0,-3.0v7 M-2.5,-0.5L0,-3.0L2.5,-0.5"/>
  </g>
  <g id="arrowDown" transform="rotate(180) translate(-30 -48)">
    <use xlink:href="#rim"/>
    <path pointer-events="none" fill="none" stroke="white" stroke-width="1.5" d="M0,-3.0v7 M-2.5,-0.5L0,-3.0L2.5,-0.5"/>
  </g>
  <g id="arrowLeft" transform="rotate(270) translate(-36 17)">
    <use xlink:href="#rim"/>
    <path pointer-events="none" fill="none" stroke="white" stroke-width="1.5" d="M0,-3.0v7 M-2.5,-0.5L0,-3.0L2.5,-0.5"/>
  </g>
  <g id="resetDef">
    <use xlink:href="#rim2" fill="#404040"><set attributeName="fill" to="#808080" begin="reset.mouseover" end="reset.mouseout"/></use>
  </g>
</defs>
<script type="application/ecmascript">
var viewWidth = 907;
var viewHeight = 427;
var sectionId = 'dynsection-10';
</script>
<script type="application/ecmascript" xlink:href="svg.min.js"/>
<svg id="graph" class="graph">
<g id="viewport">
<title>spades::SPADES::evolve</title>
<!-- Node1 -->
<g id="Node000001" class="node">
<title>Node1</title>
<g id="a_Node000001"><a xlink:title="Advance solution to final time.">
<polygon fill="#999999" stroke="#666666" points="134,-272.5 0,-272.5 0,-253.5 134,-253.5 134,-272.5"/>
<text text-anchor="middle" x="67" y="-260.5" font-family="Helvetica,sans-Serif" font-size="10.00">spades::SPADES::evolve</text>
</a>
</g>
</g>
<!-- Node2 -->
<g id="Node000002" class="node">
<title>Node2</title>
<g id="a_Node000002"><a xlink:href="classspades_1_1_s_p_a_d_e_s.html#a46f92068ce623b245dc5a07279419076" target="_top" xlink:title="Wrapper for EstTimeStep.">
<polygon fill="white" stroke="#666666" points="328,-380.5 170,-380.5 170,-361.5 328,-361.5 328,-380.5"/>
<text text-anchor="middle" x="249" y="-368.5" font-family="Helvetica,sans-Serif" font-size="10.00">spades::SPADES::compute_dt</text>
</a>
</g>
</g>
<!-- Node1&#45;&gt;Node2 -->
<g id="edge1_Node000001_Node000002" class="edge">
<title>Node1&#45;&gt;Node2</title>
<g id="a_edge1_Node000001_Node000002"><a xlink:title=" ">
<path fill="none" stroke="#63b8ff" d="M76.18,-272.72C92.21,-291.14 129.73,-331.13 170,-352 174.52,-354.35 179.35,-356.41 184.29,-358.22"/>
<polygon fill="#63b8ff" stroke="#63b8ff" points="183.31,-361.58 193.9,-361.41 185.51,-354.94 183.31,-361.58"/>
</a>
</g>
</g>
<!-- Node4 -->
<g id="Node000004" class="node">
<title>Node4</title>
<g id="a_Node000004"><a xlink:href="classspades_1_1_s_p_a_d_e_s.html#a1a48992e0abbafdfd94f0b43551c3efe" target="_top" xlink:title="Perform work after a time step.">
<polygon fill="white" stroke="#666666" points="310,-343 188,-343 188,-313 310,-313 310,-343"/>
<text text-anchor="start" x="196" y="-331" font-family="Helvetica,sans-Serif" font-size="10.00">spades::SPADES::post</text>
<text text-anchor="middle" x="249" y="-320" font-family="Helvetica,sans-Serif" font-size="10.00">_time_step</text>
</a>
</g>
</g>
<!-- Node1&#45;&gt;Node4 -->
<g id="edge3_Node000001_Node000004" class="edge">
<title>Node1&#45;&gt;Node4</title>
<g id="a_edge3_Node000001_Node000004"><a xlink:title=" ">
<path fill="none" stroke="#63b8ff" d="M90.48,-272.67C111.01,-281.34 142.29,-294.19 170,-304 175.56,-305.97 181.38,-307.93 187.22,-309.84"/>
<polygon fill="#63b8ff" stroke="#63b8ff" points="186.44,-313.27 197.03,-312.99 188.58,-306.6 186.44,-313.27"/>
</a>
</g>
</g>
<!-- Node5 -->
<g id="Node000005" class="node">
<title>Node5</title>
<g id="a_Node000005"><a xlink:href="classspades_1_1_s_p_a_d_e_s.html#a63f0eec354a17c365e13f2268872c154" target="_top" xlink:title="Advance by the time step.">
<polygon fill="white" stroke="#666666" points="323.5,-294.5 174.5,-294.5 174.5,-275.5 323.5,-275.5 323.5,-294.5"/>
<text text-anchor="middle" x="249" y="-282.5" font-family="Helvetica,sans-Serif" font-size="10.00">spades::SPADES::time_step</text>
</a>
</g>
</g>
<!-- Node1&#45;&gt;Node5 -->
<g id="edge4_Node000001_Node000005" class="edge">
<title>Node1&#45;&gt;Node5</title>
<g id="a_edge4_Node000001_Node000005"><a xlink:title=" ">
<path fill="none" stroke="#63b8ff" d="M134,-271.07C143.86,-272.27 154.13,-273.53 164.3,-274.77"/>
<polygon fill="#63b8ff" stroke="#63b8ff" points="164.06,-278.27 174.41,-276.01 164.91,-271.32 164.06,-278.27"/>
</a>
</g>
</g>
<!-- Node14 -->
<g id="Node000014" class="node">
<title>Node14</title>
<g id="a_Node000014"><a xlink:href="classspades_1_1_s_p_a_d_e_s.html#ae3d9cc7f3a32593dbed6aa1899aed241" target="_top" xlink:title="Write checkpoint file to disk.">
<polygon fill="white" stroke="#666666" points="311.5,-257 186.5,-257 186.5,-227 311.5,-227 311.5,-257"/>
<text text-anchor="start" x="194.5" y="-245" font-family="Helvetica,sans-Serif" font-size="10.00">spades::SPADES::write</text>
<text text-anchor="middle" x="249" y="-234" font-family="Helvetica,sans-Serif" font-size="10.00">_checkpoint_file</text>
</a>
</g>
</g>
<!-- Node1&#45;&gt;Node14 -->
<g id="edge14_Node000001_Node000014" class="edge">
<title>Node1&#45;&gt;Node14</title>
<g id="a_edge14_Node000001_Node000014"><a xlink:title=" ">
<path fill="none" stroke="#63b8ff" d="M134,-255.3C147.81,-253.69 162.43,-251.98 176.43,-250.35"/>
<polygon fill="#63b8ff" stroke="#63b8ff" points="176.96,-253.81 186.49,-249.18 176.15,-246.86 176.96,-253.81"/>
</a>
</g>
</g>
<!-- Node18 -->
<g id="Node000018" class="node">
<title>Node18</title>
<g id="a_Node000018"><a xlink:href="classspades_1_1_s_p_a_d_e_s.html#af219b4e2f38e0e7870f3fdd7b862861c" target="_top" xlink:title="Write simulation information.">
<polygon fill="white" stroke="#666666" points="311.5,-209 186.5,-209 186.5,-179 311.5,-179 311.5,-209"/>
<text text-anchor="start" x="194.5" y="-197" font-family="Helvetica,sans-Serif" font-size="10.00">spades::SPADES::write</text>
<text text-anchor="middle" x="249" y="-186" font-family="Helvetica,sans-Serif" font-size="10.00">_data_file</text>
</a>
</g>
</g>
<!-- Node1&#45;&gt;Node18 -->
<g id="edge18_Node000001_Node000018" class="edge">
<title>Node1&#45;&gt;Node18</title>
<g id="a_edge18_Node000001_Node000018"><a xlink:title=" ">
<path fill="none" stroke="#63b8ff" d="M88.03,-253.33C108.39,-243.69 140.98,-228.82 170,-218 175.23,-216.05 180.69,-214.13 186.2,-212.28"/>
<polygon fill="#63b8ff" stroke="#63b8ff" points="187.69,-215.48 196.11,-209.04 185.51,-208.82 187.69,-215.48"/>
</a>
</g>
</g>
<!-- Node19 -->
<g id="Node000019" class="node">
<title>Node19</title>
<g id="a_Node000019"><a xlink:href="classspades_1_1_s_p_a_d_e_s.html#ae734db0eea8651621eb07bbf6c8db9f3" target="_top" xlink:title="Write plotfile to disk.">
<polygon fill="white" stroke="#666666" points="311.5,-116 186.5,-116 186.5,-86 311.5,-86 311.5,-116"/>
<text text-anchor="start" x="194.5" y="-104" font-family="Helvetica,sans-Serif" font-size="10.00">spades::SPADES::write</text>
<text text-anchor="middle" x="249" y="-93" font-family="Helvetica,sans-Serif" font-size="10.00">_plot_file</text>
</a>
</g>
</g>
<!-- Node1&#45;&gt;Node19 -->
<g id="edge19_Node000001_Node000019" class="edge">
<title>Node1&#45;&gt;Node19</title>
<g id="a_edge19_Node000001_Node000019"><a xlink:title=" ">
<path fill="none" stroke="#63b8ff" d="M78.38,-253.44C96.77,-236.53 136.3,-200.26 170,-170 187.75,-154.05 207.94,-136.21 223.32,-122.66"/>
<polygon fill="#63b8ff" stroke="#63b8ff" points="225.7,-125.23 230.89,-116 221.07,-119.98 225.7,-125.23"/>
</a>
</g>
</g>
<!-- Node3 -->
<g id="Node000003" class="node">
<title>Node3</title>
<g id="a_Node000003"><a xlink:href="classspades_1_1_s_p_a_d_e_s.html#a0690c31594c265dcf9dcc47d49d4e0e6" target="_top" xlink:title="Compute the time step.">
<polygon fill="white" stroke="#666666" points="495.5,-386 379.5,-386 379.5,-356 495.5,-356 495.5,-386"/>
<text text-anchor="start" x="387.5" y="-374" font-family="Helvetica,sans-Serif" font-size="10.00">spades::SPADES::est</text>
<text text-anchor="middle" x="437.5" y="-363" font-family="Helvetica,sans-Serif" font-size="10.00">_time_step</text>
</a>
</g>
</g>
<!-- Node2&#45;&gt;Node3 -->
<g id="edge2_Node000002_Node000003" class="edge">
<title>Node2&#45;&gt;Node3</title>
<g id="a_edge2_Node000002_Node000003"><a xlink:title=" ">
<path fill="none" stroke="#63b8ff" d="M328.01,-371C341.69,-371 355.82,-371 369.18,-371"/>
<polygon fill="#63b8ff" stroke="#63b8ff" points="369.23,-374.5 379.23,-371 369.23,-367.5 369.23,-374.5"/>
</a>
</g>
</g>
<!-- Node6 -->
<g id="Node000006" class="node">
<title>Node6</title>
<g id="a_Node000006"><a xlink:href="classspades_1_1_s_p_a_d_e_s.html#a0b81ab952fa2884baa10af3a0c79de6e" target="_top" xlink:title="Advance for a single time step.">
<polygon fill="white" stroke="#666666" points="508.5,-334.5 366.5,-334.5 366.5,-315.5 508.5,-315.5 508.5,-334.5"/>
<text text-anchor="middle" x="437.5" y="-322.5" font-family="Helvetica,sans-Serif" font-size="10.00">spades::SPADES::advance</text>
</a>
</g>
</g>
<!-- Node5&#45;&gt;Node6 -->
<g id="edge5_Node000005_Node000006" class="edge">
<title>Node5&#45;&gt;Node6</title>
<g id="a_edge5_Node000005_Node000006"><a xlink:title=" ">
<path fill="none" stroke="#63b8ff" d="M294.67,-294.58C320.97,-300.22 354.42,-307.4 382.23,-313.36"/>
<polygon fill="#63b8ff" stroke="#63b8ff" points="381.68,-316.82 392.19,-315.5 383.15,-309.98 381.68,-316.82"/>
</a>
</g>
</g>
<!-- Node13 -->
<g id="Node000013" class="node">
<title>Node13</title>
<g id="a_Node000013"><a xlink:href="classspades_1_1_s_p_a_d_e_s.html#a9736b6ab6437acce27bb8b8ace6f0a0f" target="_top" xlink:title="Compute summary data.">
<polygon fill="white" stroke="#666666" points="511,-297.5 364,-297.5 364,-278.5 511,-278.5 511,-297.5"/>
<text text-anchor="middle" x="437.5" y="-285.5" font-family="Helvetica,sans-Serif" font-size="10.00">spades::SPADES::summary</text>
</a>
</g>
</g>
<!-- Node5&#45;&gt;Node13 -->
<g id="edge13_Node000005_Node000013" class="edge">
<title>Node5&#45;&gt;Node13</title>
<g id="a_edge13_Node000005_Node000013"><a xlink:title=" ">
<path fill="none" stroke="#63b8ff" d="M323.71,-286.19C333.53,-286.34 343.66,-286.51 353.63,-286.67"/>
<polygon fill="#63b8ff" stroke="#63b8ff" points="353.88,-290.17 363.94,-286.83 353.99,-283.17 353.88,-290.17"/>
</a>
</g>
</g>
<!-- Node7 -->
<g id="Node000007" class="node">
<title>Node7</title>
<g id="a_Node000007"><a xlink:href="classspades_1_1_s_p_a_d_e_s.html#ac061c297f58d191b31b5ff6529a03e87" target="_top" xlink:title="Process messages.">
<polygon fill="white" stroke="#666666" points="695,-419 557,-419 557,-389 695,-389 695,-419"/>
<text text-anchor="start" x="565" y="-407" font-family="Helvetica,sans-Serif" font-size="10.00">spades::SPADES::process</text>
<text text-anchor="middle" x="626" y="-396" font-family="Helvetica,sans-Serif" font-size="10.00">_messages</text>
</a>
</g>
</g>
<!-- Node6&#45;&gt;Node7 -->
<g id="edge6_Node000006_Node000007" class="edge">
<title>Node6&#45;&gt;Node7</title>
<g id="a_edge6_Node000006_Node000007"><a xlink:title=" ">
<path fill="none" stroke="#63b8ff" d="M481.22,-334.51C491.35,-337.68 501.86,-341.79 511,-347 529.85,-357.75 528.17,-369.21 547,-380 550.04,-381.74 553.23,-383.37 556.49,-384.9"/>
<polygon fill="#63b8ff" stroke="#63b8ff" points="555.31,-388.2 565.89,-388.91 558.07,-381.76 555.31,-388.2"/>
</a>
</g>
</g>
<!-- Node9 -->
<g id="Node000009" class="node">
<title>Node9</title>
<g id="a_Node000009"><a xlink:href="classspades_1_1_s_p_a_d_e_s.html#ae394ed7dee73e2bee962cf3eead24cc4" target="_top" xlink:title="Perform rollback.">
<polygon fill="white" stroke="#666666" points="696,-352.5 556,-352.5 556,-333.5 696,-333.5 696,-352.5"/>
<text text-anchor="middle" x="626" y="-340.5" font-family="Helvetica,sans-Serif" font-size="10.00">spades::SPADES::rollback</text>
</a>
</g>
</g>
<!-- Node6&#45;&gt;Node9 -->
<g id="edge8_Node000006_Node000009" class="edge">
<title>Node6&#45;&gt;Node9</title>
<g id="a_edge8_Node000006_Node000009"><a xlink:title=" ">
<path fill="none" stroke="#63b8ff" d="M508.74,-331.78C520.76,-332.94 533.33,-334.15 545.56,-335.33"/>
<polygon fill="#63b8ff" stroke="#63b8ff" points="545.46,-338.84 555.75,-336.32 546.13,-331.87 545.46,-338.84"/>
</a>
</g>
</g>
<!-- Node11 -->
<g id="Node000011" class="node">
<title>Node11</title>
<g id="a_Node000011"><a xlink:href="classspades_1_1_s_p_a_d_e_s.html#afaac93099a04dc1dbabe0f3fbf7dc553" target="_top" xlink:title="Update the global virtual time.">
<polygon fill="white" stroke="#666666" points="703.5,-315.5 548.5,-315.5 548.5,-296.5 703.5,-296.5 703.5,-315.5"/>
<text text-anchor="middle" x="626" y="-303.5" font-family="Helvetica,sans-Serif" font-size="10.00">spades::SPADES::update_gvt</text>
</a>
</g>
</g>
<!-- Node6&#45;&gt;Node11 -->
<g id="edge11_Node000006_Node000011" class="edge">
<title>Node6&#45;&gt;Node11</title>
<g id="a_edge11_Node000006_Node000011"><a xlink:title=" ">
<path fill="none" stroke="#63b8ff" d="M508.74,-317.84C518.32,-316.87 528.25,-315.86 538.08,-314.86"/>
<polygon fill="#63b8ff" stroke="#63b8ff" points="538.68,-318.31 548.27,-313.82 537.97,-311.35 538.68,-318.31"/>
</a>
</g>
</g>
<!-- Node12 -->
<g id="Node000012" class="node">
<title>Node12</title>
<g id="a_Node000012"><a xlink:href="classspades_1_1_s_p_a_d_e_s.html#a9dadb2f517014aa3fe8e9f841535e836" target="_top" xlink:title="Update the Lower Bound on Incoming Time Stamp.">
<polygon fill="white" stroke="#666666" points="705,-278.5 547,-278.5 547,-259.5 705,-259.5 705,-278.5"/>
<text text-anchor="middle" x="626" y="-266.5" font-family="Helvetica,sans-Serif" font-size="10.00">spades::SPADES::update_lbts</text>
</a>
</g>
</g>
<!-- Node6&#45;&gt;Node12 -->
<g id="edge12_Node000006_Node000012" class="edge">
<title>Node6&#45;&gt;Node12</title>
<g id="a_edge12_Node000006_Node000012"><a xlink:title=" ">
<path fill="none" stroke="#63b8ff" d="M484.27,-315.43C493.25,-313.05 502.52,-310.24 511,-307 527.9,-300.55 530.08,-294.41 547,-288 553.72,-285.45 560.9,-283.16 568.08,-281.13"/>
<polygon fill="#63b8ff" stroke="#63b8ff" points="569.07,-284.48 577.82,-278.51 567.25,-277.72 569.07,-284.48"/>
</a>
</g>
</g>
<!-- Node8 -->
<g id="Node000008" class="node">
<title>Node8</title>
<g id="a_Node000008"><a xlink:href="namespacespades.html#af26487ec3507565fa67121a8663f2429" target="_top" xlink:title="Exponential distribution.">
<polygon fill="white" stroke="#666666" points="899,-413.5 741,-413.5 741,-394.5 899,-394.5 899,-413.5"/>
<text text-anchor="middle" x="820" y="-401.5" font-family="Helvetica,sans-Serif" font-size="10.00">spades::random_exponential</text>
</a>
</g>
</g>
<!-- Node7&#45;&gt;Node8 -->
<g id="edge7_Node000007_Node000008" class="edge">
<title>Node7&#45;&gt;Node8</title>
<g id="a_edge7_Node000007_Node000008"><a xlink:title=" ">
<path fill="none" stroke="#63b8ff" d="M695.23,-404C706.65,-404 718.65,-404 730.49,-404"/>
<polygon fill="#63b8ff" stroke="#63b8ff" points="730.84,-407.5 740.84,-404 730.84,-400.5 730.84,-407.5"/>
</a>
</g>
</g>
<!-- Node9&#45;&gt;Node9 -->
<g id="edge9_Node000009_Node000009" class="edge">
<title>Node9&#45;&gt;Node9</title>
<g id="a_edge9_Node000009_Node000009"><a xlink:title=" ">
<path fill="none" stroke="#63b8ff" d="M597.02,-352.58C582.93,-361.23 592.59,-370.5 626,-370.5 648.97,-370.5 660.72,-366.12 661.23,-360.57"/>
<polygon fill="#63b8ff" stroke="#63b8ff" points="663.9,-358.3 654.98,-352.58 658.39,-362.61 663.9,-358.3"/>
</a>
</g>
</g>
<!-- Node10 -->
<g id="Node000010" class="node">
<title>Node10</title>
<g id="a_Node000010"><a xlink:href="classspades_1_1_s_p_a_d_e_s.html#a4f9fe635aff84c88ddbc02fe531a0efc" target="_top" xlink:title="Print rollback statistics.">
<polygon fill="white" stroke="#666666" points="890,-358 750,-358 750,-328 890,-328 890,-358"/>
<text text-anchor="start" x="758" y="-346" font-family="Helvetica,sans-Serif" font-size="10.00">spades::SPADES::rollback</text>
<text text-anchor="middle" x="820" y="-335" font-family="Helvetica,sans-Serif" font-size="10.00">_statistics</text>
</a>
</g>
</g>
<!-- Node9&#45;&gt;Node10 -->
<g id="edge10_Node000009_Node000010" class="edge">
<title>Node9&#45;&gt;Node10</title>
<g id="a_edge10_Node000009_Node000010"><a xlink:title=" ">
<path fill="none" stroke="#63b8ff" d="M696.05,-343C710.15,-343 725.09,-343 739.52,-343"/>
<polygon fill="#63b8ff" stroke="#63b8ff" points="739.92,-346.5 749.92,-343 739.92,-339.5 739.92,-346.5"/>
</a>
</g>
</g>
<!-- Node15 -->
<g id="Node000015" class="node">
<title>Node15</title>
<g id="a_Node000015"><a xlink:href="classspades_1_1_s_p_a_d_e_s.html#a931e7876f1853cc4c42373c82820ce2a" target="_top" xlink:title="Get checkpoint file name.">
<polygon fill="white" stroke="#666666" points="496.5,-260 378.5,-260 378.5,-230 496.5,-230 496.5,-260"/>
<text text-anchor="start" x="386.5" y="-248" font-family="Helvetica,sans-Serif" font-size="10.00">spades::SPADES::chk</text>
<text text-anchor="middle" x="437.5" y="-237" font-family="Helvetica,sans-Serif" font-size="10.00">_file_name</text>
</a>
</g>
</g>
<!-- Node14&#45;&gt;Node15 -->
<g id="edge15_Node000014_Node000015" class="edge">
<title>Node14&#45;&gt;Node15</title>
<g id="a_edge15_Node000014_Node000015"><a xlink:title=" ">
<path fill="none" stroke="#63b8ff" d="M311.58,-242.99C329.76,-243.28 349.75,-243.6 368.31,-243.9"/>
<polygon fill="#63b8ff" stroke="#63b8ff" points="368.4,-247.4 378.46,-244.07 368.52,-240.41 368.4,-247.4"/>
</a>
</g>
</g>
<!-- Node16 -->
<g id="Node000016" class="node">
<title>Node16</title>
<g id="a_Node000016"><a xlink:href="classspades_1_1_s_p_a_d_e_s.html#ab8b581263b8652535599daa49eb1d922" target="_top" xlink:title="Write job info to disk.">
<polygon fill="white" stroke="#666666" points="500,-164 375,-164 375,-134 500,-134 500,-164"/>
<text text-anchor="start" x="383" y="-152" font-family="Helvetica,sans-Serif" font-size="10.00">spades::SPADES::write</text>
<text text-anchor="middle" x="437.5" y="-141" font-family="Helvetica,sans-Serif" font-size="10.00">_info_file</text>
</a>
</g>
</g>
<!-- Node14&#45;&gt;Node16 -->
<g id="edge16_Node000014_Node000016" class="edge">
<title>Node14&#45;&gt;Node16</title>
<g id="a_edge16_Node000014_Node000016"><a xlink:title=" ">
<path fill="none" stroke="#63b8ff" d="M311.68,-226.92C317.42,-224.38 322.96,-221.43 328,-218 349.18,-203.6 342.98,-187.63 364,-173 366.14,-171.51 368.38,-170.11 370.7,-168.79"/>
<polygon fill="#63b8ff" stroke="#63b8ff" points="372.59,-171.75 379.91,-164.09 369.41,-165.51 372.59,-171.75"/>
</a>
</g>
</g>
<!-- Node17 -->
<g id="Node000017" class="node">
<title>Node17</title>
<g id="a_Node000017"><a xlink:href="classspades_1_1_s_p_a_d_e_s.html#a6154cf5ada53b75fd6c5f609de9c5b11" target="_top" xlink:title="Write random number generator seed info.">
<polygon fill="white" stroke="#666666" points="500,-212 375,-212 375,-182 500,-182 500,-212"/>
<text text-anchor="start" x="383" y="-200" font-family="Helvetica,sans-Serif" font-size="10.00">spades::SPADES::write</text>
<text text-anchor="middle" x="437.5" y="-189" font-family="Helvetica,sans-Serif" font-size="10.00">_rng_file</text>
</a>
</g>
</g>
<!-- Node14&#45;&gt;Node17 -->
<g id="edge17_Node000014_Node000017" class="edge">
<title>Node14&#45;&gt;Node17</title>
<g id="a_edge17_Node000014_Node000017"><a xlink:title=" ">
<path fill="none" stroke="#63b8ff" d="M311.58,-227.14C328.61,-223.03 347.24,-218.54 364.79,-214.3"/>
<polygon fill="#63b8ff" stroke="#63b8ff" points="366.08,-217.59 374.98,-211.84 364.44,-210.79 366.08,-217.59"/>
</a>
</g>
</g>
<!-- Node19&#45;&gt;Node16 -->
<g id="edge24_Node000019_Node000016" class="edge">
<title>Node19&#45;&gt;Node16</title>
<g id="a_edge24_Node000019_Node000016"><a xlink:title=" ">
<path fill="none" stroke="#63b8ff" d="M308.5,-116.06C327.51,-120.95 348.76,-126.42 368.41,-131.48"/>
<polygon fill="#63b8ff" stroke="#63b8ff" points="367.65,-134.89 378.21,-134 369.4,-128.12 367.65,-134.89"/>
</a>
</g>
</g>
<!-- Node20 -->
<g id="Node000020" class="node">
<title>Node20</title>
<g id="a_Node000020"><a xlink:href="classspades_1_1_s_p_a_d_e_s.html#a87ad184e18217adfb1fc08cdf8892622" target="_top" xlink:title="Put together the MultiFab for output.">
<polygon fill="white" stroke="#666666" points="497,-116 378,-116 378,-86 497,-86 497,-116"/>
<text text-anchor="start" x="386" y="-104" font-family="Helvetica,sans-Serif" font-size="10.00">spades::SPADES::plot</text>
<text text-anchor="middle" x="437.5" y="-93" font-family="Helvetica,sans-Serif" font-size="10.00">_file_mf</text>
</a>
</g>
</g>
<!-- Node19&#45;&gt;Node20 -->
<g id="edge20_Node000019_Node000020" class="edge">
<title>Node19&#45;&gt;Node20</title>
<g id="a_edge20_Node000019_Node000020"><a xlink:title=" ">
<path fill="none" stroke="#63b8ff" d="M311.58,-101C329.58,-101 349.36,-101 367.76,-101"/>
<polygon fill="#63b8ff" stroke="#63b8ff" points="367.83,-104.5 377.83,-101 367.83,-97.5 367.83,-104.5"/>
</a>
</g>
</g>
<!-- Node21 -->
<g id="Node000021" class="node">
<title>Node21</title>
<g id="a_Node000021"><a xlink:href="classspades_1_1_s_p_a_d_e_s.html#a9d99d17b8514b6251b7711959c2deba6" target="_top" xlink:title="Set plotfile variables names.">
<polygon fill="white" stroke="#666666" points="685.5,-95 566.5,-95 566.5,-65 685.5,-65 685.5,-95"/>
<text text-anchor="start" x="574.5" y="-83" font-family="Helvetica,sans-Serif" font-size="10.00">spades::SPADES::plot</text>
<text text-anchor="middle" x="626" y="-72" font-family="Helvetica,sans-Serif" font-size="10.00">_file_var_names</text>
</a>
</g>
</g>
<!-- Node19&#45;&gt;Node21 -->
<g id="edge23_Node000019_Node000021" class="edge">
<title>Node19&#45;&gt;Node21</title>
<g id="a_edge23_Node000019_Node000021"><a xlink:title=" ">
<path fill="none" stroke="#63b8ff" d="M309.98,-85.94C327.29,-82.26 346.3,-78.84 364,-77 428.86,-70.25 503.28,-72.03 556.01,-74.89"/>
<polygon fill="#63b8ff" stroke="#63b8ff" points="556.07,-78.4 566.25,-75.48 556.47,-71.41 556.07,-78.4"/>
</a>
</g>
</g>
<!-- Node22 -->
<g id="Node000022" class="node">
<title>Node22</title>
<g id="a_Node000022"><a xlink:href="classspades_1_1_s_p_a_d_e_s.html#a5b00ea3a0f4445a415ed8061def3e9fd" target="_top" xlink:title="Get plotfile name.">
<polygon fill="white" stroke="#666666" points="497,-30 378,-30 378,0 497,0 497,-30"/>
<text text-anchor="start" x="386" y="-18" font-family="Helvetica,sans-Serif" font-size="10.00">spades::SPADES::plot</text>
<text text-anchor="middle" x="437.5" y="-7" font-family="Helvetica,sans-Serif" font-size="10.00">_file_name</text>
</a>
</g>
</g>
<!-- Node19&#45;&gt;Node22 -->
<g id="edge22_Node000019_Node000022" class="edge">
<title>Node19&#45;&gt;Node22</title>
<g id="a_edge22_Node000019_Node000022"><a xlink:title=" ">
<path fill="none" stroke="#63b8ff" d="M278.73,-85.8C301.59,-73.91 334.53,-57.23 364,-44 371.64,-40.57 379.82,-37.1 387.83,-33.82"/>
<polygon fill="#63b8ff" stroke="#63b8ff" points="389.16,-37.06 397.12,-30.06 386.54,-30.57 389.16,-37.06"/>
</a>
</g>
</g>
<!-- Node20&#45;&gt;Node21 -->
<g id="edge21_Node000020_Node000021" class="edge">
<title>Node20&#45;&gt;Node21</title>
<g id="a_edge21_Node000020_Node000021"><a xlink:title=" ">
<path fill="none" stroke="#63b8ff" d="M497.25,-94.38C515.98,-92.28 536.88,-89.92 556.25,-87.74"/>
<polygon fill="#63b8ff" stroke="#63b8ff" points="556.68,-91.22 566.22,-86.62 555.89,-84.26 556.68,-91.22"/>
</a>
</g>
</g>
</g>
</svg>

<g id="navigator" transform="translate(0 0)" fill="#404254">
  <rect fill="#f2f5e9" fill-opacity="0.5" stroke="#606060" stroke-width=".5" x="0" y="0" width="60" height="60"/>
  <use id="zoomplus" xlink:href="#zoomPlus" x="17" y="9" onmousedown="handleZoom(evt,'in')"/>
  <use id="zoomminus" xlink:href="#zoomMin" x="42" y="9" onmousedown="handleZoom(evt,'out')"/>
  <use id="reset" xlink:href="#resetDef" x="30" y="36" onmousedown="handleReset()"/>
   <use id="arrowup" xlink:href="#arrowUp" x="0" y="0" onmousedown="handlePan(0,-1)"/>
  <use id="arrowright" xlink:href="#arrowRight" x="0" y="0" onmousedown="handlePan(1,0)"/>
  <use id="arrowdown" xlink:href="#arrowDown" x="0" y="0" onmousedown="handlePan(0,1)"/>
  <use id="arrowleft" xlink:href="#arrowLeft" x="0" y="0" onmousedown="handlePan(-1,0)"/>
</g>
<svg viewBox="0 0 15 15" width="100%" height="30px" preserveAspectRatio="xMaxYMin meet">
 <g id="arrow_out" transform="scale(0.3 0.3)">
  <a xlink:href="classspades_1_1_s_p_a_d_e_s_af3d4d2fbe90c38c164a2dd23d9471391_cgraph_org.svg" target="_base">
   <rect id="button" ry="5" rx="5" y="6" x="6" height="38" width="38"
        fill="#f2f5e9" fill-opacity="0.5" stroke="#606060" stroke-width="1.0"/>
   <path id="arrow"
     d="M 11.500037,31.436501 C 11.940474,20.09759 22.043105,11.32322 32.158766,21.979434 L 37.068811,17.246167 C 37.068811,17.246167 37.088388,32 37.088388,32 L 22.160133,31.978069 C 22.160133,31.978069 26.997745,27.140456 26.997745,27.140456 C 18.528582,18.264221 13.291696,25.230495 11.500037,31.436501 z"
     style="fill:#404040;"/>
  </a>
 </g>
</svg>

<style type='text/css'>
<![CDATA[
[data-mouse-over-selected='false'] { opacity: 0.7; }
[data-mouse-over-selected='true']  { opacity: 1.0; }
]]>
</style>
<script type="application/ecmascript"><![CDATA[
document.addEventListener('DOMContentLoaded', (event) => {
  highlightEdges();
  highlightAdjacentNodes();
});
]]></script>
</svg>
