<?xml version="1.0" encoding="UTF-8" standalone="no"?>
<!DOCTYPE svg PUBLIC "-//W3C//DTD SVG 1.1//EN"
 "http://www.w3.org/Graphics/SVG/1.1/DTD/svg11.dtd">
<!-- Generated by graphviz version 2.43.0 (0)
 -->
<!-- Title: spades::SPADES::init_particle_containers Pages: 1 -->
<svg width="538pt" height="59pt"
 viewBox="0.00 0.00 538.00 59.00" xmlns="http://www.w3.org/2000/svg" xmlns:xlink="http://www.w3.org/1999/xlink">
<g id="graph0" class="graph" transform="scale(1 1) rotate(0) translate(4 55)">
<title>spades::SPADES::init_particle_containers</title>
<!-- Node1 -->
<g id="Node000001" class="node">
<title>Node1</title>
<g id="a_Node000001"><a xlink:title="Initialize the particle containers.">
<polygon fill="#999999" stroke="#666666" points="530,-51 414,-51 414,-21 530,-21 530,-51"/>
<text text-anchor="start" x="422" y="-39" font-family="Helvetica,sans-Serif" font-size="10.00">spades::SPADES::init</text>
<text text-anchor="middle" x="472" y="-28" font-family="Helvetica,sans-Serif" font-size="10.00">_particle_containers</text>
</a>
</g>
</g>
<!-- Node2 -->
<g id="Node000002" class="node">
<title>Node2</title>
<g id="a_Node000002"><a xlink:href="classspades_1_1_s_p_a_d_e_s.html#a30fb207b5d878663ebf2b17cffc473e8" target="_top" xlink:title="Initializes data.">
<polygon fill="white" stroke="#666666" points="220,-45.5 77,-45.5 77,-26.5 220,-26.5 220,-45.5"/>
<text text-anchor="middle" x="148.5" y="-33.5" font-family="Helvetica,sans-Serif" font-size="10.00">spades::SPADES::init_data</text>
</a>
</g>
</g>
<!-- Node1&#45;&gt;Node2 -->
<g id="edge1_Node000001_Node000002" class="edge">
<title>Node1&#45;&gt;Node2</title>
<g id="a_edge1_Node000001_Node000002"><a xlink:title=" ">
<path fill="none" stroke="#63b8ff" d="M403.83,-38.42C395.14,-38.66 386.36,-38.87 378,-39 323.78,-39.87 310.22,-39.76 256,-39 244.44,-38.84 232.18,-38.58 220.24,-38.27"/>
<polygon fill="#63b8ff" stroke="#63b8ff" points="404.06,-41.92 413.95,-38.13 403.86,-34.92 404.06,-41.92"/>
</a>
</g>
</g>
<!-- Node4 -->
<g id="Node000004" class="node">
<title>Node4</title>
<g id="a_Node000004"><a xlink:href="classspades_1_1_s_p_a_d_e_s.html#aad6ae6cbed80abcb958b023437280061" target="_top" xlink:title="Read checkpoint file from disk.">
<polygon fill="white" stroke="#666666" points="378,-30 256,-30 256,0 378,0 378,-30"/>
<text text-anchor="start" x="264" y="-18" font-family="Helvetica,sans-Serif" font-size="10.00">spades::SPADES::read</text>
<text text-anchor="middle" x="317" y="-7" font-family="Helvetica,sans-Serif" font-size="10.00">_checkpoint_file</text>
</a>
</g>
</g>
<!-- Node1&#45;&gt;Node4 -->
<g id="edge3_Node000001_Node000004" class="edge">
<title>Node1&#45;&gt;Node4</title>
<g id="a_edge3_Node000001_Node000004"><a xlink:title=" ">
<path fill="none" stroke="#63b8ff" d="M403.67,-26.76C395.13,-25.59 386.44,-24.39 378.03,-23.24"/>
<polygon fill="#63b8ff" stroke="#63b8ff" points="403.21,-30.23 413.59,-28.12 404.16,-23.29 403.21,-30.23"/>
</a>
</g>
</g>
<!-- Node3 -->
<g id="Node000003" class="node">
<title>Node3</title>
<g id="a_Node000003"><a xlink:href="main_8cpp.html#a0ddf1224851353fc92bfbff6f499fa97" target="_top" xlink:title="Main function.">
<polygon fill="white" stroke="#666666" points="41,-45.5 0,-45.5 0,-26.5 41,-26.5 41,-45.5"/>
<text text-anchor="middle" x="20.5" y="-33.5" font-family="Helvetica,sans-Serif" font-size="10.00">main</text>
</a>
</g>
</g>
<!-- Node2&#45;&gt;Node3 -->
<g id="edge2_Node000002_Node000003" class="edge">
<title>Node2&#45;&gt;Node3</title>
<g id="a_edge2_Node000002_Node000003"><a xlink:title=" ">
<path fill="none" stroke="#63b8ff" d="M66.74,-36C57.29,-36 48.42,-36 41.08,-36"/>
<polygon fill="#63b8ff" stroke="#63b8ff" points="66.77,-39.5 76.77,-36 66.77,-32.5 66.77,-39.5"/>
</a>
</g>
</g>
<!-- Node4&#45;&gt;Node2 -->
<g id="edge4_Node000004_Node000002" class="edge">
<title>Node4&#45;&gt;Node2</title>
<g id="a_edge4_Node000004_Node000002"><a xlink:title=" ">
<path fill="none" stroke="#63b8ff" d="M245.93,-23.84C237.36,-24.92 228.59,-26.02 220.01,-27.11"/>
<polygon fill="#63b8ff" stroke="#63b8ff" points="246.41,-27.31 255.89,-22.58 245.53,-20.36 246.41,-27.31"/>
</a>
</g>
</g>
</g>
</svg>
