<?xml version="1.0" encoding="UTF-8" standalone="no"?>
<!DOCTYPE svg PUBLIC "-//W3C//DTD SVG 1.1//EN"
 "http://www.w3.org/Graphics/SVG/1.1/DTD/svg11.dtd">
<!-- Generated by graphviz version 2.43.0 (0)
 -->
<!-- Title: Graphical Class Hierarchy Pages: 1 -->
<svg width="601pt" height="223pt"
 viewBox="0.00 0.00 601.00 222.50" xmlns="http://www.w3.org/2000/svg" xmlns:xlink="http://www.w3.org/1999/xlink">
<g id="graph0" class="graph" transform="scale(1 1) rotate(0) translate(4 218.5)">
<title>Graphical Class Hierarchy</title>
<!-- Node0 -->
<g id="Node000000" class="node">
<title>Node0</title>
<g id="a_Node000000"><a xlink:title=" ">
<polygon fill="#e0e0e0" stroke="#999999" points="182,-111.5 0,-111.5 0,-92.5 182,-92.5 182,-111.5"/>
<text text-anchor="middle" x="91" y="-99.5" font-family="Helvetica,sans-Serif" font-size="10.00">amrex::NeighborParticleContainer</text>
</a>
</g>
</g>
<!-- Node1 -->
<g id="Node000001" class="node">
<title>Node1</title>
<g id="a_Node000001"><a xlink:href="classspades_1_1particles_1_1_spades_particle_container.html" target="_top" xlink:title=" ">
<polygon fill="white" stroke="#666666" points="398,-214.5 234,-214.5 234,-151.5 398,-151.5 398,-214.5"/>
<text text-anchor="start" x="242" y="-202.5" font-family="Helvetica,sans-Serif" font-size="10.00">spades::particles::</text>
<text text-anchor="start" x="242" y="-191.5" font-family="Helvetica,sans-Serif" font-size="10.00">SpadesParticleContainer</text>
<text text-anchor="start" x="242" y="-180.5" font-family="Helvetica,sans-Serif" font-size="10.00">&lt; EntityTypes::NTYPES,</text>
<text text-anchor="start" x="242" y="-169.5" font-family="Helvetica,sans-Serif" font-size="10.00"> 0, 0, EntityRealData::ncomps,</text>
<text text-anchor="middle" x="316" y="-158.5" font-family="Helvetica,sans-Serif" font-size="10.00"> EntityIntData::ncomps &gt;</text>
</a>
</g>
</g>
<!-- Node0&#45;&gt;Node1 -->
<g id="edge2_Node000000_Node000001" class="edge">
<title>Node0&#45;&gt;Node1</title>
<g id="a_edge2_Node000000_Node000001"><a xlink:title=" ">
<path fill="none" stroke="#63b8ff" d="M128.01,-115.08C156.58,-125.46 197.6,-140.36 233.95,-153.56"/>
<polygon fill="#63b8ff" stroke="#63b8ff" points="129.05,-111.73 118.46,-111.61 126.66,-118.31 129.05,-111.73"/>
</a>
</g>
</g>
<!-- Node3 -->
<g id="Node000003" class="node">
<title>Node3</title>
<g id="a_Node000003"><a xlink:href="classspades_1_1particles_1_1_spades_particle_container.html" target="_top" xlink:title=" ">
<polygon fill="white" stroke="#666666" points="414,-133.5 218,-133.5 218,-70.5 414,-70.5 414,-133.5"/>
<text text-anchor="start" x="226" y="-121.5" font-family="Helvetica,sans-Serif" font-size="10.00">spades::particles::</text>
<text text-anchor="start" x="226" y="-110.5" font-family="Helvetica,sans-Serif" font-size="10.00">SpadesParticleContainer</text>
<text text-anchor="start" x="226" y="-99.5" font-family="Helvetica,sans-Serif" font-size="10.00">&lt; MessageTypes::NTYPES,</text>
<text text-anchor="start" x="226" y="-88.5" font-family="Helvetica,sans-Serif" font-size="10.00"> 0, 0, MessageRealData::</text>
<text text-anchor="middle" x="316" y="-77.5" font-family="Helvetica,sans-Serif" font-size="10.00">ncomps, MessageIntData::ncomps &gt;</text>
</a>
</g>
</g>
<!-- Node0&#45;&gt;Node3 -->
<g id="edge4_Node000000_Node000003" class="edge">
<title>Node0&#45;&gt;Node3</title>
<g id="a_edge4_Node000000_Node000003"><a xlink:title=" ">
<path fill="none" stroke="#63b8ff" d="M192.3,-102C200.74,-102 209.26,-102 217.68,-102"/>
<polygon fill="#63b8ff" stroke="#63b8ff" points="192.06,-98.5 182.06,-102 192.06,-105.5 192.06,-98.5"/>
</a>
</g>
</g>
<!-- Node5 -->
<g id="Node000005" class="node">
<title>Node5</title>
<g id="a_Node000005"><a xlink:href="classspades_1_1particles_1_1_spades_particle_container.html" target="_top" xlink:title="Main SPADES particle container.">
<polygon fill="white" stroke="#666666" points="405.5,-52 226.5,-52 226.5,0 405.5,0 405.5,-52"/>
<text text-anchor="start" x="234.5" y="-40" font-family="Helvetica,sans-Serif" font-size="10.00">spades::particles::</text>
<text text-anchor="start" x="234.5" y="-29" font-family="Helvetica,sans-Serif" font-size="10.00">SpadesParticleContainer</text>
<text text-anchor="start" x="234.5" y="-18" font-family="Helvetica,sans-Serif" font-size="10.00">&lt; NType, NStructReal, NStructInt,</text>
<text text-anchor="middle" x="316" y="-7" font-family="Helvetica,sans-Serif" font-size="10.00"> NArrayReal, NArrayInt &gt;</text>
</a>
</g>
</g>
<!-- Node0&#45;&gt;Node5 -->
<g id="edge6_Node000000_Node000005" class="edge">
<title>Node0&#45;&gt;Node5</title>
<g id="a_edge6_Node000000_Node000005"><a xlink:title=" ">
<path fill="none" stroke="#63b8ff" d="M129.82,-89.11C159.55,-78.98 201.95,-64.53 238.67,-52.01"/>
<polygon fill="#63b8ff" stroke="#63b8ff" points="128.58,-85.84 120.24,-92.37 130.84,-92.46 128.58,-85.84"/>
</a>
</g>
</g>
<!-- Node2 -->
<g id="Node000002" class="node">
<title>Node2</title>
<g id="a_Node000002"><a xlink:href="classspades_1_1particles_1_1_entity_particle_container.html" target="_top" xlink:title="Main SPADES entity container.">
<polygon fill="white" stroke="#666666" points="585.5,-198 457.5,-198 457.5,-168 585.5,-168 585.5,-198"/>
<text text-anchor="start" x="465.5" y="-186" font-family="Helvetica,sans-Serif" font-size="10.00">spades::particles::</text>
<text text-anchor="middle" x="521.5" y="-175" font-family="Helvetica,sans-Serif" font-size="10.00">EntityParticleContainer</text>
</a>
</g>
</g>
<!-- Node1&#45;&gt;Node2 -->
<g id="edge3_Node000001_Node000002" class="edge">
<title>Node1&#45;&gt;Node2</title>
<g id="a_edge3_Node000001_Node000002"><a xlink:title=" ">
<path fill="none" stroke="#63b8ff" d="M408.27,-183C424.84,-183 441.78,-183 457.32,-183"/>
<polygon fill="#63b8ff" stroke="#63b8ff" points="408.01,-179.5 398.01,-183 408.01,-186.5 408.01,-179.5"/>
</a>
</g>
</g>
<!-- Node4 -->
<g id="Node000004" class="node">
<title>Node4</title>
<g id="a_Node000004"><a xlink:href="classspades_1_1particles_1_1_message_particle_container.html" target="_top" xlink:title="Main SPADES message container.">
<polygon fill="white" stroke="#666666" points="593,-117 450,-117 450,-87 593,-87 593,-117"/>
<text text-anchor="start" x="458" y="-105" font-family="Helvetica,sans-Serif" font-size="10.00">spades::particles::</text>
<text text-anchor="middle" x="521.5" y="-94" font-family="Helvetica,sans-Serif" font-size="10.00">MessageParticleContainer</text>
</a>
</g>
</g>
<!-- Node3&#45;&gt;Node4 -->
<g id="edge5_Node000003_Node000004" class="edge">
<title>Node3&#45;&gt;Node4</title>
<g id="a_edge5_Node000003_Node000004"><a xlink:title=" ">
<path fill="none" stroke="#63b8ff" d="M424.37,-102C432.96,-102 441.5,-102 449.73,-102"/>
<polygon fill="#63b8ff" stroke="#63b8ff" points="424.28,-98.5 414.28,-102 424.28,-105.5 424.28,-98.5"/>
</a>
</g>
</g>
</g>
</svg>
