<?xml version="1.0" encoding="UTF-8" standalone="no"?>
<!DOCTYPE svg PUBLIC "-//W3C//DTD SVG 1.1//EN"
 "http://www.w3.org/Graphics/SVG/1.1/DTD/svg11.dtd">
<!-- Generated by graphviz version 2.43.0 (0)
 -->
<!-- Title: main Pages: 1 -->
<svg width="993pt" height="674pt"
 viewBox="0.00 0.00 993.00 674.00" xmlns="http://www.w3.org/2000/svg" xmlns:xlink="http://www.w3.org/1999/xlink">
<g id="graph0" class="graph" transform="scale(1 1) rotate(0) translate(4 670)">
<title>main</title>
<!-- Node1 -->
<g id="Node000001" class="node">
<title>Node1</title>
<g id="a_Node000001"><a xlink:title="Main function.">
<polygon fill="#999999" stroke="#666666" points="41,-253.5 0,-253.5 0,-234.5 41,-234.5 41,-253.5"/>
<text text-anchor="middle" x="20.5" y="-241.5" font-family="Helvetica,sans-Serif" font-size="10.00">main</text>
</a>
</g>
</g>
<!-- Node2 -->
<g id="Node000002" class="node">
<title>Node2</title>
<g id="a_Node000002"><a xlink:href="classspades_1_1_s_p_a_d_e_s.html#af3d4d2fbe90c38c164a2dd23d9471391" target="_top" xlink:title="Advance solution to final time.">
<polygon fill="white" stroke="#666666" points="215.5,-437.5 81.5,-437.5 81.5,-418.5 215.5,-418.5 215.5,-437.5"/>
<text text-anchor="middle" x="148.5" y="-425.5" font-family="Helvetica,sans-Serif" font-size="10.00">spades::SPADES::evolve</text>
</a>
</g>
</g>
<!-- Node1&#45;&gt;Node2 -->
<g id="edge1_Node000001_Node000002" class="edge">
<title>Node1&#45;&gt;Node2</title>
<g id="a_edge1_Node000001_Node000002"><a xlink:title=" ">
<path fill="none" stroke="#63b8ff" d="M28.1,-253.63C48.17,-282.95 108.73,-371.39 135.06,-409.83"/>
<polygon fill="#63b8ff" stroke="#63b8ff" points="132.43,-412.19 140.97,-418.46 138.21,-408.23 132.43,-412.19"/>
</a>
</g>
</g>
<!-- Node24 -->
<g id="Node000024" class="node">
<title>Node24</title>
<g id="a_Node000024"><a xlink:href="classspades_1_1_s_p_a_d_e_s.html#a30fb207b5d878663ebf2b17cffc473e8" target="_top" xlink:title="Initializes data.">
<polygon fill="white" stroke="#666666" points="220,-290.5 77,-290.5 77,-271.5 220,-271.5 220,-290.5"/>
<text text-anchor="middle" x="148.5" y="-278.5" font-family="Helvetica,sans-Serif" font-size="10.00">spades::SPADES::init_data</text>
</a>
</g>
</g>
<!-- Node1&#45;&gt;Node24 -->
<g id="edge26_Node000001_Node000024" class="edge">
<title>Node1&#45;&gt;Node24</title>
<g id="a_edge26_Node000001_Node000024"><a xlink:title=" ">
<path fill="none" stroke="#63b8ff" d="M41.2,-250.66C51.78,-254.16 65.06,-258.46 77,-262 84.78,-264.31 93.07,-266.65 101.13,-268.86"/>
<polygon fill="#63b8ff" stroke="#63b8ff" points="100.24,-272.25 110.81,-271.49 102.08,-265.49 100.24,-272.25"/>
</a>
</g>
</g>
<!-- Node32 -->
<g id="Node000032" class="node">
<title>Node32</title>
<g id="a_Node000032"><a xlink:href="namespacespades_1_1io.html#a284753285fda41192ced6c0946c44b41" target="_top" xlink:title="Print SPADES banner.">
<polygon fill="white" stroke="#666666" points="215.5,-253.5 81.5,-253.5 81.5,-234.5 215.5,-234.5 215.5,-253.5"/>
<text text-anchor="middle" x="148.5" y="-241.5" font-family="Helvetica,sans-Serif" font-size="10.00">spades::io::print_banner</text>
</a>
</g>
</g>
<!-- Node1&#45;&gt;Node32 -->
<g id="edge43_Node000001_Node000032" class="edge">
<title>Node1&#45;&gt;Node32</title>
<g id="a_edge43_Node000001_Node000032"><a xlink:title=" ">
<path fill="none" stroke="#63b8ff" d="M41.19,-244C49.61,-244 60.04,-244 71.05,-244"/>
<polygon fill="#63b8ff" stroke="#63b8ff" points="71.27,-247.5 81.27,-244 71.27,-240.5 71.27,-247.5"/>
</a>
</g>
</g>
<!-- Node33 -->
<g id="Node000033" class="node">
<title>Node33</title>
<g id="a_Node000033"><a xlink:href="namespacespades_1_1io.html#acdff4cd3e16f737fbc1f1b7aa970cf8f" target="_top" xlink:title="Print SPADES error.">
<polygon fill="white" stroke="#666666" points="210,-216.5 87,-216.5 87,-197.5 210,-197.5 210,-216.5"/>
<text text-anchor="middle" x="148.5" y="-204.5" font-family="Helvetica,sans-Serif" font-size="10.00">spades::io::print_error</text>
</a>
</g>
</g>
<!-- Node1&#45;&gt;Node33 -->
<g id="edge44_Node000001_Node000033" class="edge">
<title>Node1&#45;&gt;Node33</title>
<g id="a_edge44_Node000001_Node000033"><a xlink:title=" ">
<path fill="none" stroke="#63b8ff" d="M41.15,-236.84C51.71,-233.11 65,-228.58 77,-225 83.67,-223.01 90.73,-221.04 97.71,-219.18"/>
<polygon fill="#63b8ff" stroke="#63b8ff" points="99.03,-222.45 107.82,-216.54 97.26,-215.68 99.03,-222.45"/>
</a>
</g>
</g>
<!-- Node34 -->
<g id="Node000034" class="node">
<title>Node34</title>
<g id="a_Node000034"><a xlink:href="namespacespades_1_1io.html#accd9f8c4095dbe334cc9ce9da8a0ea14" target="_top" xlink:title="Print SPADES usage.">
<polygon fill="white" stroke="#666666" points="213,-179.5 84,-179.5 84,-160.5 213,-160.5 213,-179.5"/>
<text text-anchor="middle" x="148.5" y="-167.5" font-family="Helvetica,sans-Serif" font-size="10.00">spades::io::print_usage</text>
</a>
</g>
</g>
<!-- Node1&#45;&gt;Node34 -->
<g id="edge45_Node000001_Node000034" class="edge">
<title>Node1&#45;&gt;Node34</title>
<g id="a_edge45_Node000001_Node000034"><a xlink:title=" ">
<path fill="none" stroke="#63b8ff" d="M28.57,-234.09C38.12,-221.45 56.33,-199.83 77,-188 80.05,-186.25 83.27,-184.67 86.59,-183.24"/>
<polygon fill="#63b8ff" stroke="#63b8ff" points="88.05,-186.44 96.14,-179.6 85.55,-179.89 88.05,-186.44"/>
</a>
</g>
</g>
<!-- Node3 -->
<g id="Node000003" class="node">
<title>Node3</title>
<g id="a_Node000003"><a xlink:href="classspades_1_1_s_p_a_d_e_s.html#a46f92068ce623b245dc5a07279419076" target="_top" xlink:title="Wrapper for EstTimeStep.">
<polygon fill="white" stroke="#666666" points="414,-394.5 256,-394.5 256,-375.5 414,-375.5 414,-394.5"/>
<text text-anchor="middle" x="335" y="-382.5" font-family="Helvetica,sans-Serif" font-size="10.00">spades::SPADES::compute_dt</text>
</a>
</g>
</g>
<!-- Node2&#45;&gt;Node3 -->
<g id="edge2_Node000002_Node000003" class="edge">
<title>Node2&#45;&gt;Node3</title>
<g id="a_edge2_Node000002_Node000003"><a xlink:title=" ">
<path fill="none" stroke="#63b8ff" d="M190.45,-418.46C217.8,-412.08 253.97,-403.65 283.16,-396.85"/>
<polygon fill="#63b8ff" stroke="#63b8ff" points="284.22,-400.19 293.17,-394.52 282.63,-393.38 284.22,-400.19"/>
</a>
</g>
</g>
<!-- Node5 -->
<g id="Node000005" class="node">
<title>Node5</title>
<g id="a_Node000005"><a xlink:href="classspades_1_1_s_p_a_d_e_s.html#a1a48992e0abbafdfd94f0b43551c3efe" target="_top" xlink:title="Perform work after a time step.">
<polygon fill="white" stroke="#666666" points="396,-539 274,-539 274,-509 396,-509 396,-539"/>
<text text-anchor="start" x="282" y="-527" font-family="Helvetica,sans-Serif" font-size="10.00">spades::SPADES::post</text>
<text text-anchor="middle" x="335" y="-516" font-family="Helvetica,sans-Serif" font-size="10.00">_time_step</text>
</a>
</g>
</g>
<!-- Node2&#45;&gt;Node5 -->
<g id="edge4_Node000002_Node000005" class="edge">
<title>Node2&#45;&gt;Node5</title>
<g id="a_edge4_Node000002_Node000005"><a xlink:title=" ">
<path fill="none" stroke="#63b8ff" d="M161.24,-437.67C180.15,-452.83 218.96,-482.27 256,-500 259.99,-501.91 264.17,-503.71 268.42,-505.4"/>
<polygon fill="#63b8ff" stroke="#63b8ff" points="267.24,-508.7 277.84,-508.92 269.7,-502.14 267.24,-508.7"/>
</a>
</g>
</g>
<!-- Node6 -->
<g id="Node000006" class="node">
<title>Node6</title>
<g id="a_Node000006"><a xlink:href="classspades_1_1_s_p_a_d_e_s.html#a63f0eec354a17c365e13f2268872c154" target="_top" xlink:title="Advance by the time step.">
<polygon fill="white" stroke="#666666" points="409.5,-593.5 260.5,-593.5 260.5,-574.5 409.5,-574.5 409.5,-593.5"/>
<text text-anchor="middle" x="335" y="-581.5" font-family="Helvetica,sans-Serif" font-size="10.00">spades::SPADES::time_step</text>
</a>
</g>
</g>
<!-- Node2&#45;&gt;Node6 -->
<g id="edge5_Node000002_Node000006" class="edge">
<title>Node2&#45;&gt;Node6</title>
<g id="a_edge5_Node000002_Node000006"><a xlink:title=" ">
<path fill="none" stroke="#63b8ff" d="M155.91,-437.62C171.03,-459.68 211.05,-514.62 256,-548 268.24,-557.09 283.13,-564.65 296.62,-570.47"/>
<polygon fill="#63b8ff" stroke="#63b8ff" points="295.55,-573.81 306.13,-574.39 298.22,-567.34 295.55,-573.81"/>
</a>
</g>
</g>
<!-- Node15 -->
<g id="Node000015" class="node">
<title>Node15</title>
<g id="a_Node000015"><a xlink:href="classspades_1_1_s_p_a_d_e_s.html#ae3d9cc7f3a32593dbed6aa1899aed241" target="_top" xlink:title="Write checkpoint file to disk.">
<polygon fill="white" stroke="#666666" points="397.5,-491 272.5,-491 272.5,-461 397.5,-461 397.5,-491"/>
<text text-anchor="start" x="280.5" y="-479" font-family="Helvetica,sans-Serif" font-size="10.00">spades::SPADES::write</text>
<text text-anchor="middle" x="335" y="-468" font-family="Helvetica,sans-Serif" font-size="10.00">_checkpoint_file</text>
</a>
</g>
</g>
<!-- Node2&#45;&gt;Node15 -->
<g id="edge15_Node000002_Node000015" class="edge">
<title>Node2&#45;&gt;Node15</title>
<g id="a_edge15_Node000002_Node000015"><a xlink:title=" ">
<path fill="none" stroke="#63b8ff" d="M186.39,-437.6C209.25,-443.54 239.29,-451.36 266.3,-458.39"/>
<polygon fill="#63b8ff" stroke="#63b8ff" points="265.54,-461.81 276.1,-460.94 267.31,-455.03 265.54,-461.81"/>
</a>
</g>
</g>
<!-- Node19 -->
<g id="Node000019" class="node">
<title>Node19</title>
<g id="a_Node000019"><a xlink:href="classspades_1_1_s_p_a_d_e_s.html#af219b4e2f38e0e7870f3fdd7b862861c" target="_top" xlink:title="Write simulation information.">
<polygon fill="white" stroke="#666666" points="397.5,-443 272.5,-443 272.5,-413 397.5,-413 397.5,-443"/>
<text text-anchor="start" x="280.5" y="-431" font-family="Helvetica,sans-Serif" font-size="10.00">spades::SPADES::write</text>
<text text-anchor="middle" x="335" y="-420" font-family="Helvetica,sans-Serif" font-size="10.00">_data_file</text>
</a>
</g>
</g>
<!-- Node2&#45;&gt;Node19 -->
<g id="edge19_Node000002_Node000019" class="edge">
<title>Node2&#45;&gt;Node19</title>
<g id="a_edge19_Node000002_Node000019"><a xlink:title=" ">
<path fill="none" stroke="#63b8ff" d="M215.59,-428C230.63,-428 246.67,-428 261.95,-428"/>
<polygon fill="#63b8ff" stroke="#63b8ff" points="262.37,-431.5 272.37,-428 262.37,-424.5 262.37,-431.5"/>
</a>
</g>
</g>
<!-- Node20 -->
<g id="Node000020" class="node">
<title>Node20</title>
<g id="a_Node000020"><a xlink:href="classspades_1_1_s_p_a_d_e_s.html#ae734db0eea8651621eb07bbf6c8db9f3" target="_top" xlink:title="Write plotfile to disk.">
<polygon fill="white" stroke="#666666" points="397.5,-319 272.5,-319 272.5,-289 397.5,-289 397.5,-319"/>
<text text-anchor="start" x="280.5" y="-307" font-family="Helvetica,sans-Serif" font-size="10.00">spades::SPADES::write</text>
<text text-anchor="middle" x="335" y="-296" font-family="Helvetica,sans-Serif" font-size="10.00">_plot_file</text>
</a>
</g>
</g>
<!-- Node2&#45;&gt;Node20 -->
<g id="edge20_Node000002_Node000020" class="edge">
<title>Node2&#45;&gt;Node20</title>
<g id="a_edge20_Node000002_Node000020"><a xlink:title=" ">
<path fill="none" stroke="#63b8ff" d="M163.67,-418.48C193.39,-398.5 262.81,-351.85 303.25,-324.67"/>
<polygon fill="#63b8ff" stroke="#63b8ff" points="305.31,-327.5 311.66,-319.01 301.41,-321.69 305.31,-327.5"/>
</a>
</g>
</g>
<!-- Node4 -->
<g id="Node000004" class="node">
<title>Node4</title>
<g id="a_Node000004"><a xlink:href="classspades_1_1_s_p_a_d_e_s.html#a0690c31594c265dcf9dcc47d49d4e0e6" target="_top" xlink:title="Compute the time step.">
<polygon fill="white" stroke="#666666" points="581.5,-412 465.5,-412 465.5,-382 581.5,-382 581.5,-412"/>
<text text-anchor="start" x="473.5" y="-400" font-family="Helvetica,sans-Serif" font-size="10.00">spades::SPADES::est</text>
<text text-anchor="middle" x="523.5" y="-389" font-family="Helvetica,sans-Serif" font-size="10.00">_time_step</text>
</a>
</g>
</g>
<!-- Node3&#45;&gt;Node4 -->
<g id="edge3_Node000003_Node000004" class="edge">
<title>Node3&#45;&gt;Node4</title>
<g id="a_edge3_Node000003_Node000004"><a xlink:title=" ">
<path fill="none" stroke="#63b8ff" d="M414.01,-390.02C427.69,-390.9 441.82,-391.81 455.18,-392.67"/>
<polygon fill="#63b8ff" stroke="#63b8ff" points="455.02,-396.17 465.23,-393.31 455.47,-389.18 455.02,-396.17"/>
</a>
</g>
</g>
<!-- Node7 -->
<g id="Node000007" class="node">
<title>Node7</title>
<g id="a_Node000007"><a xlink:href="classspades_1_1_s_p_a_d_e_s.html#a0b81ab952fa2884baa10af3a0c79de6e" target="_top" xlink:title="Advance for a single time step.">
<polygon fill="white" stroke="#666666" points="594.5,-630.5 452.5,-630.5 452.5,-611.5 594.5,-611.5 594.5,-630.5"/>
<text text-anchor="middle" x="523.5" y="-618.5" font-family="Helvetica,sans-Serif" font-size="10.00">spades::SPADES::advance</text>
</a>
</g>
</g>
<!-- Node6&#45;&gt;Node7 -->
<g id="edge6_Node000006_Node000007" class="edge">
<title>Node6&#45;&gt;Node7</title>
<g id="a_edge6_Node000006_Node000007"><a xlink:title=" ">
<path fill="none" stroke="#63b8ff" d="M384.03,-593.53C408.52,-598.39 438.49,-604.33 464.28,-609.45"/>
<polygon fill="#63b8ff" stroke="#63b8ff" points="463.82,-612.93 474.31,-611.44 465.18,-606.06 463.82,-612.93"/>
</a>
</g>
</g>
<!-- Node14 -->
<g id="Node000014" class="node">
<title>Node14</title>
<g id="a_Node000014"><a xlink:href="classspades_1_1_s_p_a_d_e_s.html#a9736b6ab6437acce27bb8b8ace6f0a0f" target="_top" xlink:title="Compute summary data.">
<polygon fill="white" stroke="#666666" points="597,-593.5 450,-593.5 450,-574.5 597,-574.5 597,-593.5"/>
<text text-anchor="middle" x="523.5" y="-581.5" font-family="Helvetica,sans-Serif" font-size="10.00">spades::SPADES::summary</text>
</a>
</g>
</g>
<!-- Node6&#45;&gt;Node14 -->
<g id="edge14_Node000006_Node000014" class="edge">
<title>Node6&#45;&gt;Node14</title>
<g id="a_edge14_Node000006_Node000014"><a xlink:title=" ">
<path fill="none" stroke="#63b8ff" d="M409.71,-584C419.53,-584 429.66,-584 439.63,-584"/>
<polygon fill="#63b8ff" stroke="#63b8ff" points="439.94,-587.5 449.94,-584 439.94,-580.5 439.94,-587.5"/>
</a>
</g>
</g>
<!-- Node8 -->
<g id="Node000008" class="node">
<title>Node8</title>
<g id="a_Node000008"><a xlink:href="classspades_1_1_s_p_a_d_e_s.html#ac061c297f58d191b31b5ff6529a03e87" target="_top" xlink:title="Process messages.">
<polygon fill="white" stroke="#666666" points="781,-666 643,-666 643,-636 781,-636 781,-666"/>
<text text-anchor="start" x="651" y="-654" font-family="Helvetica,sans-Serif" font-size="10.00">spades::SPADES::process</text>
<text text-anchor="middle" x="712" y="-643" font-family="Helvetica,sans-Serif" font-size="10.00">_messages</text>
</a>
</g>
</g>
<!-- Node7&#45;&gt;Node8 -->
<g id="edge7_Node000007_Node000008" class="edge">
<title>Node7&#45;&gt;Node8</title>
<g id="a_edge7_Node000007_Node000008"><a xlink:title=" ">
<path fill="none" stroke="#63b8ff" d="M583.77,-630.53C599.31,-633.03 616.32,-635.77 632.69,-638.4"/>
<polygon fill="#63b8ff" stroke="#63b8ff" points="632.36,-641.89 642.79,-640.03 633.47,-634.98 632.36,-641.89"/>
</a>
</g>
</g>
<!-- Node10 -->
<g id="Node000010" class="node">
<title>Node10</title>
<g id="a_Node000010"><a xlink:href="classspades_1_1_s_p_a_d_e_s.html#ae394ed7dee73e2bee962cf3eead24cc4" target="_top" xlink:title="Perform rollback.">
<polygon fill="white" stroke="#666666" points="782,-599.5 642,-599.5 642,-580.5 782,-580.5 782,-599.5"/>
<text text-anchor="middle" x="712" y="-587.5" font-family="Helvetica,sans-Serif" font-size="10.00">spades::SPADES::rollback</text>
</a>
</g>
</g>
<!-- Node7&#45;&gt;Node10 -->
<g id="edge9_Node000007_Node000010" class="edge">
<title>Node7&#45;&gt;Node10</title>
<g id="a_edge9_Node000007_Node000010"><a xlink:title=" ">
<path fill="none" stroke="#63b8ff" d="M581.72,-611.49C601.23,-608.25 623.23,-604.59 643.47,-601.22"/>
<polygon fill="#63b8ff" stroke="#63b8ff" points="644.27,-604.64 653.56,-599.55 643.12,-597.73 644.27,-604.64"/>
</a>
</g>
</g>
<!-- Node12 -->
<g id="Node000012" class="node">
<title>Node12</title>
<g id="a_Node000012"><a xlink:href="classspades_1_1_s_p_a_d_e_s.html#afaac93099a04dc1dbabe0f3fbf7dc553" target="_top" xlink:title="Update the global virtual time.">
<polygon fill="white" stroke="#666666" points="789.5,-191.5 634.5,-191.5 634.5,-172.5 789.5,-172.5 789.5,-191.5"/>
<text text-anchor="middle" x="712" y="-179.5" font-family="Helvetica,sans-Serif" font-size="10.00">spades::SPADES::update_gvt</text>
</a>
</g>
</g>
<!-- Node7&#45;&gt;Node12 -->
<g id="edge12_Node000007_Node000012" class="edge">
<title>Node7&#45;&gt;Node12</title>
<g id="a_edge12_Node000007_Node000012"><a xlink:title=" ">
<path fill="none" stroke="#63b8ff" d="M586.97,-611.37C590.7,-609.09 594.11,-606.33 597,-603 647.31,-545.18 600.01,-329.18 633,-260 645.33,-234.15 669.87,-211.89 688.14,-197.84"/>
<polygon fill="#63b8ff" stroke="#63b8ff" points="690.58,-200.39 696.53,-191.62 686.41,-194.76 690.58,-200.39"/>
</a>
</g>
</g>
<!-- Node13 -->
<g id="Node000013" class="node">
<title>Node13</title>
<g id="a_Node000013"><a xlink:href="classspades_1_1_s_p_a_d_e_s.html#a9dadb2f517014aa3fe8e9f841535e836" target="_top" xlink:title="Update the Lower Bound on Incoming Time Stamp.">
<polygon fill="white" stroke="#666666" points="791,-454.5 633,-454.5 633,-435.5 791,-435.5 791,-454.5"/>
<text text-anchor="middle" x="712" y="-442.5" font-family="Helvetica,sans-Serif" font-size="10.00">spades::SPADES::update_lbts</text>
</a>
</g>
</g>
<!-- Node7&#45;&gt;Node13 -->
<g id="edge13_Node000007_Node000013" class="edge">
<title>Node7&#45;&gt;Node13</title>
<g id="a_edge13_Node000007_Node000013"><a xlink:title=" ">
<path fill="none" stroke="#63b8ff" d="M580.47,-611.42C586.31,-609.18 591.95,-606.41 597,-603 650.33,-566.94 687.37,-497.18 702.87,-463.75"/>
<polygon fill="#63b8ff" stroke="#63b8ff" points="706.06,-465.17 706.98,-454.62 699.68,-462.3 706.06,-465.17"/>
</a>
</g>
</g>
<!-- Node9 -->
<g id="Node000009" class="node">
<title>Node9</title>
<g id="a_Node000009"><a xlink:href="namespacespades.html#af26487ec3507565fa67121a8663f2429" target="_top" xlink:title="Exponential distribution.">
<polygon fill="white" stroke="#666666" points="985,-660.5 827,-660.5 827,-641.5 985,-641.5 985,-660.5"/>
<text text-anchor="middle" x="906" y="-648.5" font-family="Helvetica,sans-Serif" font-size="10.00">spades::random_exponential</text>
</a>
</g>
</g>
<!-- Node8&#45;&gt;Node9 -->
<g id="edge8_Node000008_Node000009" class="edge">
<title>Node8&#45;&gt;Node9</title>
<g id="a_edge8_Node000008_Node000009"><a xlink:title=" ">
<path fill="none" stroke="#63b8ff" d="M781.23,-651C792.65,-651 804.65,-651 816.49,-651"/>
<polygon fill="#63b8ff" stroke="#63b8ff" points="816.84,-654.5 826.84,-651 816.84,-647.5 816.84,-654.5"/>
</a>
</g>
</g>
<!-- Node10&#45;&gt;Node10 -->
<g id="edge10_Node000010_Node000010" class="edge">
<title>Node10&#45;&gt;Node10</title>
<g id="a_edge10_Node000010_Node000010"><a xlink:title=" ">
<path fill="none" stroke="#63b8ff" d="M683.02,-599.58C668.93,-608.23 678.59,-617.5 712,-617.5 734.97,-617.5 746.72,-613.12 747.23,-607.57"/>
<polygon fill="#63b8ff" stroke="#63b8ff" points="749.9,-605.3 740.98,-599.58 744.39,-609.61 749.9,-605.3"/>
</a>
</g>
</g>
<!-- Node11 -->
<g id="Node000011" class="node">
<title>Node11</title>
<g id="a_Node000011"><a xlink:href="classspades_1_1_s_p_a_d_e_s.html#a4f9fe635aff84c88ddbc02fe531a0efc" target="_top" xlink:title="Print rollback statistics.">
<polygon fill="white" stroke="#666666" points="976,-605 836,-605 836,-575 976,-575 976,-605"/>
<text text-anchor="start" x="844" y="-593" font-family="Helvetica,sans-Serif" font-size="10.00">spades::SPADES::rollback</text>
<text text-anchor="middle" x="906" y="-582" font-family="Helvetica,sans-Serif" font-size="10.00">_statistics</text>
</a>
</g>
</g>
<!-- Node10&#45;&gt;Node11 -->
<g id="edge11_Node000010_Node000011" class="edge">
<title>Node10&#45;&gt;Node11</title>
<g id="a_edge11_Node000010_Node000011"><a xlink:title=" ">
<path fill="none" stroke="#63b8ff" d="M782.05,-590C796.15,-590 811.09,-590 825.52,-590"/>
<polygon fill="#63b8ff" stroke="#63b8ff" points="825.92,-593.5 835.92,-590 825.92,-586.5 825.92,-593.5"/>
</a>
</g>
</g>
<!-- Node16 -->
<g id="Node000016" class="node">
<title>Node16</title>
<g id="a_Node000016"><a xlink:href="classspades_1_1_s_p_a_d_e_s.html#a931e7876f1853cc4c42373c82820ce2a" target="_top" xlink:title="Get checkpoint file name.">
<polygon fill="white" stroke="#666666" points="582.5,-556 464.5,-556 464.5,-526 582.5,-526 582.5,-556"/>
<text text-anchor="start" x="472.5" y="-544" font-family="Helvetica,sans-Serif" font-size="10.00">spades::SPADES::chk</text>
<text text-anchor="middle" x="523.5" y="-533" font-family="Helvetica,sans-Serif" font-size="10.00">_file_name</text>
</a>
</g>
</g>
<!-- Node15&#45;&gt;Node16 -->
<g id="edge16_Node000015_Node000016" class="edge">
<title>Node15&#45;&gt;Node16</title>
<g id="a_edge16_Node000015_Node000016"><a xlink:title=" ">
<path fill="none" stroke="#63b8ff" d="M388.8,-491.12C397.3,-493.88 405.94,-496.88 414,-500 430.5,-506.4 433.57,-510.43 450,-517 454.73,-518.89 459.67,-520.75 464.65,-522.55"/>
<polygon fill="#63b8ff" stroke="#63b8ff" points="463.64,-525.91 474.24,-525.93 465.97,-519.31 463.64,-525.91"/>
</a>
</g>
</g>
<!-- Node17 -->
<g id="Node000017" class="node">
<title>Node17</title>
<g id="a_Node000017"><a xlink:href="classspades_1_1_s_p_a_d_e_s.html#ab8b581263b8652535599daa49eb1d922" target="_top" xlink:title="Write job info to disk.">
<polygon fill="white" stroke="#666666" points="586,-460 461,-460 461,-430 586,-430 586,-460"/>
<text text-anchor="start" x="469" y="-448" font-family="Helvetica,sans-Serif" font-size="10.00">spades::SPADES::write</text>
<text text-anchor="middle" x="523.5" y="-437" font-family="Helvetica,sans-Serif" font-size="10.00">_info_file</text>
</a>
</g>
</g>
<!-- Node15&#45;&gt;Node17 -->
<g id="edge17_Node000015_Node000017" class="edge">
<title>Node15&#45;&gt;Node17</title>
<g id="a_edge17_Node000015_Node000017"><a xlink:title=" ">
<path fill="none" stroke="#63b8ff" d="M397.58,-465.76C414.61,-462.93 433.24,-459.84 450.79,-456.92"/>
<polygon fill="#63b8ff" stroke="#63b8ff" points="451.69,-460.32 460.98,-455.23 450.54,-453.41 451.69,-460.32"/>
</a>
</g>
</g>
<!-- Node18 -->
<g id="Node000018" class="node">
<title>Node18</title>
<g id="a_Node000018"><a xlink:href="classspades_1_1_s_p_a_d_e_s.html#a6154cf5ada53b75fd6c5f609de9c5b11" target="_top" xlink:title="Write random number generator seed info.">
<polygon fill="white" stroke="#666666" points="586,-508 461,-508 461,-478 586,-478 586,-508"/>
<text text-anchor="start" x="469" y="-496" font-family="Helvetica,sans-Serif" font-size="10.00">spades::SPADES::write</text>
<text text-anchor="middle" x="523.5" y="-485" font-family="Helvetica,sans-Serif" font-size="10.00">_rng_file</text>
</a>
</g>
</g>
<!-- Node15&#45;&gt;Node18 -->
<g id="edge18_Node000015_Node000018" class="edge">
<title>Node15&#45;&gt;Node18</title>
<g id="a_edge18_Node000015_Node000018"><a xlink:title=" ">
<path fill="none" stroke="#63b8ff" d="M397.58,-481.61C414.61,-483.17 433.24,-484.86 450.79,-486.46"/>
<polygon fill="#63b8ff" stroke="#63b8ff" points="450.7,-489.97 460.98,-487.39 451.34,-483 450.7,-489.97"/>
</a>
</g>
</g>
<!-- Node20&#45;&gt;Node17 -->
<g id="edge25_Node000020_Node000017" class="edge">
<title>Node20&#45;&gt;Node17</title>
<g id="a_edge25_Node000020_Node000017"><a xlink:title=" ">
<path fill="none" stroke="#63b8ff" d="M393.79,-319.14C401.19,-322.82 408.19,-327.37 414,-333 444.36,-362.39 419.11,-392.16 450,-421 451.27,-422.18 452.59,-423.31 453.97,-424.37"/>
<polygon fill="#63b8ff" stroke="#63b8ff" points="452.06,-427.31 462.33,-429.91 455.92,-421.47 452.06,-427.31"/>
</a>
</g>
</g>
<!-- Node21 -->
<g id="Node000021" class="node">
<title>Node21</title>
<g id="a_Node000021"><a xlink:href="classspades_1_1_s_p_a_d_e_s.html#a87ad184e18217adfb1fc08cdf8892622" target="_top" xlink:title="Put together the MultiFab for output.">
<polygon fill="white" stroke="#666666" points="583,-278 464,-278 464,-248 583,-248 583,-278"/>
<text text-anchor="start" x="472" y="-266" font-family="Helvetica,sans-Serif" font-size="10.00">spades::SPADES::plot</text>
<text text-anchor="middle" x="523.5" y="-255" font-family="Helvetica,sans-Serif" font-size="10.00">_file_mf</text>
</a>
</g>
</g>
<!-- Node20&#45;&gt;Node21 -->
<g id="edge21_Node000020_Node000021" class="edge">
<title>Node20&#45;&gt;Node21</title>
<g id="a_edge21_Node000020_Node000021"><a xlink:title=" ">
<path fill="none" stroke="#63b8ff" d="M397.58,-290.46C415.66,-286.49 435.54,-282.12 454.02,-278.05"/>
<polygon fill="#63b8ff" stroke="#63b8ff" points="454.81,-281.46 463.83,-275.9 453.31,-274.63 454.81,-281.46"/>
</a>
</g>
</g>
<!-- Node22 -->
<g id="Node000022" class="node">
<title>Node22</title>
<g id="a_Node000022"><a xlink:href="classspades_1_1_s_p_a_d_e_s.html#a9d99d17b8514b6251b7711959c2deba6" target="_top" xlink:title="Set plotfile variables names.">
<polygon fill="white" stroke="#666666" points="771.5,-299 652.5,-299 652.5,-269 771.5,-269 771.5,-299"/>
<text text-anchor="start" x="660.5" y="-287" font-family="Helvetica,sans-Serif" font-size="10.00">spades::SPADES::plot</text>
<text text-anchor="middle" x="712" y="-276" font-family="Helvetica,sans-Serif" font-size="10.00">_file_var_names</text>
</a>
</g>
</g>
<!-- Node20&#45;&gt;Node22 -->
<g id="edge24_Node000020_Node000022" class="edge">
<title>Node20&#45;&gt;Node22</title>
<g id="a_edge24_Node000020_Node000022"><a xlink:title=" ">
<path fill="none" stroke="#63b8ff" d="M397.5,-300.72C464.74,-297.13 572.21,-291.4 642.2,-287.67"/>
<polygon fill="#63b8ff" stroke="#63b8ff" points="642.45,-291.16 652.24,-287.13 642.07,-284.17 642.45,-291.16"/>
</a>
</g>
</g>
<!-- Node23 -->
<g id="Node000023" class="node">
<title>Node23</title>
<g id="a_Node000023"><a xlink:href="classspades_1_1_s_p_a_d_e_s.html#a5b00ea3a0f4445a415ed8061def3e9fd" target="_top" xlink:title="Get plotfile name.">
<polygon fill="white" stroke="#666666" points="583,-364 464,-364 464,-334 583,-334 583,-364"/>
<text text-anchor="start" x="472" y="-352" font-family="Helvetica,sans-Serif" font-size="10.00">spades::SPADES::plot</text>
<text text-anchor="middle" x="523.5" y="-341" font-family="Helvetica,sans-Serif" font-size="10.00">_file_name</text>
</a>
</g>
</g>
<!-- Node20&#45;&gt;Node23 -->
<g id="edge23_Node000020_Node000023" class="edge">
<title>Node20&#45;&gt;Node23</title>
<g id="a_edge23_Node000020_Node000023"><a xlink:title=" ">
<path fill="none" stroke="#63b8ff" d="M397.58,-318.86C415.66,-323.22 435.54,-328.02 454.02,-332.48"/>
<polygon fill="#63b8ff" stroke="#63b8ff" points="453.29,-335.9 463.83,-334.84 454.93,-329.1 453.29,-335.9"/>
</a>
</g>
</g>
<!-- Node21&#45;&gt;Node22 -->
<g id="edge22_Node000021_Node000022" class="edge">
<title>Node21&#45;&gt;Node22</title>
<g id="a_edge22_Node000021_Node000022"><a xlink:title=" ">
<path fill="none" stroke="#63b8ff" d="M583.25,-269.62C601.98,-271.72 622.88,-274.08 642.25,-276.26"/>
<polygon fill="#63b8ff" stroke="#63b8ff" points="641.89,-279.74 652.22,-277.38 642.68,-272.78 641.89,-279.74"/>
</a>
</g>
</g>
<!-- Node24&#45;&gt;Node3 -->
<g id="edge27_Node000024_Node000003" class="edge">
<title>Node24&#45;&gt;Node3</title>
<g id="a_edge27_Node000024_Node000003"><a xlink:title=" ">
<path fill="none" stroke="#63b8ff" d="M159.85,-290.76C177.99,-307.37 217.27,-341.26 256,-361 264.71,-365.44 274.4,-369.23 283.9,-372.4"/>
<polygon fill="#63b8ff" stroke="#63b8ff" points="283.09,-375.82 293.68,-375.48 285.19,-369.14 283.09,-375.82"/>
</a>
</g>
</g>
<!-- Node24&#45;&gt;Node12 -->
<g id="edge38_Node000024_Node000012" class="edge">
<title>Node24&#45;&gt;Node12</title>
<g id="a_edge38_Node000024_Node000012"><a xlink:title=" ">
<path fill="none" stroke="#63b8ff" d="M202.82,-271.49C208.96,-269.02 214.86,-265.91 220,-262 245.05,-242.94 228.99,-217.18 256,-201 315.91,-165.11 509.83,-169.71 624.26,-176"/>
<polygon fill="#63b8ff" stroke="#63b8ff" points="624.21,-179.51 634.4,-176.58 624.61,-172.52 624.21,-179.51"/>
</a>
</g>
</g>
<!-- Node24&#45;&gt;Node13 -->
<g id="edge39_Node000024_Node000013" class="edge">
<title>Node24&#45;&gt;Node13</title>
<g id="a_edge39_Node000024_Node000013"><a xlink:title=" ">
<path fill="none" stroke="#63b8ff" d="M201.65,-271.47C261.4,-261.07 362.37,-245.09 450,-239 515.18,-234.47 541.13,-205.13 597,-239 626.58,-256.93 616.44,-277.63 633,-308 656.35,-350.83 685,-400.43 700.24,-426.61"/>
<polygon fill="#63b8ff" stroke="#63b8ff" points="697.33,-428.56 705.39,-435.43 703.38,-425.03 697.33,-428.56"/>
</a>
</g>
</g>
<!-- Node24&#45;&gt;Node14 -->
<g id="edge37_Node000024_Node000014" class="edge">
<title>Node24&#45;&gt;Node14</title>
<g id="a_edge37_Node000024_Node000014"><a xlink:title=" ">
<path fill="none" stroke="#63b8ff" d="M168.34,-290.51C189.32,-300.82 224.44,-317.23 256,-328 324.46,-351.36 364.47,-314.29 414,-367 475.25,-432.18 389.22,-499.38 450,-565 451.22,-566.31 452.51,-567.54 453.87,-568.68"/>
<polygon fill="#63b8ff" stroke="#63b8ff" points="452.07,-571.69 462.31,-574.4 455.99,-565.9 452.07,-571.69"/>
</a>
</g>
</g>
<!-- Node24&#45;&gt;Node15 -->
<g id="edge40_Node000024_Node000015" class="edge">
<title>Node24&#45;&gt;Node15</title>
<g id="a_edge40_Node000024_Node000015"><a xlink:title=" ">
<path fill="none" stroke="#63b8ff" d="M154.3,-290.53C170.83,-323.06 226.07,-428.96 256,-452 258.32,-453.78 260.76,-455.43 263.31,-456.96"/>
<polygon fill="#63b8ff" stroke="#63b8ff" points="261.81,-460.13 272.28,-461.71 265.08,-453.94 261.81,-460.13"/>
</a>
</g>
</g>
<!-- Node24&#45;&gt;Node19 -->
<g id="edge41_Node000024_Node000019" class="edge">
<title>Node24&#45;&gt;Node19</title>
<g id="a_edge41_Node000024_Node000019"><a xlink:title=" ">
<path fill="none" stroke="#63b8ff" d="M155.13,-290.61C169.15,-313.69 207.97,-372.68 256,-404 258.45,-405.6 261.01,-407.09 263.65,-408.49"/>
<polygon fill="#63b8ff" stroke="#63b8ff" points="262.33,-411.74 272.86,-412.89 265.35,-405.42 262.33,-411.74"/>
</a>
</g>
</g>
<!-- Node24&#45;&gt;Node20 -->
<g id="edge42_Node000024_Node000020" class="edge">
<title>Node24&#45;&gt;Node20</title>
<g id="a_edge42_Node000024_Node000020"><a xlink:title=" ">
<path fill="none" stroke="#63b8ff" d="M220.04,-289.79C233.88,-291.52 248.4,-293.33 262.27,-295.06"/>
<polygon fill="#63b8ff" stroke="#63b8ff" points="261.88,-298.54 272.24,-296.3 262.75,-291.59 261.88,-298.54"/>
</a>
</g>
</g>
<!-- Node25 -->
<g id="Node000025" class="node">
<title>Node25</title>
<g id="a_Node000025"><a xlink:href="classspades_1_1_s_p_a_d_e_s.html#af38332640c7da1be964c522f05dace79" target="_top" xlink:title="Initialize the particle containers.">
<polygon fill="white" stroke="#666666" points="581.5,-154 465.5,-154 465.5,-124 581.5,-124 581.5,-154"/>
<text text-anchor="start" x="473.5" y="-142" font-family="Helvetica,sans-Serif" font-size="10.00">spades::SPADES::init</text>
<text text-anchor="middle" x="523.5" y="-131" font-family="Helvetica,sans-Serif" font-size="10.00">_particle_containers</text>
</a>
</g>
</g>
<!-- Node24&#45;&gt;Node25 -->
<g id="edge28_Node000024_Node000025" class="edge">
<title>Node24&#45;&gt;Node25</title>
<g id="a_edge28_Node000024_Node000025"><a xlink:title=" ">
<path fill="none" stroke="#63b8ff" d="M205.6,-271.34C210.84,-268.89 215.77,-265.82 220,-262 253.21,-232.03 220.57,-195.31 256,-168 312.33,-124.58 396.38,-122.66 454.98,-128.17"/>
<polygon fill="#63b8ff" stroke="#63b8ff" points="454.94,-131.69 465.25,-129.24 455.66,-124.73 454.94,-131.69"/>
</a>
</g>
</g>
<!-- Node26 -->
<g id="Node000026" class="node">
<title>Node26</title>
<g id="a_Node000026"><a xlink:href="classspades_1_1_s_p_a_d_e_s.html#ad1b05918d14d80fa87d906c67d7f2931" target="_top" xlink:title="Initialize the random number generator.">
<polygon fill="white" stroke="#666666" points="403.5,-229.5 266.5,-229.5 266.5,-210.5 403.5,-210.5 403.5,-229.5"/>
<text text-anchor="middle" x="335" y="-217.5" font-family="Helvetica,sans-Serif" font-size="10.00">spades::SPADES::init_rng</text>
</a>
</g>
</g>
<!-- Node24&#45;&gt;Node26 -->
<g id="edge29_Node000024_Node000026" class="edge">
<title>Node24&#45;&gt;Node26</title>
<g id="a_edge29_Node000024_Node000026"><a xlink:title=" ">
<path fill="none" stroke="#63b8ff" d="M190.58,-271.42C200.34,-268.73 210.64,-265.56 220,-262 236.72,-255.64 239.39,-250.65 256,-244 266.47,-239.8 277.98,-235.9 288.86,-232.5"/>
<polygon fill="#63b8ff" stroke="#63b8ff" points="290.07,-235.79 298.63,-229.54 288.04,-229.09 290.07,-235.79"/>
</a>
</g>
</g>
<!-- Node27 -->
<g id="Node000027" class="node">
<title>Node27</title>
<g id="a_Node000027"><a xlink:href="classspades_1_1_s_p_a_d_e_s.html#aad6ae6cbed80abcb958b023437280061" target="_top" xlink:title="Read checkpoint file from disk.">
<polygon fill="white" stroke="#666666" points="396,-111 274,-111 274,-81 396,-81 396,-111"/>
<text text-anchor="start" x="282" y="-99" font-family="Helvetica,sans-Serif" font-size="10.00">spades::SPADES::read</text>
<text text-anchor="middle" x="335" y="-88" font-family="Helvetica,sans-Serif" font-size="10.00">_checkpoint_file</text>
</a>
</g>
</g>
<!-- Node24&#45;&gt;Node27 -->
<g id="edge30_Node000024_Node000027" class="edge">
<title>Node24&#45;&gt;Node27</title>
<g id="a_edge30_Node000024_Node000027"><a xlink:title=" ">
<path fill="none" stroke="#63b8ff" d="M206.71,-271.44C211.61,-268.96 216.15,-265.86 220,-262 263.85,-218.03 214.75,-173.42 256,-127 259.54,-123.02 263.66,-119.54 268.12,-116.51"/>
<polygon fill="#63b8ff" stroke="#63b8ff" points="270.25,-119.31 277.06,-111.2 266.67,-113.29 270.25,-119.31"/>
</a>
</g>
</g>
<!-- Node31 -->
<g id="Node000031" class="node">
<title>Node31</title>
<g id="a_Node000031"><a xlink:href="classspades_1_1_s_p_a_d_e_s.html#a3e0b5b0dec949d60d2ef8ecb5e1dce43" target="_top" xlink:title="Set the user defined IC functions.">
<polygon fill="white" stroke="#666666" points="402,-62.5 268,-62.5 268,-43.5 402,-43.5 402,-62.5"/>
<text text-anchor="middle" x="335" y="-50.5" font-family="Helvetica,sans-Serif" font-size="10.00">spades::SPADES::set_ics</text>
</a>
</g>
</g>
<!-- Node24&#45;&gt;Node31 -->
<g id="edge36_Node000024_Node000031" class="edge">
<title>Node24&#45;&gt;Node31</title>
<g id="a_edge36_Node000024_Node000031"><a xlink:title=" ">
<path fill="none" stroke="#63b8ff" d="M207.68,-271.37C212.26,-268.89 216.47,-265.81 220,-262 278.42,-198.96 196.82,-134.32 256,-72 257.25,-70.68 258.58,-69.44 259.98,-68.29"/>
<polygon fill="#63b8ff" stroke="#63b8ff" points="262.23,-70.99 268.58,-62.51 258.33,-65.18 262.23,-70.99"/>
</a>
</g>
</g>
<!-- Node27&#45;&gt;Node12 -->
<g id="edge35_Node000027_Node000012" class="edge">
<title>Node27&#45;&gt;Node12</title>
<g id="a_edge35_Node000027_Node000012"><a xlink:title=" ">
<path fill="none" stroke="#63b8ff" d="M396.26,-92.72C450.11,-91.57 530.53,-94.29 597,-115 632.64,-126.1 668.99,-150.13 690.78,-166.19"/>
<polygon fill="#63b8ff" stroke="#63b8ff" points="688.82,-169.09 698.91,-172.31 693.03,-163.5 688.82,-169.09"/>
</a>
</g>
</g>
<!-- Node27&#45;&gt;Node25 -->
<g id="edge32_Node000027_Node000025" class="edge">
<title>Node27&#45;&gt;Node25</title>
<g id="a_edge32_Node000027_Node000025"><a xlink:title=" ">
<path fill="none" stroke="#63b8ff" d="M396.04,-109.84C414.99,-114.21 436.05,-119.07 455.45,-123.54"/>
<polygon fill="#63b8ff" stroke="#63b8ff" points="454.9,-127.01 465.43,-125.84 456.48,-120.19 454.9,-127.01"/>
</a>
</g>
</g>
<!-- Node28 -->
<g id="Node000028" class="node">
<title>Node28</title>
<g id="a_Node000028"><a xlink:href="namespacespades.html#a741b3219a89d09ae76ded1bdabbe9eb1" target="_top" xlink:title="Skip to the next line in stream.">
<polygon fill="white" stroke="#666666" points="588,-67.5 459,-67.5 459,-48.5 588,-48.5 588,-67.5"/>
<text text-anchor="middle" x="523.5" y="-55.5" font-family="Helvetica,sans-Serif" font-size="10.00">spades::goto_next_line</text>
</a>
</g>
</g>
<!-- Node27&#45;&gt;Node28 -->
<g id="edge31_Node000027_Node000028" class="edge">
<title>Node27&#45;&gt;Node28</title>
<g id="a_edge31_Node000027_Node000028"><a xlink:title=" ">
<path fill="none" stroke="#63b8ff" d="M396.04,-83.77C418.38,-79.21 443.66,-74.06 465.7,-69.57"/>
<polygon fill="#63b8ff" stroke="#63b8ff" points="466.49,-72.99 475.58,-67.56 465.09,-66.13 466.49,-72.99"/>
</a>
</g>
</g>
<!-- Node29 -->
<g id="Node000029" class="node">
<title>Node29</title>
<g id="a_Node000029"><a xlink:href="classspades_1_1_s_p_a_d_e_s.html#a881660503379f75fe58ac988149a4b63" target="_top" xlink:title="Read random number generator seed info.">
<polygon fill="white" stroke="#666666" points="584.5,-30 462.5,-30 462.5,0 584.5,0 584.5,-30"/>
<text text-anchor="start" x="470.5" y="-18" font-family="Helvetica,sans-Serif" font-size="10.00">spades::SPADES::read</text>
<text text-anchor="middle" x="523.5" y="-7" font-family="Helvetica,sans-Serif" font-size="10.00">_rng_file</text>
</a>
</g>
</g>
<!-- Node27&#45;&gt;Node29 -->
<g id="edge33_Node000027_Node000029" class="edge">
<title>Node27&#45;&gt;Node29</title>
<g id="a_edge33_Node000027_Node000029"><a xlink:title=" ">
<path fill="none" stroke="#63b8ff" d="M392.59,-80.97C400,-78.12 407.33,-74.8 414,-71 432.59,-60.39 431.46,-49.7 450,-39 453.02,-37.26 456.18,-35.62 459.43,-34.08"/>
<polygon fill="#63b8ff" stroke="#63b8ff" points="460.98,-37.23 468.75,-30.02 458.19,-30.81 460.98,-37.23"/>
</a>
</g>
</g>
<!-- Node30 -->
<g id="Node000030" class="node">
<title>Node30</title>
<g id="a_Node000030"><a xlink:href="namespacespades.html#ae5dca7276a49079908e771b6fcff00ba" target="_top" xlink:title="Read and broadcast file to all ranks.">
<polygon fill="white" stroke="#666666" points="761.5,-24.5 662.5,-24.5 662.5,-5.5 761.5,-5.5 761.5,-24.5"/>
<text text-anchor="middle" x="712" y="-12.5" font-family="Helvetica,sans-Serif" font-size="10.00">spades::read_file</text>
</a>
</g>
</g>
<!-- Node29&#45;&gt;Node30 -->
<g id="edge34_Node000029_Node000030" class="edge">
<title>Node29&#45;&gt;Node30</title>
<g id="a_edge34_Node000029_Node000030"><a xlink:title=" ">
<path fill="none" stroke="#63b8ff" d="M584.54,-15C606.23,-15 630.68,-15 652.27,-15"/>
<polygon fill="#63b8ff" stroke="#63b8ff" points="652.28,-18.5 662.28,-15 652.28,-11.5 652.28,-18.5"/>
</a>
</g>
</g>
</g>
</svg>
