<?xml version="1.0" encoding="UTF-8" standalone="no"?>
<!DOCTYPE svg PUBLIC "-//W3C//DTD SVG 1.1//EN"
 "http://www.w3.org/Graphics/SVG/1.1/DTD/svg11.dtd">
<!-- Generated by graphviz version 2.43.0 (0)
 -->
<!-- Title: main Pages: 1 -->
<svg width="219pt" height="138pt"
 viewBox="0.00 0.00 219.00 138.00" xmlns="http://www.w3.org/2000/svg" xmlns:xlink="http://www.w3.org/1999/xlink">
<g id="graph0" class="graph" transform="scale(1 1) rotate(0) translate(4 134)">
<title>main</title>
<!-- Node1 -->
<g id="Node000001" class="node">
<title>Node1</title>
<g id="a_Node000001"><a xlink:title="Main function.">
<polygon fill="#999999" stroke="#666666" points="41,-74 0,-74 0,-55 41,-55 41,-74"/>
<text text-anchor="middle" x="20.5" y="-62" font-family="Helvetica,sans-Serif" font-size="10.00">main</text>
</a>
</g>
</g>
<!-- Node2 -->
<g id="Node000002" class="node">
<title>Node2</title>
<g id="a_Node000002"><a xlink:href="_run_time_8_h.html#af2bb7afd54284a9fe78cca2c4d016c44" target="_top" xlink:title=" ">
<polygon fill="white" stroke="#666666" points="208,-130 80,-130 80,-111 208,-111 208,-130"/>
<text text-anchor="middle" x="144" y="-118" font-family="Helvetica,sans-Serif" font-size="10.00">create_and_run_model</text>
</a>
</g>
</g>
<!-- Node1&#45;&gt;Node2 -->
<g id="edge1_Node000001_Node000002" class="edge">
<title>Node1&#45;&gt;Node2</title>
<g id="a_edge1_Node000001_Node000002"><a xlink:title=" ">
<path fill="none" stroke="#63b8ff" d="M33.14,-74.19C43.91,-82.73 60.68,-94.95 77,-102.5 81.11,-104.4 85.47,-106.14 89.9,-107.71"/>
<polygon fill="#63b8ff" stroke="#63b8ff" points="89.06,-111.12 99.66,-110.91 91.24,-104.47 89.06,-111.12"/>
</a>
</g>
</g>
<!-- Node3 -->
<g id="Node000003" class="node">
<title>Node3</title>
<g id="a_Node000003"><a xlink:href="namespacespades_1_1io.html#a284753285fda41192ced6c0946c44b41" target="_top" xlink:title="Print SPADES banner.">
<polygon fill="white" stroke="#666666" points="211,-93 77,-93 77,-74 211,-74 211,-93"/>
<text text-anchor="middle" x="144" y="-81" font-family="Helvetica,sans-Serif" font-size="10.00">spades::io::print_banner</text>
</a>
</g>
</g>
<!-- Node1&#45;&gt;Node3 -->
<g id="edge2_Node000001_Node000003" class="edge">
<title>Node1&#45;&gt;Node3</title>
<g id="a_edge2_Node000001_Node000003"><a xlink:title=" ">
<path fill="none" stroke="#63b8ff" d="M41.02,-67.55C49.74,-68.92 60.6,-70.61 71.95,-72.39"/>
<polygon fill="#63b8ff" stroke="#63b8ff" points="71.6,-75.88 82.02,-73.96 72.68,-68.96 71.6,-75.88"/>
</a>
</g>
</g>
<!-- Node4 -->
<g id="Node000004" class="node">
<title>Node4</title>
<g id="a_Node000004"><a xlink:href="namespacespades_1_1io.html#acdff4cd3e16f737fbc1f1b7aa970cf8f" target="_top" xlink:title="Print SPADES error.">
<polygon fill="white" stroke="#666666" points="205.5,-56 82.5,-56 82.5,-37 205.5,-37 205.5,-56"/>
<text text-anchor="middle" x="144" y="-44" font-family="Helvetica,sans-Serif" font-size="10.00">spades::io::print_error</text>
</a>
</g>
</g>
<!-- Node1&#45;&gt;Node4 -->
<g id="edge3_Node000001_Node000004" class="edge">
<title>Node1&#45;&gt;Node4</title>
<g id="a_edge3_Node000001_Node000004"><a xlink:title=" ">
<path fill="none" stroke="#63b8ff" d="M41.02,-61.61C49.79,-60.31 60.73,-58.69 72.16,-57"/>
<polygon fill="#63b8ff" stroke="#63b8ff" points="72.9,-60.42 82.28,-55.5 71.88,-53.5 72.9,-60.42"/>
</a>
</g>
</g>
<!-- Node5 -->
<g id="Node000005" class="node">
<title>Node5</title>
<g id="a_Node000005"><a xlink:href="namespacespades_1_1io.html#accd9f8c4095dbe334cc9ce9da8a0ea14" target="_top" xlink:title="Print SPADES usage.">
<polygon fill="white" stroke="#666666" points="208.5,-19 79.5,-19 79.5,0 208.5,0 208.5,-19"/>
<text text-anchor="middle" x="144" y="-7" font-family="Helvetica,sans-Serif" font-size="10.00">spades::io::print_usage</text>
</a>
</g>
</g>
<!-- Node1&#45;&gt;Node5 -->
<g id="edge4_Node000001_Node000005" class="edge">
<title>Node1&#45;&gt;Node5</title>
<g id="a_edge4_Node000001_Node000005"><a xlink:title=" ">
<path fill="none" stroke="#63b8ff" d="M34.1,-54.77C44.97,-46.78 61.33,-35.65 77,-28.5 82.02,-26.21 87.38,-24.13 92.79,-22.26"/>
<polygon fill="#63b8ff" stroke="#63b8ff" points="94.09,-25.51 102.53,-19.1 91.94,-18.85 94.09,-25.51"/>
</a>
</g>
</g>
</g>
</svg>
