<?xml version="1.0" encoding="UTF-8" standalone="no"?>
<!DOCTYPE svg PUBLIC "-//W3C//DTD SVG 1.1//EN"
 "http://www.w3.org/Graphics/SVG/1.1/DTD/svg11.dtd">
<!-- Generated by graphviz version 2.43.0 (0)
 -->
<!-- Title: spades::random_exponential Pages: 1 -->
<svg width="352pt" height="86pt"
 viewBox="0.00 0.00 352.00 86.00" xmlns="http://www.w3.org/2000/svg" xmlns:xlink="http://www.w3.org/1999/xlink">
<g id="graph0" class="graph" transform="scale(1 1) rotate(0) translate(4 82)">
<title>spades::random_exponential</title>
<!-- Node1 -->
<g id="Node000001" class="node">
<title>Node1</title>
<g id="a_Node000001"><a xlink:title="Exponential distribution.">
<polygon fill="#999999" stroke="#666666" points="344,-48.5 186,-48.5 186,-29.5 344,-29.5 344,-48.5"/>
<text text-anchor="middle" x="265" y="-36.5" font-family="Helvetica,sans-Serif" font-size="10.00">spades::random_exponential</text>
</a>
</g>
</g>
<!-- Node2 -->
<g id="Node000002" class="node">
<title>Node2</title>
<g id="a_Node000002"><a xlink:href="structspades_1_1models_1_1_phold_1_1_init_message_op.html#a2d3c8a520eab45be0e5504063915143f" target="_top" xlink:title="Callable operator to initialize an message.">
<polygon fill="white" stroke="#666666" points="150,-78 0,-78 0,-48 150,-48 150,-78"/>
<text text-anchor="start" x="8" y="-66" font-family="Helvetica,sans-Serif" font-size="10.00">spades::models::Phold</text>
<text text-anchor="middle" x="75" y="-55" font-family="Helvetica,sans-Serif" font-size="10.00">::InitMessageOp::operator()</text>
</a>
</g>
</g>
<!-- Node1&#45;&gt;Node2 -->
<g id="edge1_Node000001_Node000002" class="edge">
<title>Node1&#45;&gt;Node2</title>
<g id="a_edge1_Node000001_Node000002"><a xlink:title=" ">
<path fill="none" stroke="#63b8ff" d="M179.35,-49.81C169.62,-51.05 159.75,-52.31 150.18,-53.53"/>
<polygon fill="#63b8ff" stroke="#63b8ff" points="179.95,-53.26 189.43,-48.52 179.06,-46.31 179.95,-53.26"/>
</a>
</g>
</g>
<!-- Node3 -->
<g id="Node000003" class="node">
<title>Node3</title>
<g id="a_Node000003"><a xlink:href="structspades_1_1models_1_1_phold_1_1_process_op.html#a306deef5ddd30e6d64720af3c12101e4" target="_top" xlink:title="Callable operator to process a message.">
<polygon fill="white" stroke="#666666" points="139,-30 11,-30 11,0 139,0 139,-30"/>
<text text-anchor="start" x="19" y="-18" font-family="Helvetica,sans-Serif" font-size="10.00">spades::models::Phold</text>
<text text-anchor="middle" x="75" y="-7" font-family="Helvetica,sans-Serif" font-size="10.00">::ProcessOp::operator()</text>
</a>
</g>
</g>
<!-- Node1&#45;&gt;Node3 -->
<g id="edge2_Node000001_Node000003" class="edge">
<title>Node1&#45;&gt;Node3</title>
<g id="a_edge2_Node000001_Node000003"><a xlink:title=" ">
<path fill="none" stroke="#63b8ff" d="M179.22,-28.18C165.78,-26.46 152.1,-24.71 139.26,-23.08"/>
<polygon fill="#63b8ff" stroke="#63b8ff" points="179.06,-31.69 189.43,-29.48 179.95,-24.74 179.06,-31.69"/>
</a>
</g>
</g>
</g>
</svg>
