<?xml version="1.0" encoding="UTF-8" standalone="no"?>
<!DOCTYPE svg PUBLIC "-//W3C//DTD SVG 1.1//EN"
 "http://www.w3.org/Graphics/SVG/1.1/DTD/svg11.dtd">
<!-- Generated by graphviz version 2.43.0 (0)
 -->
<!-- Title: spades::Factory::create Pages: 1 -->
<svg width="601pt" height="82pt"
 viewBox="0.00 0.00 601.00 82.00" xmlns="http://www.w3.org/2000/svg" xmlns:xlink="http://www.w3.org/1999/xlink">
<g id="graph0" class="graph" transform="scale(1 1) rotate(0) translate(4 78)">
<title>spades::Factory::create</title>
<!-- Node1 -->
<g id="Node000001" class="node">
<title>Node1</title>
<g id="a_Node000001"><a xlink:title=" ">
<polygon fill="#999999" stroke="#666666" points="128,-19 0,-19 0,0 128,0 128,-19"/>
<text text-anchor="middle" x="64" y="-7" font-family="Helvetica,sans-Serif" font-size="10.00">spades::Factory::create</text>
</a>
</g>
</g>
<!-- Node2 -->
<g id="Node000002" class="node">
<title>Node2</title>
<g id="a_Node000002"><a xlink:href="structspades_1_1_factory.html#a6f3ee40b5f44803ba68da4ef9ab3f602" target="_top" xlink:title=" ">
<polygon fill="white" stroke="#666666" points="279,-46.5 164,-46.5 164,-16.5 279,-16.5 279,-46.5"/>
<text text-anchor="start" x="172" y="-34.5" font-family="Helvetica,sans-Serif" font-size="10.00">spades::Factory::key</text>
<text text-anchor="middle" x="221.5" y="-23.5" font-family="Helvetica,sans-Serif" font-size="10.00">_exists_or_error</text>
</a>
</g>
</g>
<!-- Node1&#45;&gt;Node2 -->
<g id="edge1_Node000001_Node000002" class="edge">
<title>Node1&#45;&gt;Node2</title>
<g id="a_edge1_Node000001_Node000002"><a xlink:title=" ">
<path fill="none" stroke="#63b8ff" d="M128.25,-18.45C136.62,-19.63 145.22,-20.85 153.65,-22.04"/>
<polygon fill="#63b8ff" stroke="#63b8ff" points="153.42,-25.54 163.81,-23.48 154.4,-18.61 153.42,-25.54"/>
</a>
</g>
</g>
<!-- Node4 -->
<g id="Node000004" class="node">
<title>Node4</title>
<g id="a_Node000004"><a xlink:href="structspades_1_1_factory.html#ae6b81c2816190726e6e57c835145ad17" target="_top" xlink:title="Lookup table containing all registered instances.">
<polygon fill="white" stroke="#666666" points="593,-36 471,-36 471,-17 593,-17 593,-36"/>
<text text-anchor="middle" x="532" y="-24" font-family="Helvetica,sans-Serif" font-size="10.00">spades::Factory::table</text>
</a>
</g>
</g>
<!-- Node1&#45;&gt;Node4 -->
<g id="edge5_Node000001_Node000004" class="edge">
<title>Node1&#45;&gt;Node4</title>
<g id="a_edge5_Node000001_Node000004"><a xlink:title=" ">
<path fill="none" stroke="#63b8ff" d="M128.11,-8.03C140.03,-7.81 152.4,-7.62 164,-7.5 215.11,-6.98 227.93,-5.58 279,-7.5 340.53,-9.82 410.32,-15.3 460.83,-19.79"/>
<polygon fill="#63b8ff" stroke="#63b8ff" points="460.72,-23.29 470.99,-20.7 461.34,-16.32 460.72,-23.29"/>
</a>
</g>
</g>
<!-- Node3 -->
<g id="Node000003" class="node">
<title>Node3</title>
<g id="a_Node000003"><a xlink:href="structspades_1_1_factory.html#a45a688718580d050933ca3be4f591e42" target="_top" xlink:title=" ">
<polygon fill="white" stroke="#666666" points="435,-74 315,-74 315,-55 435,-55 435,-74"/>
<text text-anchor="middle" x="375" y="-62" font-family="Helvetica,sans-Serif" font-size="10.00">spades::Factory::print</text>
</a>
</g>
</g>
<!-- Node2&#45;&gt;Node3 -->
<g id="edge2_Node000002_Node000003" class="edge">
<title>Node2&#45;&gt;Node3</title>
<g id="a_edge2_Node000002_Node000003"><a xlink:title=" ">
<path fill="none" stroke="#63b8ff" d="M279.34,-43.88C292.73,-46.8 306.95,-49.89 320.19,-52.78"/>
<polygon fill="#63b8ff" stroke="#63b8ff" points="319.58,-56.23 330.1,-54.94 321.07,-49.39 319.58,-56.23"/>
</a>
</g>
</g>
<!-- Node2&#45;&gt;Node4 -->
<g id="edge4_Node000002_Node000004" class="edge">
<title>Node2&#45;&gt;Node4</title>
<g id="a_edge4_Node000002_Node000004"><a xlink:title=" ">
<path fill="none" stroke="#63b8ff" d="M279.08,-30.58C330.26,-29.75 405.79,-28.53 460.8,-27.64"/>
<polygon fill="#63b8ff" stroke="#63b8ff" points="460.88,-31.14 470.82,-27.48 460.77,-24.14 460.88,-31.14"/>
</a>
</g>
</g>
<!-- Node3&#45;&gt;Node4 -->
<g id="edge3_Node000003_Node000004" class="edge">
<title>Node3&#45;&gt;Node4</title>
<g id="a_edge3_Node000003_Node000004"><a xlink:title=" ">
<path fill="none" stroke="#63b8ff" d="M415.11,-54.91C435.47,-49.92 460.57,-43.77 482.19,-38.47"/>
<polygon fill="#63b8ff" stroke="#63b8ff" points="483.29,-41.8 492.17,-36.02 481.62,-35 483.29,-41.8"/>
</a>
</g>
</g>
</g>
</svg>
