<?xml version="1.0" encoding="UTF-8" standalone="no"?>
<!DOCTYPE svg PUBLIC "-//W3C//DTD SVG 1.1//EN"
 "http://www.w3.org/Graphics/SVG/1.1/DTD/svg11.dtd">
<!-- Generated by graphviz version 2.43.0 (0)
 -->
<!-- Title: spades::Factory::table Pages: 1 -->
<svg width="619pt" height="200pt"
 viewBox="0.00 0.00 619.00 200.00" xmlns="http://www.w3.org/2000/svg" xmlns:xlink="http://www.w3.org/1999/xlink">
<g id="graph0" class="graph" transform="scale(1 1) rotate(0) translate(4 196)">
<title>spades::Factory::table</title>
<!-- Node1 -->
<g id="Node000001" class="node">
<title>Node1</title>
<g id="a_Node000001"><a xlink:title="Lookup table containing all registered instances.">
<polygon fill="#999999" stroke="#666666" points="611,-105.5 489,-105.5 489,-86.5 611,-86.5 611,-105.5"/>
<text text-anchor="middle" x="550" y="-93.5" font-family="Helvetica,sans-Serif" font-size="10.00">spades::Factory::table</text>
</a>
</g>
</g>
<!-- Node2 -->
<g id="Node000002" class="node">
<title>Node2</title>
<g id="a_Node000002"><a xlink:href="structspades_1_1_factory_1_1_register.html#a5854eaa6013e82d41bc3a150c65cb7dc" target="_top" xlink:title=" ">
<polygon fill="white" stroke="#666666" points="453,-192 315,-192 315,-162 453,-162 453,-192"/>
<text text-anchor="start" x="323" y="-180" font-family="Helvetica,sans-Serif" font-size="10.00">spades::Factory::Register</text>
<text text-anchor="middle" x="384" y="-169" font-family="Helvetica,sans-Serif" font-size="10.00">::add_sub_type</text>
</a>
</g>
</g>
<!-- Node1&#45;&gt;Node2 -->
<g id="edge1_Node000001_Node000002" class="edge">
<title>Node1&#45;&gt;Node2</title>
<g id="a_edge1_Node000001_Node000002"><a xlink:title=" ">
<path fill="none" stroke="#63b8ff" d="M523.53,-110.64C504.37,-121.44 477.35,-136.24 453,-148 443.06,-152.8 432.12,-157.65 421.98,-161.97"/>
<polygon fill="#63b8ff" stroke="#63b8ff" points="525.28,-113.67 532.25,-105.69 521.83,-107.58 525.28,-113.67"/>
</a>
</g>
</g>
<!-- Node3 -->
<g id="Node000003" class="node">
<title>Node3</title>
<g id="a_Node000003"><a xlink:href="structspades_1_1_factory.html#a8eca7f938c38bff2994cf7479d1949b8" target="_top" xlink:title=" ">
<polygon fill="white" stroke="#666666" points="128,-121.5 0,-121.5 0,-102.5 128,-102.5 128,-121.5"/>
<text text-anchor="middle" x="64" y="-109.5" font-family="Helvetica,sans-Serif" font-size="10.00">spades::Factory::create</text>
</a>
</g>
</g>
<!-- Node1&#45;&gt;Node3 -->
<g id="edge2_Node000001_Node000003" class="edge">
<title>Node1&#45;&gt;Node3</title>
<g id="a_edge2_Node000001_Node000003"><a xlink:title=" ">
<path fill="none" stroke="#63b8ff" d="M478.79,-105.47C470.12,-106.43 461.36,-107.31 453,-108 324.95,-118.56 292.47,-116.95 164,-115 152.39,-114.82 140.03,-114.53 128.1,-114.2"/>
<polygon fill="#63b8ff" stroke="#63b8ff" points="479.38,-108.92 488.91,-104.3 478.57,-101.97 479.38,-108.92"/>
</a>
</g>
</g>
<!-- Node4 -->
<g id="Node000004" class="node">
<title>Node4</title>
<g id="a_Node000004"><a xlink:href="structspades_1_1_factory.html#a6f3ee40b5f44803ba68da4ef9ab3f602" target="_top" xlink:title=" ">
<polygon fill="white" stroke="#666666" points="279,-106 164,-106 164,-76 279,-76 279,-106"/>
<text text-anchor="start" x="172" y="-94" font-family="Helvetica,sans-Serif" font-size="10.00">spades::Factory::key</text>
<text text-anchor="middle" x="221.5" y="-83" font-family="Helvetica,sans-Serif" font-size="10.00">_exists_or_error</text>
</a>
</g>
</g>
<!-- Node1&#45;&gt;Node4 -->
<g id="edge3_Node000001_Node000004" class="edge">
<title>Node1&#45;&gt;Node4</title>
<g id="a_edge3_Node000001_Node000004"><a xlink:title=" ">
<path fill="none" stroke="#63b8ff" d="M478.64,-94.92C418.98,-94.01 334.51,-92.72 279.14,-91.87"/>
<polygon fill="#63b8ff" stroke="#63b8ff" points="478.68,-98.42 488.73,-95.08 478.79,-91.42 478.68,-98.42"/>
</a>
</g>
</g>
<!-- Node5 -->
<g id="Node000005" class="node">
<title>Node5</title>
<g id="a_Node000005"><a xlink:href="structspades_1_1_factory.html#a45a688718580d050933ca3be4f591e42" target="_top" xlink:title=" ">
<polygon fill="white" stroke="#666666" points="444,-67.5 324,-67.5 324,-48.5 444,-48.5 444,-67.5"/>
<text text-anchor="middle" x="384" y="-55.5" font-family="Helvetica,sans-Serif" font-size="10.00">spades::Factory::print</text>
</a>
</g>
</g>
<!-- Node1&#45;&gt;Node5 -->
<g id="edge5_Node000001_Node000005" class="edge">
<title>Node1&#45;&gt;Node5</title>
<g id="a_edge5_Node000001_Node000005"><a xlink:title=" ">
<path fill="none" stroke="#63b8ff" d="M497.66,-84.1C474.61,-78.76 447.78,-72.55 426.09,-67.52"/>
<polygon fill="#63b8ff" stroke="#63b8ff" points="497.08,-87.56 507.62,-86.41 498.66,-80.74 497.08,-87.56"/>
</a>
</g>
</g>
<!-- Node6 -->
<g id="Node000006" class="node">
<title>Node6</title>
<g id="a_Node000006"><a xlink:href="structspades_1_1_factory_1_1_register.html#a53e34057f510077cf894ea07d0ba0a46" target="_top" xlink:title=" ">
<polygon fill="white" stroke="#666666" points="453,-30 315,-30 315,0 453,0 453,-30"/>
<text text-anchor="start" x="323" y="-18" font-family="Helvetica,sans-Serif" font-size="10.00">spades::Factory::Register</text>
<text text-anchor="middle" x="384" y="-7" font-family="Helvetica,sans-Serif" font-size="10.00">::~Register</text>
</a>
</g>
</g>
<!-- Node1&#45;&gt;Node6 -->
<g id="edge7_Node000001_Node000006" class="edge">
<title>Node1&#45;&gt;Node6</title>
<g id="a_edge7_Node000001_Node000006"><a xlink:title=" ">
<path fill="none" stroke="#63b8ff" d="M526.29,-80.78C507.26,-68.46 479.1,-51.21 453,-39 446.2,-35.82 438.85,-32.81 431.58,-30.07"/>
<polygon fill="#63b8ff" stroke="#63b8ff" points="524.57,-83.84 534.85,-86.39 528.4,-77.98 524.57,-83.84"/>
</a>
</g>
</g>
<!-- Node4&#45;&gt;Node3 -->
<g id="edge4_Node000004_Node000003" class="edge">
<title>Node4&#45;&gt;Node3</title>
<g id="a_edge4_Node000004_Node000003"><a xlink:title=" ">
<path fill="none" stroke="#63b8ff" d="M153.97,-99.99C145.39,-101.14 136.63,-102.33 128.11,-103.48"/>
<polygon fill="#63b8ff" stroke="#63b8ff" points="154.48,-103.45 163.92,-98.64 153.54,-96.51 154.48,-103.45"/>
</a>
</g>
</g>
<!-- Node5&#45;&gt;Node4 -->
<g id="edge6_Node000005_Node000004" class="edge">
<title>Node5&#45;&gt;Node4</title>
<g id="a_edge6_Node000005_Node000004"><a xlink:title=" ">
<path fill="none" stroke="#63b8ff" d="M326.65,-69.59C311.23,-72.76 294.51,-76.19 279.07,-79.37"/>
<polygon fill="#63b8ff" stroke="#63b8ff" points="327.49,-72.99 336.58,-67.54 326.08,-66.13 327.49,-72.99"/>
</a>
</g>
</g>
</g>
</svg>
